G04*
G04 #@! TF.GenerationSoftware,Altium Limited,Altium Designer,18.1.9 (240)*
G04*
G04 Layer_Color=3326705*
%FSAX25Y25*%
%MOIN*%
G70*
G01*
G75*
%ADD16C,0.01000*%
%ADD22C,0.00800*%
%ADD200C,0.01500*%
%ADD201C,0.00100*%
G54D16*
X0541320Y0543786D02*
Y0537788D01*
X0545319D01*
X0548318Y0541787D02*
X0550317D01*
X0551317Y0540787D01*
Y0537788D01*
X0548318D01*
X0547318Y0538788D01*
X0548318Y0539787D01*
X0551317D01*
X0553316Y0541787D02*
Y0538788D01*
X0554316Y0537788D01*
X0557315D01*
Y0536788D01*
X0556315Y0535788D01*
X0555315D01*
X0557315Y0537788D02*
Y0541787D01*
X0562313Y0537788D02*
X0560314D01*
X0559314Y0538788D01*
Y0540787D01*
X0560314Y0541787D01*
X0562313D01*
X0563313Y0540787D01*
Y0539787D01*
X0559314D01*
X0565312Y0541787D02*
Y0537788D01*
Y0539787D01*
X0566312Y0540787D01*
X0567312Y0541787D01*
X0568311D01*
X0541320Y0405788D02*
X0543319D01*
X0542320D01*
Y0411786D01*
X0541320Y0410786D01*
X0546318Y0405788D02*
X0548318D01*
X0547318D01*
Y0411786D01*
X0546318Y0410786D01*
X0541320Y0417788D02*
X0543319D01*
X0542320D01*
Y0423786D01*
X0541320Y0422786D01*
X0546318D02*
X0547318Y0423786D01*
X0549317D01*
X0550317Y0422786D01*
Y0418788D01*
X0549317Y0417788D01*
X0547318D01*
X0546318Y0418788D01*
Y0422786D01*
X0541320Y0430788D02*
X0542320Y0429788D01*
X0544319D01*
X0545319Y0430788D01*
Y0434786D01*
X0544319Y0435786D01*
X0542320D01*
X0541320Y0434786D01*
Y0433787D01*
X0542320Y0432787D01*
X0545319D01*
X0541320Y0446786D02*
X0542320Y0447786D01*
X0544319D01*
X0545319Y0446786D01*
Y0445787D01*
X0544319Y0444787D01*
X0545319Y0443787D01*
Y0442788D01*
X0544319Y0441788D01*
X0542320D01*
X0541320Y0442788D01*
Y0443787D01*
X0542320Y0444787D01*
X0541320Y0445787D01*
Y0446786D01*
X0542320Y0444787D02*
X0544319D01*
X0541320Y0459786D02*
X0545319D01*
Y0458786D01*
X0541320Y0454788D01*
Y0453788D01*
X0545319Y0471786D02*
X0543319Y0470786D01*
X0541320Y0468787D01*
Y0466788D01*
X0542320Y0465788D01*
X0544319D01*
X0545319Y0466788D01*
Y0467787D01*
X0544319Y0468787D01*
X0541320D01*
X0545319Y0483786D02*
X0541320D01*
Y0480787D01*
X0543319Y0481787D01*
X0544319D01*
X0545319Y0480787D01*
Y0478788D01*
X0544319Y0477788D01*
X0542320D01*
X0541320Y0478788D01*
X0544319Y0489788D02*
Y0495786D01*
X0541320Y0492787D01*
X0545319D01*
X0541320Y0506786D02*
X0542320Y0507786D01*
X0544319D01*
X0545319Y0506786D01*
Y0505787D01*
X0544319Y0504787D01*
X0543319D01*
X0544319D01*
X0545319Y0503787D01*
Y0502788D01*
X0544319Y0501788D01*
X0542320D01*
X0541320Y0502788D01*
X0545319Y0513788D02*
X0541320D01*
X0545319Y0517787D01*
Y0518786D01*
X0544319Y0519786D01*
X0542320D01*
X0541320Y0518786D01*
Y0525788D02*
X0543319D01*
X0542320D01*
Y0531786D01*
X0541320Y0530786D01*
X0582311Y0537788D02*
Y0543786D01*
X0586310Y0537788D01*
Y0543786D01*
X0589309Y0541787D02*
X0591308D01*
X0592308Y0540787D01*
Y0537788D01*
X0589309D01*
X0588309Y0538788D01*
X0589309Y0539787D01*
X0592308D01*
X0594307Y0537788D02*
Y0541787D01*
X0595307D01*
X0596307Y0540787D01*
Y0537788D01*
Y0540787D01*
X0597306Y0541787D01*
X0598306Y0540787D01*
Y0537788D01*
X0603304D02*
X0601305D01*
X0600305Y0538788D01*
Y0540787D01*
X0601305Y0541787D01*
X0603304D01*
X0604304Y0540787D01*
Y0539787D01*
X0600305D01*
X0582311Y0411786D02*
Y0405788D01*
X0585310D01*
X0586310Y0406788D01*
Y0407787D01*
X0585310Y0408787D01*
X0582311D01*
X0585310D01*
X0586310Y0409787D01*
Y0410786D01*
X0585310Y0411786D01*
X0582311D01*
X0589309Y0405788D02*
X0591308D01*
X0592308Y0406788D01*
Y0408787D01*
X0591308Y0409787D01*
X0589309D01*
X0588309Y0408787D01*
Y0406788D01*
X0589309Y0405788D01*
X0595307Y0410786D02*
Y0409787D01*
X0594307D01*
X0596307D01*
X0595307D01*
Y0406788D01*
X0596307Y0405788D01*
X0600305Y0410786D02*
Y0409787D01*
X0599306D01*
X0601305D01*
X0600305D01*
Y0406788D01*
X0601305Y0405788D01*
X0605304D02*
X0607303D01*
X0608303Y0406788D01*
Y0408787D01*
X0607303Y0409787D01*
X0605304D01*
X0604304Y0408787D01*
Y0406788D01*
X0605304Y0405788D01*
X0610302D02*
Y0409787D01*
X0611302D01*
X0612301Y0408787D01*
Y0405788D01*
Y0408787D01*
X0613301Y0409787D01*
X0614301Y0408787D01*
Y0405788D01*
X0625297Y0411786D02*
X0623298D01*
X0622298Y0410786D01*
Y0406788D01*
X0623298Y0405788D01*
X0625297D01*
X0626297Y0406788D01*
Y0410786D01*
X0625297Y0411786D01*
X0628296Y0409787D02*
X0630296Y0405788D01*
X0632295Y0409787D01*
X0637293Y0405788D02*
X0635294D01*
X0634294Y0406788D01*
Y0408787D01*
X0635294Y0409787D01*
X0637293D01*
X0638293Y0408787D01*
Y0407787D01*
X0634294D01*
X0640293Y0409787D02*
Y0405788D01*
Y0407787D01*
X0641292Y0408787D01*
X0642292Y0409787D01*
X0643292D01*
X0646290Y0405788D02*
X0648290D01*
X0647290D01*
Y0411786D01*
X0646290D01*
X0652289Y0409787D02*
X0654288D01*
X0655288Y0408787D01*
Y0405788D01*
X0652289D01*
X0651289Y0406788D01*
X0652289Y0407787D01*
X0655288D01*
X0657287Y0409787D02*
Y0406788D01*
X0658287Y0405788D01*
X0661286D01*
Y0404788D01*
X0660286Y0403789D01*
X0659286D01*
X0661286Y0405788D02*
Y0409787D01*
X0582311Y0423786D02*
Y0417788D01*
X0585310D01*
X0586310Y0418788D01*
Y0419787D01*
X0585310Y0420787D01*
X0582311D01*
X0585310D01*
X0586310Y0421787D01*
Y0422786D01*
X0585310Y0423786D01*
X0582311D01*
X0589309Y0417788D02*
X0591308D01*
X0592308Y0418788D01*
Y0420787D01*
X0591308Y0421787D01*
X0589309D01*
X0588309Y0420787D01*
Y0418788D01*
X0589309Y0417788D01*
X0595307Y0422786D02*
Y0421787D01*
X0594307D01*
X0596307D01*
X0595307D01*
Y0418788D01*
X0596307Y0417788D01*
X0600305Y0422786D02*
Y0421787D01*
X0599306D01*
X0601305D01*
X0600305D01*
Y0418788D01*
X0601305Y0417788D01*
X0605304D02*
X0607303D01*
X0608303Y0418788D01*
Y0420787D01*
X0607303Y0421787D01*
X0605304D01*
X0604304Y0420787D01*
Y0418788D01*
X0605304Y0417788D01*
X0610302D02*
Y0421787D01*
X0611302D01*
X0612301Y0420787D01*
Y0417788D01*
Y0420787D01*
X0613301Y0421787D01*
X0614301Y0420787D01*
Y0417788D01*
X0626297Y0422786D02*
X0625297Y0423786D01*
X0623298D01*
X0622298Y0422786D01*
Y0421787D01*
X0623298Y0420787D01*
X0625297D01*
X0626297Y0419787D01*
Y0418788D01*
X0625297Y0417788D01*
X0623298D01*
X0622298Y0418788D01*
X0629296Y0417788D02*
X0631295D01*
X0632295Y0418788D01*
Y0420787D01*
X0631295Y0421787D01*
X0629296D01*
X0628296Y0420787D01*
Y0418788D01*
X0629296Y0417788D01*
X0634294D02*
X0636294D01*
X0635294D01*
Y0423786D01*
X0634294D01*
X0643292D02*
Y0417788D01*
X0640293D01*
X0639293Y0418788D01*
Y0420787D01*
X0640293Y0421787D01*
X0643292D01*
X0648290Y0417788D02*
X0646290D01*
X0645291Y0418788D01*
Y0420787D01*
X0646290Y0421787D01*
X0648290D01*
X0649290Y0420787D01*
Y0419787D01*
X0645291D01*
X0651289Y0421787D02*
Y0417788D01*
Y0419787D01*
X0652289Y0420787D01*
X0653288Y0421787D01*
X0654288D01*
X0582311Y0435786D02*
Y0429788D01*
X0585310D01*
X0586310Y0430788D01*
Y0431787D01*
X0585310Y0432787D01*
X0582311D01*
X0585310D01*
X0586310Y0433787D01*
Y0434786D01*
X0585310Y0435786D01*
X0582311D01*
X0589309Y0429788D02*
X0591308D01*
X0592308Y0430788D01*
Y0432787D01*
X0591308Y0433787D01*
X0589309D01*
X0588309Y0432787D01*
Y0430788D01*
X0589309Y0429788D01*
X0595307Y0434786D02*
Y0433787D01*
X0594307D01*
X0596307D01*
X0595307D01*
Y0430788D01*
X0596307Y0429788D01*
X0600305Y0434786D02*
Y0433787D01*
X0599306D01*
X0601305D01*
X0600305D01*
Y0430788D01*
X0601305Y0429788D01*
X0605304D02*
X0607303D01*
X0608303Y0430788D01*
Y0432787D01*
X0607303Y0433787D01*
X0605304D01*
X0604304Y0432787D01*
Y0430788D01*
X0605304Y0429788D01*
X0610302D02*
Y0433787D01*
X0611302D01*
X0612301Y0432787D01*
Y0429788D01*
Y0432787D01*
X0613301Y0433787D01*
X0614301Y0432787D01*
Y0429788D01*
X0622298Y0435786D02*
Y0429788D01*
X0626297D01*
X0629296Y0433787D02*
X0631295D01*
X0632295Y0432787D01*
Y0429788D01*
X0629296D01*
X0628296Y0430788D01*
X0629296Y0431787D01*
X0632295D01*
X0634294Y0433787D02*
Y0430788D01*
X0635294Y0429788D01*
X0638293D01*
Y0428788D01*
X0637293Y0427788D01*
X0636294D01*
X0638293Y0429788D02*
Y0433787D01*
X0643292Y0429788D02*
X0641292D01*
X0640293Y0430788D01*
Y0432787D01*
X0641292Y0433787D01*
X0643292D01*
X0644291Y0432787D01*
Y0431787D01*
X0640293D01*
X0646290Y0433787D02*
Y0429788D01*
Y0431787D01*
X0647290Y0432787D01*
X0648290Y0433787D01*
X0649290D01*
X0582311Y0447786D02*
Y0441788D01*
X0585310D01*
X0586310Y0442788D01*
Y0446786D01*
X0585310Y0447786D01*
X0582311D01*
X0588309Y0441788D02*
X0590309D01*
X0589309D01*
Y0445787D01*
X0588309D01*
X0596307Y0441788D02*
X0594307D01*
X0593308Y0442788D01*
Y0444787D01*
X0594307Y0445787D01*
X0596307D01*
X0597306Y0444787D01*
Y0443787D01*
X0593308D01*
X0599306Y0441788D02*
X0601305D01*
X0600305D01*
Y0447786D01*
X0599306D01*
X0607303Y0441788D02*
X0605304D01*
X0604304Y0442788D01*
Y0444787D01*
X0605304Y0445787D01*
X0607303D01*
X0608303Y0444787D01*
Y0443787D01*
X0604304D01*
X0614301Y0445787D02*
X0611302D01*
X0610302Y0444787D01*
Y0442788D01*
X0611302Y0441788D01*
X0614301D01*
X0617300Y0446786D02*
Y0445787D01*
X0616300D01*
X0618300D01*
X0617300D01*
Y0442788D01*
X0618300Y0441788D01*
X0621299Y0445787D02*
Y0441788D01*
Y0443787D01*
X0622298Y0444787D01*
X0623298Y0445787D01*
X0624298D01*
X0627297Y0441788D02*
X0629296D01*
X0628296D01*
Y0445787D01*
X0627297D01*
X0636294D02*
X0633295D01*
X0632295Y0444787D01*
Y0442788D01*
X0633295Y0441788D01*
X0636294D01*
X0644291Y0446786D02*
X0645291Y0447786D01*
X0647290D01*
X0648290Y0446786D01*
Y0445787D01*
X0647290Y0444787D01*
X0646290D01*
X0647290D01*
X0648290Y0443787D01*
Y0442788D01*
X0647290Y0441788D01*
X0645291D01*
X0644291Y0442788D01*
X0586310Y0458786D02*
X0585310Y0459786D01*
X0583311D01*
X0582311Y0458786D01*
Y0457787D01*
X0583311Y0456787D01*
X0585310D01*
X0586310Y0455787D01*
Y0454788D01*
X0585310Y0453788D01*
X0583311D01*
X0582311Y0454788D01*
X0588309Y0453788D02*
X0590309D01*
X0589309D01*
Y0457787D01*
X0588309D01*
X0595307Y0451789D02*
X0596307D01*
X0597306Y0452788D01*
Y0457787D01*
X0594307D01*
X0593308Y0456787D01*
Y0454788D01*
X0594307Y0453788D01*
X0597306D01*
X0599306D02*
Y0457787D01*
X0602305D01*
X0603304Y0456787D01*
Y0453788D01*
X0606304Y0457787D02*
X0608303D01*
X0609303Y0456787D01*
Y0453788D01*
X0606304D01*
X0605304Y0454788D01*
X0606304Y0455787D01*
X0609303D01*
X0611302Y0453788D02*
X0613301D01*
X0612302D01*
Y0459786D01*
X0611302D01*
X0622298D02*
Y0453788D01*
X0626297D01*
X0629296Y0457787D02*
X0631295D01*
X0632295Y0456787D01*
Y0453788D01*
X0629296D01*
X0628296Y0454788D01*
X0629296Y0455787D01*
X0632295D01*
X0634294Y0457787D02*
Y0454788D01*
X0635294Y0453788D01*
X0638293D01*
Y0452788D01*
X0637293Y0451789D01*
X0636294D01*
X0638293Y0453788D02*
Y0457787D01*
X0643292Y0453788D02*
X0641292D01*
X0640293Y0454788D01*
Y0456787D01*
X0641292Y0457787D01*
X0643292D01*
X0644291Y0456787D01*
Y0455787D01*
X0640293D01*
X0646290Y0457787D02*
Y0453788D01*
Y0455787D01*
X0647290Y0456787D01*
X0648290Y0457787D01*
X0649290D01*
X0662285Y0453788D02*
X0658287D01*
X0662285Y0457787D01*
Y0458786D01*
X0661286Y0459786D01*
X0659286D01*
X0658287Y0458786D01*
X0582311Y0471786D02*
Y0465788D01*
X0585310D01*
X0586310Y0466788D01*
Y0470786D01*
X0585310Y0471786D01*
X0582311D01*
X0588309Y0465788D02*
X0590309D01*
X0589309D01*
Y0469787D01*
X0588309D01*
X0596307Y0465788D02*
X0594307D01*
X0593308Y0466788D01*
Y0468787D01*
X0594307Y0469787D01*
X0596307D01*
X0597306Y0468787D01*
Y0467787D01*
X0593308D01*
X0599306Y0465788D02*
X0601305D01*
X0600305D01*
Y0471786D01*
X0599306D01*
X0607303Y0465788D02*
X0605304D01*
X0604304Y0466788D01*
Y0468787D01*
X0605304Y0469787D01*
X0607303D01*
X0608303Y0468787D01*
Y0467787D01*
X0604304D01*
X0614301Y0469787D02*
X0611302D01*
X0610302Y0468787D01*
Y0466788D01*
X0611302Y0465788D01*
X0614301D01*
X0617300Y0470786D02*
Y0469787D01*
X0616300D01*
X0618300D01*
X0617300D01*
Y0466788D01*
X0618300Y0465788D01*
X0621299Y0469787D02*
Y0465788D01*
Y0467787D01*
X0622298Y0468787D01*
X0623298Y0469787D01*
X0624298D01*
X0627297Y0465788D02*
X0629296D01*
X0628296D01*
Y0469787D01*
X0627297D01*
X0636294D02*
X0633295D01*
X0632295Y0468787D01*
Y0466788D01*
X0633295Y0465788D01*
X0636294D01*
X0648290D02*
X0644291D01*
X0648290Y0469787D01*
Y0470786D01*
X0647290Y0471786D01*
X0645291D01*
X0644291Y0470786D01*
X0586310Y0482786D02*
X0585310Y0483786D01*
X0583311D01*
X0582311Y0482786D01*
Y0481787D01*
X0583311Y0480787D01*
X0585310D01*
X0586310Y0479787D01*
Y0478788D01*
X0585310Y0477788D01*
X0583311D01*
X0582311Y0478788D01*
X0588309Y0477788D02*
X0590309D01*
X0589309D01*
Y0481787D01*
X0588309D01*
X0595307Y0475788D02*
X0596307D01*
X0597306Y0476788D01*
Y0481787D01*
X0594307D01*
X0593308Y0480787D01*
Y0478788D01*
X0594307Y0477788D01*
X0597306D01*
X0599306D02*
Y0481787D01*
X0602305D01*
X0603304Y0480787D01*
Y0477788D01*
X0606304Y0481787D02*
X0608303D01*
X0609303Y0480787D01*
Y0477788D01*
X0606304D01*
X0605304Y0478788D01*
X0606304Y0479787D01*
X0609303D01*
X0611302Y0477788D02*
X0613301D01*
X0612302D01*
Y0483786D01*
X0611302D01*
X0622298D02*
Y0477788D01*
X0626297D01*
X0629296Y0481787D02*
X0631295D01*
X0632295Y0480787D01*
Y0477788D01*
X0629296D01*
X0628296Y0478788D01*
X0629296Y0479787D01*
X0632295D01*
X0634294Y0481787D02*
Y0478788D01*
X0635294Y0477788D01*
X0638293D01*
Y0476788D01*
X0637293Y0475788D01*
X0636294D01*
X0638293Y0477788D02*
Y0481787D01*
X0643292Y0477788D02*
X0641292D01*
X0640293Y0478788D01*
Y0480787D01*
X0641292Y0481787D01*
X0643292D01*
X0644291Y0480787D01*
Y0479787D01*
X0640293D01*
X0646290Y0481787D02*
Y0477788D01*
Y0479787D01*
X0647290Y0480787D01*
X0648290Y0481787D01*
X0649290D01*
X0658287Y0477788D02*
X0660286D01*
X0659286D01*
Y0483786D01*
X0658287Y0482786D01*
X0582311Y0495786D02*
Y0489788D01*
X0585310D01*
X0586310Y0490788D01*
Y0494786D01*
X0585310Y0495786D01*
X0582311D01*
X0588309Y0489788D02*
X0590309D01*
X0589309D01*
Y0493787D01*
X0588309D01*
X0596307Y0489788D02*
X0594307D01*
X0593308Y0490788D01*
Y0492787D01*
X0594307Y0493787D01*
X0596307D01*
X0597306Y0492787D01*
Y0491787D01*
X0593308D01*
X0599306Y0489788D02*
X0601305D01*
X0600305D01*
Y0495786D01*
X0599306D01*
X0607303Y0489788D02*
X0605304D01*
X0604304Y0490788D01*
Y0492787D01*
X0605304Y0493787D01*
X0607303D01*
X0608303Y0492787D01*
Y0491787D01*
X0604304D01*
X0614301Y0493787D02*
X0611302D01*
X0610302Y0492787D01*
Y0490788D01*
X0611302Y0489788D01*
X0614301D01*
X0617300Y0494786D02*
Y0493787D01*
X0616300D01*
X0618300D01*
X0617300D01*
Y0490788D01*
X0618300Y0489788D01*
X0621299Y0493787D02*
Y0489788D01*
Y0491787D01*
X0622298Y0492787D01*
X0623298Y0493787D01*
X0624298D01*
X0627297Y0489788D02*
X0629296D01*
X0628296D01*
Y0493787D01*
X0627297D01*
X0636294D02*
X0633295D01*
X0632295Y0492787D01*
Y0490788D01*
X0633295Y0489788D01*
X0636294D01*
X0644291D02*
X0646290D01*
X0645291D01*
Y0495786D01*
X0644291Y0494786D01*
X0582311Y0507786D02*
X0586310D01*
X0584311D01*
Y0501788D01*
X0589309D02*
X0591308D01*
X0592308Y0502788D01*
Y0504787D01*
X0591308Y0505787D01*
X0589309D01*
X0588309Y0504787D01*
Y0502788D01*
X0589309Y0501788D01*
X0594307Y0499789D02*
Y0505787D01*
X0597306D01*
X0598306Y0504787D01*
Y0502788D01*
X0597306Y0501788D01*
X0594307D01*
X0606304Y0507786D02*
Y0501788D01*
X0610302D01*
X0613301Y0505787D02*
X0615301D01*
X0616300Y0504787D01*
Y0501788D01*
X0613301D01*
X0612302Y0502788D01*
X0613301Y0503787D01*
X0616300D01*
X0618300Y0505787D02*
Y0502788D01*
X0619299Y0501788D01*
X0622298D01*
Y0500788D01*
X0621299Y0499789D01*
X0620299D01*
X0622298Y0501788D02*
Y0505787D01*
X0627297Y0501788D02*
X0625297D01*
X0624298Y0502788D01*
Y0504787D01*
X0625297Y0505787D01*
X0627297D01*
X0628296Y0504787D01*
Y0503787D01*
X0624298D01*
X0630296Y0505787D02*
Y0501788D01*
Y0503787D01*
X0631295Y0504787D01*
X0632295Y0505787D01*
X0633295D01*
X0582311Y0519786D02*
X0586310D01*
X0584311D01*
Y0513788D01*
X0589309D02*
X0591308D01*
X0592308Y0514788D01*
Y0516787D01*
X0591308Y0517787D01*
X0589309D01*
X0588309Y0516787D01*
Y0514788D01*
X0589309Y0513788D01*
X0594307Y0511789D02*
Y0517787D01*
X0597306D01*
X0598306Y0516787D01*
Y0514788D01*
X0597306Y0513788D01*
X0594307D01*
X0610302Y0518786D02*
X0609303Y0519786D01*
X0607303D01*
X0606304Y0518786D01*
Y0517787D01*
X0607303Y0516787D01*
X0609303D01*
X0610302Y0515787D01*
Y0514788D01*
X0609303Y0513788D01*
X0607303D01*
X0606304Y0514788D01*
X0613301Y0513788D02*
X0615301D01*
X0616300Y0514788D01*
Y0516787D01*
X0615301Y0517787D01*
X0613301D01*
X0612302Y0516787D01*
Y0514788D01*
X0613301Y0513788D01*
X0618300D02*
X0620299D01*
X0619299D01*
Y0519786D01*
X0618300D01*
X0627297D02*
Y0513788D01*
X0624298D01*
X0623298Y0514788D01*
Y0516787D01*
X0624298Y0517787D01*
X0627297D01*
X0632295Y0513788D02*
X0630296D01*
X0629296Y0514788D01*
Y0516787D01*
X0630296Y0517787D01*
X0632295D01*
X0633295Y0516787D01*
Y0515787D01*
X0629296D01*
X0635294Y0517787D02*
Y0513788D01*
Y0515787D01*
X0636294Y0516787D01*
X0637293Y0517787D01*
X0638293D01*
X0582311Y0531786D02*
X0586310D01*
X0584311D01*
Y0525788D01*
X0589309D02*
X0591308D01*
X0592308Y0526788D01*
Y0528787D01*
X0591308Y0529787D01*
X0589309D01*
X0588309Y0528787D01*
Y0526788D01*
X0589309Y0525788D01*
X0594307Y0523788D02*
Y0529787D01*
X0597306D01*
X0598306Y0528787D01*
Y0526788D01*
X0597306Y0525788D01*
X0594307D01*
X0609303Y0531786D02*
X0607303D01*
X0606304Y0530786D01*
Y0526788D01*
X0607303Y0525788D01*
X0609303D01*
X0610302Y0526788D01*
Y0530786D01*
X0609303Y0531786D01*
X0612302Y0529787D02*
X0614301Y0525788D01*
X0616300Y0529787D01*
X0621299Y0525788D02*
X0619299D01*
X0618300Y0526788D01*
Y0528787D01*
X0619299Y0529787D01*
X0621299D01*
X0622298Y0528787D01*
Y0527787D01*
X0618300D01*
X0624298Y0529787D02*
Y0525788D01*
Y0527787D01*
X0625297Y0528787D01*
X0626297Y0529787D01*
X0627297D01*
X0630296Y0525788D02*
X0632295D01*
X0631295D01*
Y0531786D01*
X0630296D01*
X0636294Y0529787D02*
X0638293D01*
X0639293Y0528787D01*
Y0525788D01*
X0636294D01*
X0635294Y0526788D01*
X0636294Y0527787D01*
X0639293D01*
X0641292Y0529787D02*
Y0526788D01*
X0642292Y0525788D01*
X0645291D01*
Y0524788D01*
X0644291Y0523788D01*
X0643292D01*
X0645291Y0525788D02*
Y0529787D01*
X0676285Y0537788D02*
Y0543786D01*
X0678285Y0541787D01*
X0680284Y0543786D01*
Y0537788D01*
X0683283Y0541787D02*
X0685283D01*
X0686282Y0540787D01*
Y0537788D01*
X0683283D01*
X0682283Y0538788D01*
X0683283Y0539787D01*
X0686282D01*
X0689281Y0542786D02*
Y0541787D01*
X0688281D01*
X0690281D01*
X0689281D01*
Y0538788D01*
X0690281Y0537788D01*
X0696279D02*
X0694280D01*
X0693280Y0538788D01*
Y0540787D01*
X0694280Y0541787D01*
X0696279D01*
X0697279Y0540787D01*
Y0539787D01*
X0693280D01*
X0699278Y0541787D02*
Y0537788D01*
Y0539787D01*
X0700278Y0540787D01*
X0701277Y0541787D01*
X0702277D01*
X0705276Y0537788D02*
X0707275D01*
X0706276D01*
Y0541787D01*
X0705276D01*
X0711274D02*
X0713273D01*
X0714273Y0540787D01*
Y0537788D01*
X0711274D01*
X0710274Y0538788D01*
X0711274Y0539787D01*
X0714273D01*
X0716272Y0537788D02*
X0718272D01*
X0717272D01*
Y0543786D01*
X0716272D01*
X0680284Y0422786D02*
X0679284Y0423786D01*
X0677285D01*
X0676285Y0422786D01*
Y0421787D01*
X0677285Y0420787D01*
X0679284D01*
X0680284Y0419787D01*
Y0418788D01*
X0679284Y0417788D01*
X0677285D01*
X0676285Y0418788D01*
X0683283Y0417788D02*
X0685283D01*
X0686282Y0418788D01*
Y0420787D01*
X0685283Y0421787D01*
X0683283D01*
X0682283Y0420787D01*
Y0418788D01*
X0683283Y0417788D01*
X0688281D02*
X0690281D01*
X0689281D01*
Y0423786D01*
X0688281D01*
X0697279D02*
Y0417788D01*
X0694280D01*
X0693280Y0418788D01*
Y0420787D01*
X0694280Y0421787D01*
X0697279D01*
X0702277Y0417788D02*
X0700278D01*
X0699278Y0418788D01*
Y0420787D01*
X0700278Y0421787D01*
X0702277D01*
X0703277Y0420787D01*
Y0419787D01*
X0699278D01*
X0705276Y0421787D02*
Y0417788D01*
Y0419787D01*
X0706276Y0420787D01*
X0707275Y0421787D01*
X0708275D01*
X0717272Y0417788D02*
Y0423786D01*
X0720271D01*
X0721271Y0422786D01*
Y0420787D01*
X0720271Y0419787D01*
X0717272D01*
X0719272D02*
X0721271Y0417788D01*
X0726269D02*
X0724270D01*
X0723270Y0418788D01*
Y0420787D01*
X0724270Y0421787D01*
X0726269D01*
X0727269Y0420787D01*
Y0419787D01*
X0723270D01*
X0729268Y0417788D02*
X0732267D01*
X0733267Y0418788D01*
X0732267Y0419787D01*
X0730268D01*
X0729268Y0420787D01*
X0730268Y0421787D01*
X0733267D01*
X0735266Y0417788D02*
X0737266D01*
X0736266D01*
Y0421787D01*
X0735266D01*
X0740265Y0417788D02*
X0743264D01*
X0744263Y0418788D01*
X0743264Y0419787D01*
X0741264D01*
X0740265Y0420787D01*
X0741264Y0421787D01*
X0744263D01*
X0747262Y0422786D02*
Y0421787D01*
X0746263D01*
X0748262D01*
X0747262D01*
Y0418788D01*
X0748262Y0417788D01*
X0680284Y0434786D02*
X0679284Y0435786D01*
X0677285D01*
X0676285Y0434786D01*
Y0430788D01*
X0677285Y0429788D01*
X0679284D01*
X0680284Y0430788D01*
X0683283Y0429788D02*
X0685283D01*
X0686282Y0430788D01*
Y0432787D01*
X0685283Y0433787D01*
X0683283D01*
X0682283Y0432787D01*
Y0430788D01*
X0683283Y0429788D01*
X0688281Y0427788D02*
Y0433787D01*
X0691281D01*
X0692280Y0432787D01*
Y0430788D01*
X0691281Y0429788D01*
X0688281D01*
X0694280Y0427788D02*
Y0433787D01*
X0697279D01*
X0698278Y0432787D01*
Y0430788D01*
X0697279Y0429788D01*
X0694280D01*
X0703277D02*
X0701277D01*
X0700278Y0430788D01*
Y0432787D01*
X0701277Y0433787D01*
X0703277D01*
X0704276Y0432787D01*
Y0431787D01*
X0700278D01*
X0706276Y0433787D02*
Y0429788D01*
Y0431787D01*
X0707275Y0432787D01*
X0708275Y0433787D01*
X0709275D01*
X0680284Y0447786D02*
X0676285D01*
Y0444787D01*
X0678285D01*
X0676285D01*
Y0441788D01*
X0682283D02*
Y0447786D01*
X0685283D01*
X0686282Y0446786D01*
Y0444787D01*
X0685283Y0443787D01*
X0682283D01*
X0684283D02*
X0686282Y0441788D01*
X0688281Y0444787D02*
X0692280D01*
X0697279Y0441788D02*
Y0447786D01*
X0694280Y0444787D01*
X0698278D01*
X0680284Y0458786D02*
X0679284Y0459786D01*
X0677285D01*
X0676285Y0458786D01*
Y0454788D01*
X0677285Y0453788D01*
X0679284D01*
X0680284Y0454788D01*
X0683283Y0453788D02*
X0685283D01*
X0686282Y0454788D01*
Y0456787D01*
X0685283Y0457787D01*
X0683283D01*
X0682283Y0456787D01*
Y0454788D01*
X0683283Y0453788D01*
X0688281Y0451789D02*
Y0457787D01*
X0691281D01*
X0692280Y0456787D01*
Y0454788D01*
X0691281Y0453788D01*
X0688281D01*
X0694280Y0451789D02*
Y0457787D01*
X0697279D01*
X0698278Y0456787D01*
Y0454788D01*
X0697279Y0453788D01*
X0694280D01*
X0703277D02*
X0701277D01*
X0700278Y0454788D01*
Y0456787D01*
X0701277Y0457787D01*
X0703277D01*
X0704276Y0456787D01*
Y0455787D01*
X0700278D01*
X0706276Y0457787D02*
Y0453788D01*
Y0455787D01*
X0707275Y0456787D01*
X0708275Y0457787D01*
X0709275D01*
X0680284Y0471786D02*
X0676285D01*
Y0468787D01*
X0678285D01*
X0676285D01*
Y0465788D01*
X0682283D02*
Y0471786D01*
X0685283D01*
X0686282Y0470786D01*
Y0468787D01*
X0685283Y0467787D01*
X0682283D01*
X0684283D02*
X0686282Y0465788D01*
X0688281Y0468787D02*
X0692280D01*
X0697279Y0465788D02*
Y0471786D01*
X0694280Y0468787D01*
X0698278D01*
X0680284Y0482786D02*
X0679284Y0483786D01*
X0677285D01*
X0676285Y0482786D01*
Y0478788D01*
X0677285Y0477788D01*
X0679284D01*
X0680284Y0478788D01*
X0683283Y0477788D02*
X0685283D01*
X0686282Y0478788D01*
Y0480787D01*
X0685283Y0481787D01*
X0683283D01*
X0682283Y0480787D01*
Y0478788D01*
X0683283Y0477788D01*
X0688281Y0475788D02*
Y0481787D01*
X0691281D01*
X0692280Y0480787D01*
Y0478788D01*
X0691281Y0477788D01*
X0688281D01*
X0694280Y0475788D02*
Y0481787D01*
X0697279D01*
X0698278Y0480787D01*
Y0478788D01*
X0697279Y0477788D01*
X0694280D01*
X0703277D02*
X0701277D01*
X0700278Y0478788D01*
Y0480787D01*
X0701277Y0481787D01*
X0703277D01*
X0704276Y0480787D01*
Y0479787D01*
X0700278D01*
X0706276Y0481787D02*
Y0477788D01*
Y0479787D01*
X0707275Y0480787D01*
X0708275Y0481787D01*
X0709275D01*
X0680284Y0495786D02*
X0676285D01*
Y0492787D01*
X0678285D01*
X0676285D01*
Y0489788D01*
X0682283D02*
Y0495786D01*
X0685283D01*
X0686282Y0494786D01*
Y0492787D01*
X0685283Y0491787D01*
X0682283D01*
X0684283D02*
X0686282Y0489788D01*
X0688281Y0492787D02*
X0692280D01*
X0697279Y0489788D02*
Y0495786D01*
X0694280Y0492787D01*
X0698278D01*
X0680284Y0506786D02*
X0679284Y0507786D01*
X0677285D01*
X0676285Y0506786D01*
Y0502788D01*
X0677285Y0501788D01*
X0679284D01*
X0680284Y0502788D01*
X0683283Y0501788D02*
X0685283D01*
X0686282Y0502788D01*
Y0504787D01*
X0685283Y0505787D01*
X0683283D01*
X0682283Y0504787D01*
Y0502788D01*
X0683283Y0501788D01*
X0688281Y0499789D02*
Y0505787D01*
X0691281D01*
X0692280Y0504787D01*
Y0502788D01*
X0691281Y0501788D01*
X0688281D01*
X0694280Y0499789D02*
Y0505787D01*
X0697279D01*
X0698278Y0504787D01*
Y0502788D01*
X0697279Y0501788D01*
X0694280D01*
X0703277D02*
X0701277D01*
X0700278Y0502788D01*
Y0504787D01*
X0701277Y0505787D01*
X0703277D01*
X0704276Y0504787D01*
Y0503787D01*
X0700278D01*
X0706276Y0505787D02*
Y0501788D01*
Y0503787D01*
X0707275Y0504787D01*
X0708275Y0505787D01*
X0709275D01*
X0680284Y0518786D02*
X0679284Y0519786D01*
X0677285D01*
X0676285Y0518786D01*
Y0517787D01*
X0677285Y0516787D01*
X0679284D01*
X0680284Y0515787D01*
Y0514788D01*
X0679284Y0513788D01*
X0677285D01*
X0676285Y0514788D01*
X0683283Y0513788D02*
X0685283D01*
X0686282Y0514788D01*
Y0516787D01*
X0685283Y0517787D01*
X0683283D01*
X0682283Y0516787D01*
Y0514788D01*
X0683283Y0513788D01*
X0688281D02*
X0690281D01*
X0689281D01*
Y0519786D01*
X0688281D01*
X0697279D02*
Y0513788D01*
X0694280D01*
X0693280Y0514788D01*
Y0516787D01*
X0694280Y0517787D01*
X0697279D01*
X0702277Y0513788D02*
X0700278D01*
X0699278Y0514788D01*
Y0516787D01*
X0700278Y0517787D01*
X0702277D01*
X0703277Y0516787D01*
Y0515787D01*
X0699278D01*
X0705276Y0517787D02*
Y0513788D01*
Y0515787D01*
X0706276Y0516787D01*
X0707275Y0517787D01*
X0708275D01*
X0717272Y0513788D02*
Y0519786D01*
X0720271D01*
X0721271Y0518786D01*
Y0516787D01*
X0720271Y0515787D01*
X0717272D01*
X0719272D02*
X0721271Y0513788D01*
X0726269D02*
X0724270D01*
X0723270Y0514788D01*
Y0516787D01*
X0724270Y0517787D01*
X0726269D01*
X0727269Y0516787D01*
Y0515787D01*
X0723270D01*
X0729268Y0513788D02*
X0732267D01*
X0733267Y0514788D01*
X0732267Y0515787D01*
X0730268D01*
X0729268Y0516787D01*
X0730268Y0517787D01*
X0733267D01*
X0735266Y0513788D02*
X0737266D01*
X0736266D01*
Y0517787D01*
X0735266D01*
X0740265Y0513788D02*
X0743264D01*
X0744263Y0514788D01*
X0743264Y0515787D01*
X0741264D01*
X0740265Y0516787D01*
X0741264Y0517787D01*
X0744263D01*
X0747262Y0518786D02*
Y0517787D01*
X0746263D01*
X0748262D01*
X0747262D01*
Y0514788D01*
X0748262Y0513788D01*
X0762262Y0543786D02*
X0766261D01*
X0764261D01*
Y0537788D01*
X0768260Y0543786D02*
Y0537788D01*
Y0540787D01*
X0769260Y0541787D01*
X0771259D01*
X0772259Y0540787D01*
Y0537788D01*
X0774258D02*
X0776258D01*
X0775258D01*
Y0541787D01*
X0774258D01*
X0783255D02*
X0780256D01*
X0779257Y0540787D01*
Y0538788D01*
X0780256Y0537788D01*
X0783255D01*
X0785255D02*
Y0543786D01*
Y0539787D02*
X0788254Y0541787D01*
X0785255Y0539787D02*
X0788254Y0537788D01*
X0791253D02*
Y0541787D01*
X0794252D01*
X0795251Y0540787D01*
Y0537788D01*
X0800250D02*
X0798250D01*
X0797251Y0538788D01*
Y0540787D01*
X0798250Y0541787D01*
X0800250D01*
X0801250Y0540787D01*
Y0539787D01*
X0797251D01*
X0803249Y0537788D02*
X0806248D01*
X0807248Y0538788D01*
X0806248Y0539787D01*
X0804249D01*
X0803249Y0540787D01*
X0804249Y0541787D01*
X0807248D01*
X0809247Y0537788D02*
X0812246D01*
X0813246Y0538788D01*
X0812246Y0539787D01*
X0810247D01*
X0809247Y0540787D01*
X0810247Y0541787D01*
X0813246D01*
X0762262Y0422786D02*
X0763262Y0423786D01*
X0765261D01*
X0766261Y0422786D01*
Y0418788D01*
X0765261Y0417788D01*
X0763262D01*
X0762262Y0418788D01*
Y0422786D01*
X0768260Y0417788D02*
Y0418788D01*
X0769260D01*
Y0417788D01*
X0768260D01*
X0776258D02*
Y0423786D01*
X0773258Y0420787D01*
X0777257D01*
X0779257Y0422786D02*
X0780256Y0423786D01*
X0782256D01*
X0783255Y0422786D01*
Y0418788D01*
X0782256Y0417788D01*
X0780256D01*
X0779257Y0418788D01*
Y0422786D01*
X0785255Y0417788D02*
Y0421787D01*
X0786254D01*
X0787254Y0420787D01*
Y0417788D01*
Y0420787D01*
X0788254Y0421787D01*
X0789253Y0420787D01*
Y0417788D01*
X0791253D02*
X0793252D01*
X0792252D01*
Y0421787D01*
X0791253D01*
X0796251Y0417788D02*
X0798250D01*
X0797251D01*
Y0423786D01*
X0796251D01*
X0766261Y0429788D02*
X0762262D01*
X0766261Y0433787D01*
Y0434786D01*
X0765261Y0435786D01*
X0763262D01*
X0762262Y0434786D01*
X0768260Y0429788D02*
Y0430788D01*
X0769260D01*
Y0429788D01*
X0768260D01*
X0773258Y0434786D02*
X0774258Y0435786D01*
X0776258D01*
X0777257Y0434786D01*
Y0433787D01*
X0776258Y0432787D01*
X0777257Y0431787D01*
Y0430788D01*
X0776258Y0429788D01*
X0774258D01*
X0773258Y0430788D01*
Y0431787D01*
X0774258Y0432787D01*
X0773258Y0433787D01*
Y0434786D01*
X0774258Y0432787D02*
X0776258D01*
X0779257Y0434786D02*
X0780256Y0435786D01*
X0782256D01*
X0783255Y0434786D01*
Y0430788D01*
X0782256Y0429788D01*
X0780256D01*
X0779257Y0430788D01*
Y0434786D01*
X0785255Y0429788D02*
Y0433787D01*
X0786254D01*
X0787254Y0432787D01*
Y0429788D01*
Y0432787D01*
X0788254Y0433787D01*
X0789253Y0432787D01*
Y0429788D01*
X0791253D02*
X0793252D01*
X0792252D01*
Y0433787D01*
X0791253D01*
X0796251Y0429788D02*
X0798250D01*
X0797251D01*
Y0435786D01*
X0796251D01*
X0762262Y0446786D02*
X0763262Y0447786D01*
X0765261D01*
X0766261Y0446786D01*
Y0445787D01*
X0765261Y0444787D01*
X0766261Y0443787D01*
Y0442788D01*
X0765261Y0441788D01*
X0763262D01*
X0762262Y0442788D01*
Y0443787D01*
X0763262Y0444787D01*
X0762262Y0445787D01*
Y0446786D01*
X0763262Y0444787D02*
X0765261D01*
X0768260Y0441788D02*
Y0442788D01*
X0769260D01*
Y0441788D01*
X0768260D01*
X0773258Y0446786D02*
X0774258Y0447786D01*
X0776258D01*
X0777257Y0446786D01*
Y0442788D01*
X0776258Y0441788D01*
X0774258D01*
X0773258Y0442788D01*
Y0446786D01*
X0779257D02*
X0780256Y0447786D01*
X0782256D01*
X0783255Y0446786D01*
Y0442788D01*
X0782256Y0441788D01*
X0780256D01*
X0779257Y0442788D01*
Y0446786D01*
X0785255Y0441788D02*
Y0445787D01*
X0786254D01*
X0787254Y0444787D01*
Y0441788D01*
Y0444787D01*
X0788254Y0445787D01*
X0789253Y0444787D01*
Y0441788D01*
X0791253D02*
X0793252D01*
X0792252D01*
Y0445787D01*
X0791253D01*
X0796251Y0441788D02*
X0798250D01*
X0797251D01*
Y0447786D01*
X0796251D01*
X0762262Y0453788D02*
X0764261D01*
X0763262D01*
Y0459786D01*
X0762262Y0458786D01*
X0767261Y0453788D02*
Y0454788D01*
X0768260D01*
Y0453788D01*
X0767261D01*
X0775258D02*
Y0459786D01*
X0772259Y0456787D01*
X0776258D01*
X0778257Y0458786D02*
X0779257Y0459786D01*
X0781256D01*
X0782256Y0458786D01*
Y0454788D01*
X0781256Y0453788D01*
X0779257D01*
X0778257Y0454788D01*
Y0458786D01*
X0784255Y0453788D02*
Y0457787D01*
X0785255D01*
X0786254Y0456787D01*
Y0453788D01*
Y0456787D01*
X0787254Y0457787D01*
X0788254Y0456787D01*
Y0453788D01*
X0790253D02*
X0792252D01*
X0791253D01*
Y0457787D01*
X0790253D01*
X0795251Y0453788D02*
X0797251D01*
X0796251D01*
Y0459786D01*
X0795251D01*
X0765261Y0465788D02*
Y0471786D01*
X0762262Y0468787D01*
X0766261D01*
X0768260Y0470786D02*
X0769260Y0471786D01*
X0771259D01*
X0772259Y0470786D01*
Y0466788D01*
X0771259Y0465788D01*
X0769260D01*
X0768260Y0466788D01*
Y0470786D01*
X0774258Y0465788D02*
Y0466788D01*
X0775258D01*
Y0465788D01*
X0774258D01*
X0779257Y0470786D02*
X0780256Y0471786D01*
X0782256D01*
X0783255Y0470786D01*
Y0466788D01*
X0782256Y0465788D01*
X0780256D01*
X0779257Y0466788D01*
Y0470786D01*
X0785255D02*
X0786254Y0471786D01*
X0788254D01*
X0789253Y0470786D01*
Y0466788D01*
X0788254Y0465788D01*
X0786254D01*
X0785255Y0466788D01*
Y0470786D01*
X0791253Y0465788D02*
Y0469787D01*
X0792252D01*
X0793252Y0468787D01*
Y0465788D01*
Y0468787D01*
X0794252Y0469787D01*
X0795251Y0468787D01*
Y0465788D01*
X0797251D02*
X0799250D01*
X0798250D01*
Y0469787D01*
X0797251D01*
X0802249Y0465788D02*
X0804249D01*
X0803249D01*
Y0471786D01*
X0802249D01*
X0762262Y0477788D02*
X0764261D01*
X0763262D01*
Y0483786D01*
X0762262Y0482786D01*
X0767261Y0477788D02*
Y0478788D01*
X0768260D01*
Y0477788D01*
X0767261D01*
X0775258D02*
Y0483786D01*
X0772259Y0480787D01*
X0776258D01*
X0778257Y0482786D02*
X0779257Y0483786D01*
X0781256D01*
X0782256Y0482786D01*
Y0478788D01*
X0781256Y0477788D01*
X0779257D01*
X0778257Y0478788D01*
Y0482786D01*
X0784255Y0477788D02*
Y0481787D01*
X0785255D01*
X0786254Y0480787D01*
Y0477788D01*
Y0480787D01*
X0787254Y0481787D01*
X0788254Y0480787D01*
Y0477788D01*
X0790253D02*
X0792252D01*
X0791253D01*
Y0481787D01*
X0790253D01*
X0795251Y0477788D02*
X0797251D01*
X0796251D01*
Y0483786D01*
X0795251D01*
X0762262Y0494786D02*
X0763262Y0495786D01*
X0765261D01*
X0766261Y0494786D01*
Y0493787D01*
X0765261Y0492787D01*
X0766261Y0491787D01*
Y0490788D01*
X0765261Y0489788D01*
X0763262D01*
X0762262Y0490788D01*
Y0491787D01*
X0763262Y0492787D01*
X0762262Y0493787D01*
Y0494786D01*
X0763262Y0492787D02*
X0765261D01*
X0768260Y0489788D02*
Y0490788D01*
X0769260D01*
Y0489788D01*
X0768260D01*
X0773258Y0494786D02*
X0774258Y0495786D01*
X0776258D01*
X0777257Y0494786D01*
Y0490788D01*
X0776258Y0489788D01*
X0774258D01*
X0773258Y0490788D01*
Y0494786D01*
X0779257D02*
X0780256Y0495786D01*
X0782256D01*
X0783255Y0494786D01*
Y0490788D01*
X0782256Y0489788D01*
X0780256D01*
X0779257Y0490788D01*
Y0494786D01*
X0785255Y0489788D02*
Y0493787D01*
X0786254D01*
X0787254Y0492787D01*
Y0489788D01*
Y0492787D01*
X0788254Y0493787D01*
X0789253Y0492787D01*
Y0489788D01*
X0791253D02*
X0793252D01*
X0792252D01*
Y0493787D01*
X0791253D01*
X0796251Y0489788D02*
X0798250D01*
X0797251D01*
Y0495786D01*
X0796251D01*
X0766261Y0501788D02*
X0762262D01*
X0766261Y0505787D01*
Y0506786D01*
X0765261Y0507786D01*
X0763262D01*
X0762262Y0506786D01*
X0768260Y0501788D02*
Y0502788D01*
X0769260D01*
Y0501788D01*
X0768260D01*
X0773258Y0506786D02*
X0774258Y0507786D01*
X0776258D01*
X0777257Y0506786D01*
Y0505787D01*
X0776258Y0504787D01*
X0777257Y0503787D01*
Y0502788D01*
X0776258Y0501788D01*
X0774258D01*
X0773258Y0502788D01*
Y0503787D01*
X0774258Y0504787D01*
X0773258Y0505787D01*
Y0506786D01*
X0774258Y0504787D02*
X0776258D01*
X0779257Y0506786D02*
X0780256Y0507786D01*
X0782256D01*
X0783255Y0506786D01*
Y0502788D01*
X0782256Y0501788D01*
X0780256D01*
X0779257Y0502788D01*
Y0506786D01*
X0785255Y0501788D02*
Y0505787D01*
X0786254D01*
X0787254Y0504787D01*
Y0501788D01*
Y0504787D01*
X0788254Y0505787D01*
X0789253Y0504787D01*
Y0501788D01*
X0791253D02*
X0793252D01*
X0792252D01*
Y0505787D01*
X0791253D01*
X0796251Y0501788D02*
X0798250D01*
X0797251D01*
Y0507786D01*
X0796251D01*
X0762262Y0518786D02*
X0763262Y0519786D01*
X0765261D01*
X0766261Y0518786D01*
Y0514788D01*
X0765261Y0513788D01*
X0763262D01*
X0762262Y0514788D01*
Y0518786D01*
X0768260Y0513788D02*
Y0514788D01*
X0769260D01*
Y0513788D01*
X0768260D01*
X0776258D02*
Y0519786D01*
X0773258Y0516787D01*
X0777257D01*
X0779257Y0518786D02*
X0780256Y0519786D01*
X0782256D01*
X0783255Y0518786D01*
Y0514788D01*
X0782256Y0513788D01*
X0780256D01*
X0779257Y0514788D01*
Y0518786D01*
X0785255Y0513788D02*
Y0517787D01*
X0786254D01*
X0787254Y0516787D01*
Y0513788D01*
Y0516787D01*
X0788254Y0517787D01*
X0789253Y0516787D01*
Y0513788D01*
X0791253D02*
X0793252D01*
X0792252D01*
Y0517787D01*
X0791253D01*
X0796251Y0513788D02*
X0798250D01*
X0797251D01*
Y0519786D01*
X0796251D01*
X0831244Y0542786D02*
X0830245Y0543786D01*
X0828245D01*
X0827246Y0542786D01*
Y0538788D01*
X0828245Y0537788D01*
X0830245D01*
X0831244Y0538788D01*
X0834243Y0537788D02*
X0836243D01*
X0837242Y0538788D01*
Y0540787D01*
X0836243Y0541787D01*
X0834243D01*
X0833244Y0540787D01*
Y0538788D01*
X0834243Y0537788D01*
X0839242D02*
Y0541787D01*
X0842241D01*
X0843240Y0540787D01*
Y0537788D01*
X0845240D02*
X0848239D01*
X0849238Y0538788D01*
X0848239Y0539787D01*
X0846239D01*
X0845240Y0540787D01*
X0846239Y0541787D01*
X0849238D01*
X0852238Y0542786D02*
Y0541787D01*
X0851238D01*
X0853237D01*
X0852238D01*
Y0538788D01*
X0853237Y0537788D01*
X0857236Y0541787D02*
X0859235D01*
X0860235Y0540787D01*
Y0537788D01*
X0857236D01*
X0856236Y0538788D01*
X0857236Y0539787D01*
X0860235D01*
X0862234Y0537788D02*
Y0541787D01*
X0865233D01*
X0866233Y0540787D01*
Y0537788D01*
X0869232Y0542786D02*
Y0541787D01*
X0868232D01*
X0870232D01*
X0869232D01*
Y0538788D01*
X0870232Y0537788D01*
X0827246Y0422786D02*
X0828245Y0423786D01*
X0830245D01*
X0831244Y0422786D01*
Y0421787D01*
X0830245Y0420787D01*
X0829245D01*
X0830245D01*
X0831244Y0419787D01*
Y0418788D01*
X0830245Y0417788D01*
X0828245D01*
X0827246Y0418788D01*
X0833244Y0417788D02*
Y0418788D01*
X0834243D01*
Y0417788D01*
X0833244D01*
X0842241Y0423786D02*
X0838242D01*
Y0420787D01*
X0840241Y0421787D01*
X0841241D01*
X0842241Y0420787D01*
Y0418788D01*
X0841241Y0417788D01*
X0839242D01*
X0838242Y0418788D01*
X0830245Y0441788D02*
Y0447786D01*
X0827246Y0444787D01*
X0831244D01*
X0833244Y0441788D02*
Y0442788D01*
X0834243D01*
Y0441788D01*
X0833244D01*
X0842241D02*
X0838242D01*
X0842241Y0445787D01*
Y0446786D01*
X0841241Y0447786D01*
X0839242D01*
X0838242Y0446786D01*
X0830245Y0465788D02*
Y0471786D01*
X0827246Y0468787D01*
X0831244D01*
X0833244Y0465788D02*
Y0466788D01*
X0834243D01*
Y0465788D01*
X0833244D01*
X0842241D02*
X0838242D01*
X0842241Y0469787D01*
Y0470786D01*
X0841241Y0471786D01*
X0839242D01*
X0838242Y0470786D01*
X0830245Y0489788D02*
Y0495786D01*
X0827246Y0492787D01*
X0831244D01*
X0833244Y0489788D02*
Y0490788D01*
X0834243D01*
Y0489788D01*
X0833244D01*
X0842241D02*
X0838242D01*
X0842241Y0493787D01*
Y0494786D01*
X0841241Y0495786D01*
X0839242D01*
X0838242Y0494786D01*
X0827246Y0518786D02*
X0828245Y0519786D01*
X0830245D01*
X0831244Y0518786D01*
Y0517787D01*
X0830245Y0516787D01*
X0829245D01*
X0830245D01*
X0831244Y0515787D01*
Y0514788D01*
X0830245Y0513788D01*
X0828245D01*
X0827246Y0514788D01*
X0833244Y0513788D02*
Y0514788D01*
X0834243D01*
Y0513788D01*
X0833244D01*
X0842241Y0519786D02*
X0838242D01*
Y0516787D01*
X0840241Y0517787D01*
X0841241D01*
X0842241Y0516787D01*
Y0514788D01*
X0841241Y0513788D01*
X0839242D01*
X0838242Y0514788D01*
X0884232Y0543786D02*
Y0537788D01*
X0887231D01*
X0888230Y0538788D01*
Y0539787D01*
X0887231Y0540787D01*
X0884232D01*
X0887231D01*
X0888230Y0541787D01*
Y0542786D01*
X0887231Y0543786D01*
X0884232D01*
X0891229Y0537788D02*
X0893229D01*
X0894228Y0538788D01*
Y0540787D01*
X0893229Y0541787D01*
X0891229D01*
X0890230Y0540787D01*
Y0538788D01*
X0891229Y0537788D01*
X0897227Y0541787D02*
X0899227D01*
X0900226Y0540787D01*
Y0537788D01*
X0897227D01*
X0896228Y0538788D01*
X0897227Y0539787D01*
X0900226D01*
X0902226Y0541787D02*
Y0537788D01*
Y0539787D01*
X0903226Y0540787D01*
X0904225Y0541787D01*
X0905225D01*
X0912223Y0543786D02*
Y0537788D01*
X0909224D01*
X0908224Y0538788D01*
Y0540787D01*
X0909224Y0541787D01*
X0912223D01*
X0920220Y0543786D02*
Y0537788D01*
X0924219D01*
X0927218Y0541787D02*
X0929217D01*
X0930217Y0540787D01*
Y0537788D01*
X0927218D01*
X0926218Y0538788D01*
X0927218Y0539787D01*
X0930217D01*
X0932216Y0541787D02*
Y0538788D01*
X0933216Y0537788D01*
X0936215D01*
Y0536788D01*
X0935215Y0535788D01*
X0934216D01*
X0936215Y0537788D02*
Y0541787D01*
X0941213Y0537788D02*
X0939214D01*
X0938214Y0538788D01*
Y0540787D01*
X0939214Y0541787D01*
X0941213D01*
X0942213Y0540787D01*
Y0539787D01*
X0938214D01*
X0944212Y0541787D02*
Y0537788D01*
Y0539787D01*
X0945212Y0540787D01*
X0946212Y0541787D01*
X0947211D01*
X0960207Y0542786D02*
X0959207Y0543786D01*
X0957208D01*
X0956208Y0542786D01*
Y0541787D01*
X0957208Y0540787D01*
X0959207D01*
X0960207Y0539787D01*
Y0538788D01*
X0959207Y0537788D01*
X0957208D01*
X0956208Y0538788D01*
X0963206Y0542786D02*
Y0541787D01*
X0962206D01*
X0964206D01*
X0963206D01*
Y0538788D01*
X0964206Y0537788D01*
X0968204Y0541787D02*
X0970204D01*
X0971204Y0540787D01*
Y0537788D01*
X0968204D01*
X0967205Y0538788D01*
X0968204Y0539787D01*
X0971204D01*
X0977202Y0541787D02*
X0974203D01*
X0973203Y0540787D01*
Y0538788D01*
X0974203Y0537788D01*
X0977202D01*
X0979201D02*
Y0543786D01*
Y0539787D02*
X0982200Y0541787D01*
X0979201Y0539787D02*
X0982200Y0537788D01*
X0559400Y0039400D02*
Y0059683D01*
X0440500Y0040050D02*
X0700200D01*
Y0101050D01*
X0286500Y0040050D02*
Y0101050D01*
X0040000Y0040050D02*
Y0101050D01*
X0040050Y0040050D02*
X0197600D01*
X0040050D02*
Y0101050D01*
X0700200D01*
X0040000Y0040050D02*
X0440500D01*
X0040000Y0060383D02*
X0700000D01*
X0040000Y0080717D02*
X0700200D01*
X0413200D02*
Y0101050D01*
X0497200Y0080717D02*
Y0101050D01*
G54D22*
X0126900Y0067551D02*
Y0073549D01*
X0128899Y0071549D01*
X0130899Y0073549D01*
Y0067551D01*
X0132898D02*
X0134897D01*
X0133898D01*
Y0073549D01*
X0132898Y0072549D01*
X0141895Y0067551D02*
X0137896D01*
X0141895Y0071549D01*
Y0072549D01*
X0140895Y0073549D01*
X0138896D01*
X0137896Y0072549D01*
X0153891D02*
X0152892Y0073549D01*
X0150892D01*
X0149893Y0072549D01*
Y0071549D01*
X0150892Y0070550D01*
X0152892D01*
X0153891Y0069550D01*
Y0068550D01*
X0152892Y0067551D01*
X0150892D01*
X0149893Y0068550D01*
X0156890Y0072549D02*
Y0071549D01*
X0155891D01*
X0157890D01*
X0156890D01*
Y0068550D01*
X0157890Y0067551D01*
X0161889Y0071549D02*
X0163888D01*
X0164888Y0070550D01*
Y0067551D01*
X0161889D01*
X0160889Y0068550D01*
X0161889Y0069550D01*
X0164888D01*
X0170886Y0071549D02*
X0167887D01*
X0166887Y0070550D01*
Y0068550D01*
X0167887Y0067551D01*
X0170886D01*
X0172885D02*
Y0073549D01*
Y0069550D02*
X0175884Y0071549D01*
X0172885Y0069550D02*
X0175884Y0067551D01*
X0178883Y0071549D02*
Y0068550D01*
X0179883Y0067551D01*
X0182882D01*
Y0071549D01*
X0184881Y0065551D02*
Y0071549D01*
X0187880D01*
X0188880Y0070550D01*
Y0068550D01*
X0187880Y0067551D01*
X0184881D01*
X0348550Y0067500D02*
Y0073498D01*
X0352549Y0067500D01*
Y0073498D01*
X0354548Y0067500D02*
X0358547Y0071499D01*
X0360546Y0067500D02*
Y0071499D01*
X0362545Y0073498D01*
X0364545Y0071499D01*
Y0067500D01*
Y0070499D01*
X0360546D01*
X0294000Y0073498D02*
X0297999D01*
X0295999D01*
Y0067500D01*
X0299998Y0073498D02*
X0301997D01*
X0300998D01*
Y0067500D01*
X0299998D01*
X0301997D01*
X0304996Y0073498D02*
Y0067500D01*
X0307996D01*
X0308995Y0068500D01*
Y0072498D01*
X0307996Y0073498D01*
X0304996D01*
X0317992Y0067500D02*
Y0073498D01*
X0319992D02*
Y0067500D01*
X0316993Y0071499D02*
X0319992D01*
X0320991D01*
X0316993Y0069499D02*
X0320991D01*
X0322991Y0071499D02*
X0323990D01*
Y0070499D01*
X0322991D01*
Y0071499D01*
Y0068500D02*
X0323990D01*
Y0067500D01*
X0322991D01*
Y0068500D01*
X0580500Y0052965D02*
X0584499D01*
X0582499D01*
Y0046966D01*
X0590497Y0052965D02*
X0586498D01*
Y0046966D01*
X0590497D01*
X0586498Y0049966D02*
X0588497D01*
X0592496Y0052965D02*
X0596495Y0046966D01*
Y0052965D02*
X0592496Y0046966D01*
X0598494D02*
Y0050965D01*
X0600493Y0052965D01*
X0602493Y0050965D01*
Y0046966D01*
Y0049966D01*
X0598494D01*
X0608491Y0051965D02*
X0607491Y0052965D01*
X0605492D01*
X0604492Y0051965D01*
Y0050965D01*
X0605492Y0049966D01*
X0607491D01*
X0608491Y0048966D01*
Y0047966D01*
X0607491Y0046966D01*
X0605492D01*
X0604492Y0047966D01*
X0616488Y0052965D02*
X0618488D01*
X0617488D01*
Y0046966D01*
X0616488D01*
X0618488D01*
X0621487D02*
Y0052965D01*
X0625486Y0046966D01*
Y0052965D01*
X0631484Y0051965D02*
X0630484Y0052965D01*
X0628484D01*
X0627485Y0051965D01*
Y0050965D01*
X0628484Y0049966D01*
X0630484D01*
X0631484Y0048966D01*
Y0047966D01*
X0630484Y0046966D01*
X0628484D01*
X0627485Y0047966D01*
X0633483Y0052965D02*
X0637482D01*
X0635482D01*
Y0046966D01*
X0639481D02*
Y0052965D01*
X0642480D01*
X0643480Y0051965D01*
Y0049966D01*
X0642480Y0048966D01*
X0639481D01*
X0641480D02*
X0643480Y0046966D01*
X0645479Y0052965D02*
Y0047966D01*
X0646479Y0046966D01*
X0648478D01*
X0649478Y0047966D01*
Y0052965D01*
X0651477Y0046966D02*
Y0052965D01*
X0653476Y0050965D01*
X0655476Y0052965D01*
Y0046966D01*
X0661474Y0052965D02*
X0657475D01*
Y0046966D01*
X0661474D01*
X0657475Y0049966D02*
X0659474D01*
X0663473Y0046966D02*
Y0052965D01*
X0667472Y0046966D01*
Y0052965D01*
X0669471D02*
X0673470D01*
X0671471D01*
Y0046966D01*
X0679468Y0051965D02*
X0678468Y0052965D01*
X0676469D01*
X0675469Y0051965D01*
Y0050965D01*
X0676469Y0049966D01*
X0678468D01*
X0679468Y0048966D01*
Y0047966D01*
X0678468Y0046966D01*
X0676469D01*
X0675469Y0047966D01*
X0454050Y0052965D02*
X0458049D01*
Y0051965D01*
X0454050Y0047966D01*
Y0046966D01*
X0460048Y0050965D02*
X0461048D01*
Y0049966D01*
X0460048D01*
Y0050965D01*
Y0047966D02*
X0461048D01*
Y0046966D01*
X0460048D01*
Y0047966D01*
X0469045Y0052965D02*
X0465046D01*
Y0049966D01*
X0467046Y0050965D01*
X0468046D01*
X0469045Y0049966D01*
Y0047966D01*
X0468046Y0046966D01*
X0466046D01*
X0465046Y0047966D01*
X0471044Y0051965D02*
X0472044Y0052965D01*
X0474044D01*
X0475043Y0051965D01*
Y0047966D01*
X0474044Y0046966D01*
X0472044D01*
X0471044Y0047966D01*
Y0051965D01*
X0477043Y0050965D02*
X0478042D01*
Y0049966D01*
X0477043D01*
Y0050965D01*
Y0047966D02*
X0478042D01*
Y0046966D01*
X0477043D01*
Y0047966D01*
X0486040Y0046966D02*
X0482041D01*
X0486040Y0050965D01*
Y0051965D01*
X0485040Y0052965D01*
X0483041D01*
X0482041Y0051965D01*
X0492038Y0052965D02*
X0490038Y0051965D01*
X0488039Y0049966D01*
Y0047966D01*
X0489039Y0046966D01*
X0491038D01*
X0492038Y0047966D01*
Y0048966D01*
X0491038Y0049966D01*
X0488039D01*
X0500035Y0046966D02*
Y0052965D01*
X0503034D01*
X0504034Y0051965D01*
Y0049966D01*
X0503034Y0048966D01*
X0500035D01*
X0506033Y0046966D02*
Y0052965D01*
X0508033Y0050965D01*
X0510032Y0052965D01*
Y0046966D01*
X0046350D02*
Y0052965D01*
X0049349D01*
X0050349Y0051965D01*
Y0049966D01*
X0049349Y0048966D01*
X0046350D01*
X0052348Y0052965D02*
Y0046966D01*
X0056347D01*
X0061345Y0052965D02*
X0059346D01*
X0058346Y0051965D01*
Y0047966D01*
X0059346Y0046966D01*
X0061345D01*
X0062345Y0047966D01*
Y0051965D01*
X0061345Y0052965D01*
X0064344D02*
X0068343D01*
X0066343D01*
Y0046966D01*
X0076340D02*
Y0052965D01*
X0080339Y0046966D01*
Y0052965D01*
X0082338Y0046966D02*
Y0050965D01*
X0084338Y0052965D01*
X0086337Y0050965D01*
Y0046966D01*
Y0049966D01*
X0082338D01*
X0088336Y0046966D02*
Y0052965D01*
X0090336Y0050965D01*
X0092335Y0052965D01*
Y0046966D01*
X0098333Y0052965D02*
X0094335D01*
Y0046966D01*
X0098333D01*
X0094335Y0049966D02*
X0096334D01*
X0106331Y0048966D02*
X0110329D01*
X0106331Y0050965D02*
X0110329D01*
X0046350Y0073549D02*
Y0067551D01*
X0050349D01*
X0052348D02*
Y0071549D01*
X0054347Y0073549D01*
X0056347Y0071549D01*
Y0067551D01*
Y0070550D01*
X0052348D01*
X0058346Y0073549D02*
Y0072549D01*
X0060346Y0070550D01*
X0062345Y0072549D01*
Y0073549D01*
X0060346Y0070550D02*
Y0067551D01*
X0068343Y0073549D02*
X0064344D01*
Y0067551D01*
X0068343D01*
X0064344Y0070550D02*
X0066343D01*
X0070342Y0067551D02*
Y0073549D01*
X0073341D01*
X0074341Y0072549D01*
Y0070550D01*
X0073341Y0069550D01*
X0070342D01*
X0072342D02*
X0074341Y0067551D01*
X0082338D02*
Y0073549D01*
X0086337Y0067551D01*
Y0073549D01*
X0088336Y0067551D02*
Y0071549D01*
X0090336Y0073549D01*
X0092335Y0071549D01*
Y0067551D01*
Y0070550D01*
X0088336D01*
X0094335Y0067551D02*
Y0073549D01*
X0096334Y0071549D01*
X0098333Y0073549D01*
Y0067551D01*
X0104331Y0073549D02*
X0100332D01*
Y0067551D01*
X0104331D01*
X0100332Y0070550D02*
X0102332D01*
X0112329Y0069550D02*
X0116327D01*
X0112329Y0071549D02*
X0116327D01*
X0294000Y0093831D02*
Y0087833D01*
X0296999D01*
X0297999Y0088833D01*
Y0089833D01*
X0296999Y0090832D01*
X0294000D01*
X0296999D01*
X0297999Y0091832D01*
Y0092832D01*
X0296999Y0093831D01*
X0294000D01*
X0302997D02*
X0300998D01*
X0299998Y0092832D01*
Y0088833D01*
X0300998Y0087833D01*
X0302997D01*
X0303997Y0088833D01*
Y0092832D01*
X0302997Y0093831D01*
X0305996Y0087833D02*
Y0091832D01*
X0307996Y0093831D01*
X0309995Y0091832D01*
Y0087833D01*
Y0090832D01*
X0305996D01*
X0311994Y0087833D02*
Y0093831D01*
X0314993D01*
X0315993Y0092832D01*
Y0090832D01*
X0314993Y0089833D01*
X0311994D01*
X0313994D02*
X0315993Y0087833D01*
X0317992Y0093831D02*
Y0087833D01*
X0320991D01*
X0321991Y0088833D01*
Y0092832D01*
X0320991Y0093831D01*
X0317992D01*
X0330988Y0087833D02*
Y0093831D01*
X0332987D02*
Y0087833D01*
X0329988Y0091832D02*
X0332987D01*
X0333987D01*
X0329988Y0089833D02*
X0333987D01*
X0335986Y0091832D02*
X0336986D01*
Y0090832D01*
X0335986D01*
Y0091832D01*
Y0088833D02*
X0336986D01*
Y0087833D01*
X0335986D01*
Y0088833D01*
X0348550Y0087833D02*
Y0093831D01*
X0350549Y0091832D01*
X0352549Y0093831D01*
Y0087833D01*
X0354548Y0093831D02*
Y0087833D01*
X0357547D01*
X0358547Y0088833D01*
Y0092832D01*
X0357547Y0093831D01*
X0354548D01*
X0360546Y0092832D02*
X0361546Y0093831D01*
X0363545D01*
X0364545Y0092832D01*
Y0088833D01*
X0363545Y0087833D01*
X0361546D01*
X0360546Y0088833D01*
Y0092832D01*
X0366544Y0087833D02*
X0368544D01*
X0367544D01*
Y0093831D01*
X0366544Y0092832D01*
X0375541Y0093831D02*
X0371543D01*
Y0090832D01*
X0373542Y0091832D01*
X0374542D01*
X0375541Y0090832D01*
Y0088833D01*
X0374542Y0087833D01*
X0372542D01*
X0371543Y0088833D01*
X0462150Y0087833D02*
Y0091832D01*
X0464149Y0093831D01*
X0466149Y0091832D01*
Y0087833D01*
Y0090832D01*
X0462150D01*
X0046350Y0087833D02*
Y0091832D01*
X0048349Y0093831D01*
X0050349Y0091832D01*
Y0087833D01*
Y0090832D01*
X0046350D01*
X0052348Y0093831D02*
Y0087833D01*
X0056347D01*
X0058346Y0093831D02*
Y0087833D01*
X0062345D01*
X0070342D02*
Y0091832D01*
X0072342Y0093831D01*
X0074341Y0091832D01*
Y0087833D01*
Y0090832D01*
X0070342D01*
X0076340Y0087833D02*
Y0093831D01*
X0079339D01*
X0080339Y0092832D01*
Y0090832D01*
X0079339Y0089833D01*
X0076340D01*
X0078340D02*
X0080339Y0087833D01*
X0082338Y0093831D02*
X0086337D01*
X0084338D01*
Y0087833D01*
X0088336Y0093831D02*
Y0087833D01*
X0090336Y0089833D01*
X0092335Y0087833D01*
Y0093831D01*
X0097334D02*
X0095334D01*
X0094335Y0092832D01*
Y0088833D01*
X0095334Y0087833D01*
X0097334D01*
X0098333Y0088833D01*
Y0092832D01*
X0097334Y0093831D01*
X0100332Y0087833D02*
Y0093831D01*
X0103332D01*
X0104331Y0092832D01*
Y0090832D01*
X0103332Y0089833D01*
X0100332D01*
X0102332D02*
X0104331Y0087833D01*
X0106331Y0093831D02*
Y0087833D01*
Y0089833D01*
X0110329Y0093831D01*
X0107330Y0090832D01*
X0110329Y0087833D01*
X0118327Y0093831D02*
Y0089833D01*
X0120326Y0087833D01*
X0122325Y0089833D01*
Y0093831D01*
X0124325D02*
X0126324D01*
X0125324D01*
Y0087833D01*
X0124325D01*
X0126324D01*
X0133322Y0093831D02*
X0129323D01*
Y0087833D01*
X0133322D01*
X0129323Y0090832D02*
X0131323D01*
X0135321Y0093831D02*
Y0087833D01*
X0137321Y0089833D01*
X0139320Y0087833D01*
Y0093831D01*
X0145318D02*
X0141319D01*
Y0087833D01*
X0145318D01*
X0141319Y0090832D02*
X0143319D01*
X0147317Y0093831D02*
Y0087833D01*
X0150316D01*
X0151316Y0088833D01*
Y0092832D01*
X0150316Y0093831D01*
X0147317D01*
X0163312D02*
X0159313D01*
Y0090832D01*
X0161313D01*
X0159313D01*
Y0087833D01*
X0165312D02*
Y0093831D01*
X0168310D01*
X0169310Y0092832D01*
Y0090832D01*
X0168310Y0089833D01*
X0165312D01*
X0167311D02*
X0169310Y0087833D01*
X0174309Y0093831D02*
X0172309D01*
X0171310Y0092832D01*
Y0088833D01*
X0172309Y0087833D01*
X0174309D01*
X0175308Y0088833D01*
Y0092832D01*
X0174309Y0093831D01*
X0177308Y0087833D02*
Y0093831D01*
X0179307Y0091832D01*
X0181306Y0093831D01*
Y0087833D01*
X0189304Y0093831D02*
X0193303D01*
X0191303D01*
Y0087833D01*
X0198301Y0093831D02*
X0196301D01*
X0195302Y0092832D01*
Y0088833D01*
X0196301Y0087833D01*
X0198301D01*
X0199301Y0088833D01*
Y0092832D01*
X0198301Y0093831D01*
X0201300Y0087833D02*
Y0093831D01*
X0204299D01*
X0205299Y0092832D01*
Y0090832D01*
X0204299Y0089833D01*
X0201300D01*
X0217295Y0092832D02*
X0216295Y0093831D01*
X0214296D01*
X0213296Y0092832D01*
Y0091832D01*
X0214296Y0090832D01*
X0216295D01*
X0217295Y0089833D01*
Y0088833D01*
X0216295Y0087833D01*
X0214296D01*
X0213296Y0088833D01*
X0219294Y0093831D02*
X0221293D01*
X0220294D01*
Y0087833D01*
X0219294D01*
X0221293D01*
X0224292Y0093831D02*
Y0087833D01*
X0227291D01*
X0228291Y0088833D01*
Y0092832D01*
X0227291Y0093831D01*
X0224292D01*
X0234289D02*
X0230291D01*
Y0087833D01*
X0234289D01*
X0230291Y0090832D02*
X0232290D01*
X0298199Y0051965D02*
X0297199Y0052965D01*
X0295200D01*
X0294200Y0051965D01*
Y0047966D01*
X0295200Y0046966D01*
X0297199D01*
X0298199Y0047966D01*
Y0049966D01*
X0296199D01*
X0304197Y0052965D02*
X0300198D01*
Y0046966D01*
X0304197D01*
X0300198Y0049966D02*
X0302197D01*
X0306196Y0046966D02*
Y0052965D01*
X0310195Y0046966D01*
Y0052965D01*
X0316193D02*
X0312194D01*
Y0046966D01*
X0316193D01*
X0312194Y0049966D02*
X0314194D01*
X0318192Y0046966D02*
Y0052965D01*
X0321191D01*
X0322191Y0051965D01*
Y0049966D01*
X0321191Y0048966D01*
X0318192D01*
X0320192D02*
X0322191Y0046966D01*
X0324190D02*
Y0050965D01*
X0326190Y0052965D01*
X0328189Y0050965D01*
Y0046966D01*
Y0049966D01*
X0324190D01*
X0330188Y0052965D02*
X0334187D01*
X0332188D01*
Y0046966D01*
X0340185Y0052965D02*
X0336186D01*
Y0046966D01*
X0340185D01*
X0336186Y0049966D02*
X0338186D01*
X0342184Y0052965D02*
Y0046966D01*
X0345183D01*
X0346183Y0047966D01*
Y0051965D01*
X0345183Y0052965D01*
X0342184D01*
X0372175Y0050965D02*
X0373175D01*
Y0049966D01*
X0372175D01*
Y0050965D01*
Y0047966D02*
X0373175D01*
Y0046966D01*
X0372175D01*
Y0047966D01*
X0381150Y0046966D02*
X0383149D01*
X0382150D01*
Y0052965D01*
X0381150Y0051965D01*
X0390147Y0046966D02*
X0386148D01*
X0390147Y0050965D01*
Y0051965D01*
X0389147Y0052965D01*
X0387148D01*
X0386148Y0051965D01*
X0392146Y0046966D02*
X0396145Y0050965D01*
X0402143Y0046966D02*
X0398145D01*
X0402143Y0050965D01*
Y0051965D01*
X0401144Y0052965D01*
X0399144D01*
X0398145Y0051965D01*
X0404143Y0046966D02*
X0408141Y0050965D01*
X0414139Y0046966D02*
X0410141D01*
X0414139Y0050965D01*
Y0051965D01*
X0413140Y0052965D01*
X0411140D01*
X0410141Y0051965D01*
X0416139D02*
X0417138Y0052965D01*
X0419138D01*
X0420137Y0051965D01*
Y0047966D01*
X0419138Y0046966D01*
X0417138D01*
X0416139Y0047966D01*
Y0051965D01*
X0422137Y0046966D02*
X0424136D01*
X0423136D01*
Y0052965D01*
X0422137Y0051965D01*
X0427135D02*
X0428135Y0052965D01*
X0430134D01*
X0431134Y0051965D01*
Y0050965D01*
X0430134Y0049966D01*
X0431134Y0048966D01*
Y0047966D01*
X0430134Y0046966D01*
X0428135D01*
X0427135Y0047966D01*
Y0048966D01*
X0428135Y0049966D01*
X0427135Y0050965D01*
Y0051965D01*
X0428135Y0049966D02*
X0430134D01*
X0126900Y0046966D02*
Y0052965D01*
X0128899Y0050965D01*
X0130899Y0052965D01*
Y0046966D01*
X0132898Y0052965D02*
Y0046966D01*
X0135897D01*
X0136897Y0047966D01*
Y0051965D01*
X0135897Y0052965D01*
X0132898D01*
X0138896Y0051965D02*
X0139896Y0052965D01*
X0141895D01*
X0142895Y0051965D01*
Y0047966D01*
X0141895Y0046966D01*
X0139896D01*
X0138896Y0047966D01*
Y0051965D01*
X0144894Y0046966D02*
X0146894D01*
X0145894D01*
Y0052965D01*
X0144894Y0051965D01*
X0153891Y0052965D02*
X0149893D01*
Y0049966D01*
X0151892Y0050965D01*
X0152892D01*
X0153891Y0049966D01*
Y0047966D01*
X0152892Y0046966D01*
X0150892D01*
X0149893Y0047966D01*
X0155891Y0046966D02*
Y0050965D01*
X0157890Y0052965D01*
X0159889Y0050965D01*
Y0046966D01*
Y0049966D01*
X0155891D01*
X0161889Y0046966D02*
Y0047966D01*
X0162888D01*
Y0046966D01*
X0161889D01*
X0170886Y0051965D02*
X0169886Y0052965D01*
X0167887D01*
X0166887Y0051965D01*
Y0047966D01*
X0167887Y0046966D01*
X0169886D01*
X0170886Y0047966D01*
Y0049966D01*
X0168886D01*
X0172885Y0046966D02*
Y0052965D01*
X0174884Y0050965D01*
X0176884Y0052965D01*
Y0046966D01*
X0178883D02*
X0180883D01*
X0179883D01*
Y0052965D01*
X0178883Y0051965D01*
X0187880Y0046966D02*
X0183882D01*
X0187880Y0050965D01*
Y0051965D01*
X0186881Y0052965D01*
X0184881D01*
X0183882Y0051965D01*
X0433000Y0087833D02*
Y0093831D01*
X0435999D01*
X0436999Y0092832D01*
Y0090832D01*
X0435999Y0089833D01*
X0433000D01*
X0434999D02*
X0436999Y0087833D01*
X0442997Y0093831D02*
X0438998D01*
Y0087833D01*
X0442997D01*
X0438998Y0090832D02*
X0440997D01*
X0444996Y0093831D02*
Y0089833D01*
X0446995Y0087833D01*
X0448995Y0089833D01*
Y0093831D01*
X0450994Y0091832D02*
X0451994D01*
Y0090832D01*
X0450994D01*
Y0091832D01*
Y0088833D02*
X0451994D01*
Y0087833D01*
X0450994D01*
Y0088833D01*
X0520799Y0092832D02*
X0519799Y0093831D01*
X0517800D01*
X0516800Y0092832D01*
Y0091832D01*
X0517800Y0090832D01*
X0519799D01*
X0520799Y0089833D01*
Y0088833D01*
X0519799Y0087833D01*
X0517800D01*
X0516800Y0088833D01*
X0522798Y0093831D02*
Y0089833D01*
X0524797Y0087833D01*
X0526797Y0089833D01*
Y0093831D01*
X0528796Y0087833D02*
Y0093831D01*
X0532795Y0087833D01*
Y0093831D01*
X0540792Y0087833D02*
Y0093831D01*
X0543791D01*
X0544791Y0092832D01*
Y0090832D01*
X0543791Y0089833D01*
X0540792D01*
X0542792D02*
X0544791Y0087833D01*
X0550789Y0093831D02*
X0546790D01*
Y0087833D01*
X0550789D01*
X0546790Y0090832D02*
X0548790D01*
X0552788Y0093831D02*
Y0089833D01*
X0554788Y0087833D01*
X0556787Y0089833D01*
Y0093831D01*
X0558786Y0091832D02*
X0559786D01*
Y0090832D01*
X0558786D01*
Y0091832D01*
Y0088833D02*
X0559786D01*
Y0087833D01*
X0558786D01*
Y0088833D01*
X0567400Y0087833D02*
Y0093831D01*
X0571399Y0087833D01*
Y0093831D01*
X0574398Y0087833D02*
X0576397D01*
X0577397Y0088833D01*
Y0090832D01*
X0576397Y0091832D01*
X0574398D01*
X0573398Y0090832D01*
Y0088833D01*
X0574398Y0087833D01*
X0580396Y0092832D02*
Y0091832D01*
X0579396D01*
X0581395D01*
X0580396D01*
Y0088833D01*
X0581395Y0087833D01*
X0590393Y0093831D02*
X0592392D01*
X0591392D01*
Y0087833D01*
X0590393D01*
X0592392D01*
X0595391D02*
Y0091832D01*
X0598390D01*
X0599390Y0090832D01*
Y0087833D01*
X0607387Y0093831D02*
Y0089833D01*
X0609386Y0087833D01*
X0611386Y0089833D01*
Y0093831D01*
X0616384Y0087833D02*
X0614385D01*
X0613385Y0088833D01*
Y0090832D01*
X0614385Y0091832D01*
X0616384D01*
X0617384Y0090832D01*
Y0089833D01*
X0613385D01*
X0619383Y0091832D02*
Y0087833D01*
Y0089833D01*
X0620383Y0090832D01*
X0621383Y0091832D01*
X0622382D01*
X0625381Y0087833D02*
X0628380D01*
X0629380Y0088833D01*
X0628380Y0089833D01*
X0626381D01*
X0625381Y0090832D01*
X0626381Y0091832D01*
X0629380D01*
X0631379Y0087833D02*
X0633379D01*
X0632379D01*
Y0091832D01*
X0631379D01*
X0637377Y0087833D02*
X0639377D01*
X0640376Y0088833D01*
Y0090832D01*
X0639377Y0091832D01*
X0637377D01*
X0636378Y0090832D01*
Y0088833D01*
X0637377Y0087833D01*
X0642376D02*
Y0091832D01*
X0645375D01*
X0646374Y0090832D01*
Y0087833D01*
X0652373Y0092832D02*
X0651373Y0093831D01*
X0649373D01*
X0648374Y0092832D01*
Y0088833D01*
X0649373Y0087833D01*
X0651373D01*
X0652373Y0088833D01*
X0655372Y0087833D02*
X0657371D01*
X0658371Y0088833D01*
Y0090832D01*
X0657371Y0091832D01*
X0655372D01*
X0654372Y0090832D01*
Y0088833D01*
X0655372Y0087833D01*
X0660370D02*
Y0091832D01*
X0663369D01*
X0664369Y0090832D01*
Y0087833D01*
X0667368Y0092832D02*
Y0091832D01*
X0666368D01*
X0668367D01*
X0667368D01*
Y0088833D01*
X0668367Y0087833D01*
X0671366Y0091832D02*
Y0087833D01*
Y0089833D01*
X0672366Y0090832D01*
X0673366Y0091832D01*
X0674365D01*
X0678364Y0087833D02*
X0680364D01*
X0681363Y0088833D01*
Y0090832D01*
X0680364Y0091832D01*
X0678364D01*
X0677364Y0090832D01*
Y0088833D01*
X0678364Y0087833D01*
X0683362D02*
X0685362D01*
X0684362D01*
Y0093831D01*
X0683362D01*
G54D200*
X0535320Y0534788D02*
X0990200D01*
X0535320Y0546788D02*
X0990200D01*
X0535320Y0402788D02*
Y0546788D01*
Y0402788D02*
X0576311D01*
X0535320Y0414788D02*
X0576311D01*
X0535320Y0426788D02*
X0576311D01*
X0535320Y0438788D02*
X0576311D01*
X0535320Y0450788D02*
X0576311D01*
X0535320Y0462788D02*
X0576311D01*
X0535320Y0474788D02*
X0576311D01*
X0535320Y0486788D02*
X0576311D01*
X0535320Y0498788D02*
X0576311D01*
X0535320Y0510788D02*
X0576311D01*
X0535320Y0522788D02*
X0576311D01*
Y0402788D02*
Y0546788D01*
Y0402788D02*
X0670285D01*
X0576311Y0414788D02*
X0670285D01*
X0576311Y0426788D02*
X0670285D01*
X0576311Y0438788D02*
X0670285D01*
X0576311Y0450788D02*
X0670285D01*
X0576311Y0462788D02*
X0670285D01*
X0576311Y0474788D02*
X0670285D01*
X0576311Y0486788D02*
X0670285D01*
X0576311Y0498788D02*
X0670285D01*
X0576311Y0510788D02*
X0670285D01*
X0576311Y0522788D02*
X0670285D01*
Y0402788D02*
Y0546788D01*
Y0402788D02*
X0756262D01*
X0670285Y0414788D02*
X0756262D01*
X0670285Y0426788D02*
X0756262D01*
X0670285Y0438788D02*
X0756262D01*
X0670285Y0450788D02*
X0756262D01*
X0670285Y0462788D02*
X0756262D01*
X0670285Y0474788D02*
X0756262D01*
X0670285Y0486788D02*
X0756262D01*
X0670285Y0498788D02*
X0756262D01*
X0670285Y0510788D02*
X0756262D01*
X0670285Y0522788D02*
X0756262D01*
Y0402788D02*
Y0546788D01*
Y0402788D02*
X0821246D01*
X0756262Y0414788D02*
X0821246D01*
X0756262Y0426788D02*
X0821246D01*
X0756262Y0438788D02*
X0821246D01*
X0756262Y0450788D02*
X0821246D01*
X0756262Y0462788D02*
X0821246D01*
X0756262Y0474788D02*
X0821246D01*
X0756262Y0486788D02*
X0821246D01*
X0756262Y0498788D02*
X0821246D01*
X0756262Y0510788D02*
X0821246D01*
X0756262Y0522788D02*
X0821246D01*
Y0402788D02*
Y0546788D01*
Y0402788D02*
X0878232D01*
X0821246Y0414788D02*
X0878232D01*
X0821246Y0426788D02*
X0878232D01*
X0821246Y0438788D02*
X0878232D01*
X0821246Y0450788D02*
X0878232D01*
X0821246Y0462788D02*
X0878232D01*
X0821246Y0474788D02*
X0878232D01*
X0821246Y0486788D02*
X0878232D01*
X0821246Y0498788D02*
X0878232D01*
X0821246Y0510788D02*
X0878232D01*
X0821246Y0522788D02*
X0878232D01*
Y0402788D02*
Y0546788D01*
Y0402788D02*
X0990200D01*
X0878232Y0414788D02*
X0990200D01*
X0878232Y0426788D02*
X0990200D01*
X0878232Y0438788D02*
X0990200D01*
X0878232Y0450788D02*
X0990200D01*
X0878232Y0462788D02*
X0990200D01*
X0878232Y0474788D02*
X0990200D01*
X0878232Y0486788D02*
X0990200D01*
X0878232Y0498788D02*
X0990200D01*
X0878232Y0510788D02*
X0990200D01*
X0878232Y0522788D02*
X0990200D01*
Y0402788D02*
Y0546788D01*
G54D201*
X0984200Y0402788D02*
X0990200Y0408788D01*
X0978200Y0402788D02*
X0990200Y0414788D01*
X0972200Y0402788D02*
X0984200Y0414788D01*
X0966200Y0402788D02*
X0978200Y0414788D01*
X0960200Y0402788D02*
X0972200Y0414788D01*
X0954200Y0402788D02*
X0966200Y0414788D01*
X0948200Y0402788D02*
X0960200Y0414788D01*
X0942200Y0402788D02*
X0954200Y0414788D01*
X0936200Y0402788D02*
X0948200Y0414788D01*
X0930200Y0402788D02*
X0942200Y0414788D01*
X0924200Y0402788D02*
X0936200Y0414788D01*
X0918200Y0402788D02*
X0930200Y0414788D01*
X0912200Y0402788D02*
X0924200Y0414788D01*
X0906200Y0402788D02*
X0918200Y0414788D01*
X0900200Y0402788D02*
X0912200Y0414788D01*
X0894200Y0402788D02*
X0906200Y0414788D01*
X0888200Y0402788D02*
X0900200Y0414788D01*
X0882200Y0402788D02*
X0894200Y0414788D01*
X0878232Y0404820D02*
X0888200Y0414788D01*
X0878232Y0410820D02*
X0882200Y0414788D01*
X0984200D02*
X0990200Y0420788D01*
X0978200Y0414788D02*
X0990200Y0426788D01*
X0972200Y0414788D02*
X0984200Y0426788D01*
X0966200Y0414788D02*
X0978200Y0426788D01*
X0960200Y0414788D02*
X0972200Y0426788D01*
X0954200Y0414788D02*
X0966200Y0426788D01*
X0948200Y0414788D02*
X0960200Y0426788D01*
X0942200Y0414788D02*
X0954200Y0426788D01*
X0936200Y0414788D02*
X0948200Y0426788D01*
X0930200Y0414788D02*
X0942200Y0426788D01*
X0924200Y0414788D02*
X0936200Y0426788D01*
X0918200Y0414788D02*
X0930200Y0426788D01*
X0912200Y0414788D02*
X0924200Y0426788D01*
X0906200Y0414788D02*
X0918200Y0426788D01*
X0900200Y0414788D02*
X0912200Y0426788D01*
X0894200Y0414788D02*
X0906200Y0426788D01*
X0888200Y0414788D02*
X0900200Y0426788D01*
X0882200Y0414788D02*
X0894200Y0426788D01*
X0878232Y0416820D02*
X0888200Y0426788D01*
X0878232Y0422820D02*
X0882200Y0426788D01*
X0984200D02*
X0990200Y0432788D01*
X0978200Y0426788D02*
X0990200Y0438788D01*
X0972200Y0426788D02*
X0984200Y0438788D01*
X0966200Y0426788D02*
X0978200Y0438788D01*
X0960200Y0426788D02*
X0972200Y0438788D01*
X0954200Y0426788D02*
X0966200Y0438788D01*
X0948200Y0426788D02*
X0960200Y0438788D01*
X0942200Y0426788D02*
X0954200Y0438788D01*
X0936200Y0426788D02*
X0948200Y0438788D01*
X0930200Y0426788D02*
X0942200Y0438788D01*
X0924200Y0426788D02*
X0936200Y0438788D01*
X0918200Y0426788D02*
X0930200Y0438788D01*
X0912200Y0426788D02*
X0924200Y0438788D01*
X0906200Y0426788D02*
X0918200Y0438788D01*
X0900200Y0426788D02*
X0912200Y0438788D01*
X0894200Y0426788D02*
X0906200Y0438788D01*
X0888200Y0426788D02*
X0900200Y0438788D01*
X0882200Y0426788D02*
X0894200Y0438788D01*
X0878232Y0428820D02*
X0888200Y0438788D01*
X0878232Y0434820D02*
X0882200Y0438788D01*
X0984200D02*
X0990200Y0444788D01*
X0978200Y0438788D02*
X0990200Y0450788D01*
X0972200Y0438788D02*
X0984200Y0450788D01*
X0966200Y0438788D02*
X0978200Y0450788D01*
X0960200Y0438788D02*
X0972200Y0450788D01*
X0954200Y0438788D02*
X0966200Y0450788D01*
X0948200Y0438788D02*
X0960200Y0450788D01*
X0942200Y0438788D02*
X0954200Y0450788D01*
X0936200Y0438788D02*
X0948200Y0450788D01*
X0930200Y0438788D02*
X0942200Y0450788D01*
X0924200Y0438788D02*
X0936200Y0450788D01*
X0918200Y0438788D02*
X0930200Y0450788D01*
X0912200Y0438788D02*
X0924200Y0450788D01*
X0906200Y0438788D02*
X0918200Y0450788D01*
X0900200Y0438788D02*
X0912200Y0450788D01*
X0894200Y0438788D02*
X0906200Y0450788D01*
X0888200Y0438788D02*
X0900200Y0450788D01*
X0882200Y0438788D02*
X0894200Y0450788D01*
X0878232Y0440820D02*
X0888200Y0450788D01*
X0878232Y0446820D02*
X0882200Y0450788D01*
X0984200D02*
X0990200Y0456788D01*
X0978200Y0450788D02*
X0990200Y0462788D01*
X0972200Y0450788D02*
X0984200Y0462788D01*
X0966200Y0450788D02*
X0978200Y0462788D01*
X0960200Y0450788D02*
X0972200Y0462788D01*
X0954200Y0450788D02*
X0966200Y0462788D01*
X0948200Y0450788D02*
X0960200Y0462788D01*
X0942200Y0450788D02*
X0954200Y0462788D01*
X0936200Y0450788D02*
X0948200Y0462788D01*
X0930200Y0450788D02*
X0942200Y0462788D01*
X0924200Y0450788D02*
X0936200Y0462788D01*
X0918200Y0450788D02*
X0930200Y0462788D01*
X0912200Y0450788D02*
X0924200Y0462788D01*
X0906200Y0450788D02*
X0918200Y0462788D01*
X0900200Y0450788D02*
X0912200Y0462788D01*
X0894200Y0450788D02*
X0906200Y0462788D01*
X0888200Y0450788D02*
X0900200Y0462788D01*
X0882200Y0450788D02*
X0894200Y0462788D01*
X0878232Y0452820D02*
X0888200Y0462788D01*
X0878232Y0458820D02*
X0882200Y0462788D01*
X0984200D02*
X0990200Y0468788D01*
X0978200Y0462788D02*
X0990200Y0474788D01*
X0972200Y0462788D02*
X0984200Y0474788D01*
X0966200Y0462788D02*
X0978200Y0474788D01*
X0960200Y0462788D02*
X0972200Y0474788D01*
X0954200Y0462788D02*
X0966200Y0474788D01*
X0948200Y0462788D02*
X0960200Y0474788D01*
X0942200Y0462788D02*
X0954200Y0474788D01*
X0936200Y0462788D02*
X0948200Y0474788D01*
X0930200Y0462788D02*
X0942200Y0474788D01*
X0924200Y0462788D02*
X0936200Y0474788D01*
X0918200Y0462788D02*
X0930200Y0474788D01*
X0912200Y0462788D02*
X0924200Y0474788D01*
X0906200Y0462788D02*
X0918200Y0474788D01*
X0900200Y0462788D02*
X0912200Y0474788D01*
X0894200Y0462788D02*
X0906200Y0474788D01*
X0888200Y0462788D02*
X0900200Y0474788D01*
X0882200Y0462788D02*
X0894200Y0474788D01*
X0878232Y0464820D02*
X0888200Y0474788D01*
X0878232Y0470820D02*
X0882200Y0474788D01*
X0984200D02*
X0990200Y0480788D01*
X0978200Y0474788D02*
X0990200Y0486788D01*
X0972200Y0474788D02*
X0984200Y0486788D01*
X0966200Y0474788D02*
X0978200Y0486788D01*
X0960200Y0474788D02*
X0972200Y0486788D01*
X0954200Y0474788D02*
X0966200Y0486788D01*
X0948200Y0474788D02*
X0960200Y0486788D01*
X0942200Y0474788D02*
X0954200Y0486788D01*
X0936200Y0474788D02*
X0948200Y0486788D01*
X0930200Y0474788D02*
X0942200Y0486788D01*
X0924200Y0474788D02*
X0936200Y0486788D01*
X0918200Y0474788D02*
X0930200Y0486788D01*
X0912200Y0474788D02*
X0924200Y0486788D01*
X0906200Y0474788D02*
X0918200Y0486788D01*
X0900200Y0474788D02*
X0912200Y0486788D01*
X0894200Y0474788D02*
X0906200Y0486788D01*
X0888200Y0474788D02*
X0900200Y0486788D01*
X0882200Y0474788D02*
X0894200Y0486788D01*
X0878232Y0476820D02*
X0888200Y0486788D01*
X0878232Y0482820D02*
X0882200Y0486788D01*
X0984200D02*
X0990200Y0492788D01*
X0978200Y0486788D02*
X0990200Y0498788D01*
X0972200Y0486788D02*
X0984200Y0498788D01*
X0966200Y0486788D02*
X0978200Y0498788D01*
X0960200Y0486788D02*
X0972200Y0498788D01*
X0954200Y0486788D02*
X0966200Y0498788D01*
X0948200Y0486788D02*
X0960200Y0498788D01*
X0942200Y0486788D02*
X0954200Y0498788D01*
X0936200Y0486788D02*
X0948200Y0498788D01*
X0930200Y0486788D02*
X0942200Y0498788D01*
X0924200Y0486788D02*
X0936200Y0498788D01*
X0918200Y0486788D02*
X0930200Y0498788D01*
X0912200Y0486788D02*
X0924200Y0498788D01*
X0906200Y0486788D02*
X0918200Y0498788D01*
X0900200Y0486788D02*
X0912200Y0498788D01*
X0894200Y0486788D02*
X0906200Y0498788D01*
X0888200Y0486788D02*
X0900200Y0498788D01*
X0882200Y0486788D02*
X0894200Y0498788D01*
X0878232Y0488820D02*
X0888200Y0498788D01*
X0878232Y0494820D02*
X0882200Y0498788D01*
X0984200D02*
X0990200Y0504788D01*
X0978200Y0498788D02*
X0990200Y0510788D01*
X0972200Y0498788D02*
X0984200Y0510788D01*
X0966200Y0498788D02*
X0978200Y0510788D01*
X0960200Y0498788D02*
X0972200Y0510788D01*
X0954200Y0498788D02*
X0966200Y0510788D01*
X0948200Y0498788D02*
X0960200Y0510788D01*
X0942200Y0498788D02*
X0954200Y0510788D01*
X0936200Y0498788D02*
X0948200Y0510788D01*
X0930200Y0498788D02*
X0942200Y0510788D01*
X0924200Y0498788D02*
X0936200Y0510788D01*
X0918200Y0498788D02*
X0930200Y0510788D01*
X0912200Y0498788D02*
X0924200Y0510788D01*
X0906200Y0498788D02*
X0918200Y0510788D01*
X0900200Y0498788D02*
X0912200Y0510788D01*
X0894200Y0498788D02*
X0906200Y0510788D01*
X0888200Y0498788D02*
X0900200Y0510788D01*
X0882200Y0498788D02*
X0894200Y0510788D01*
X0878232Y0500820D02*
X0888200Y0510788D01*
X0878232Y0506820D02*
X0882200Y0510788D01*
X0984200D02*
X0990200Y0516788D01*
X0978200Y0510788D02*
X0990200Y0522788D01*
X0972200Y0510788D02*
X0984200Y0522788D01*
X0966200Y0510788D02*
X0978200Y0522788D01*
X0960200Y0510788D02*
X0972200Y0522788D01*
X0954200Y0510788D02*
X0966200Y0522788D01*
X0948200Y0510788D02*
X0960200Y0522788D01*
X0942200Y0510788D02*
X0954200Y0522788D01*
X0936200Y0510788D02*
X0948200Y0522788D01*
X0930200Y0510788D02*
X0942200Y0522788D01*
X0924200Y0510788D02*
X0936200Y0522788D01*
X0918200Y0510788D02*
X0930200Y0522788D01*
X0912200Y0510788D02*
X0924200Y0522788D01*
X0906200Y0510788D02*
X0918200Y0522788D01*
X0900200Y0510788D02*
X0912200Y0522788D01*
X0894200Y0510788D02*
X0906200Y0522788D01*
X0888200Y0510788D02*
X0900200Y0522788D01*
X0882200Y0510788D02*
X0894200Y0522788D01*
X0878232Y0512820D02*
X0888200Y0522788D01*
X0878232Y0518820D02*
X0882200Y0522788D01*
X0984200D02*
X0990200Y0528788D01*
X0978200Y0522788D02*
X0990200Y0534788D01*
X0972200Y0522788D02*
X0984200Y0534788D01*
X0966200Y0522788D02*
X0978200Y0534788D01*
X0960200Y0522788D02*
X0972200Y0534788D01*
X0954200Y0522788D02*
X0966200Y0534788D01*
X0948200Y0522788D02*
X0960200Y0534788D01*
X0942200Y0522788D02*
X0954200Y0534788D01*
X0936200Y0522788D02*
X0948200Y0534788D01*
X0930200Y0522788D02*
X0942200Y0534788D01*
X0924200Y0522788D02*
X0936200Y0534788D01*
X0918200Y0522788D02*
X0930200Y0534788D01*
X0912200Y0522788D02*
X0924200Y0534788D01*
X0906200Y0522788D02*
X0918200Y0534788D01*
X0900200Y0522788D02*
X0912200Y0534788D01*
X0894200Y0522788D02*
X0906200Y0534788D01*
X0888200Y0522788D02*
X0900200Y0534788D01*
X0882200Y0522788D02*
X0894200Y0534788D01*
X0878232Y0524820D02*
X0888200Y0534788D01*
X0878232Y0530820D02*
X0882200Y0534788D01*
M02*
