G04*
G04 #@! TF.GenerationSoftware,Altium Limited,Altium Designer,18.1.9 (240)*
G04*
G04 Layer_Physical_Order=3*
G04 Layer_Color=16440176*
%FSAX25Y25*%
%MOIN*%
G70*
G01*
G75*
%ADD16C,0.01000*%
%ADD22C,0.00800*%
%ADD154C,0.06693*%
%ADD158C,0.07087*%
%ADD183C,0.06299*%
%ADD184R,0.07087X0.07087*%
%ADD188C,0.06024*%
%ADD190C,0.08000*%
%ADD191C,0.05315*%
%ADD192R,0.05315X0.05315*%
%ADD193C,0.03400*%
%ADD194C,0.03100*%
%ADD195C,0.01968*%
%ADD196C,0.06000*%
G36*
X0416651Y0155949D02*
X0217749D01*
Y0220262D01*
X0217924Y0221144D01*
Y0226341D01*
X0218711Y0226849D01*
X0219493Y0226746D01*
X0220550Y0226885D01*
X0221535Y0227293D01*
X0222381Y0227943D01*
X0223030Y0228789D01*
X0223438Y0229774D01*
X0223577Y0230831D01*
X0223438Y0231888D01*
X0223030Y0232874D01*
X0222381Y0233720D01*
X0221535Y0234369D01*
X0220550Y0234777D01*
X0219493Y0234916D01*
X0218711Y0234813D01*
X0217924Y0235322D01*
Y0245854D01*
X0217730Y0246829D01*
X0217178Y0247656D01*
X0216351Y0248208D01*
X0215376Y0248403D01*
X0072200D01*
X0071749Y0248773D01*
Y0710851D01*
X0416651D01*
Y0155949D01*
D02*
G37*
G36*
X0183311Y0217595D02*
X0183254Y0217457D01*
X0183115Y0216400D01*
X0183254Y0215343D01*
X0183662Y0214357D01*
X0184311Y0213511D01*
X0185158Y0212862D01*
X0186143Y0212454D01*
X0186878Y0212357D01*
X0187013Y0211331D01*
X0186530Y0211131D01*
X0185684Y0210481D01*
X0185034Y0209635D01*
X0184626Y0208650D01*
X0184555Y0208109D01*
X0183732Y0208001D01*
X0182747Y0207593D01*
X0181901Y0206944D01*
X0181252Y0206098D01*
X0180844Y0205113D01*
X0180827Y0204989D01*
X0180787Y0204928D01*
X0179742Y0204402D01*
X0179298Y0204586D01*
X0178241Y0204726D01*
X0177183Y0204586D01*
X0176198Y0204178D01*
X0175352Y0203529D01*
X0174703Y0202683D01*
X0174295Y0201698D01*
X0174156Y0200641D01*
X0174295Y0199583D01*
X0174703Y0198598D01*
X0175352Y0197752D01*
X0176198Y0197103D01*
X0177183Y0196695D01*
X0178241Y0196556D01*
X0179298Y0196695D01*
X0180283Y0197103D01*
X0181129Y0197752D01*
X0181778Y0198598D01*
X0182186Y0199583D01*
X0182202Y0199707D01*
X0182243Y0199767D01*
X0183288Y0200293D01*
X0183732Y0200110D01*
X0184500Y0200008D01*
X0184626Y0199052D01*
X0185034Y0198067D01*
X0185271Y0197758D01*
X0185034Y0197449D01*
X0184626Y0196464D01*
X0184555Y0195923D01*
X0183732Y0195815D01*
X0182747Y0195407D01*
X0181901Y0194758D01*
X0181252Y0193912D01*
X0180844Y0192926D01*
X0180704Y0191869D01*
X0180844Y0190812D01*
X0181252Y0189827D01*
X0181901Y0188981D01*
X0182747Y0188331D01*
X0183732Y0187923D01*
X0184500Y0187822D01*
X0184626Y0186866D01*
X0185034Y0185881D01*
X0185380Y0185431D01*
X0185034Y0184980D01*
X0184626Y0183995D01*
X0184555Y0183454D01*
X0183732Y0183346D01*
X0182747Y0182938D01*
X0181901Y0182289D01*
X0181252Y0181442D01*
X0180844Y0180457D01*
X0180704Y0179400D01*
X0180844Y0178343D01*
X0181252Y0177357D01*
X0181901Y0176512D01*
X0182747Y0175862D01*
X0183732Y0175454D01*
X0184500Y0175353D01*
X0184626Y0174397D01*
X0185034Y0173412D01*
X0185475Y0172837D01*
X0185034Y0172262D01*
X0184626Y0171277D01*
X0184555Y0170736D01*
X0183732Y0170628D01*
X0182747Y0170220D01*
X0181901Y0169571D01*
X0181252Y0168725D01*
X0181000Y0168116D01*
X0180360Y0168077D01*
X0179945Y0168184D01*
X0179469Y0169333D01*
X0178627Y0170431D01*
X0177529Y0171273D01*
X0176250Y0171803D01*
X0174878Y0171983D01*
X0173506Y0171803D01*
X0172228Y0171273D01*
X0171130Y0170431D01*
X0170287Y0169333D01*
X0169758Y0168054D01*
X0169577Y0166682D01*
Y0163926D01*
X0169758Y0162554D01*
X0170287Y0161276D01*
X0171130Y0160178D01*
X0172228Y0159335D01*
X0173506Y0158806D01*
X0174878Y0158625D01*
X0176250Y0158806D01*
X0177529Y0159335D01*
X0178627Y0160178D01*
X0179469Y0161276D01*
X0179999Y0162554D01*
X0180180Y0163926D01*
Y0164615D01*
X0181180Y0164814D01*
X0181252Y0164640D01*
X0181901Y0163794D01*
X0182747Y0163145D01*
X0183732Y0162736D01*
X0184500Y0162635D01*
X0184626Y0161679D01*
X0185034Y0160694D01*
X0185684Y0159848D01*
X0186530Y0159199D01*
X0187515Y0158791D01*
X0188572Y0158651D01*
X0189629Y0158791D01*
X0190614Y0159199D01*
X0191461Y0159848D01*
X0191755Y0160232D01*
X0191776Y0160243D01*
X0192933D01*
X0192954Y0160232D01*
X0193248Y0159848D01*
X0194095Y0159199D01*
X0195080Y0158791D01*
X0196137Y0158651D01*
X0197194Y0158791D01*
X0197651Y0158980D01*
X0198651Y0158364D01*
Y0155980D01*
X0126480Y0155949D01*
X0123295D01*
Y0162670D01*
X0123731Y0162943D01*
X0124295Y0163089D01*
X0124992Y0162554D01*
X0125978Y0162146D01*
X0127035Y0162007D01*
X0128092Y0162146D01*
X0129077Y0162554D01*
X0129923Y0163203D01*
X0129987Y0163286D01*
X0131248D01*
X0131312Y0163203D01*
X0132158Y0162554D01*
X0133143Y0162146D01*
X0134200Y0162007D01*
X0135257Y0162146D01*
X0136242Y0162554D01*
X0137089Y0163203D01*
X0137492Y0163729D01*
X0138536Y0163460D01*
X0138655Y0162554D01*
X0139185Y0161276D01*
X0140027Y0160178D01*
X0141125Y0159335D01*
X0142404Y0158806D01*
X0143776Y0158625D01*
X0145148Y0158806D01*
X0146427Y0159335D01*
X0147524Y0160178D01*
X0148367Y0161276D01*
X0148897Y0162554D01*
X0149077Y0163926D01*
Y0166682D01*
X0148897Y0168054D01*
X0148367Y0169333D01*
X0147524Y0170431D01*
X0146427Y0171273D01*
X0145148Y0171803D01*
X0143776Y0171983D01*
X0142404Y0171803D01*
X0141125Y0171273D01*
X0140027Y0170431D01*
X0139185Y0169333D01*
X0138754Y0168293D01*
X0137950Y0168167D01*
X0137679Y0168211D01*
X0137089Y0168980D01*
X0136242Y0169629D01*
X0135257Y0170037D01*
X0134200Y0170177D01*
X0133143Y0170037D01*
X0132158Y0169629D01*
X0131312Y0168980D01*
X0131248Y0168897D01*
X0129987D01*
X0129923Y0168980D01*
X0129140Y0169581D01*
X0129099Y0169885D01*
X0129167Y0170675D01*
X0129243Y0170706D01*
X0130088Y0171355D01*
X0130738Y0172201D01*
X0131146Y0173186D01*
X0131285Y0174243D01*
X0131146Y0175301D01*
X0130738Y0176286D01*
X0130088Y0177132D01*
X0129243Y0177781D01*
X0128522Y0178079D01*
Y0179113D01*
X0129243Y0179411D01*
X0130088Y0180061D01*
X0130206Y0180214D01*
X0131518Y0180469D01*
X0132503Y0180061D01*
X0133560Y0179921D01*
X0134617Y0180061D01*
X0135603Y0180469D01*
X0136449Y0181118D01*
X0137098Y0181964D01*
X0137318Y0182494D01*
X0137671Y0182541D01*
X0138656Y0182949D01*
X0139503Y0183598D01*
X0140152Y0184444D01*
X0140560Y0185429D01*
X0140699Y0186487D01*
X0140560Y0187544D01*
X0140152Y0188529D01*
X0139503Y0189375D01*
X0138656Y0190024D01*
X0137671Y0190433D01*
X0136614Y0190572D01*
X0135557Y0190433D01*
X0134572Y0190024D01*
X0133726Y0189375D01*
X0133076Y0188529D01*
X0132857Y0187999D01*
X0132503Y0187952D01*
X0131518Y0187544D01*
X0130672Y0186895D01*
X0130554Y0186741D01*
X0129243Y0186487D01*
X0128257Y0186895D01*
X0127200Y0187034D01*
X0126143Y0186895D01*
X0125157Y0186487D01*
X0124311Y0185837D01*
X0124295Y0185816D01*
X0123295Y0186155D01*
Y0218595D01*
X0182643D01*
X0183311Y0217595D01*
D02*
G37*
%LPC*%
G36*
X0395200Y0707687D02*
X0392813Y0707531D01*
X0390467Y0707064D01*
X0388202Y0706295D01*
X0386056Y0705237D01*
X0384068Y0703908D01*
X0382269Y0702331D01*
X0380692Y0700532D01*
X0379363Y0698544D01*
X0378305Y0696398D01*
X0377536Y0694133D01*
X0377069Y0691787D01*
X0376913Y0689400D01*
X0377069Y0687013D01*
X0377536Y0684667D01*
X0378305Y0682402D01*
X0379363Y0680256D01*
X0380692Y0678267D01*
X0382269Y0676469D01*
X0384068Y0674892D01*
X0386056Y0673563D01*
X0388202Y0672505D01*
X0390467Y0671736D01*
X0392813Y0671269D01*
X0395200Y0671113D01*
X0397587Y0671269D01*
X0399933Y0671736D01*
X0402198Y0672505D01*
X0404344Y0673563D01*
X0406332Y0674892D01*
X0408131Y0676469D01*
X0409708Y0678267D01*
X0411037Y0680256D01*
X0412095Y0682402D01*
X0412864Y0684667D01*
X0413331Y0687013D01*
X0413487Y0689400D01*
X0413331Y0691787D01*
X0412864Y0694133D01*
X0412095Y0696398D01*
X0411037Y0698544D01*
X0409708Y0700532D01*
X0408131Y0702331D01*
X0406332Y0703908D01*
X0404344Y0705237D01*
X0402198Y0706295D01*
X0399933Y0707064D01*
X0397587Y0707531D01*
X0395200Y0707687D01*
D02*
G37*
G36*
X0093200D02*
X0090813Y0707531D01*
X0088467Y0707064D01*
X0086202Y0706295D01*
X0084056Y0705237D01*
X0082068Y0703908D01*
X0080269Y0702331D01*
X0078692Y0700532D01*
X0077363Y0698544D01*
X0076305Y0696398D01*
X0075536Y0694133D01*
X0075069Y0691787D01*
X0074913Y0689400D01*
X0075069Y0687013D01*
X0075536Y0684667D01*
X0076305Y0682402D01*
X0077363Y0680256D01*
X0078692Y0678267D01*
X0080269Y0676469D01*
X0082068Y0674892D01*
X0084056Y0673563D01*
X0086202Y0672505D01*
X0088467Y0671736D01*
X0090813Y0671269D01*
X0093200Y0671113D01*
X0095587Y0671269D01*
X0097933Y0671736D01*
X0100198Y0672505D01*
X0102344Y0673563D01*
X0104332Y0674892D01*
X0106131Y0676469D01*
X0107708Y0678267D01*
X0109037Y0680256D01*
X0110095Y0682402D01*
X0110864Y0684667D01*
X0111331Y0687013D01*
X0111487Y0689400D01*
X0111331Y0691787D01*
X0110864Y0694133D01*
X0110095Y0696398D01*
X0109037Y0698544D01*
X0107708Y0700532D01*
X0106131Y0702331D01*
X0104332Y0703908D01*
X0102344Y0705237D01*
X0100198Y0706295D01*
X0097933Y0707064D01*
X0095587Y0707531D01*
X0093200Y0707687D01*
D02*
G37*
G36*
X0116006Y0709613D02*
X0115031Y0709419D01*
X0114204Y0708867D01*
X0113651Y0708040D01*
X0113457Y0707064D01*
X0113457Y0653243D01*
X0113321Y0653152D01*
X0112670Y0652832D01*
X0111756Y0652952D01*
X0110699Y0652813D01*
X0109713Y0652405D01*
X0108867Y0651756D01*
X0108218Y0650909D01*
X0107810Y0649924D01*
X0107671Y0648867D01*
X0107810Y0647810D01*
X0108218Y0646825D01*
X0108867Y0645978D01*
X0109713Y0645329D01*
X0110699Y0644921D01*
X0111756Y0644782D01*
X0112668Y0644902D01*
X0113311Y0644487D01*
X0113240Y0643793D01*
X0112594Y0643708D01*
X0111609Y0643300D01*
X0110763Y0642651D01*
X0110113Y0641805D01*
X0109705Y0640819D01*
X0109566Y0639762D01*
X0109705Y0638705D01*
X0110113Y0637720D01*
X0110763Y0636874D01*
X0111609Y0636224D01*
X0112594Y0635816D01*
X0113457Y0635703D01*
X0113457Y0604520D01*
X0112865Y0604001D01*
X0112450Y0604056D01*
X0111393Y0603917D01*
X0110408Y0603509D01*
X0109678Y0602949D01*
X0108016D01*
X0107040Y0602755D01*
X0106213Y0602202D01*
X0105660Y0601375D01*
X0105466Y0600400D01*
X0105466Y0596049D01*
X0105127Y0595788D01*
X0104478Y0594942D01*
X0104070Y0593957D01*
X0103930Y0592900D01*
X0104070Y0591843D01*
X0104478Y0590857D01*
X0105127Y0590011D01*
X0105466Y0589751D01*
X0105467Y0556903D01*
X0105499Y0556738D01*
X0105489Y0556570D01*
X0105596Y0556254D01*
X0105661Y0555928D01*
X0105754Y0555788D01*
X0105808Y0555628D01*
X0106028Y0555378D01*
X0106213Y0555101D01*
X0106353Y0555007D01*
X0106464Y0554881D01*
X0106522Y0554852D01*
X0106652Y0554429D01*
Y0554371D01*
X0106522Y0553948D01*
X0106464Y0553919D01*
X0106353Y0553793D01*
X0106213Y0553699D01*
X0106028Y0553422D01*
X0105808Y0553171D01*
X0105754Y0553012D01*
X0105661Y0552872D01*
X0105596Y0552545D01*
X0105489Y0552230D01*
X0105499Y0552062D01*
X0105467Y0551897D01*
X0105467Y0531040D01*
X0105510Y0530821D01*
X0105507Y0530788D01*
X0105536Y0530692D01*
X0105540Y0530673D01*
X0105577Y0530300D01*
X0105636Y0530189D01*
X0105661Y0530065D01*
X0105781Y0529885D01*
X0105796Y0529836D01*
X0105879Y0529734D01*
X0106046Y0529423D01*
X0106143Y0529343D01*
X0106213Y0529238D01*
X0106376Y0529129D01*
X0106427Y0529067D01*
X0106578Y0528986D01*
X0106815Y0528792D01*
X0106935Y0528755D01*
X0107040Y0528685D01*
X0107201Y0528653D01*
X0107304Y0528598D01*
X0108203Y0528326D01*
X0108810Y0528001D01*
X0109342Y0527564D01*
X0109779Y0527032D01*
X0110103Y0526425D01*
X0110303Y0525767D01*
X0110370Y0525081D01*
X0110303Y0524396D01*
X0110103Y0523738D01*
X0109779Y0523131D01*
X0109342Y0522599D01*
X0108810Y0522162D01*
X0108203Y0521838D01*
X0107304Y0521565D01*
X0107201Y0521510D01*
X0107040Y0521478D01*
X0106935Y0521408D01*
X0106814Y0521371D01*
X0106578Y0521177D01*
X0106427Y0521096D01*
X0106375Y0521033D01*
X0106213Y0520925D01*
X0106143Y0520820D01*
X0106045Y0520740D01*
X0105879Y0520429D01*
X0105796Y0520327D01*
X0105781Y0520278D01*
X0105661Y0520098D01*
X0105636Y0519974D01*
X0105577Y0519863D01*
X0105540Y0519490D01*
X0105536Y0519472D01*
X0105507Y0519376D01*
X0105510Y0519342D01*
X0105467Y0519123D01*
X0105467Y0491040D01*
X0105510Y0490822D01*
X0105507Y0490788D01*
X0105537Y0490690D01*
X0105540Y0490673D01*
X0105577Y0490300D01*
X0105636Y0490189D01*
X0105661Y0490065D01*
X0105781Y0489886D01*
X0105796Y0489836D01*
X0105880Y0489734D01*
X0106046Y0489423D01*
X0106143Y0489343D01*
X0106214Y0489238D01*
X0106375Y0489130D01*
X0106427Y0489067D01*
X0106578Y0488986D01*
X0106815Y0488792D01*
X0106936Y0488755D01*
X0107041Y0488685D01*
X0107201Y0488653D01*
X0107304Y0488598D01*
X0108203Y0488326D01*
X0108810Y0488001D01*
X0109342Y0487564D01*
X0109779Y0487032D01*
X0110103Y0486425D01*
X0110303Y0485767D01*
X0110370Y0485081D01*
X0110303Y0484396D01*
X0110103Y0483738D01*
X0109779Y0483131D01*
X0109342Y0482599D01*
X0108810Y0482162D01*
X0108203Y0481838D01*
X0107304Y0481565D01*
X0107201Y0481510D01*
X0107041Y0481478D01*
X0106935Y0481407D01*
X0106814Y0481371D01*
X0106578Y0481177D01*
X0106427Y0481096D01*
X0106375Y0481033D01*
X0106214Y0480925D01*
X0106143Y0480820D01*
X0106045Y0480740D01*
X0105880Y0480430D01*
X0105796Y0480327D01*
X0105780Y0480277D01*
X0105661Y0480098D01*
X0105636Y0479974D01*
X0105577Y0479862D01*
X0105540Y0479490D01*
X0105537Y0479474D01*
X0105507Y0479376D01*
X0105510Y0479341D01*
X0105467Y0479123D01*
X0105467Y0472694D01*
X0105661Y0471719D01*
X0106214Y0470892D01*
X0107041Y0470339D01*
X0108016Y0470145D01*
X0136208D01*
X0136373Y0470178D01*
X0136541Y0470167D01*
X0136856Y0470274D01*
X0137183Y0470339D01*
X0137323Y0470433D01*
X0137386Y0470454D01*
X0138157Y0469862D01*
X0139143Y0469454D01*
X0140200Y0469315D01*
X0141257Y0469454D01*
X0142243Y0469862D01*
X0143014Y0470454D01*
X0143077Y0470433D01*
X0143217Y0470339D01*
X0143544Y0470274D01*
X0143859Y0470167D01*
X0144027Y0470178D01*
X0144192Y0470145D01*
X0156519D01*
X0156907Y0469358D01*
X0156838Y0469267D01*
X0156430Y0468282D01*
X0156290Y0467225D01*
X0156430Y0466167D01*
X0156838Y0465182D01*
X0157487Y0464336D01*
X0158333Y0463687D01*
X0159318Y0463279D01*
X0160375Y0463140D01*
X0161433Y0463279D01*
X0162418Y0463687D01*
X0163264Y0464336D01*
X0163913Y0465182D01*
X0164321Y0466167D01*
X0164460Y0467225D01*
X0164321Y0468282D01*
X0163913Y0469267D01*
X0163843Y0469358D01*
X0164231Y0470145D01*
X0339494Y0470145D01*
X0340470Y0470339D01*
X0341297Y0470892D01*
X0355002Y0484598D01*
X0355555Y0485425D01*
X0355749Y0486400D01*
X0355749Y0585400D01*
X0355555Y0586376D01*
X0355002Y0587202D01*
X0340002Y0602202D01*
X0339175Y0602755D01*
X0338200Y0602949D01*
X0332254D01*
X0332016Y0603736D01*
X0332633Y0604148D01*
X0336882Y0608398D01*
X0337435Y0609225D01*
X0337629Y0610200D01*
Y0669700D01*
X0337435Y0670676D01*
X0336882Y0671502D01*
X0333882Y0674502D01*
X0333055Y0675055D01*
X0332080Y0675249D01*
X0303300Y0675249D01*
X0303222Y0675313D01*
Y0706496D01*
X0303028Y0707471D01*
X0302475Y0708298D01*
X0301648Y0708851D01*
X0300673Y0709045D01*
X0239266Y0709045D01*
X0238572Y0708907D01*
X0238424Y0709006D01*
X0238246Y0709184D01*
X0238014Y0709279D01*
X0237806Y0709419D01*
X0237559Y0709468D01*
X0237327Y0709564D01*
X0237076D01*
X0236830Y0709613D01*
X0179441Y0709613D01*
X0178466Y0709419D01*
X0178167Y0709219D01*
X0177868Y0709419D01*
X0176892Y0709613D01*
X0116006Y0709613D01*
D02*
G37*
G36*
X0084279Y0615167D02*
X0083222Y0615028D01*
X0082237Y0614620D01*
X0081391Y0613970D01*
X0080742Y0613124D01*
X0080334Y0612139D01*
X0080194Y0611082D01*
X0080334Y0610025D01*
X0080742Y0609039D01*
X0081391Y0608193D01*
X0082237Y0607544D01*
X0083222Y0607136D01*
X0084279Y0606997D01*
X0085337Y0607136D01*
X0086322Y0607544D01*
X0087168Y0608193D01*
X0087817Y0609039D01*
X0088225Y0610025D01*
X0088364Y0611082D01*
X0088225Y0612139D01*
X0087817Y0613124D01*
X0087168Y0613970D01*
X0086322Y0614620D01*
X0085337Y0615028D01*
X0084279Y0615167D01*
D02*
G37*
G36*
X0088382Y0596578D02*
X0087325Y0596439D01*
X0086340Y0596031D01*
X0085494Y0595382D01*
X0084845Y0594536D01*
X0084437Y0593551D01*
X0084298Y0592493D01*
X0084437Y0591436D01*
X0084845Y0590451D01*
X0085494Y0589605D01*
X0086340Y0588956D01*
X0087325Y0588548D01*
X0088382Y0588409D01*
X0089440Y0588548D01*
X0090425Y0588956D01*
X0091271Y0589605D01*
X0091920Y0590451D01*
X0092328Y0591436D01*
X0092467Y0592493D01*
X0092328Y0593551D01*
X0091920Y0594536D01*
X0091271Y0595382D01*
X0090425Y0596031D01*
X0089440Y0596439D01*
X0088382Y0596578D01*
D02*
G37*
G36*
X0089264Y0578952D02*
X0088207Y0578813D01*
X0087222Y0578405D01*
X0086376Y0577755D01*
X0085727Y0576909D01*
X0085318Y0575924D01*
X0085179Y0574867D01*
X0085318Y0573810D01*
X0085727Y0572824D01*
X0086376Y0571978D01*
X0087222Y0571329D01*
X0088207Y0570921D01*
X0089264Y0570782D01*
X0090321Y0570921D01*
X0091307Y0571329D01*
X0092153Y0571978D01*
X0092802Y0572824D01*
X0093210Y0573810D01*
X0093349Y0574867D01*
X0093210Y0575924D01*
X0092802Y0576909D01*
X0092153Y0577755D01*
X0091307Y0578405D01*
X0090321Y0578813D01*
X0089264Y0578952D01*
D02*
G37*
G36*
X0091182Y0554952D02*
X0090125Y0554813D01*
X0089139Y0554405D01*
X0088293Y0553755D01*
X0087644Y0552909D01*
X0087236Y0551924D01*
X0087097Y0550867D01*
X0087236Y0549810D01*
X0087644Y0548825D01*
X0088293Y0547978D01*
X0089139Y0547329D01*
X0090125Y0546921D01*
X0091182Y0546782D01*
X0092239Y0546921D01*
X0093224Y0547329D01*
X0094070Y0547978D01*
X0094719Y0548825D01*
X0095128Y0549810D01*
X0095267Y0550867D01*
X0095128Y0551924D01*
X0094719Y0552909D01*
X0094070Y0553755D01*
X0093224Y0554405D01*
X0092239Y0554813D01*
X0091182Y0554952D01*
D02*
G37*
G36*
X0094757Y0534656D02*
X0093700Y0534517D01*
X0092715Y0534108D01*
X0091869Y0533459D01*
X0091220Y0532613D01*
X0090812Y0531628D01*
X0090672Y0530571D01*
X0090812Y0529514D01*
X0091220Y0528528D01*
X0091869Y0527682D01*
X0092715Y0527033D01*
X0093700Y0526625D01*
X0094757Y0526486D01*
X0095815Y0526625D01*
X0096800Y0527033D01*
X0097646Y0527682D01*
X0098295Y0528528D01*
X0098703Y0529514D01*
X0098842Y0530571D01*
X0098703Y0531628D01*
X0098295Y0532613D01*
X0097646Y0533459D01*
X0096800Y0534108D01*
X0095815Y0534517D01*
X0094757Y0534656D01*
D02*
G37*
G36*
X0091200Y0485205D02*
X0090143Y0485066D01*
X0089157Y0484658D01*
X0088311Y0484009D01*
X0087662Y0483163D01*
X0087254Y0482178D01*
X0087115Y0481120D01*
X0087254Y0480063D01*
X0087662Y0479078D01*
X0088311Y0478232D01*
X0089157Y0477583D01*
X0090143Y0477175D01*
X0091200Y0477036D01*
X0092257Y0477175D01*
X0093243Y0477583D01*
X0094089Y0478232D01*
X0094738Y0479078D01*
X0095146Y0480063D01*
X0095285Y0481120D01*
X0095146Y0482178D01*
X0094738Y0483163D01*
X0094089Y0484009D01*
X0093243Y0484658D01*
X0092257Y0485066D01*
X0091200Y0485205D01*
D02*
G37*
G36*
X0181200Y0467860D02*
X0180143Y0467721D01*
X0179157Y0467312D01*
X0178312Y0466663D01*
X0177812Y0466012D01*
X0177682Y0466066D01*
X0176625Y0466205D01*
X0175567Y0466066D01*
X0174582Y0465658D01*
X0173736Y0465008D01*
X0173087Y0464162D01*
X0172679Y0463177D01*
X0172539Y0462120D01*
X0172679Y0461063D01*
X0173087Y0460077D01*
X0173736Y0459232D01*
X0174582Y0458582D01*
X0175567Y0458174D01*
X0176625Y0458035D01*
X0177682Y0458174D01*
X0178667Y0458582D01*
X0179513Y0459232D01*
X0180013Y0459883D01*
X0180143Y0459829D01*
X0181200Y0459690D01*
X0182257Y0459829D01*
X0183242Y0460237D01*
X0184089Y0460886D01*
X0184738Y0461732D01*
X0185146Y0462717D01*
X0185285Y0463775D01*
X0185146Y0464832D01*
X0184738Y0465817D01*
X0184089Y0466663D01*
X0183242Y0467312D01*
X0182257Y0467721D01*
X0181200Y0467860D01*
D02*
G37*
G36*
X0092088Y0471678D02*
X0091031Y0471538D01*
X0090046Y0471130D01*
X0089200Y0470481D01*
X0088551Y0469635D01*
X0088143Y0468650D01*
X0088003Y0467593D01*
X0088143Y0466536D01*
X0088551Y0465550D01*
X0089200Y0464704D01*
X0090046Y0464055D01*
X0091031Y0463647D01*
X0092088Y0463508D01*
X0093146Y0463647D01*
X0094131Y0464055D01*
X0094977Y0464704D01*
X0095626Y0465550D01*
X0096034Y0466536D01*
X0096173Y0467593D01*
X0096034Y0468650D01*
X0095626Y0469635D01*
X0094977Y0470481D01*
X0094131Y0471130D01*
X0093146Y0471538D01*
X0092088Y0471678D01*
D02*
G37*
G36*
X0081331Y0471190D02*
X0080274Y0471051D01*
X0079289Y0470643D01*
X0078443Y0469994D01*
X0077793Y0469148D01*
X0077385Y0468162D01*
X0077246Y0467105D01*
X0077378Y0466100D01*
X0077206Y0466077D01*
X0076221Y0465669D01*
X0075375Y0465020D01*
X0074725Y0464174D01*
X0074317Y0463188D01*
X0074178Y0462131D01*
X0074317Y0461074D01*
X0074725Y0460089D01*
X0075375Y0459243D01*
X0076221Y0458593D01*
X0077206Y0458185D01*
X0078263Y0458046D01*
X0079320Y0458185D01*
X0080305Y0458593D01*
X0081151Y0459243D01*
X0081801Y0460089D01*
X0082209Y0461074D01*
X0082348Y0462131D01*
X0082215Y0463137D01*
X0082388Y0463160D01*
X0083374Y0463567D01*
X0084220Y0464217D01*
X0084869Y0465063D01*
X0085277Y0466048D01*
X0085416Y0467105D01*
X0085277Y0468162D01*
X0084869Y0469148D01*
X0084220Y0469994D01*
X0083374Y0470643D01*
X0082388Y0471051D01*
X0081331Y0471190D01*
D02*
G37*
G36*
X0141200Y0467485D02*
X0140143Y0467346D01*
X0139157Y0466938D01*
X0138312Y0466289D01*
X0137662Y0465443D01*
X0137254Y0464457D01*
X0137115Y0463400D01*
X0137254Y0462343D01*
X0137662Y0461357D01*
X0138312Y0460511D01*
X0139157Y0459862D01*
X0140143Y0459454D01*
X0141200Y0459315D01*
X0141262Y0459323D01*
X0141662Y0458357D01*
X0142312Y0457512D01*
X0143157Y0456862D01*
X0144143Y0456454D01*
X0145200Y0456315D01*
X0146257Y0456454D01*
X0147242Y0456862D01*
X0148089Y0457512D01*
X0148738Y0458357D01*
X0149146Y0459343D01*
X0149285Y0460400D01*
X0149146Y0461457D01*
X0148738Y0462442D01*
X0148089Y0463288D01*
X0147242Y0463938D01*
X0146257Y0464346D01*
X0145200Y0464485D01*
X0145138Y0464477D01*
X0144738Y0465443D01*
X0144088Y0466289D01*
X0143243Y0466938D01*
X0142257Y0467346D01*
X0141200Y0467485D01*
D02*
G37*
G36*
X0128200Y0459485D02*
X0127143Y0459346D01*
X0126157Y0458938D01*
X0125312Y0458288D01*
X0124662Y0457443D01*
X0124254Y0456457D01*
X0124115Y0455400D01*
X0124254Y0454343D01*
X0124662Y0453358D01*
X0125312Y0452512D01*
X0126157Y0451862D01*
X0127143Y0451454D01*
X0128200Y0451315D01*
X0129003Y0451421D01*
X0129331Y0450993D01*
X0130177Y0450344D01*
X0131162Y0449936D01*
X0132219Y0449797D01*
X0133276Y0449936D01*
X0134262Y0450344D01*
X0135108Y0450993D01*
X0135757Y0451839D01*
X0136165Y0452825D01*
X0136304Y0453882D01*
X0136165Y0454939D01*
X0135757Y0455924D01*
X0135108Y0456770D01*
X0134262Y0457419D01*
X0133276Y0457828D01*
X0132219Y0457967D01*
X0131416Y0457861D01*
X0131088Y0458288D01*
X0130243Y0458938D01*
X0129257Y0459346D01*
X0128200Y0459485D01*
D02*
G37*
G36*
X0157891Y0455174D02*
X0156834Y0455035D01*
X0155849Y0454627D01*
X0155003Y0453977D01*
X0154354Y0453131D01*
X0153946Y0452146D01*
X0153807Y0451089D01*
X0153946Y0450032D01*
X0154354Y0449046D01*
X0155003Y0448200D01*
X0155849Y0447551D01*
X0156834Y0447143D01*
X0157891Y0447004D01*
X0158949Y0447143D01*
X0159934Y0447551D01*
X0160780Y0448200D01*
X0161429Y0449046D01*
X0161837Y0450032D01*
X0161977Y0451089D01*
X0161837Y0452146D01*
X0161429Y0453131D01*
X0160780Y0453977D01*
X0159934Y0454627D01*
X0158949Y0455035D01*
X0157891Y0455174D01*
D02*
G37*
G36*
X0367909Y0449949D02*
X0322968D01*
X0321992Y0449755D01*
X0321165Y0449202D01*
X0315398Y0443435D01*
X0314845Y0442608D01*
X0314651Y0441633D01*
X0314651Y0422481D01*
X0303571Y0411401D01*
X0181210Y0411401D01*
X0167866Y0424744D01*
X0167831Y0424924D01*
X0167278Y0425751D01*
X0167278Y0425751D01*
X0166451Y0426304D01*
X0165475Y0426498D01*
X0141687Y0426497D01*
X0141328Y0427364D01*
X0140679Y0428210D01*
X0140508Y0428341D01*
X0140820Y0429094D01*
X0140880Y0429086D01*
X0141937Y0429225D01*
X0142922Y0429633D01*
X0143768Y0430283D01*
X0144417Y0431129D01*
X0144825Y0432114D01*
X0144965Y0433171D01*
X0144825Y0434228D01*
X0144682Y0434576D01*
X0145036Y0435189D01*
X0145241Y0435282D01*
X0146217Y0435686D01*
X0147063Y0436335D01*
X0147712Y0437181D01*
X0148120Y0438167D01*
X0148259Y0439224D01*
X0148120Y0440281D01*
X0148087Y0440361D01*
X0148582Y0441223D01*
X0149242Y0441496D01*
X0150089Y0442145D01*
X0150738Y0442991D01*
X0151146Y0443977D01*
X0151285Y0445034D01*
X0151146Y0446091D01*
X0150738Y0447076D01*
X0150089Y0447922D01*
X0149242Y0448571D01*
X0148257Y0448980D01*
X0147200Y0449119D01*
X0146143Y0448980D01*
X0145158Y0448571D01*
X0144311Y0447922D01*
X0143662Y0447076D01*
X0143254Y0446091D01*
X0143115Y0445034D01*
X0143254Y0443977D01*
X0143287Y0443897D01*
X0142792Y0443035D01*
X0142132Y0442762D01*
X0141286Y0442112D01*
X0140637Y0441266D01*
X0140229Y0440281D01*
X0140089Y0439224D01*
X0140229Y0438167D01*
X0140373Y0437819D01*
X0139979Y0437138D01*
X0139822Y0437117D01*
X0138837Y0436709D01*
X0137991Y0436060D01*
X0137342Y0435214D01*
X0136934Y0434228D01*
X0136795Y0433171D01*
X0136934Y0432114D01*
X0137342Y0431129D01*
X0137991Y0430283D01*
X0138162Y0430152D01*
X0137850Y0429399D01*
X0137790Y0429407D01*
X0136733Y0429268D01*
X0135748Y0428860D01*
X0134901Y0428210D01*
X0134252Y0427364D01*
X0133893Y0426497D01*
X0100969Y0426497D01*
X0099994Y0426303D01*
X0099167Y0425750D01*
X0087265Y0413848D01*
X0086712Y0413021D01*
X0086518Y0412046D01*
Y0389320D01*
X0086567Y0389074D01*
Y0388823D01*
X0086664Y0388591D01*
X0086712Y0388345D01*
X0086852Y0388136D01*
X0086948Y0387904D01*
X0087125Y0387727D01*
X0087265Y0387518D01*
X0087474Y0387379D01*
X0087651Y0387201D01*
X0088306Y0386764D01*
X0088538Y0386668D01*
X0088746Y0386528D01*
X0088993Y0386479D01*
X0089224Y0386383D01*
X0089476D01*
X0089722Y0386334D01*
X0089968Y0386383D01*
X0090219D01*
X0090351Y0386438D01*
X0090931Y0386514D01*
X0091322Y0386463D01*
X0091688Y0386311D01*
X0092001Y0386071D01*
X0092242Y0385757D01*
X0092393Y0385392D01*
X0092445Y0385000D01*
X0092393Y0384608D01*
X0092242Y0384243D01*
X0092001Y0383930D01*
X0091688Y0383689D01*
X0091322Y0383538D01*
X0090931Y0383486D01*
X0090351Y0383562D01*
X0090219Y0383617D01*
X0089968D01*
X0089722Y0383666D01*
X0089476Y0383617D01*
X0089224D01*
X0088993Y0383521D01*
X0088746Y0383472D01*
X0088538Y0383333D01*
X0088306Y0383237D01*
X0087651Y0382799D01*
X0087474Y0382622D01*
X0087265Y0382482D01*
X0087125Y0382274D01*
X0086948Y0382096D01*
X0086852Y0381864D01*
X0086712Y0381656D01*
X0086663Y0381409D01*
X0086567Y0381177D01*
Y0380926D01*
X0086518Y0380680D01*
Y0360058D01*
X0086535Y0359975D01*
X0086524Y0359891D01*
X0086631Y0359489D01*
X0086712Y0359082D01*
X0086759Y0359012D01*
X0086781Y0358930D01*
X0087034Y0358600D01*
X0087170Y0358398D01*
X0087171Y0358396D01*
X0087172Y0358395D01*
X0087265Y0358255D01*
X0087335Y0358208D01*
X0087387Y0358141D01*
X0087512Y0358031D01*
X0087730Y0357906D01*
X0087918Y0357740D01*
X0088156Y0357659D01*
X0088374Y0357534D01*
X0088622Y0357501D01*
X0088860Y0357420D01*
X0089963Y0357275D01*
X0090681Y0356978D01*
X0091298Y0356505D01*
X0091771Y0355888D01*
X0092068Y0355170D01*
X0092169Y0354400D01*
X0092068Y0353630D01*
X0091771Y0352912D01*
X0091298Y0352295D01*
X0090779Y0351898D01*
X0090750Y0351864D01*
X0090711Y0351843D01*
X0090599Y0351707D01*
X0090508Y0351646D01*
X0090354Y0351412D01*
X0090123Y0351150D01*
X0090109Y0351108D01*
X0090081Y0351073D01*
X0090068Y0351048D01*
X0090030Y0350924D01*
X0089959Y0350817D01*
X0089889Y0350460D01*
X0089804Y0350208D01*
X0089200Y0349948D01*
X0087764Y0349758D01*
X0086426Y0349204D01*
X0085277Y0348323D01*
X0084396Y0347174D01*
X0083842Y0345836D01*
X0083653Y0344400D01*
X0083842Y0342964D01*
X0084396Y0341626D01*
X0085277Y0340477D01*
X0086066Y0339872D01*
X0086077Y0339851D01*
Y0338949D01*
X0086066Y0338928D01*
X0085277Y0338323D01*
X0084396Y0337174D01*
X0083842Y0335836D01*
X0083653Y0334400D01*
X0083842Y0332964D01*
X0084396Y0331626D01*
X0085277Y0330477D01*
X0086066Y0329872D01*
X0086077Y0329851D01*
Y0328949D01*
X0086066Y0328928D01*
X0085277Y0328323D01*
X0084396Y0327174D01*
X0083842Y0325836D01*
X0083653Y0324400D01*
X0083842Y0322964D01*
X0084396Y0321626D01*
X0085277Y0320477D01*
X0086072Y0319867D01*
X0086088Y0319837D01*
Y0318952D01*
X0086072Y0318922D01*
X0085277Y0318312D01*
X0084396Y0317163D01*
X0083842Y0315825D01*
X0083653Y0314389D01*
X0083842Y0312953D01*
X0084396Y0311615D01*
X0085277Y0310466D01*
X0086060Y0309866D01*
X0086067Y0309853D01*
Y0308936D01*
X0086060Y0308923D01*
X0085277Y0308323D01*
X0084396Y0307174D01*
X0083842Y0305836D01*
X0083653Y0304400D01*
X0083842Y0302964D01*
X0084396Y0301626D01*
X0085277Y0300477D01*
X0086062Y0299875D01*
X0086076Y0299850D01*
X0086072Y0298948D01*
X0086063Y0298931D01*
X0085270Y0298323D01*
X0084389Y0297174D01*
X0083834Y0295836D01*
X0083645Y0294400D01*
X0083834Y0292964D01*
X0084389Y0291626D01*
X0085270Y0290477D01*
X0086419Y0289596D01*
X0086668Y0289493D01*
X0086631Y0289310D01*
X0086524Y0288909D01*
X0086535Y0288825D01*
X0086518Y0288742D01*
Y0278036D01*
X0086551Y0277872D01*
X0086540Y0277705D01*
X0086647Y0277388D01*
X0086712Y0277060D01*
X0086805Y0276921D01*
X0086859Y0276763D01*
X0087079Y0276512D01*
X0087265Y0276234D01*
X0087404Y0276141D01*
X0087514Y0276015D01*
X0088301Y0275410D01*
X0088302Y0275410D01*
X0088303Y0275409D01*
X0088748Y0275189D01*
X0089193Y0274970D01*
X0089194Y0274969D01*
X0089195Y0274969D01*
X0089699Y0274936D01*
X0090185Y0274904D01*
X0090186Y0274904D01*
X0090187Y0274904D01*
X0090419Y0274935D01*
X0090811Y0274883D01*
X0091176Y0274732D01*
X0091489Y0274491D01*
X0091730Y0274178D01*
X0091881Y0273812D01*
X0091933Y0273421D01*
X0091881Y0273029D01*
X0091730Y0272663D01*
X0091489Y0272350D01*
X0091124Y0272070D01*
X0090866Y0271775D01*
X0090584Y0271503D01*
X0090540Y0271404D01*
X0090469Y0271322D01*
X0090342Y0270951D01*
X0090186Y0270592D01*
X0089986Y0269678D01*
X0089981Y0269404D01*
X0089927Y0269134D01*
X0089972Y0268911D01*
X0089967Y0268684D01*
X0090068Y0268428D01*
X0090121Y0268159D01*
X0090248Y0267970D01*
X0090331Y0267758D01*
X0090521Y0267560D01*
X0090674Y0267332D01*
X0094472Y0263534D01*
X0094534Y0263492D01*
X0094580Y0263432D01*
X0094946Y0263217D01*
X0095299Y0262981D01*
X0095372Y0262966D01*
X0095437Y0262928D01*
X0095858Y0262870D01*
X0096274Y0262787D01*
X0096348Y0262802D01*
X0096422Y0262791D01*
X0096833Y0262898D01*
X0097250Y0262981D01*
X0097312Y0263023D01*
X0097385Y0263042D01*
X0098131Y0263403D01*
X0098339Y0263560D01*
X0098572Y0263675D01*
X0098732Y0263857D01*
X0098925Y0264003D01*
X0099056Y0264227D01*
X0099228Y0264423D01*
X0099306Y0264652D01*
X0099428Y0264860D01*
X0099464Y0265118D01*
X0099548Y0265365D01*
X0099643Y0266089D01*
X0099794Y0266454D01*
X0100035Y0266768D01*
X0100348Y0267008D01*
X0100714Y0267160D01*
X0101105Y0267211D01*
X0101497Y0267160D01*
X0101863Y0267008D01*
X0102176Y0266768D01*
X0102417Y0266454D01*
X0102568Y0266089D01*
X0102620Y0265697D01*
X0102568Y0265305D01*
X0102288Y0264630D01*
X0102279Y0264584D01*
X0102173Y0264400D01*
X0102162Y0264316D01*
X0102124Y0264240D01*
X0102097Y0263826D01*
X0102043Y0263414D01*
X0102065Y0263332D01*
X0102059Y0263248D01*
X0102193Y0262855D01*
X0102300Y0262453D01*
X0102648Y0261748D01*
X0102901Y0261418D01*
X0103132Y0261073D01*
X0103202Y0261026D01*
X0103254Y0260959D01*
X0103614Y0260751D01*
X0103959Y0260520D01*
X0104042Y0260504D01*
X0104115Y0260461D01*
X0104527Y0260407D01*
X0104935Y0260326D01*
X0109447D01*
X0109854Y0260407D01*
X0110266Y0260461D01*
X0110339Y0260504D01*
X0110422Y0260520D01*
X0110768Y0260751D01*
X0111127Y0260959D01*
X0111179Y0261026D01*
X0111249Y0261073D01*
X0111480Y0261418D01*
X0111733Y0261748D01*
X0112081Y0262453D01*
X0112189Y0262855D01*
X0112322Y0263248D01*
X0112317Y0263332D01*
X0112338Y0263414D01*
X0112284Y0263826D01*
X0112257Y0264241D01*
X0112220Y0264316D01*
X0112209Y0264400D01*
X0112088Y0264610D01*
X0112080Y0264647D01*
X0111801Y0265322D01*
X0111749Y0265714D01*
X0111801Y0266106D01*
X0111952Y0266471D01*
X0112193Y0266785D01*
X0112506Y0267025D01*
X0112871Y0267176D01*
X0113263Y0267228D01*
X0113655Y0267176D01*
X0114020Y0267025D01*
X0114334Y0266785D01*
X0114574Y0266471D01*
X0114725Y0266106D01*
X0114777Y0265714D01*
X0114725Y0265322D01*
X0114446Y0264647D01*
X0114438Y0264610D01*
X0114318Y0264400D01*
X0114306Y0264316D01*
X0114269Y0264241D01*
X0114242Y0263826D01*
X0114188Y0263414D01*
X0114210Y0263332D01*
X0114204Y0263248D01*
X0114338Y0262855D01*
X0114445Y0262453D01*
X0114793Y0261748D01*
X0115046Y0261418D01*
X0115277Y0261073D01*
X0115347Y0261026D01*
X0115399Y0260959D01*
X0115758Y0260751D01*
X0116104Y0260520D01*
X0116187Y0260504D01*
X0116260Y0260461D01*
X0116672Y0260407D01*
X0117079Y0260326D01*
X0140839D01*
X0140899Y0260248D01*
X0141745Y0259599D01*
X0142730Y0259191D01*
X0143788Y0259051D01*
X0144845Y0259191D01*
X0145830Y0259599D01*
X0146676Y0260248D01*
X0146796Y0260404D01*
X0146997Y0260391D01*
X0147324Y0260326D01*
X0153528D01*
X0153656Y0260351D01*
X0153785Y0260339D01*
X0154140Y0260448D01*
X0154503Y0260520D01*
X0154612Y0260592D01*
X0154736Y0260630D01*
X0155022Y0260867D01*
X0155330Y0261073D01*
X0155403Y0261181D01*
X0155503Y0261264D01*
X0155677Y0261591D01*
X0155883Y0261899D01*
X0155908Y0262027D01*
X0155969Y0262142D01*
X0156050Y0262410D01*
X0156768Y0262315D01*
X0157825Y0262454D01*
X0158811Y0262862D01*
X0159657Y0263511D01*
X0159875Y0263796D01*
X0160662D01*
X0160880Y0263511D01*
X0161726Y0262862D01*
X0162711Y0262454D01*
X0163768Y0262315D01*
X0164487Y0262410D01*
X0164567Y0262142D01*
X0164628Y0262027D01*
X0164653Y0261899D01*
X0164859Y0261591D01*
X0165033Y0261264D01*
X0165134Y0261181D01*
X0165206Y0261073D01*
X0165514Y0260867D01*
X0165800Y0260630D01*
X0165925Y0260592D01*
X0166033Y0260520D01*
X0166396Y0260448D01*
X0166751Y0260339D01*
X0166881Y0260351D01*
X0167008Y0260326D01*
X0209743D01*
X0209815Y0259784D01*
X0210223Y0258799D01*
X0210872Y0257952D01*
X0211718Y0257303D01*
X0212703Y0256895D01*
X0213761Y0256756D01*
X0214818Y0256895D01*
X0215803Y0257303D01*
X0216649Y0257952D01*
X0217298Y0258799D01*
X0217706Y0259784D01*
X0217778Y0260326D01*
X0264635D01*
X0264864Y0260235D01*
X0265098Y0260238D01*
X0265327Y0260192D01*
X0265591Y0260245D01*
X0265859Y0260248D01*
X0266082Y0260296D01*
X0266462Y0259378D01*
X0267111Y0258532D01*
X0267957Y0257883D01*
X0268875Y0257503D01*
X0268828Y0257280D01*
X0268824Y0257011D01*
X0268772Y0256748D01*
X0268817Y0256519D01*
X0268814Y0256285D01*
X0268913Y0256036D01*
X0268966Y0255772D01*
X0269095Y0255578D01*
X0269182Y0255361D01*
X0269369Y0255169D01*
X0269518Y0254945D01*
X0294229Y0230234D01*
X0293784Y0229567D01*
X0293125Y0229840D01*
X0291650Y0230034D01*
X0290175Y0229840D01*
X0288800Y0229271D01*
X0287620Y0228365D01*
X0286715Y0227185D01*
X0286145Y0225811D01*
X0285951Y0224336D01*
X0286145Y0222861D01*
X0286715Y0221486D01*
X0287620Y0220306D01*
X0288800Y0219401D01*
X0290175Y0218831D01*
X0291650Y0218637D01*
X0293125Y0218831D01*
X0294499Y0219401D01*
X0295679Y0220306D01*
X0296585Y0221486D01*
X0297154Y0222861D01*
X0297348Y0224336D01*
X0297154Y0225811D01*
X0296585Y0227185D01*
X0296279Y0227583D01*
X0296724Y0228297D01*
X0297346Y0228173D01*
X0394622Y0228173D01*
X0395597Y0228367D01*
X0396424Y0228919D01*
X0400027Y0232522D01*
X0400580Y0233349D01*
X0400774Y0234324D01*
Y0241183D01*
X0400757Y0241266D01*
X0400768Y0241350D01*
X0400661Y0241752D01*
X0400580Y0242159D01*
X0400533Y0242229D01*
X0400511Y0242311D01*
X0400258Y0242640D01*
X0400027Y0242986D01*
X0399957Y0243033D01*
X0399905Y0243100D01*
X0399546Y0243308D01*
X0399200Y0243538D01*
X0399117Y0243555D01*
X0399044Y0243597D01*
X0398328Y0243840D01*
X0398402Y0244400D01*
X0398225Y0245746D01*
X0397705Y0247001D01*
X0396878Y0248078D01*
X0395801Y0248905D01*
X0394546Y0249425D01*
X0393200Y0249602D01*
X0392354Y0249491D01*
X0392160Y0250062D01*
X0392118Y0250135D01*
X0392101Y0250218D01*
X0391870Y0250563D01*
X0391662Y0250923D01*
X0391595Y0250975D01*
X0391548Y0251045D01*
X0391203Y0251276D01*
X0390873Y0251529D01*
X0390792Y0251551D01*
X0390722Y0251597D01*
X0390592Y0251623D01*
Y0257009D01*
X0398225D01*
X0399200Y0257203D01*
X0400027Y0257755D01*
X0400580Y0258582D01*
X0400774Y0259558D01*
Y0284409D01*
X0403599D01*
X0404645Y0284547D01*
X0405620Y0284950D01*
X0406456Y0285592D01*
X0407098Y0286429D01*
X0407502Y0287404D01*
X0407640Y0288450D01*
Y0291461D01*
X0407502Y0292507D01*
X0407098Y0293481D01*
X0406456Y0294318D01*
X0405620Y0294960D01*
X0404645Y0295364D01*
X0403599Y0295502D01*
X0400774D01*
X0400774Y0306578D01*
X0400725Y0306824D01*
Y0307075D01*
X0400629Y0307307D01*
X0400580Y0307553D01*
X0400440Y0307762D01*
X0400344Y0307994D01*
X0400167Y0308172D01*
X0400027Y0308380D01*
X0399818Y0308520D01*
X0399641Y0308697D01*
X0399409Y0308793D01*
X0399200Y0308933D01*
X0398954Y0308982D01*
X0398722Y0309078D01*
X0397976Y0309226D01*
Y0312123D01*
X0397832Y0313213D01*
X0397412Y0314228D01*
X0396743Y0315100D01*
X0395871Y0315768D01*
X0394856Y0316189D01*
X0393767Y0316332D01*
X0390420D01*
X0389417Y0316200D01*
X0389215Y0316655D01*
X0388947Y0317034D01*
X0388689Y0317420D01*
X0388660Y0317439D01*
X0388640Y0317467D01*
X0388248Y0317715D01*
X0387862Y0317972D01*
X0387828Y0317979D01*
X0387799Y0317997D01*
X0387341Y0318076D01*
X0386887Y0318166D01*
X0378039D01*
X0376749Y0319456D01*
X0376749Y0441109D01*
X0376555Y0442084D01*
X0376002Y0442911D01*
X0369711Y0449202D01*
X0368884Y0449755D01*
X0367909Y0449949D01*
D02*
G37*
G36*
X0392093Y0375380D02*
X0390947Y0375267D01*
X0389845Y0374933D01*
X0388830Y0374390D01*
X0387939Y0373659D01*
X0387209Y0372769D01*
X0386666Y0371753D01*
X0386332Y0370651D01*
X0386219Y0369505D01*
X0386332Y0368359D01*
X0386666Y0367257D01*
X0387209Y0366241D01*
X0387939Y0365351D01*
X0388830Y0364620D01*
X0389845Y0364077D01*
X0390947Y0363743D01*
X0392093Y0363630D01*
X0393239Y0363743D01*
X0394342Y0364077D01*
X0395357Y0364620D01*
X0396248Y0365351D01*
X0396978Y0366241D01*
X0397521Y0367257D01*
X0397855Y0368359D01*
X0397968Y0369505D01*
X0397855Y0370651D01*
X0397521Y0371753D01*
X0396978Y0372769D01*
X0396248Y0373659D01*
X0395357Y0374390D01*
X0394342Y0374933D01*
X0393239Y0375267D01*
X0392093Y0375380D01*
D02*
G37*
G36*
Y0355695D02*
X0390947Y0355582D01*
X0389845Y0355247D01*
X0388830Y0354705D01*
X0387939Y0353974D01*
X0387209Y0353084D01*
X0386666Y0352068D01*
X0386332Y0350966D01*
X0386219Y0349820D01*
X0386332Y0348674D01*
X0386666Y0347572D01*
X0387209Y0346556D01*
X0387939Y0345666D01*
X0388830Y0344935D01*
X0389845Y0344392D01*
X0390947Y0344058D01*
X0392093Y0343945D01*
X0393239Y0344058D01*
X0394342Y0344392D01*
X0395357Y0344935D01*
X0396248Y0345666D01*
X0396978Y0346556D01*
X0397521Y0347572D01*
X0397855Y0348674D01*
X0397968Y0349820D01*
X0397855Y0350966D01*
X0397521Y0352068D01*
X0396978Y0353084D01*
X0396248Y0353974D01*
X0395357Y0354705D01*
X0394342Y0355247D01*
X0393239Y0355582D01*
X0392093Y0355695D01*
D02*
G37*
G36*
Y0336010D02*
X0390947Y0335897D01*
X0389845Y0335562D01*
X0388830Y0335020D01*
X0387939Y0334289D01*
X0387209Y0333399D01*
X0386666Y0332383D01*
X0386332Y0331281D01*
X0386219Y0330135D01*
X0386332Y0328989D01*
X0386666Y0327887D01*
X0387209Y0326871D01*
X0387939Y0325981D01*
X0388830Y0325250D01*
X0389845Y0324707D01*
X0390947Y0324373D01*
X0392093Y0324260D01*
X0393239Y0324373D01*
X0394342Y0324707D01*
X0395357Y0325250D01*
X0396248Y0325981D01*
X0396978Y0326871D01*
X0397521Y0327887D01*
X0397855Y0328989D01*
X0397968Y0330135D01*
X0397855Y0331281D01*
X0397521Y0332383D01*
X0396978Y0333399D01*
X0396248Y0334289D01*
X0395357Y0335020D01*
X0394342Y0335562D01*
X0393239Y0335897D01*
X0392093Y0336010D01*
D02*
G37*
G36*
X0395200Y0195687D02*
X0392813Y0195531D01*
X0390467Y0195064D01*
X0388202Y0194295D01*
X0386056Y0193237D01*
X0384068Y0191908D01*
X0382269Y0190331D01*
X0380692Y0188532D01*
X0379363Y0186544D01*
X0378305Y0184398D01*
X0377536Y0182133D01*
X0377069Y0179787D01*
X0376913Y0177400D01*
X0377069Y0175013D01*
X0377536Y0172667D01*
X0378305Y0170402D01*
X0379363Y0168256D01*
X0380692Y0166268D01*
X0382269Y0164469D01*
X0384068Y0162892D01*
X0386056Y0161563D01*
X0388202Y0160505D01*
X0390467Y0159736D01*
X0392813Y0159269D01*
X0395200Y0159113D01*
X0397587Y0159269D01*
X0399933Y0159736D01*
X0402198Y0160505D01*
X0404344Y0161563D01*
X0406332Y0162892D01*
X0408131Y0164469D01*
X0409708Y0166268D01*
X0411037Y0168256D01*
X0412095Y0170402D01*
X0412864Y0172667D01*
X0413331Y0175013D01*
X0413487Y0177400D01*
X0413331Y0179787D01*
X0412864Y0182133D01*
X0412095Y0184398D01*
X0411037Y0186544D01*
X0409708Y0188532D01*
X0408131Y0190331D01*
X0406332Y0191908D01*
X0404344Y0193237D01*
X0402198Y0194295D01*
X0399933Y0195064D01*
X0397587Y0195531D01*
X0395200Y0195687D01*
D02*
G37*
%LPD*%
G36*
X0332080Y0672700D02*
X0335080Y0669700D01*
Y0610200D01*
X0330830Y0605951D01*
X0303300Y0605951D01*
X0303300Y0672700D01*
X0332080Y0672700D01*
D02*
G37*
G36*
X0176892Y0707064D02*
Y0707064D01*
X0176892Y0603404D01*
X0148725Y0603404D01*
X0116006D01*
X0116006Y0636464D01*
X0116540Y0636874D01*
X0117189Y0637720D01*
X0117597Y0638705D01*
X0117736Y0639762D01*
X0117597Y0640819D01*
X0117189Y0641805D01*
X0116540Y0642651D01*
X0116006Y0643060D01*
X0116006Y0707064D01*
X0176892Y0707064D01*
D02*
G37*
G36*
X0236717Y0706496D02*
X0236717Y0603404D01*
X0208129D01*
X0179441Y0603404D01*
X0179441Y0707064D01*
X0236830Y0707064D01*
X0236717Y0706496D01*
D02*
G37*
G36*
X0300673Y0706496D02*
X0300673Y0602949D01*
X0294433D01*
X0293704Y0603509D01*
X0292718Y0603917D01*
X0291661Y0604056D01*
X0290604Y0603917D01*
X0289619Y0603509D01*
X0289161Y0603158D01*
X0288704Y0603509D01*
X0287718Y0603917D01*
X0286661Y0604056D01*
X0285604Y0603917D01*
X0284619Y0603509D01*
X0284161Y0603158D01*
X0283704Y0603509D01*
X0282718Y0603917D01*
X0281661Y0604056D01*
X0280604Y0603917D01*
X0279661Y0603526D01*
X0278718Y0603917D01*
X0277661Y0604056D01*
X0276604Y0603917D01*
X0275619Y0603509D01*
X0274889Y0602949D01*
X0239266D01*
X0239266Y0706496D01*
X0300673Y0706496D01*
D02*
G37*
G36*
X0239266Y0600400D02*
X0239266D01*
X0274889D01*
X0274889D01*
X0294433D01*
X0294433D01*
X0300673D01*
X0300673D01*
X0338200D01*
X0353200Y0585400D01*
X0353200Y0486400D01*
X0339494Y0472694D01*
X0144192Y0472694D01*
X0144285Y0473400D01*
X0144146Y0474457D01*
X0143738Y0475443D01*
X0143387Y0475900D01*
X0143738Y0476358D01*
X0144146Y0477343D01*
X0144285Y0478400D01*
X0144146Y0479457D01*
X0143738Y0480442D01*
X0143088Y0481288D01*
X0142243Y0481938D01*
X0141812Y0482116D01*
X0142187Y0482403D01*
X0142836Y0483249D01*
X0143244Y0484235D01*
X0143383Y0485292D01*
X0143244Y0486349D01*
X0142836Y0487334D01*
X0142187Y0488180D01*
X0141341Y0488830D01*
X0140356Y0489238D01*
X0139298Y0489377D01*
X0138241Y0489238D01*
X0137256Y0488830D01*
X0136410Y0488180D01*
X0135761Y0487334D01*
X0135353Y0486349D01*
X0135230Y0485415D01*
X0135174Y0485487D01*
X0134328Y0486136D01*
X0133343Y0486545D01*
X0132286Y0486684D01*
X0131228Y0486545D01*
X0130243Y0486136D01*
X0129397Y0485487D01*
X0128748Y0484641D01*
X0128658Y0484425D01*
X0128200Y0484485D01*
X0127143Y0484346D01*
X0126157Y0483938D01*
X0125312Y0483288D01*
X0124662Y0482443D01*
X0124254Y0481457D01*
X0124115Y0480400D01*
X0124254Y0479343D01*
X0124662Y0478358D01*
X0125312Y0477512D01*
X0126157Y0476862D01*
X0127143Y0476454D01*
X0128200Y0476315D01*
X0129257Y0476454D01*
X0130243Y0476862D01*
X0131088Y0477512D01*
X0131738Y0478358D01*
X0131827Y0478574D01*
X0132286Y0478514D01*
X0133343Y0478653D01*
X0134328Y0479061D01*
X0135174Y0479710D01*
X0135823Y0480556D01*
X0136231Y0481541D01*
X0136354Y0482476D01*
X0136410Y0482403D01*
X0137256Y0481754D01*
X0137686Y0481576D01*
X0137311Y0481288D01*
X0136662Y0480442D01*
X0136254Y0479457D01*
X0136115Y0478400D01*
X0136254Y0477343D01*
X0136662Y0476358D01*
X0137013Y0475900D01*
X0136662Y0475443D01*
X0136254Y0474457D01*
X0136115Y0473400D01*
X0136208Y0472694D01*
X0108016D01*
X0108016Y0479123D01*
X0108044Y0479126D01*
X0109183Y0479471D01*
X0110233Y0480032D01*
X0111153Y0480788D01*
X0111908Y0481708D01*
X0112469Y0482758D01*
X0112815Y0483897D01*
X0112932Y0485081D01*
X0112815Y0486266D01*
X0112469Y0487405D01*
X0111908Y0488455D01*
X0111153Y0489375D01*
X0110233Y0490131D01*
X0109183Y0490692D01*
X0108044Y0491037D01*
X0108016Y0491040D01*
X0108016Y0519123D01*
X0108044Y0519126D01*
X0109183Y0519471D01*
X0110233Y0520032D01*
X0111153Y0520788D01*
X0111908Y0521708D01*
X0112469Y0522758D01*
X0112815Y0523897D01*
X0112932Y0525081D01*
X0112815Y0526266D01*
X0112469Y0527405D01*
X0111908Y0528455D01*
X0111153Y0529375D01*
X0110233Y0530131D01*
X0109183Y0530692D01*
X0108044Y0531037D01*
X0108016Y0531040D01*
X0108016Y0551897D01*
X0108311Y0551511D01*
X0109158Y0550862D01*
X0110143Y0550454D01*
X0111200Y0550315D01*
X0112257Y0550454D01*
X0112748Y0550658D01*
X0112860Y0550512D01*
X0113706Y0549862D01*
X0114691Y0549454D01*
X0115748Y0549315D01*
X0116806Y0549454D01*
X0117791Y0549862D01*
X0118637Y0550512D01*
X0119286Y0551358D01*
X0119694Y0552343D01*
X0119833Y0553400D01*
X0119694Y0554457D01*
X0119286Y0555442D01*
X0118637Y0556288D01*
X0117791Y0556938D01*
X0116806Y0557346D01*
X0115748Y0557485D01*
X0114691Y0557346D01*
X0114200Y0557142D01*
X0114088Y0557289D01*
X0113242Y0557938D01*
X0112257Y0558346D01*
X0111200Y0558485D01*
X0110143Y0558346D01*
X0109158Y0557938D01*
X0108311Y0557289D01*
X0108016Y0556903D01*
X0108016Y0600400D01*
X0239266Y0600400D01*
D02*
G37*
%LPC*%
G36*
X0220894Y0573023D02*
X0219837Y0572884D01*
X0219065Y0572565D01*
X0218392Y0572843D01*
X0217334Y0572983D01*
X0216277Y0572843D01*
X0215292Y0572435D01*
X0214446Y0571786D01*
X0214287Y0571579D01*
X0214210Y0571679D01*
X0213364Y0572328D01*
X0212378Y0572736D01*
X0211321Y0572875D01*
X0210264Y0572736D01*
X0209278Y0572328D01*
X0208433Y0571679D01*
X0207783Y0570833D01*
X0207375Y0569848D01*
X0207236Y0568790D01*
X0207375Y0567733D01*
X0207783Y0566748D01*
X0207916Y0566575D01*
X0207799Y0566422D01*
X0207391Y0565437D01*
X0207252Y0564379D01*
X0207391Y0563322D01*
X0207799Y0562337D01*
X0207984Y0562095D01*
X0207783Y0561833D01*
X0207375Y0560848D01*
X0207236Y0559791D01*
X0207375Y0558733D01*
X0207783Y0557748D01*
X0208433Y0556902D01*
X0209278Y0556253D01*
X0210264Y0555845D01*
X0210900Y0555761D01*
X0210284Y0555289D01*
X0209635Y0554443D01*
X0209227Y0553457D01*
X0209118Y0552628D01*
X0208539Y0552388D01*
X0207693Y0551739D01*
X0207044Y0550893D01*
X0206636Y0549908D01*
X0206497Y0548850D01*
X0206636Y0547793D01*
X0207044Y0546808D01*
X0207693Y0545962D01*
X0208539Y0545313D01*
X0209166Y0545053D01*
X0209270Y0544266D01*
X0209678Y0543281D01*
X0210327Y0542435D01*
X0211173Y0541786D01*
X0211586Y0541615D01*
X0211533Y0541209D01*
X0211672Y0540152D01*
X0212080Y0539166D01*
X0212730Y0538320D01*
X0213576Y0537671D01*
X0214561Y0537263D01*
X0215618Y0537124D01*
X0216675Y0537263D01*
X0217661Y0537671D01*
X0218028Y0537953D01*
X0218673Y0537458D01*
X0219658Y0537050D01*
X0220716Y0536911D01*
X0221773Y0537050D01*
X0222758Y0537458D01*
X0223499Y0538027D01*
X0223867Y0537745D01*
X0224852Y0537336D01*
X0225909Y0537197D01*
X0226967Y0537336D01*
X0227952Y0537745D01*
X0228798Y0538394D01*
X0229447Y0539240D01*
X0229855Y0540225D01*
X0229995Y0541282D01*
X0229945Y0541656D01*
X0230258Y0541786D01*
X0231104Y0542435D01*
X0231753Y0543281D01*
X0232161Y0544266D01*
X0232301Y0545323D01*
X0233147Y0545973D01*
X0233796Y0546819D01*
X0234204Y0547804D01*
X0234343Y0548861D01*
X0234204Y0549918D01*
X0233796Y0550904D01*
X0233147Y0551750D01*
X0232301Y0552399D01*
X0231927Y0552554D01*
X0231990Y0553030D01*
X0231850Y0554087D01*
X0231442Y0555072D01*
X0230793Y0555919D01*
X0229947Y0556568D01*
X0228962Y0556976D01*
X0227905Y0557115D01*
X0227403Y0557049D01*
X0228022Y0557855D01*
X0228430Y0558840D01*
X0228569Y0559898D01*
X0228430Y0560955D01*
X0228022Y0561940D01*
X0227836Y0562182D01*
X0228038Y0562444D01*
X0228446Y0563429D01*
X0228585Y0564486D01*
X0228446Y0565544D01*
X0228038Y0566529D01*
X0227905Y0566702D01*
X0228022Y0566855D01*
X0228430Y0567840D01*
X0228569Y0568898D01*
X0228430Y0569955D01*
X0228022Y0570940D01*
X0227373Y0571786D01*
X0226527Y0572435D01*
X0225542Y0572843D01*
X0224484Y0572983D01*
X0223427Y0572843D01*
X0222739Y0572558D01*
X0221951Y0572884D01*
X0220894Y0573023D01*
D02*
G37*
G36*
X0139700Y0572896D02*
X0138642Y0572757D01*
X0137657Y0572349D01*
X0136672Y0572757D01*
X0135615Y0572896D01*
X0134557Y0572757D01*
X0133572Y0572349D01*
X0132587Y0572757D01*
X0131530Y0572896D01*
X0130473Y0572757D01*
X0129487Y0572349D01*
X0128502Y0572757D01*
X0127445Y0572896D01*
X0126388Y0572757D01*
X0125402Y0572349D01*
X0124556Y0571700D01*
X0123907Y0570854D01*
X0123499Y0569869D01*
X0123360Y0568811D01*
X0123499Y0567754D01*
X0123907Y0566769D01*
X0124040Y0566595D01*
X0123923Y0566442D01*
X0123515Y0565457D01*
X0123375Y0564400D01*
X0123515Y0563343D01*
X0123923Y0562358D01*
X0124108Y0562116D01*
X0123907Y0561854D01*
X0123499Y0560869D01*
X0123360Y0559811D01*
X0123499Y0558754D01*
X0123907Y0557769D01*
X0124556Y0556923D01*
X0125402Y0556274D01*
X0126388Y0555865D01*
X0127445Y0555726D01*
X0128502Y0555865D01*
X0129487Y0556274D01*
X0130473Y0555865D01*
X0131530Y0555726D01*
X0132587Y0555865D01*
X0133572Y0556274D01*
X0134557Y0555865D01*
X0135615Y0555726D01*
X0136672Y0555865D01*
X0137657Y0556274D01*
X0137765Y0556356D01*
X0138741Y0555952D01*
X0139798Y0555813D01*
X0140855Y0555952D01*
X0141841Y0556360D01*
X0142687Y0557009D01*
X0143336Y0557855D01*
X0143744Y0558840D01*
X0143883Y0559898D01*
X0143744Y0560955D01*
X0143336Y0561940D01*
X0143176Y0562149D01*
X0143336Y0562358D01*
X0143744Y0563343D01*
X0143883Y0564400D01*
X0143744Y0565457D01*
X0143336Y0566442D01*
X0143161Y0566670D01*
X0143237Y0566769D01*
X0143645Y0567754D01*
X0143785Y0568811D01*
X0143645Y0569869D01*
X0143237Y0570854D01*
X0142588Y0571700D01*
X0141742Y0572349D01*
X0140757Y0572757D01*
X0139700Y0572896D01*
D02*
G37*
G36*
X0251940Y0572485D02*
X0250883Y0572346D01*
X0249897Y0571938D01*
X0249440Y0571587D01*
X0248982Y0571938D01*
X0247997Y0572346D01*
X0246940Y0572485D01*
X0245883Y0572346D01*
X0244897Y0571938D01*
X0244440Y0571587D01*
X0243982Y0571938D01*
X0242997Y0572346D01*
X0241940Y0572485D01*
X0240883Y0572346D01*
X0239897Y0571938D01*
X0239051Y0571288D01*
X0238402Y0570442D01*
X0237994Y0569457D01*
X0237855Y0568400D01*
X0237994Y0567343D01*
X0238402Y0566358D01*
X0238535Y0566184D01*
X0238418Y0566031D01*
X0238010Y0565046D01*
X0237871Y0563989D01*
X0238010Y0562931D01*
X0238418Y0561946D01*
X0238603Y0561705D01*
X0238402Y0561443D01*
X0237994Y0560457D01*
X0237855Y0559400D01*
X0237994Y0558343D01*
X0238402Y0557358D01*
X0239051Y0556511D01*
X0239897Y0555862D01*
X0240883Y0555454D01*
X0241940Y0555315D01*
X0242997Y0555454D01*
X0243982Y0555862D01*
X0244440Y0556213D01*
X0244897Y0555862D01*
X0245883Y0555454D01*
X0246940Y0555315D01*
X0247997Y0555454D01*
X0248982Y0555862D01*
X0249440Y0556213D01*
X0249897Y0555862D01*
X0250883Y0555454D01*
X0251940Y0555315D01*
X0252997Y0555454D01*
X0253982Y0555862D01*
X0254283Y0556093D01*
X0254658Y0555805D01*
X0255643Y0555397D01*
X0256700Y0555258D01*
X0257758Y0555397D01*
X0258743Y0555805D01*
X0259589Y0556455D01*
X0260238Y0557301D01*
X0260646Y0558286D01*
X0260786Y0559343D01*
X0260646Y0560400D01*
X0260238Y0561386D01*
X0260053Y0561627D01*
X0260254Y0561890D01*
X0260662Y0562875D01*
X0260801Y0563932D01*
X0260662Y0564989D01*
X0260254Y0565974D01*
X0260121Y0566148D01*
X0260238Y0566301D01*
X0260646Y0567286D01*
X0260786Y0568343D01*
X0260646Y0569400D01*
X0260238Y0570386D01*
X0259589Y0571232D01*
X0258743Y0571881D01*
X0257758Y0572289D01*
X0256700Y0572428D01*
X0255643Y0572289D01*
X0254658Y0571881D01*
X0254357Y0571650D01*
X0253982Y0571938D01*
X0252997Y0572346D01*
X0251940Y0572485D01*
D02*
G37*
G36*
X0282111Y0572983D02*
X0281054Y0572843D01*
X0280069Y0572435D01*
X0279223Y0571786D01*
X0278906Y0571373D01*
X0278794Y0571419D01*
X0277737Y0571559D01*
X0276679Y0571419D01*
X0275694Y0571011D01*
X0274848Y0570362D01*
X0274199Y0569516D01*
X0273791Y0568531D01*
X0273652Y0567474D01*
X0273791Y0566416D01*
X0274199Y0565431D01*
X0274848Y0564585D01*
X0275694Y0563936D01*
X0275784Y0563899D01*
X0275694Y0563861D01*
X0274848Y0563212D01*
X0274199Y0562366D01*
X0273791Y0561381D01*
X0273652Y0560324D01*
X0273791Y0559266D01*
X0274199Y0558281D01*
X0274848Y0557435D01*
X0275694Y0556786D01*
X0276679Y0556378D01*
X0277737Y0556239D01*
X0278794Y0556378D01*
X0279197Y0556545D01*
X0279223Y0556511D01*
X0280069Y0555862D01*
X0281054Y0555454D01*
X0282111Y0555315D01*
X0283169Y0555454D01*
X0284154Y0555862D01*
X0285000Y0556511D01*
X0285086Y0556624D01*
X0285679Y0556378D01*
X0286737Y0556239D01*
X0287794Y0556378D01*
X0288779Y0556786D01*
X0289625Y0557435D01*
X0290274Y0558281D01*
X0290682Y0559266D01*
X0290822Y0560324D01*
X0290682Y0561381D01*
X0290274Y0562366D01*
X0289625Y0563212D01*
X0288779Y0563861D01*
X0288689Y0563899D01*
X0288779Y0563936D01*
X0289625Y0564585D01*
X0290274Y0565431D01*
X0290682Y0566416D01*
X0290822Y0567474D01*
X0290682Y0568531D01*
X0290274Y0569516D01*
X0289625Y0570362D01*
X0288779Y0571011D01*
X0287794Y0571419D01*
X0286737Y0571559D01*
X0285679Y0571419D01*
X0285377Y0571294D01*
X0285000Y0571786D01*
X0284154Y0572435D01*
X0283169Y0572843D01*
X0282111Y0572983D01*
D02*
G37*
G36*
X0195361Y0571201D02*
X0194304Y0571062D01*
X0193319Y0570654D01*
X0192519Y0570040D01*
X0192007Y0570252D01*
X0190950Y0570391D01*
X0189893Y0570252D01*
X0188908Y0569844D01*
X0188062Y0569194D01*
X0187412Y0568348D01*
X0187004Y0567363D01*
X0186865Y0566306D01*
X0187004Y0565249D01*
X0187412Y0564263D01*
X0188062Y0563417D01*
X0188908Y0562768D01*
X0188998Y0562731D01*
X0188908Y0562694D01*
X0188062Y0562044D01*
X0187412Y0561198D01*
X0187004Y0560213D01*
X0186865Y0559156D01*
X0187004Y0558099D01*
X0187412Y0557113D01*
X0188062Y0556267D01*
X0188908Y0555618D01*
X0189893Y0555210D01*
X0190950Y0555071D01*
X0192007Y0555210D01*
X0192606Y0555458D01*
X0193319Y0554912D01*
X0194304Y0554504D01*
X0195361Y0554364D01*
X0196419Y0554504D01*
X0197404Y0554912D01*
X0198178Y0555506D01*
X0198893Y0555210D01*
X0199950Y0555071D01*
X0201007Y0555210D01*
X0201993Y0555618D01*
X0202839Y0556267D01*
X0203488Y0557113D01*
X0203896Y0558099D01*
X0204035Y0559156D01*
X0203896Y0560213D01*
X0203488Y0561198D01*
X0202839Y0562044D01*
X0201993Y0562694D01*
X0201902Y0562731D01*
X0201993Y0562768D01*
X0202839Y0563417D01*
X0203488Y0564263D01*
X0203896Y0565249D01*
X0204035Y0566306D01*
X0203896Y0567363D01*
X0203488Y0568348D01*
X0202839Y0569194D01*
X0201993Y0569844D01*
X0201007Y0570252D01*
X0199950Y0570391D01*
X0198893Y0570252D01*
X0198261Y0569990D01*
X0198250Y0570005D01*
X0197404Y0570654D01*
X0196419Y0571062D01*
X0195361Y0571201D01*
D02*
G37*
G36*
X0166540Y0571485D02*
X0165483Y0571346D01*
X0164498Y0570938D01*
X0163652Y0570289D01*
X0163400Y0569960D01*
X0163313Y0569996D01*
X0162255Y0570135D01*
X0161198Y0569996D01*
X0160213Y0569588D01*
X0159367Y0568938D01*
X0158718Y0568092D01*
X0158310Y0567107D01*
X0158170Y0566050D01*
X0158310Y0564993D01*
X0158718Y0564008D01*
X0159367Y0563162D01*
X0160213Y0562512D01*
X0160303Y0562475D01*
X0160213Y0562438D01*
X0159367Y0561789D01*
X0158718Y0560943D01*
X0158310Y0559957D01*
X0158170Y0558900D01*
X0158310Y0557843D01*
X0158718Y0556857D01*
X0159367Y0556011D01*
X0160213Y0555362D01*
X0161198Y0554954D01*
X0162255Y0554815D01*
X0163313Y0554954D01*
X0164034Y0555253D01*
X0164498Y0554897D01*
X0165483Y0554489D01*
X0166540Y0554350D01*
X0167598Y0554489D01*
X0168583Y0554897D01*
X0169201Y0555371D01*
X0169213Y0555362D01*
X0170198Y0554954D01*
X0171255Y0554815D01*
X0172313Y0554954D01*
X0173298Y0555362D01*
X0174144Y0556011D01*
X0174793Y0556857D01*
X0175201Y0557843D01*
X0175340Y0558900D01*
X0175201Y0559957D01*
X0174793Y0560943D01*
X0174144Y0561789D01*
X0173298Y0562438D01*
X0173208Y0562475D01*
X0173298Y0562512D01*
X0174144Y0563162D01*
X0174793Y0564008D01*
X0175201Y0564993D01*
X0175340Y0566050D01*
X0175201Y0567107D01*
X0174793Y0568092D01*
X0174144Y0568938D01*
X0173298Y0569588D01*
X0172313Y0569996D01*
X0171255Y0570135D01*
X0170198Y0569996D01*
X0169785Y0569825D01*
X0169429Y0570289D01*
X0168583Y0570938D01*
X0167598Y0571346D01*
X0166540Y0571485D01*
D02*
G37*
G36*
X0127301Y0552574D02*
X0126243Y0552434D01*
X0125258Y0552026D01*
X0124412Y0551377D01*
X0123763Y0550531D01*
X0123355Y0549546D01*
X0123216Y0548489D01*
X0123355Y0547432D01*
X0123763Y0546446D01*
X0124412Y0545600D01*
X0125258Y0544951D01*
X0126243Y0544543D01*
X0127301Y0544404D01*
X0128358Y0544543D01*
X0129343Y0544951D01*
X0130189Y0545600D01*
X0130838Y0546446D01*
X0131246Y0547432D01*
X0131386Y0548489D01*
X0131246Y0549546D01*
X0130838Y0550531D01*
X0130189Y0551377D01*
X0129343Y0552026D01*
X0128358Y0552434D01*
X0127301Y0552574D01*
D02*
G37*
G36*
X0173200Y0543931D02*
X0171926Y0543806D01*
X0170701Y0543434D01*
X0169571Y0542831D01*
X0168582Y0542018D01*
X0167769Y0541029D01*
X0167166Y0539899D01*
X0166794Y0538674D01*
X0166669Y0537400D01*
X0166794Y0536126D01*
X0167166Y0534901D01*
X0167769Y0533771D01*
X0168582Y0532782D01*
X0169571Y0531969D01*
X0170701Y0531366D01*
X0171926Y0530994D01*
X0173200Y0530868D01*
X0174474Y0530994D01*
X0175699Y0531366D01*
X0176829Y0531969D01*
X0177818Y0532782D01*
X0178631Y0533771D01*
X0179234Y0534901D01*
X0179606Y0536126D01*
X0179731Y0537400D01*
X0179606Y0538674D01*
X0179234Y0539899D01*
X0178631Y0541029D01*
X0177818Y0542018D01*
X0176829Y0542831D01*
X0175699Y0543434D01*
X0174474Y0543806D01*
X0173200Y0543931D01*
D02*
G37*
G36*
X0151866D02*
X0150592Y0543806D01*
X0149366Y0543434D01*
X0148237Y0542831D01*
X0147248Y0542018D01*
X0146435Y0541029D01*
X0145832Y0539899D01*
X0145460Y0538674D01*
X0145334Y0537400D01*
X0145460Y0536126D01*
X0145832Y0534901D01*
X0146435Y0533771D01*
X0147248Y0532782D01*
X0148237Y0531969D01*
X0149366Y0531366D01*
X0150592Y0530994D01*
X0151866Y0530868D01*
X0153140Y0530994D01*
X0154365Y0531366D01*
X0155495Y0531969D01*
X0156484Y0532782D01*
X0157297Y0533771D01*
X0157900Y0534901D01*
X0158272Y0536126D01*
X0158397Y0537400D01*
X0158272Y0538674D01*
X0157900Y0539899D01*
X0157297Y0541029D01*
X0156484Y0542018D01*
X0155495Y0542831D01*
X0154365Y0543434D01*
X0153140Y0543806D01*
X0151866Y0543931D01*
D02*
G37*
G36*
X0122200Y0535485D02*
X0121143Y0535346D01*
X0120158Y0534938D01*
X0119311Y0534289D01*
X0118662Y0533442D01*
X0118254Y0532457D01*
X0118115Y0531400D01*
X0118254Y0530343D01*
X0118662Y0529357D01*
X0119311Y0528511D01*
X0120158Y0527862D01*
X0121143Y0527454D01*
X0122200Y0527315D01*
X0123257Y0527454D01*
X0124242Y0527862D01*
X0125089Y0528511D01*
X0125738Y0529357D01*
X0126146Y0530343D01*
X0126285Y0531400D01*
X0126146Y0532457D01*
X0125738Y0533442D01*
X0125089Y0534289D01*
X0124242Y0534938D01*
X0123257Y0535346D01*
X0122200Y0535485D01*
D02*
G37*
G36*
X0259200Y0535931D02*
X0257926Y0535806D01*
X0256700Y0535434D01*
X0255571Y0534831D01*
X0254582Y0534018D01*
X0253769Y0533029D01*
X0253166Y0531899D01*
X0252794Y0530674D01*
X0252669Y0529400D01*
X0252794Y0528126D01*
X0253166Y0526900D01*
X0253769Y0525771D01*
X0254582Y0524782D01*
X0255571Y0523969D01*
X0256700Y0523366D01*
X0257926Y0522994D01*
X0259200Y0522868D01*
X0260474Y0522994D01*
X0261700Y0523366D01*
X0262829Y0523969D01*
X0263818Y0524782D01*
X0264631Y0525771D01*
X0265234Y0526900D01*
X0265606Y0528126D01*
X0265731Y0529400D01*
X0265606Y0530674D01*
X0265234Y0531899D01*
X0264631Y0533029D01*
X0263818Y0534018D01*
X0262829Y0534831D01*
X0261700Y0535434D01*
X0260474Y0535806D01*
X0259200Y0535931D01*
D02*
G37*
G36*
X0238760D02*
X0237486Y0535806D01*
X0236261Y0535434D01*
X0235132Y0534831D01*
X0234142Y0534018D01*
X0233330Y0533029D01*
X0232726Y0531899D01*
X0232354Y0530674D01*
X0232229Y0529400D01*
X0232354Y0528126D01*
X0232726Y0526900D01*
X0233330Y0525771D01*
X0234142Y0524782D01*
X0235132Y0523969D01*
X0236261Y0523366D01*
X0237486Y0522994D01*
X0238760Y0522868D01*
X0240035Y0522994D01*
X0241260Y0523366D01*
X0242389Y0523969D01*
X0243379Y0524782D01*
X0244191Y0525771D01*
X0244795Y0526900D01*
X0245166Y0528126D01*
X0245292Y0529400D01*
X0245166Y0530674D01*
X0244795Y0531899D01*
X0244191Y0533029D01*
X0243379Y0534018D01*
X0242389Y0534831D01*
X0241260Y0535434D01*
X0240035Y0535806D01*
X0238760Y0535931D01*
D02*
G37*
G36*
X0215200D02*
X0213926Y0535806D01*
X0212701Y0535434D01*
X0211571Y0534831D01*
X0210582Y0534018D01*
X0209769Y0533029D01*
X0209166Y0531899D01*
X0208794Y0530674D01*
X0208669Y0529400D01*
X0208794Y0528126D01*
X0209166Y0526900D01*
X0209769Y0525771D01*
X0210582Y0524782D01*
X0211571Y0523969D01*
X0212701Y0523366D01*
X0213926Y0522994D01*
X0215200Y0522868D01*
X0216474Y0522994D01*
X0217700Y0523366D01*
X0218829Y0523969D01*
X0219818Y0524782D01*
X0220631Y0525771D01*
X0221234Y0526900D01*
X0221606Y0528126D01*
X0221731Y0529400D01*
X0221606Y0530674D01*
X0221234Y0531899D01*
X0220631Y0533029D01*
X0219818Y0534018D01*
X0218829Y0534831D01*
X0217700Y0535434D01*
X0216474Y0535806D01*
X0215200Y0535931D01*
D02*
G37*
G36*
X0196247D02*
X0194973Y0535806D01*
X0193748Y0535434D01*
X0192619Y0534831D01*
X0191629Y0534018D01*
X0190817Y0533029D01*
X0190213Y0531899D01*
X0189841Y0530674D01*
X0189716Y0529400D01*
X0189841Y0528126D01*
X0190213Y0526900D01*
X0190817Y0525771D01*
X0191629Y0524782D01*
X0192619Y0523969D01*
X0193748Y0523366D01*
X0194973Y0522994D01*
X0196247Y0522868D01*
X0197521Y0522994D01*
X0198747Y0523366D01*
X0199876Y0523969D01*
X0200866Y0524782D01*
X0201678Y0525771D01*
X0202281Y0526900D01*
X0202653Y0528126D01*
X0202779Y0529400D01*
X0202653Y0530674D01*
X0202281Y0531899D01*
X0201678Y0533029D01*
X0200866Y0534018D01*
X0199876Y0534831D01*
X0198747Y0535434D01*
X0197521Y0535806D01*
X0196247Y0535931D01*
D02*
G37*
G36*
X0225200Y0529485D02*
X0224143Y0529346D01*
X0223158Y0528938D01*
X0222311Y0528289D01*
X0221662Y0527443D01*
X0221254Y0526457D01*
X0221115Y0525400D01*
X0221254Y0524343D01*
X0221662Y0523357D01*
X0222311Y0522511D01*
X0223158Y0521862D01*
X0224143Y0521454D01*
X0225200Y0521315D01*
X0226257Y0521454D01*
X0227242Y0521862D01*
X0228088Y0522511D01*
X0228738Y0523357D01*
X0229146Y0524343D01*
X0229285Y0525400D01*
X0229146Y0526457D01*
X0228738Y0527443D01*
X0228088Y0528289D01*
X0227242Y0528938D01*
X0226257Y0529346D01*
X0225200Y0529485D01*
D02*
G37*
G36*
X0199169Y0499560D02*
X0198259Y0499440D01*
X0197411Y0499089D01*
X0196684Y0498531D01*
X0196125Y0497803D01*
X0195774Y0496955D01*
X0195654Y0496046D01*
X0195774Y0495136D01*
X0196125Y0494288D01*
X0196684Y0493561D01*
X0197165Y0493191D01*
X0196684Y0492822D01*
X0196314Y0492341D01*
X0195945Y0492822D01*
X0195217Y0493380D01*
X0194369Y0493732D01*
X0193460Y0493851D01*
X0192550Y0493732D01*
X0191703Y0493380D01*
X0190975Y0492822D01*
X0190416Y0492094D01*
X0190065Y0491247D01*
X0189945Y0490337D01*
X0190065Y0489427D01*
X0190416Y0488580D01*
X0190975Y0487852D01*
X0191703Y0487293D01*
X0192550Y0486942D01*
X0193460Y0486823D01*
X0194369Y0486942D01*
X0195217Y0487293D01*
X0195945Y0487852D01*
X0196314Y0488333D01*
X0196684Y0487852D01*
X0197165Y0487483D01*
X0196684Y0487113D01*
X0196125Y0486385D01*
X0195774Y0485538D01*
X0195654Y0484628D01*
X0195774Y0483719D01*
X0196125Y0482871D01*
X0196684Y0482143D01*
X0197411Y0481585D01*
X0198259Y0481234D01*
X0199169Y0481114D01*
X0200078Y0481234D01*
X0200926Y0481585D01*
X0201654Y0482143D01*
X0202212Y0482871D01*
X0202563Y0483719D01*
X0202683Y0484628D01*
X0202563Y0485538D01*
X0202212Y0486385D01*
X0201654Y0487113D01*
X0201172Y0487483D01*
X0201654Y0487852D01*
X0202023Y0488333D01*
X0202392Y0487852D01*
X0203120Y0487293D01*
X0203968Y0486942D01*
X0204877Y0486823D01*
X0205787Y0486942D01*
X0206634Y0487293D01*
X0207362Y0487852D01*
X0207921Y0488580D01*
X0208272Y0489427D01*
X0208391Y0490337D01*
X0208272Y0491247D01*
X0207921Y0492094D01*
X0207362Y0492822D01*
X0206634Y0493380D01*
X0205787Y0493732D01*
X0204877Y0493851D01*
X0203968Y0493732D01*
X0203120Y0493380D01*
X0202392Y0492822D01*
X0202023Y0492341D01*
X0201654Y0492822D01*
X0201172Y0493191D01*
X0201654Y0493561D01*
X0202212Y0494288D01*
X0202563Y0495136D01*
X0202683Y0496046D01*
X0202563Y0496955D01*
X0202212Y0497803D01*
X0201654Y0498531D01*
X0200926Y0499089D01*
X0200078Y0499440D01*
X0199169Y0499560D01*
D02*
G37*
G36*
X0160375Y0497438D02*
X0159318Y0497298D01*
X0158333Y0496890D01*
X0157487Y0496241D01*
X0156838Y0495395D01*
X0156430Y0494410D01*
X0156290Y0493353D01*
X0156430Y0492296D01*
X0156838Y0491310D01*
X0157487Y0490464D01*
X0158333Y0489815D01*
X0159318Y0489407D01*
X0160375Y0489268D01*
X0161433Y0489407D01*
X0162418Y0489815D01*
X0163264Y0490464D01*
X0163913Y0491310D01*
X0164321Y0492296D01*
X0164460Y0493353D01*
X0164321Y0494410D01*
X0163913Y0495395D01*
X0163264Y0496241D01*
X0162418Y0496890D01*
X0161433Y0497298D01*
X0160375Y0497438D01*
D02*
G37*
G36*
X0173200Y0480930D02*
X0172143Y0480791D01*
X0171158Y0480383D01*
X0171072Y0480317D01*
X0170987Y0480383D01*
X0170002Y0480791D01*
X0168945Y0480930D01*
X0167887Y0480791D01*
X0166902Y0480383D01*
X0166056Y0479733D01*
X0165407Y0478887D01*
X0164999Y0477902D01*
X0164859Y0476845D01*
X0164999Y0475788D01*
X0165407Y0474802D01*
X0166056Y0473956D01*
X0166902Y0473307D01*
X0167887Y0472899D01*
X0168945Y0472760D01*
X0170002Y0472899D01*
X0170987Y0473307D01*
X0171072Y0473373D01*
X0171158Y0473307D01*
X0172143Y0472899D01*
X0173200Y0472760D01*
X0174257Y0472899D01*
X0175242Y0473307D01*
X0176089Y0473956D01*
X0176738Y0474802D01*
X0177146Y0475788D01*
X0177285Y0476845D01*
X0177146Y0477902D01*
X0176738Y0478887D01*
X0176089Y0479733D01*
X0175242Y0480383D01*
X0174257Y0480791D01*
X0173200Y0480930D01*
D02*
G37*
%LPD*%
G36*
X0214973Y0556604D02*
X0215292Y0556360D01*
X0216277Y0555952D01*
X0217334Y0555813D01*
X0218392Y0555952D01*
X0219163Y0556272D01*
X0219837Y0555993D01*
X0220894Y0555854D01*
X0221951Y0555993D01*
X0222640Y0556278D01*
X0223427Y0555952D01*
X0224484Y0555813D01*
X0225153Y0555901D01*
X0225196Y0555774D01*
X0225852Y0555027D01*
X0226744Y0554587D01*
X0227736Y0554522D01*
X0227905Y0554544D01*
X0228296Y0554493D01*
X0228662Y0554341D01*
X0228975Y0554101D01*
X0229216Y0553787D01*
X0229367Y0553422D01*
X0229419Y0553030D01*
X0229400Y0552886D01*
X0229411Y0552718D01*
X0229378Y0552554D01*
X0229443Y0552227D01*
X0229465Y0551894D01*
X0229539Y0551743D01*
X0229572Y0551578D01*
X0229757Y0551301D01*
X0229905Y0551002D01*
X0230031Y0550891D01*
X0230124Y0550751D01*
X0230402Y0550566D01*
X0230652Y0550346D01*
X0230812Y0550292D01*
X0230951Y0550199D01*
X0231015Y0550172D01*
X0231329Y0549932D01*
X0231569Y0549618D01*
X0231721Y0549253D01*
X0231772Y0548861D01*
X0231721Y0548469D01*
X0231569Y0548104D01*
X0231329Y0547790D01*
X0230749Y0547346D01*
X0230093Y0546598D01*
X0229773Y0545656D01*
X0229678Y0544932D01*
X0229527Y0544566D01*
X0229286Y0544253D01*
X0228973Y0544012D01*
X0228970Y0544011D01*
X0228830Y0543918D01*
X0228671Y0543864D01*
X0228420Y0543644D01*
X0228143Y0543459D01*
X0228049Y0543319D01*
X0227923Y0543208D01*
X0227776Y0542909D01*
X0227590Y0542632D01*
X0227557Y0542467D01*
X0227483Y0542316D01*
X0227461Y0541983D01*
X0227396Y0541656D01*
X0227429Y0541491D01*
X0227418Y0541323D01*
X0227424Y0541282D01*
X0227372Y0540890D01*
X0227221Y0540525D01*
X0226980Y0540212D01*
X0226666Y0539971D01*
X0226301Y0539820D01*
X0225909Y0539768D01*
X0225518Y0539820D01*
X0225152Y0539971D01*
X0225051Y0540049D01*
X0224900Y0540123D01*
X0224774Y0540234D01*
X0224458Y0540342D01*
X0224159Y0540489D01*
X0223991Y0540500D01*
X0223832Y0540554D01*
X0223499Y0540532D01*
X0223166Y0540554D01*
X0223007Y0540500D01*
X0222840Y0540489D01*
X0222540Y0540342D01*
X0222225Y0540234D01*
X0222098Y0540123D01*
X0221948Y0540049D01*
X0221473Y0539685D01*
X0221108Y0539534D01*
X0220716Y0539482D01*
X0220324Y0539534D01*
X0219959Y0539685D01*
X0219580Y0539976D01*
X0219429Y0540050D01*
X0219303Y0540161D01*
X0218987Y0540268D01*
X0218688Y0540415D01*
X0218520Y0540426D01*
X0218361Y0540480D01*
X0218028Y0540459D01*
X0217695Y0540480D01*
X0217536Y0540426D01*
X0217369Y0540415D01*
X0217070Y0540268D01*
X0216754Y0540161D01*
X0216627Y0540050D01*
X0216476Y0539976D01*
X0216375Y0539898D01*
X0216010Y0539746D01*
X0215618Y0539695D01*
X0215226Y0539746D01*
X0214861Y0539898D01*
X0214547Y0540138D01*
X0214307Y0540452D01*
X0214156Y0540817D01*
X0214104Y0541209D01*
X0214114Y0541282D01*
X0214103Y0541450D01*
X0214136Y0541615D01*
X0214071Y0541942D01*
X0214049Y0542274D01*
X0213974Y0542425D01*
X0213942Y0542590D01*
X0213756Y0542867D01*
X0213609Y0543166D01*
X0213482Y0543277D01*
X0213389Y0543417D01*
X0213112Y0543602D01*
X0212861Y0543822D01*
X0212702Y0543876D01*
X0212562Y0543969D01*
X0212459Y0544012D01*
X0212145Y0544253D01*
X0211905Y0544566D01*
X0211753Y0544932D01*
X0211694Y0545386D01*
X0211586Y0545701D01*
X0211521Y0546028D01*
X0211428Y0546168D01*
X0211374Y0546327D01*
X0211154Y0546578D01*
X0210969Y0546855D01*
X0210829Y0546949D01*
X0210718Y0547075D01*
X0210419Y0547223D01*
X0210142Y0547408D01*
X0209825Y0547539D01*
X0209511Y0547780D01*
X0209270Y0548094D01*
X0209119Y0548459D01*
X0209068Y0548850D01*
X0209119Y0549242D01*
X0209270Y0549608D01*
X0209511Y0549921D01*
X0209825Y0550162D01*
X0210093Y0550273D01*
X0210370Y0550458D01*
X0210669Y0550606D01*
X0210780Y0550732D01*
X0210920Y0550826D01*
X0211105Y0551103D01*
X0211325Y0551353D01*
X0211379Y0551513D01*
X0211473Y0551652D01*
X0211538Y0551979D01*
X0211645Y0552295D01*
X0211710Y0552792D01*
X0211862Y0553157D01*
X0212102Y0553471D01*
X0212452Y0553739D01*
X0213107Y0554487D01*
X0213427Y0555428D01*
X0213373Y0556260D01*
X0214210Y0556902D01*
X0214973Y0556604D01*
D02*
G37*
G36*
X0374200Y0441109D02*
X0374200Y0318400D01*
X0376983Y0315617D01*
X0386887D01*
X0387237Y0314830D01*
X0386775Y0314228D01*
X0386354Y0313213D01*
X0386211Y0312123D01*
Y0308777D01*
X0386354Y0307687D01*
X0386775Y0306672D01*
X0387444Y0305800D01*
X0388316Y0305131D01*
X0389331Y0304711D01*
X0390420Y0304568D01*
X0393767D01*
X0394856Y0304711D01*
X0395871Y0305131D01*
X0396743Y0305800D01*
X0397412Y0306672D01*
X0397438Y0306734D01*
X0398225Y0306578D01*
X0398225Y0294698D01*
X0397730Y0294318D01*
X0397208Y0293637D01*
X0396336Y0293481D01*
X0396024Y0293886D01*
X0394873Y0294770D01*
X0393532Y0295325D01*
X0392093Y0295515D01*
X0390655Y0295325D01*
X0389314Y0294770D01*
X0388162Y0293886D01*
X0387279Y0292735D01*
X0386723Y0291394D01*
X0386534Y0289955D01*
X0386723Y0288516D01*
X0387279Y0287176D01*
X0388162Y0286024D01*
X0389314Y0285141D01*
X0390655Y0284585D01*
X0392093Y0284396D01*
X0393532Y0284585D01*
X0394873Y0285141D01*
X0396024Y0286024D01*
X0396336Y0286430D01*
X0397208Y0286274D01*
X0397730Y0285592D01*
X0398225Y0285213D01*
Y0259558D01*
X0388042D01*
Y0249242D01*
X0389746D01*
X0390013Y0248456D01*
X0389522Y0248078D01*
X0388695Y0247001D01*
X0388175Y0245746D01*
X0387998Y0244400D01*
X0388175Y0243054D01*
X0388695Y0241799D01*
X0389522Y0240722D01*
X0390599Y0239895D01*
X0391854Y0239375D01*
X0393200Y0239198D01*
X0394546Y0239375D01*
X0395801Y0239895D01*
X0396878Y0240722D01*
X0397438Y0241451D01*
X0398225Y0241183D01*
Y0234324D01*
X0394622Y0230722D01*
X0297346Y0230722D01*
X0271321Y0256748D01*
X0271516Y0257665D01*
X0272042Y0257883D01*
X0272888Y0258532D01*
X0273538Y0259378D01*
X0273946Y0260363D01*
X0273954Y0260426D01*
X0274800Y0260315D01*
X0275857Y0260454D01*
X0276843Y0260862D01*
X0277689Y0261511D01*
X0278338Y0262357D01*
X0278746Y0263343D01*
X0278825Y0263946D01*
X0279573Y0264641D01*
X0279800Y0264611D01*
X0280857Y0264750D01*
X0281843Y0265158D01*
X0282146Y0265391D01*
X0282450Y0265158D01*
X0283435Y0264750D01*
X0284492Y0264611D01*
X0285549Y0264750D01*
X0286535Y0265158D01*
X0287381Y0265808D01*
X0288030Y0266654D01*
X0288438Y0267639D01*
X0288577Y0268696D01*
X0288498Y0269297D01*
X0288981Y0269667D01*
X0289630Y0270513D01*
X0290038Y0271499D01*
X0290177Y0272556D01*
X0290038Y0273613D01*
X0289630Y0274598D01*
X0288981Y0275444D01*
X0288135Y0276094D01*
X0287150Y0276502D01*
X0286092Y0276641D01*
X0285035Y0276502D01*
X0284050Y0276094D01*
X0283204Y0275444D01*
X0282555Y0274598D01*
X0282147Y0273613D01*
X0282065Y0272993D01*
X0281316Y0272493D01*
X0281236Y0272485D01*
X0280857Y0272642D01*
X0279800Y0272781D01*
X0278743Y0272642D01*
X0277758Y0272234D01*
X0276912Y0271585D01*
X0276262Y0270739D01*
X0275854Y0269753D01*
X0275775Y0269150D01*
X0275027Y0268455D01*
X0274800Y0268485D01*
X0273972Y0268376D01*
X0273946Y0268572D01*
X0273538Y0269557D01*
X0272888Y0270404D01*
X0272042Y0271053D01*
X0271057Y0271461D01*
X0270000Y0271600D01*
X0268943Y0271461D01*
X0267957Y0271053D01*
X0267111Y0270404D01*
X0266462Y0269557D01*
X0266054Y0268572D01*
X0265915Y0267515D01*
X0266054Y0266458D01*
X0266462Y0265473D01*
X0266786Y0265051D01*
X0267042Y0264468D01*
X0266786Y0263884D01*
X0266462Y0263463D01*
X0266244Y0262937D01*
X0265327Y0262741D01*
X0265194Y0262875D01*
X0217302D01*
X0217298Y0262883D01*
X0216649Y0263729D01*
X0215803Y0264379D01*
X0214818Y0264787D01*
X0213761Y0264926D01*
X0212703Y0264787D01*
X0211718Y0264379D01*
X0210872Y0263729D01*
X0210223Y0262883D01*
X0210220Y0262875D01*
X0167008D01*
X0166772Y0263662D01*
X0167306Y0264357D01*
X0167714Y0265343D01*
X0167853Y0266400D01*
X0167714Y0267457D01*
X0167306Y0268443D01*
X0166657Y0269288D01*
X0165811Y0269938D01*
X0164825Y0270346D01*
X0163768Y0270485D01*
X0162711Y0270346D01*
X0161726Y0269938D01*
X0160880Y0269288D01*
X0160662Y0269004D01*
X0159875D01*
X0159657Y0269288D01*
X0158811Y0269938D01*
X0157825Y0270346D01*
X0156768Y0270485D01*
X0155711Y0270346D01*
X0155431Y0270230D01*
X0154650Y0270590D01*
X0154296Y0271444D01*
X0154002Y0271826D01*
X0154079Y0271926D01*
X0154487Y0272911D01*
X0154626Y0273968D01*
X0154487Y0275025D01*
X0154079Y0276011D01*
X0153429Y0276857D01*
X0152584Y0277506D01*
X0151598Y0277914D01*
X0150541Y0278053D01*
X0149484Y0277914D01*
X0148499Y0277506D01*
X0147652Y0276857D01*
X0147003Y0276011D01*
X0146595Y0275025D01*
X0146456Y0273968D01*
X0146535Y0273367D01*
X0145801Y0272939D01*
X0144816Y0273347D01*
X0143758Y0273486D01*
X0142701Y0273347D01*
X0141716Y0272939D01*
X0140870Y0272290D01*
X0140221Y0271444D01*
X0139813Y0270458D01*
X0139673Y0269401D01*
X0139813Y0268344D01*
X0140221Y0267359D01*
X0140870Y0266513D01*
X0141716Y0265863D01*
X0142701Y0265455D01*
X0143758Y0265316D01*
X0144816Y0265455D01*
X0145801Y0265863D01*
X0146647Y0266513D01*
X0146865Y0266797D01*
X0147652D01*
X0147870Y0266513D01*
X0148716Y0265863D01*
X0149701Y0265455D01*
X0150758Y0265316D01*
X0151816Y0265455D01*
X0152095Y0265571D01*
X0152936Y0265068D01*
X0153230Y0264357D01*
X0153764Y0263662D01*
X0153528Y0262875D01*
X0147324D01*
X0147242Y0262938D01*
X0146257Y0263346D01*
X0145200Y0263485D01*
X0144143Y0263346D01*
X0143157Y0262938D01*
X0143076Y0262875D01*
X0117079D01*
X0116731Y0263581D01*
X0116801Y0263671D01*
X0117209Y0264657D01*
X0117348Y0265714D01*
X0117209Y0266771D01*
X0116801Y0267756D01*
X0116152Y0268602D01*
X0115306Y0269252D01*
X0114320Y0269660D01*
X0113263Y0269799D01*
X0112206Y0269660D01*
X0111221Y0269252D01*
X0110375Y0268602D01*
X0109725Y0267756D01*
X0109317Y0266771D01*
X0109178Y0265714D01*
X0109317Y0264657D01*
X0109725Y0263671D01*
X0109795Y0263581D01*
X0109447Y0262875D01*
X0104935D01*
X0104586Y0263581D01*
X0104643Y0263655D01*
X0105051Y0264640D01*
X0105191Y0265697D01*
X0105051Y0266755D01*
X0104643Y0267740D01*
X0103994Y0268586D01*
X0103148Y0269235D01*
X0102163Y0269643D01*
X0101105Y0269782D01*
X0100048Y0269643D01*
X0099063Y0269235D01*
X0098217Y0268586D01*
X0097568Y0267740D01*
X0097160Y0266755D01*
X0097021Y0265697D01*
X0096274Y0265336D01*
X0092476Y0269134D01*
X0092676Y0270047D01*
X0093308Y0270532D01*
X0093957Y0271378D01*
X0094365Y0272363D01*
X0094504Y0273421D01*
X0094365Y0274478D01*
X0093957Y0275463D01*
X0093308Y0276309D01*
X0092461Y0276958D01*
X0091476Y0277366D01*
X0090419Y0277505D01*
X0089854Y0277431D01*
X0089067Y0278036D01*
Y0288742D01*
X0089193Y0288853D01*
X0090629Y0289042D01*
X0091967Y0289596D01*
X0093116Y0290477D01*
X0093997Y0291626D01*
X0094551Y0292964D01*
X0094740Y0294400D01*
X0094551Y0295836D01*
X0093997Y0297174D01*
X0093116Y0298323D01*
X0092331Y0298925D01*
X0092317Y0298950D01*
X0092321Y0299852D01*
X0092330Y0299869D01*
X0093123Y0300477D01*
X0094004Y0301626D01*
X0094558Y0302964D01*
X0094748Y0304400D01*
X0094558Y0305836D01*
X0094004Y0307174D01*
X0093123Y0308323D01*
X0092340Y0308923D01*
X0092333Y0308936D01*
Y0309853D01*
X0092340Y0309866D01*
X0093123Y0310466D01*
X0094004Y0311615D01*
X0094558Y0312953D01*
X0094748Y0314389D01*
X0094558Y0315825D01*
X0094004Y0317163D01*
X0093123Y0318312D01*
X0092328Y0318922D01*
X0092312Y0318952D01*
Y0319837D01*
X0092328Y0319867D01*
X0093123Y0320477D01*
X0094004Y0321626D01*
X0094558Y0322964D01*
X0094748Y0324400D01*
X0094558Y0325836D01*
X0094004Y0327174D01*
X0093123Y0328323D01*
X0092334Y0328928D01*
X0092323Y0328949D01*
Y0329851D01*
X0092334Y0329872D01*
X0093123Y0330477D01*
X0094004Y0331626D01*
X0094558Y0332964D01*
X0094748Y0334400D01*
X0094558Y0335836D01*
X0094004Y0337174D01*
X0093123Y0338323D01*
X0092334Y0338928D01*
X0092323Y0338949D01*
Y0339851D01*
X0092334Y0339872D01*
X0093123Y0340477D01*
X0094004Y0341626D01*
X0094558Y0342964D01*
X0094748Y0344400D01*
X0094558Y0345836D01*
X0094004Y0347174D01*
X0093123Y0348323D01*
X0092330Y0348931D01*
X0092321Y0348948D01*
X0092317Y0349850D01*
X0092331Y0349875D01*
X0093116Y0350477D01*
X0093997Y0351626D01*
X0094551Y0352964D01*
X0094740Y0354400D01*
X0094551Y0355836D01*
X0093997Y0357174D01*
X0093116Y0358323D01*
X0091967Y0359204D01*
X0090629Y0359758D01*
X0089193Y0359947D01*
X0089067Y0360058D01*
Y0380680D01*
X0089722Y0381117D01*
X0089873Y0381054D01*
X0090931Y0380915D01*
X0091988Y0381054D01*
X0092973Y0381463D01*
X0093819Y0382112D01*
X0094468Y0382958D01*
X0094876Y0383943D01*
X0095016Y0385000D01*
X0094876Y0386057D01*
X0094468Y0387043D01*
X0093819Y0387889D01*
X0092973Y0388538D01*
X0091988Y0388946D01*
X0090931Y0389085D01*
X0089873Y0388946D01*
X0089722Y0388883D01*
X0089067Y0389320D01*
Y0412046D01*
X0100969Y0423948D01*
X0133975Y0423948D01*
X0134252Y0423279D01*
X0134901Y0422434D01*
X0135748Y0421784D01*
X0136733Y0421376D01*
X0137790Y0421237D01*
X0138847Y0421376D01*
X0139832Y0421784D01*
X0140679Y0422434D01*
X0141328Y0423279D01*
X0141605Y0423948D01*
X0165476Y0423949D01*
X0165476Y0423530D01*
X0180154Y0408852D01*
X0304626Y0408852D01*
X0317200Y0421425D01*
X0317200Y0441633D01*
X0322968Y0447400D01*
X0367909D01*
X0374200Y0441109D01*
D02*
G37*
%LPC*%
G36*
X0348420Y0434485D02*
X0347363Y0434346D01*
X0346378Y0433938D01*
X0345532Y0433288D01*
X0344883Y0432443D01*
X0344475Y0431457D01*
X0344335Y0430400D01*
X0344475Y0429343D01*
X0344883Y0428358D01*
X0345532Y0427512D01*
X0346378Y0426862D01*
X0347363Y0426454D01*
X0348420Y0426315D01*
X0349478Y0426454D01*
X0350463Y0426862D01*
X0351309Y0427512D01*
X0351958Y0428358D01*
X0352366Y0429343D01*
X0352505Y0430400D01*
X0352366Y0431457D01*
X0351958Y0432443D01*
X0351309Y0433288D01*
X0350463Y0433938D01*
X0349478Y0434346D01*
X0348420Y0434485D01*
D02*
G37*
G36*
X0335544Y0428510D02*
X0334487Y0428371D01*
X0333502Y0427963D01*
X0332656Y0427314D01*
X0332007Y0426468D01*
X0331598Y0425482D01*
X0331459Y0424425D01*
X0331598Y0423368D01*
X0332007Y0422383D01*
X0332656Y0421537D01*
X0333502Y0420888D01*
X0334487Y0420479D01*
X0335544Y0420340D01*
X0336601Y0420479D01*
X0337587Y0420888D01*
X0338433Y0421537D01*
X0339082Y0422383D01*
X0339490Y0423368D01*
X0339629Y0424425D01*
X0339490Y0425482D01*
X0339082Y0426468D01*
X0338433Y0427314D01*
X0337587Y0427963D01*
X0336601Y0428371D01*
X0335544Y0428510D01*
D02*
G37*
G36*
X0348444Y0416225D02*
X0347387Y0416086D01*
X0346402Y0415678D01*
X0345556Y0415029D01*
X0344906Y0414183D01*
X0344498Y0413198D01*
X0344359Y0412140D01*
X0344498Y0411083D01*
X0344906Y0410098D01*
X0345556Y0409252D01*
X0346402Y0408603D01*
X0347387Y0408194D01*
X0348444Y0408055D01*
X0349501Y0408194D01*
X0350487Y0408603D01*
X0351333Y0409252D01*
X0351982Y0410098D01*
X0352390Y0411083D01*
X0352529Y0412140D01*
X0352390Y0413198D01*
X0351982Y0414183D01*
X0351333Y0415029D01*
X0350487Y0415678D01*
X0349501Y0416086D01*
X0348444Y0416225D01*
D02*
G37*
G36*
X0352127Y0405779D02*
X0351070Y0405640D01*
X0350085Y0405232D01*
X0349238Y0404583D01*
X0348589Y0403737D01*
X0348181Y0402751D01*
X0348042Y0401694D01*
X0348181Y0400637D01*
X0348589Y0399652D01*
X0349238Y0398806D01*
X0350085Y0398156D01*
X0351070Y0397748D01*
X0352127Y0397609D01*
X0353184Y0397748D01*
X0354170Y0398156D01*
X0355015Y0398806D01*
X0355665Y0399652D01*
X0356073Y0400637D01*
X0356212Y0401694D01*
X0356073Y0402751D01*
X0355665Y0403737D01*
X0355015Y0404583D01*
X0354170Y0405232D01*
X0353184Y0405640D01*
X0352127Y0405779D01*
D02*
G37*
G36*
X0340311Y0398485D02*
X0339254Y0398346D01*
X0338268Y0397938D01*
X0337422Y0397288D01*
X0336773Y0396443D01*
X0336365Y0395457D01*
X0336226Y0394400D01*
X0336365Y0393343D01*
X0336773Y0392357D01*
X0337422Y0391512D01*
X0338268Y0390862D01*
X0339254Y0390454D01*
X0340311Y0390315D01*
X0341368Y0390454D01*
X0342354Y0390862D01*
X0343199Y0391512D01*
X0343849Y0392357D01*
X0344257Y0393343D01*
X0344396Y0394400D01*
X0344257Y0395457D01*
X0343849Y0396443D01*
X0343199Y0397288D01*
X0342354Y0397938D01*
X0341368Y0398346D01*
X0340311Y0398485D01*
D02*
G37*
G36*
X0112608Y0398242D02*
X0111551Y0398103D01*
X0110566Y0397695D01*
X0109720Y0397045D01*
X0109071Y0396199D01*
X0108663Y0395214D01*
X0108523Y0394157D01*
X0108663Y0393100D01*
X0109071Y0392115D01*
X0109720Y0391268D01*
X0110566Y0390619D01*
X0111551Y0390211D01*
X0112608Y0390072D01*
X0113078Y0390134D01*
X0113556Y0389511D01*
X0114402Y0388862D01*
X0115387Y0388454D01*
X0116445Y0388315D01*
X0117502Y0388454D01*
X0118487Y0388862D01*
X0119333Y0389511D01*
X0119982Y0390357D01*
X0120390Y0391343D01*
X0120529Y0392400D01*
X0120390Y0393457D01*
X0119982Y0394443D01*
X0119333Y0395288D01*
X0118487Y0395938D01*
X0117502Y0396346D01*
X0116445Y0396485D01*
X0115974Y0396423D01*
X0115497Y0397045D01*
X0114651Y0397695D01*
X0113666Y0398103D01*
X0112608Y0398242D01*
D02*
G37*
G36*
X0279076Y0395877D02*
X0278019Y0395738D01*
X0277033Y0395329D01*
X0276187Y0394680D01*
X0275538Y0393834D01*
X0275130Y0392849D01*
X0274991Y0391792D01*
X0275130Y0390735D01*
X0275538Y0389749D01*
X0276187Y0388903D01*
X0277033Y0388254D01*
X0278019Y0387846D01*
X0279076Y0387707D01*
X0280133Y0387846D01*
X0281118Y0388254D01*
X0281964Y0388903D01*
X0282614Y0389749D01*
X0283022Y0390735D01*
X0283161Y0391792D01*
X0283022Y0392849D01*
X0282614Y0393834D01*
X0281964Y0394680D01*
X0281118Y0395329D01*
X0280133Y0395738D01*
X0279076Y0395877D01*
D02*
G37*
G36*
X0132344Y0385547D02*
X0131287Y0385408D01*
X0130302Y0385000D01*
X0130261Y0384969D01*
X0129352Y0385346D01*
X0128295Y0385485D01*
X0127237Y0385346D01*
X0126252Y0384938D01*
X0125406Y0384289D01*
X0124757Y0383442D01*
X0124349Y0382457D01*
X0124209Y0381400D01*
X0124349Y0380343D01*
X0124757Y0379358D01*
X0125406Y0378512D01*
X0126252Y0377862D01*
X0127237Y0377454D01*
X0128295Y0377315D01*
X0129352Y0377454D01*
X0130337Y0377862D01*
X0130378Y0377893D01*
X0131287Y0377517D01*
X0132344Y0377378D01*
X0133402Y0377517D01*
X0134387Y0377925D01*
X0135233Y0378574D01*
X0135882Y0379420D01*
X0136290Y0380405D01*
X0136429Y0381463D01*
X0136290Y0382520D01*
X0135882Y0383505D01*
X0135233Y0384351D01*
X0134387Y0385000D01*
X0133402Y0385408D01*
X0132344Y0385547D01*
D02*
G37*
G36*
X0325675Y0392630D02*
X0324618Y0392491D01*
X0323632Y0392083D01*
X0322786Y0391434D01*
X0322137Y0390588D01*
X0321729Y0389602D01*
X0321590Y0388545D01*
X0321729Y0387488D01*
X0322137Y0386503D01*
X0322786Y0385657D01*
X0323632Y0385008D01*
X0324618Y0384599D01*
X0325675Y0384460D01*
X0326732Y0384599D01*
X0327717Y0385008D01*
X0328563Y0385657D01*
X0329212Y0386503D01*
X0329621Y0387488D01*
X0329760Y0388545D01*
X0329621Y0389602D01*
X0329212Y0390588D01*
X0328563Y0391434D01*
X0327717Y0392083D01*
X0326732Y0392491D01*
X0325675Y0392630D01*
D02*
G37*
G36*
X0142366Y0392234D02*
X0141309Y0392095D01*
X0140323Y0391687D01*
X0139478Y0391038D01*
X0138828Y0390192D01*
X0138420Y0389207D01*
X0138281Y0388149D01*
X0138420Y0387092D01*
X0138828Y0386107D01*
X0139478Y0385261D01*
X0140323Y0384612D01*
X0141309Y0384204D01*
X0142366Y0384065D01*
X0143423Y0384204D01*
X0144409Y0384612D01*
X0145255Y0385261D01*
X0145904Y0386107D01*
X0146312Y0387092D01*
X0146451Y0388149D01*
X0146312Y0389207D01*
X0145904Y0390192D01*
X0145255Y0391038D01*
X0144409Y0391687D01*
X0143423Y0392095D01*
X0142366Y0392234D01*
D02*
G37*
G36*
X0269200Y0391548D02*
X0268143Y0391409D01*
X0267158Y0391001D01*
X0266312Y0390352D01*
X0265662Y0389506D01*
X0265254Y0388520D01*
X0265115Y0387463D01*
X0265254Y0386406D01*
X0265662Y0385420D01*
X0266312Y0384575D01*
X0267158Y0383925D01*
X0268143Y0383517D01*
X0269200Y0383378D01*
X0270257Y0383517D01*
X0271242Y0383925D01*
X0272089Y0384575D01*
X0272738Y0385420D01*
X0273146Y0386406D01*
X0273285Y0387463D01*
X0273146Y0388520D01*
X0272738Y0389506D01*
X0272089Y0390352D01*
X0271242Y0391001D01*
X0270257Y0391409D01*
X0269200Y0391548D01*
D02*
G37*
G36*
X0251273Y0391161D02*
X0250216Y0391022D01*
X0249231Y0390614D01*
X0248385Y0389965D01*
X0247736Y0389119D01*
X0247328Y0388133D01*
X0247188Y0387076D01*
X0247328Y0386019D01*
X0247736Y0385033D01*
X0248385Y0384188D01*
X0249231Y0383538D01*
X0250216Y0383130D01*
X0251273Y0382991D01*
X0252331Y0383130D01*
X0253316Y0383538D01*
X0254162Y0384188D01*
X0254811Y0385033D01*
X0255219Y0386019D01*
X0255358Y0387076D01*
X0255219Y0388133D01*
X0254811Y0389119D01*
X0254162Y0389965D01*
X0253316Y0390614D01*
X0252331Y0391022D01*
X0251273Y0391161D01*
D02*
G37*
G36*
X0103269Y0391127D02*
X0102212Y0390988D01*
X0101226Y0390580D01*
X0100380Y0389931D01*
X0099731Y0389085D01*
X0099323Y0388100D01*
X0099184Y0387042D01*
X0099323Y0385985D01*
X0099731Y0385000D01*
X0100380Y0384154D01*
X0101226Y0383505D01*
X0102212Y0383097D01*
X0103269Y0382958D01*
X0104326Y0383097D01*
X0105311Y0383505D01*
X0106157Y0384154D01*
X0106807Y0385000D01*
X0107215Y0385985D01*
X0107354Y0387042D01*
X0107215Y0388100D01*
X0106807Y0389085D01*
X0106157Y0389931D01*
X0105311Y0390580D01*
X0104326Y0390988D01*
X0103269Y0391127D01*
D02*
G37*
G36*
X0336395Y0387615D02*
X0335338Y0387476D01*
X0334352Y0387068D01*
X0333506Y0386418D01*
X0332857Y0385572D01*
X0332449Y0384587D01*
X0332310Y0383530D01*
X0332449Y0382473D01*
X0332857Y0381487D01*
X0333506Y0380641D01*
X0334352Y0379992D01*
X0335338Y0379584D01*
X0336395Y0379445D01*
X0337452Y0379584D01*
X0338437Y0379992D01*
X0339283Y0380641D01*
X0339932Y0381487D01*
X0340341Y0382473D01*
X0340480Y0383530D01*
X0340341Y0384587D01*
X0339932Y0385572D01*
X0339283Y0386418D01*
X0338437Y0387068D01*
X0337452Y0387476D01*
X0336395Y0387615D01*
D02*
G37*
G36*
X0309379Y0386558D02*
X0308321Y0386418D01*
X0307336Y0386010D01*
X0306490Y0385361D01*
X0305841Y0384515D01*
X0305433Y0383530D01*
X0305294Y0382473D01*
X0305433Y0381415D01*
X0305841Y0380430D01*
X0306490Y0379584D01*
X0307336Y0378935D01*
X0308321Y0378527D01*
X0309379Y0378388D01*
X0310436Y0378527D01*
X0311421Y0378935D01*
X0312267Y0379584D01*
X0312916Y0380430D01*
X0313324Y0381415D01*
X0313464Y0382473D01*
X0313324Y0383530D01*
X0312916Y0384515D01*
X0312267Y0385361D01*
X0311421Y0386010D01*
X0310436Y0386418D01*
X0309379Y0386558D01*
D02*
G37*
G36*
X0259300Y0385485D02*
X0258243Y0385346D01*
X0257258Y0384938D01*
X0256412Y0384289D01*
X0255763Y0383442D01*
X0255354Y0382457D01*
X0255215Y0381400D01*
X0255354Y0380343D01*
X0255763Y0379358D01*
X0256412Y0378512D01*
X0257258Y0377862D01*
X0258243Y0377454D01*
X0259300Y0377315D01*
X0260357Y0377454D01*
X0261343Y0377862D01*
X0262189Y0378512D01*
X0262838Y0379358D01*
X0263246Y0380343D01*
X0263385Y0381400D01*
X0263246Y0382457D01*
X0262838Y0383442D01*
X0262189Y0384289D01*
X0261343Y0384938D01*
X0260357Y0385346D01*
X0259300Y0385485D01*
D02*
G37*
G36*
X0117200Y0384485D02*
X0116143Y0384346D01*
X0115157Y0383938D01*
X0114312Y0383289D01*
X0113662Y0382442D01*
X0113254Y0381457D01*
X0113115Y0380400D01*
X0113254Y0379343D01*
X0113662Y0378358D01*
X0114312Y0377512D01*
X0115157Y0376862D01*
X0116143Y0376454D01*
X0117200Y0376315D01*
X0118257Y0376454D01*
X0119243Y0376862D01*
X0120089Y0377512D01*
X0120738Y0378358D01*
X0121146Y0379343D01*
X0121285Y0380400D01*
X0121146Y0381457D01*
X0120738Y0382442D01*
X0120089Y0383289D01*
X0119243Y0383938D01*
X0118257Y0384346D01*
X0117200Y0384485D01*
D02*
G37*
G36*
X0321480Y0381615D02*
X0320423Y0381476D01*
X0319438Y0381068D01*
X0318591Y0380418D01*
X0317942Y0379572D01*
X0317534Y0378587D01*
X0317395Y0377530D01*
X0317534Y0376473D01*
X0317942Y0375487D01*
X0318591Y0374641D01*
X0319438Y0373992D01*
X0320423Y0373584D01*
X0321480Y0373445D01*
X0322537Y0373584D01*
X0323522Y0373992D01*
X0324369Y0374641D01*
X0325018Y0375487D01*
X0325426Y0376473D01*
X0325565Y0377530D01*
X0325426Y0378587D01*
X0325018Y0379572D01*
X0324369Y0380418D01*
X0323522Y0381068D01*
X0322537Y0381476D01*
X0321480Y0381615D01*
D02*
G37*
G36*
X0140021Y0370414D02*
X0139111Y0370294D01*
X0138264Y0369943D01*
X0137844Y0369621D01*
X0137285Y0369458D01*
X0136725Y0369621D01*
X0136306Y0369943D01*
X0135458Y0370294D01*
X0134548Y0370414D01*
X0133639Y0370294D01*
X0132791Y0369943D01*
X0132063Y0369385D01*
X0131505Y0368657D01*
X0131154Y0367809D01*
X0131034Y0366900D01*
X0131103Y0366376D01*
X0131058Y0366263D01*
X0130540Y0365745D01*
X0130427Y0365700D01*
X0129903Y0365769D01*
X0128993Y0365649D01*
X0128146Y0365298D01*
X0127418Y0364739D01*
X0126859Y0364011D01*
X0126508Y0363164D01*
X0126389Y0362254D01*
X0126508Y0361345D01*
X0126859Y0360497D01*
X0127418Y0359769D01*
Y0359267D01*
X0126859Y0358539D01*
X0126508Y0357691D01*
X0126389Y0356782D01*
X0126508Y0355872D01*
X0126859Y0355025D01*
X0127418Y0354297D01*
X0128146Y0353738D01*
X0128993Y0353387D01*
X0129903Y0353267D01*
X0130427Y0353336D01*
X0130540Y0353291D01*
X0131058Y0352773D01*
X0131103Y0352660D01*
X0131034Y0352136D01*
X0131154Y0351226D01*
X0131505Y0350379D01*
X0132063Y0349651D01*
X0132791Y0349093D01*
X0133639Y0348742D01*
X0134548Y0348622D01*
X0135458Y0348742D01*
X0136306Y0349093D01*
X0136725Y0349415D01*
X0137285Y0349578D01*
X0137844Y0349415D01*
X0138264Y0349093D01*
X0139111Y0348742D01*
X0140021Y0348622D01*
X0140930Y0348742D01*
X0141778Y0349093D01*
X0142506Y0349651D01*
X0143064Y0350379D01*
X0143415Y0351226D01*
X0143535Y0352136D01*
X0143466Y0352660D01*
X0143511Y0352773D01*
X0144029Y0353291D01*
X0144143Y0353336D01*
X0144667Y0353267D01*
X0145576Y0353387D01*
X0146424Y0353738D01*
X0147152Y0354297D01*
X0147710Y0355025D01*
X0148061Y0355872D01*
X0148181Y0356782D01*
X0148061Y0357691D01*
X0147710Y0358539D01*
X0147152Y0359267D01*
Y0359769D01*
X0147710Y0360497D01*
X0148061Y0361345D01*
X0148181Y0362254D01*
X0148061Y0363164D01*
X0147710Y0364011D01*
X0147152Y0364739D01*
X0146424Y0365298D01*
X0145576Y0365649D01*
X0144667Y0365769D01*
X0144143Y0365700D01*
X0144029Y0365745D01*
X0143511Y0366263D01*
X0143466Y0366376D01*
X0143535Y0366900D01*
X0143415Y0367809D01*
X0143064Y0368657D01*
X0142506Y0369385D01*
X0141778Y0369943D01*
X0140930Y0370294D01*
X0140021Y0370414D01*
D02*
G37*
G36*
X0336530Y0375615D02*
X0335473Y0375476D01*
X0334488Y0375068D01*
X0333642Y0374418D01*
X0332993Y0373572D01*
X0332585Y0372587D01*
X0332445Y0371530D01*
X0332585Y0370473D01*
X0332993Y0369487D01*
X0333642Y0368641D01*
X0334488Y0367992D01*
X0335473Y0367584D01*
X0336530Y0367445D01*
X0337587Y0367584D01*
X0338573Y0367992D01*
X0339419Y0368641D01*
X0340068Y0369487D01*
X0340476Y0370473D01*
X0340615Y0371530D01*
X0340476Y0372587D01*
X0340068Y0373572D01*
X0339419Y0374418D01*
X0338573Y0375068D01*
X0337587Y0375476D01*
X0336530Y0375615D01*
D02*
G37*
G36*
X0305135Y0375485D02*
X0304077Y0375346D01*
X0303092Y0374938D01*
X0302246Y0374289D01*
X0301597Y0373443D01*
X0301189Y0372457D01*
X0301050Y0371400D01*
X0301189Y0370343D01*
X0301597Y0369357D01*
X0302246Y0368512D01*
X0303092Y0367862D01*
X0304077Y0367454D01*
X0305135Y0367315D01*
X0306192Y0367454D01*
X0307177Y0367862D01*
X0308023Y0368512D01*
X0308672Y0369357D01*
X0309080Y0370343D01*
X0309220Y0371400D01*
X0309080Y0372457D01*
X0308672Y0373443D01*
X0308023Y0374289D01*
X0307177Y0374938D01*
X0306192Y0375346D01*
X0305135Y0375485D01*
D02*
G37*
G36*
X0279200D02*
X0278143Y0375346D01*
X0277157Y0374938D01*
X0276311Y0374289D01*
X0275662Y0373443D01*
X0275254Y0372457D01*
X0275115Y0371400D01*
X0275254Y0370343D01*
X0275662Y0369357D01*
X0276311Y0368512D01*
X0277157Y0367862D01*
X0278143Y0367454D01*
X0279200Y0367315D01*
X0280257Y0367454D01*
X0281242Y0367862D01*
X0282088Y0368512D01*
X0282738Y0369357D01*
X0283146Y0370343D01*
X0283285Y0371400D01*
X0283146Y0372457D01*
X0282738Y0373443D01*
X0282088Y0374289D01*
X0281242Y0374938D01*
X0280257Y0375346D01*
X0279200Y0375485D01*
D02*
G37*
G36*
X0346083Y0375062D02*
X0345025Y0374923D01*
X0344040Y0374515D01*
X0343194Y0373866D01*
X0342545Y0373020D01*
X0342137Y0372035D01*
X0341998Y0370977D01*
X0342137Y0369920D01*
X0342545Y0368935D01*
X0343194Y0368089D01*
X0344040Y0367440D01*
X0345025Y0367032D01*
X0346083Y0366893D01*
X0347140Y0367032D01*
X0348125Y0367440D01*
X0348971Y0368089D01*
X0349620Y0368935D01*
X0350028Y0369920D01*
X0350168Y0370977D01*
X0350028Y0372035D01*
X0349620Y0373020D01*
X0348971Y0373866D01*
X0348125Y0374515D01*
X0347140Y0374923D01*
X0346083Y0375062D01*
D02*
G37*
G36*
X0110898Y0372463D02*
X0109841Y0372324D01*
X0108856Y0371916D01*
X0108010Y0371267D01*
X0107360Y0370421D01*
X0106952Y0369436D01*
X0106813Y0368378D01*
X0106952Y0367321D01*
X0107360Y0366336D01*
X0108010Y0365490D01*
X0108856Y0364841D01*
X0109841Y0364433D01*
X0110898Y0364294D01*
X0111955Y0364433D01*
X0112941Y0364841D01*
X0113787Y0365490D01*
X0114436Y0366336D01*
X0114844Y0367321D01*
X0114983Y0368378D01*
X0114844Y0369436D01*
X0114436Y0370421D01*
X0113787Y0371267D01*
X0112941Y0371916D01*
X0111955Y0372324D01*
X0110898Y0372463D01*
D02*
G37*
G36*
X0269200Y0371552D02*
X0268143Y0371413D01*
X0267158Y0371005D01*
X0266312Y0370355D01*
X0265662Y0369509D01*
X0265254Y0368524D01*
X0265115Y0367467D01*
X0265254Y0366410D01*
X0265662Y0365424D01*
X0266312Y0364578D01*
X0267158Y0363929D01*
X0268143Y0363521D01*
X0269200Y0363382D01*
X0270257Y0363521D01*
X0271242Y0363929D01*
X0272089Y0364578D01*
X0272738Y0365424D01*
X0273146Y0366410D01*
X0273285Y0367467D01*
X0273146Y0368524D01*
X0272738Y0369509D01*
X0272089Y0370355D01*
X0271242Y0371005D01*
X0270257Y0371413D01*
X0269200Y0371552D01*
D02*
G37*
G36*
X0321200Y0369485D02*
X0320143Y0369346D01*
X0319158Y0368938D01*
X0318312Y0368288D01*
X0317662Y0367442D01*
X0317254Y0366457D01*
X0317115Y0365400D01*
X0317254Y0364343D01*
X0317662Y0363357D01*
X0318312Y0362511D01*
X0319158Y0361862D01*
X0320143Y0361454D01*
X0321200Y0361315D01*
X0322257Y0361454D01*
X0323242Y0361862D01*
X0324089Y0362511D01*
X0324738Y0363357D01*
X0325146Y0364343D01*
X0325285Y0365400D01*
X0325146Y0366457D01*
X0324738Y0367442D01*
X0324089Y0368288D01*
X0323242Y0368938D01*
X0322257Y0369346D01*
X0321200Y0369485D01*
D02*
G37*
G36*
X0276200Y0365485D02*
X0275143Y0365346D01*
X0274158Y0364938D01*
X0273311Y0364288D01*
X0272662Y0363442D01*
X0272254Y0362457D01*
X0272115Y0361400D01*
X0272254Y0360343D01*
X0272662Y0359358D01*
X0273311Y0358511D01*
X0274158Y0357862D01*
X0275143Y0357454D01*
X0276200Y0357315D01*
X0277257Y0357454D01*
X0278242Y0357862D01*
X0279088Y0358511D01*
X0279738Y0359358D01*
X0280146Y0360343D01*
X0280285Y0361400D01*
X0280146Y0362457D01*
X0279738Y0363442D01*
X0279088Y0364288D01*
X0278242Y0364938D01*
X0277257Y0365346D01*
X0276200Y0365485D01*
D02*
G37*
G36*
X0168517Y0370985D02*
X0167459Y0370846D01*
X0166474Y0370438D01*
X0165628Y0369788D01*
X0164979Y0368942D01*
X0164571Y0367957D01*
X0164518Y0367554D01*
X0163692Y0367445D01*
X0162707Y0367037D01*
X0161861Y0366388D01*
X0161212Y0365542D01*
X0160803Y0364556D01*
X0160664Y0363499D01*
X0160803Y0362442D01*
X0161212Y0361457D01*
X0161345Y0361283D01*
X0160756Y0360832D01*
X0160107Y0359986D01*
X0159699Y0359000D01*
X0159560Y0357943D01*
X0159699Y0356886D01*
X0160107Y0355901D01*
X0160756Y0355055D01*
X0161602Y0354405D01*
X0162587Y0353997D01*
X0163645Y0353858D01*
X0164702Y0353997D01*
X0165687Y0354405D01*
X0166533Y0355055D01*
X0167182Y0355901D01*
X0167590Y0356886D01*
X0167729Y0357943D01*
X0167590Y0359000D01*
X0167182Y0359986D01*
X0167222Y0360292D01*
X0167638Y0360611D01*
X0168287Y0361457D01*
X0168695Y0362442D01*
X0168748Y0362845D01*
X0169574Y0362954D01*
X0170559Y0363362D01*
X0171405Y0364011D01*
X0172054Y0364857D01*
X0172462Y0365843D01*
X0172602Y0366900D01*
X0172462Y0367957D01*
X0172054Y0368942D01*
X0171405Y0369788D01*
X0170559Y0370438D01*
X0169574Y0370846D01*
X0168517Y0370985D01*
D02*
G37*
G36*
X0253365Y0364485D02*
X0252308Y0364346D01*
X0251323Y0363938D01*
X0250477Y0363288D01*
X0249828Y0362442D01*
X0249420Y0361457D01*
X0249280Y0360400D01*
X0249420Y0359343D01*
X0249828Y0358358D01*
X0249917Y0358241D01*
X0249569Y0357402D01*
X0249143Y0357346D01*
X0248158Y0356938D01*
X0247311Y0356289D01*
X0246662Y0355443D01*
X0246254Y0354457D01*
X0246115Y0353400D01*
X0246254Y0352343D01*
X0246662Y0351358D01*
X0247311Y0350512D01*
X0248158Y0349862D01*
X0249143Y0349454D01*
X0250200Y0349315D01*
X0251257Y0349454D01*
X0252242Y0349862D01*
X0253088Y0350512D01*
X0253738Y0351358D01*
X0254146Y0352343D01*
X0254285Y0353400D01*
X0254146Y0354457D01*
X0253738Y0355443D01*
X0253649Y0355559D01*
X0253996Y0356398D01*
X0254423Y0356454D01*
X0255408Y0356862D01*
X0256254Y0357511D01*
X0256353Y0357641D01*
X0256985Y0357441D01*
X0257122Y0357350D01*
X0257254Y0356343D01*
X0257662Y0355358D01*
X0258312Y0354511D01*
X0259157Y0353862D01*
X0260143Y0353454D01*
X0261200Y0353315D01*
X0262257Y0353454D01*
X0263243Y0353862D01*
X0264089Y0354511D01*
X0264738Y0355358D01*
X0265146Y0356343D01*
X0265285Y0357400D01*
X0265146Y0358457D01*
X0264738Y0359442D01*
X0264089Y0360289D01*
X0263243Y0360938D01*
X0262257Y0361346D01*
X0261200Y0361485D01*
X0260143Y0361346D01*
X0259157Y0360938D01*
X0258312Y0360289D01*
X0258212Y0360159D01*
X0257580Y0360359D01*
X0257444Y0360450D01*
X0257311Y0361457D01*
X0256903Y0362442D01*
X0256254Y0363288D01*
X0255408Y0363938D01*
X0254423Y0364346D01*
X0253365Y0364485D01*
D02*
G37*
G36*
X0317998Y0345664D02*
X0316941Y0345525D01*
X0315955Y0345117D01*
X0315109Y0344467D01*
X0314460Y0343621D01*
X0314052Y0342636D01*
X0313913Y0341579D01*
X0314052Y0340522D01*
X0314460Y0339536D01*
X0315109Y0338690D01*
X0315955Y0338041D01*
X0316941Y0337633D01*
X0317998Y0337494D01*
X0319055Y0337633D01*
X0320040Y0338041D01*
X0320886Y0338690D01*
X0321536Y0339536D01*
X0321944Y0340522D01*
X0322083Y0341579D01*
X0321944Y0342636D01*
X0321536Y0343621D01*
X0320886Y0344467D01*
X0320040Y0345117D01*
X0319055Y0345525D01*
X0317998Y0345664D01*
D02*
G37*
G36*
X0115972Y0344607D02*
X0114915Y0344468D01*
X0113930Y0344060D01*
X0113084Y0343410D01*
X0112434Y0342564D01*
X0112026Y0341579D01*
X0111887Y0340522D01*
X0111971Y0339884D01*
X0111318Y0339382D01*
X0110668Y0338536D01*
X0110260Y0337551D01*
X0110121Y0336494D01*
X0110260Y0335436D01*
X0110668Y0334451D01*
X0111318Y0333605D01*
X0112163Y0332956D01*
X0113149Y0332548D01*
X0114206Y0332409D01*
X0115263Y0332548D01*
X0116248Y0332956D01*
X0117095Y0333605D01*
X0117744Y0334451D01*
X0118152Y0335436D01*
X0118291Y0336494D01*
X0118207Y0337132D01*
X0118861Y0337633D01*
X0119510Y0338479D01*
X0119918Y0339465D01*
X0120057Y0340522D01*
X0119918Y0341579D01*
X0119510Y0342564D01*
X0118861Y0343410D01*
X0118015Y0344060D01*
X0117029Y0344468D01*
X0115972Y0344607D01*
D02*
G37*
G36*
X0142206Y0332293D02*
X0141149Y0332154D01*
X0140206Y0331763D01*
X0139263Y0332154D01*
X0138206Y0332293D01*
X0137149Y0332154D01*
X0136163Y0331745D01*
X0135317Y0331096D01*
X0134668Y0330250D01*
X0134260Y0329265D01*
X0134121Y0328208D01*
X0134260Y0327151D01*
X0134668Y0326165D01*
X0135317Y0325319D01*
X0136163Y0324670D01*
X0137149Y0324262D01*
X0137544Y0324210D01*
X0138204Y0324039D01*
X0138186Y0323376D01*
X0138132Y0322965D01*
X0138271Y0321907D01*
X0138679Y0320922D01*
X0139328Y0320076D01*
X0140174Y0319427D01*
X0141159Y0319019D01*
X0142217Y0318880D01*
X0143274Y0319019D01*
X0144259Y0319427D01*
X0145105Y0320076D01*
X0145754Y0320922D01*
X0146162Y0321907D01*
X0146302Y0322965D01*
X0146162Y0324022D01*
X0145754Y0325007D01*
X0145305Y0325593D01*
X0145744Y0326165D01*
X0146152Y0327151D01*
X0146291Y0328208D01*
X0146152Y0329265D01*
X0145744Y0330250D01*
X0145094Y0331096D01*
X0144248Y0331745D01*
X0143263Y0332154D01*
X0142206Y0332293D01*
D02*
G37*
G36*
X0242049Y0336329D02*
X0240992Y0336190D01*
X0240006Y0335782D01*
X0239160Y0335133D01*
X0238511Y0334286D01*
X0238103Y0333301D01*
X0237964Y0332244D01*
X0238103Y0331187D01*
X0238511Y0330202D01*
X0238652Y0330018D01*
X0238167Y0329646D01*
X0237619Y0328933D01*
X0237110Y0328691D01*
X0236763Y0328598D01*
X0236737Y0328618D01*
X0235752Y0329026D01*
X0234695Y0329165D01*
X0233637Y0329026D01*
X0232652Y0328618D01*
X0231806Y0327968D01*
X0231157Y0327122D01*
X0230749Y0326137D01*
X0230609Y0325080D01*
X0230687Y0324490D01*
X0230085Y0324241D01*
X0229239Y0323592D01*
X0228590Y0322746D01*
X0228182Y0321760D01*
X0228042Y0320703D01*
X0228182Y0319646D01*
X0228570Y0318709D01*
X0228493Y0318518D01*
X0228125Y0317974D01*
X0227699Y0318030D01*
X0226642Y0317891D01*
X0225656Y0317482D01*
X0224810Y0316833D01*
X0224161Y0315987D01*
X0223753Y0315002D01*
X0223614Y0313945D01*
X0223753Y0312888D01*
X0224161Y0311902D01*
X0224810Y0311056D01*
X0225656Y0310407D01*
X0226642Y0309999D01*
X0227699Y0309860D01*
X0228756Y0309999D01*
X0229741Y0310407D01*
X0230587Y0311056D01*
X0230850Y0311398D01*
X0230923Y0311368D01*
X0231980Y0311229D01*
X0233037Y0311368D01*
X0234022Y0311776D01*
X0234868Y0312425D01*
X0235518Y0313271D01*
X0235926Y0314257D01*
X0236065Y0315314D01*
X0235926Y0316371D01*
X0235518Y0317356D01*
X0235091Y0317913D01*
X0235665Y0318661D01*
X0236073Y0319646D01*
X0236212Y0320703D01*
X0236135Y0321293D01*
X0236737Y0321542D01*
X0237583Y0322191D01*
X0238232Y0323037D01*
X0238717Y0323167D01*
X0239138Y0323168D01*
X0239998Y0322812D01*
X0241055Y0322673D01*
X0242112Y0322812D01*
X0243098Y0323220D01*
X0243944Y0323869D01*
X0244593Y0324715D01*
X0245001Y0325700D01*
X0245140Y0326758D01*
X0245001Y0327815D01*
X0244593Y0328800D01*
X0244452Y0328983D01*
X0244937Y0329356D01*
X0245587Y0330202D01*
X0245995Y0331187D01*
X0246134Y0332244D01*
X0245995Y0333301D01*
X0245587Y0334286D01*
X0244937Y0335133D01*
X0244092Y0335782D01*
X0243106Y0336190D01*
X0242049Y0336329D01*
D02*
G37*
G36*
X0170961Y0333338D02*
X0169904Y0333198D01*
X0168919Y0332790D01*
X0168073Y0332141D01*
X0167423Y0331295D01*
X0167015Y0330310D01*
X0166876Y0329253D01*
X0167015Y0328195D01*
X0167423Y0327210D01*
X0168073Y0326364D01*
X0168919Y0325715D01*
X0169904Y0325307D01*
X0170961Y0325168D01*
X0172019Y0325307D01*
X0173004Y0325715D01*
X0173850Y0326364D01*
X0174499Y0327210D01*
X0174907Y0328195D01*
X0175046Y0329253D01*
X0174907Y0330310D01*
X0174499Y0331295D01*
X0173850Y0332141D01*
X0173004Y0332790D01*
X0172019Y0333198D01*
X0170961Y0333338D01*
D02*
G37*
G36*
X0201455Y0325179D02*
X0200398Y0325040D01*
X0199413Y0324631D01*
X0198566Y0323982D01*
X0197917Y0323136D01*
X0197509Y0322151D01*
X0197370Y0321094D01*
X0197509Y0320037D01*
X0197917Y0319051D01*
X0198566Y0318205D01*
X0199413Y0317556D01*
X0200398Y0317148D01*
X0201455Y0317009D01*
X0202512Y0317148D01*
X0203498Y0317556D01*
X0204344Y0318205D01*
X0204993Y0319051D01*
X0205401Y0320037D01*
X0205540Y0321094D01*
X0205401Y0322151D01*
X0204993Y0323136D01*
X0204344Y0323982D01*
X0203498Y0324631D01*
X0202512Y0325040D01*
X0201455Y0325179D01*
D02*
G37*
G36*
X0111343Y0326299D02*
X0110285Y0326160D01*
X0109300Y0325752D01*
X0108454Y0325103D01*
X0107805Y0324257D01*
X0107397Y0323272D01*
X0107258Y0322214D01*
X0107397Y0321157D01*
X0107805Y0320172D01*
X0108454Y0319326D01*
X0109300Y0318677D01*
X0110285Y0318269D01*
X0111343Y0318129D01*
X0111700Y0318177D01*
X0112254Y0317457D01*
X0112136Y0316557D01*
X0111654Y0316494D01*
X0110669Y0316085D01*
X0110036Y0315600D01*
X0109248Y0316204D01*
X0108263Y0316612D01*
X0107206Y0316751D01*
X0106149Y0316612D01*
X0105164Y0316204D01*
X0104815Y0315936D01*
X0103857Y0316193D01*
X0103726Y0316508D01*
X0103077Y0317354D01*
X0102231Y0318003D01*
X0101246Y0318411D01*
X0100189Y0318551D01*
X0099131Y0318411D01*
X0098146Y0318003D01*
X0097300Y0317354D01*
X0096651Y0316508D01*
X0096243Y0315523D01*
X0096104Y0314466D01*
X0096243Y0313408D01*
X0096651Y0312423D01*
X0097300Y0311577D01*
X0098146Y0310928D01*
X0099131Y0310520D01*
X0100189Y0310381D01*
X0101246Y0310520D01*
X0102231Y0310928D01*
X0102580Y0311195D01*
X0103538Y0310939D01*
X0103668Y0310624D01*
X0104317Y0309778D01*
X0105164Y0309128D01*
X0106149Y0308720D01*
X0107206Y0308581D01*
X0108263Y0308720D01*
X0109248Y0309128D01*
X0109881Y0309614D01*
X0110669Y0309010D01*
X0111654Y0308602D01*
X0112711Y0308463D01*
X0113768Y0308602D01*
X0114753Y0309010D01*
X0115599Y0309659D01*
X0116249Y0310505D01*
X0116657Y0311491D01*
X0116775Y0312391D01*
X0117257Y0312454D01*
X0118243Y0312862D01*
X0119088Y0313511D01*
X0119738Y0314357D01*
X0120146Y0315343D01*
X0120285Y0316400D01*
X0120146Y0317457D01*
X0119738Y0318443D01*
X0119088Y0319288D01*
X0118243Y0319938D01*
X0117257Y0320346D01*
X0116200Y0320485D01*
X0115842Y0320438D01*
X0115288Y0321157D01*
X0115428Y0322214D01*
X0115288Y0323272D01*
X0114880Y0324257D01*
X0114231Y0325103D01*
X0113385Y0325752D01*
X0112400Y0326160D01*
X0111343Y0326299D01*
D02*
G37*
G36*
X0128605Y0326708D02*
X0127548Y0326568D01*
X0126563Y0326160D01*
X0125717Y0325511D01*
X0125068Y0324665D01*
X0124660Y0323680D01*
X0124520Y0322623D01*
X0124660Y0321565D01*
X0125068Y0320580D01*
X0125717Y0319734D01*
X0126563Y0319085D01*
X0127548Y0318677D01*
X0127582Y0318672D01*
X0127699Y0317787D01*
X0128107Y0316802D01*
X0128756Y0315956D01*
X0129412Y0315452D01*
X0129593Y0315090D01*
X0129566Y0314469D01*
X0129121Y0313889D01*
X0128713Y0312903D01*
X0128670Y0312576D01*
X0128639Y0312530D01*
X0127815Y0312115D01*
X0127257Y0312346D01*
X0126200Y0312485D01*
X0125143Y0312346D01*
X0124158Y0311938D01*
X0123311Y0311288D01*
X0122662Y0310442D01*
X0122254Y0309457D01*
X0122115Y0308400D01*
X0122254Y0307343D01*
X0122662Y0306358D01*
X0123311Y0305511D01*
X0124158Y0304862D01*
X0125143Y0304454D01*
X0126200Y0304315D01*
X0126440Y0304347D01*
X0126993Y0303626D01*
X0126986Y0303608D01*
X0126847Y0302551D01*
X0126986Y0301494D01*
X0127394Y0300508D01*
X0128043Y0299662D01*
X0128889Y0299013D01*
X0129875Y0298605D01*
X0130932Y0298466D01*
X0131989Y0298605D01*
X0132974Y0299013D01*
X0133820Y0299662D01*
X0134469Y0300508D01*
X0134878Y0301494D01*
X0135017Y0302551D01*
X0134878Y0303608D01*
X0134469Y0304593D01*
X0133820Y0305439D01*
X0132974Y0306088D01*
X0131989Y0306497D01*
X0131014Y0306625D01*
X0130699Y0306966D01*
X0130458Y0307309D01*
X0130527Y0307619D01*
X0131309Y0308021D01*
X0131601Y0307900D01*
X0132658Y0307761D01*
X0133716Y0307900D01*
X0134701Y0308308D01*
X0135547Y0308958D01*
X0136111Y0309693D01*
X0136478Y0309899D01*
X0136965Y0310029D01*
X0137183Y0309862D01*
X0138168Y0309454D01*
X0138802Y0309371D01*
X0139512Y0308736D01*
X0139651Y0307679D01*
X0140059Y0306694D01*
X0140708Y0305848D01*
X0141554Y0305199D01*
X0142540Y0304790D01*
X0143597Y0304651D01*
X0144654Y0304790D01*
X0145639Y0305199D01*
X0146485Y0305848D01*
X0147134Y0306694D01*
X0147187Y0306820D01*
X0147947Y0307024D01*
X0148158Y0306862D01*
X0149143Y0306454D01*
X0150200Y0306315D01*
X0151257Y0306454D01*
X0152243Y0306862D01*
X0153088Y0307511D01*
X0153738Y0308358D01*
X0154146Y0309343D01*
X0154285Y0310400D01*
X0154146Y0311457D01*
X0153738Y0312442D01*
X0153088Y0313288D01*
X0152243Y0313938D01*
X0151257Y0314346D01*
X0150200Y0314485D01*
X0149143Y0314346D01*
X0148158Y0313938D01*
X0147311Y0313288D01*
X0146662Y0312442D01*
X0146610Y0312316D01*
X0145850Y0312112D01*
X0145639Y0312274D01*
X0144654Y0312682D01*
X0144020Y0312765D01*
X0143310Y0313400D01*
X0143171Y0314457D01*
X0142763Y0315442D01*
X0142114Y0316288D01*
X0141268Y0316938D01*
X0140282Y0317346D01*
X0139225Y0317485D01*
X0138168Y0317346D01*
X0137183Y0316938D01*
X0136337Y0316288D01*
X0135909Y0315731D01*
X0135051Y0315670D01*
X0134726Y0315980D01*
X0134737Y0316221D01*
X0135182Y0316802D01*
X0135590Y0317787D01*
X0135729Y0318844D01*
X0135590Y0319901D01*
X0135182Y0320887D01*
X0134533Y0321733D01*
X0133687Y0322382D01*
X0132702Y0322790D01*
X0132668Y0322794D01*
X0132551Y0323680D01*
X0132143Y0324665D01*
X0131494Y0325511D01*
X0130648Y0326160D01*
X0129663Y0326568D01*
X0128605Y0326708D01*
D02*
G37*
G36*
X0316492Y0318022D02*
X0315435Y0317883D01*
X0314450Y0317475D01*
X0313604Y0316826D01*
X0312954Y0315980D01*
X0312546Y0314995D01*
X0312407Y0313937D01*
X0312546Y0312880D01*
X0312954Y0311895D01*
X0313604Y0311049D01*
X0314450Y0310400D01*
X0315435Y0309992D01*
X0316492Y0309853D01*
X0317549Y0309992D01*
X0318535Y0310400D01*
X0319381Y0311049D01*
X0320030Y0311895D01*
X0320438Y0312880D01*
X0320577Y0313937D01*
X0320438Y0314995D01*
X0320030Y0315980D01*
X0319381Y0316826D01*
X0318535Y0317475D01*
X0317549Y0317883D01*
X0316492Y0318022D01*
D02*
G37*
G36*
X0123736Y0301560D02*
X0110260D01*
X0109285Y0301366D01*
X0108458Y0300814D01*
X0107905Y0299987D01*
X0107711Y0299011D01*
Y0298104D01*
X0106924Y0297837D01*
X0106803Y0297994D01*
X0105957Y0298644D01*
X0104972Y0299052D01*
X0103915Y0299191D01*
X0102857Y0299052D01*
X0101872Y0298644D01*
X0101026Y0297994D01*
X0100377Y0297148D01*
X0099969Y0296163D01*
X0099830Y0295106D01*
X0099969Y0294049D01*
X0100377Y0293063D01*
X0101026Y0292217D01*
X0101872Y0291568D01*
X0102857Y0291160D01*
X0103915Y0291021D01*
X0104972Y0291160D01*
X0105957Y0291568D01*
X0106803Y0292217D01*
X0106900Y0292344D01*
X0107449Y0292208D01*
X0107680Y0292068D01*
X0107711Y0291831D01*
Y0286135D01*
X0106924Y0286083D01*
X0106896Y0286295D01*
X0106821Y0286867D01*
X0106413Y0287852D01*
X0105764Y0288698D01*
X0104918Y0289348D01*
X0103932Y0289756D01*
X0102875Y0289895D01*
X0101818Y0289756D01*
X0100833Y0289348D01*
X0099987Y0288698D01*
X0099338Y0287852D01*
X0098930Y0286867D01*
X0098790Y0285810D01*
X0098930Y0284753D01*
X0099338Y0283768D01*
X0099987Y0282921D01*
X0100833Y0282272D01*
X0101818Y0281864D01*
X0102875Y0281725D01*
X0103932Y0281864D01*
X0104918Y0282272D01*
X0105764Y0282921D01*
X0106413Y0283768D01*
X0106821Y0284753D01*
X0106896Y0285325D01*
X0106924Y0285537D01*
X0107683Y0285487D01*
X0107711Y0285400D01*
X0107722Y0285347D01*
X0107905Y0284424D01*
X0108458Y0283598D01*
X0109285Y0283045D01*
X0110260Y0282851D01*
X0116844D01*
X0116990Y0282832D01*
X0117136Y0282851D01*
X0123700D01*
X0124675Y0283045D01*
X0125502Y0283598D01*
X0125539Y0283634D01*
X0126091Y0284461D01*
X0126285Y0285437D01*
Y0291952D01*
X0126312Y0292153D01*
X0126285Y0292355D01*
Y0299011D01*
X0126091Y0299987D01*
X0125539Y0300814D01*
X0124712Y0301366D01*
X0123736Y0301560D01*
D02*
G37*
G36*
X0232510Y0304169D02*
X0231453Y0304030D01*
X0230468Y0303622D01*
X0229622Y0302973D01*
X0228972Y0302127D01*
X0228564Y0301142D01*
X0228425Y0300084D01*
X0228564Y0299027D01*
X0228972Y0298042D01*
X0229622Y0297196D01*
X0230468Y0296547D01*
X0231453Y0296139D01*
X0232510Y0295999D01*
X0233567Y0296139D01*
X0234552Y0296547D01*
X0235399Y0297196D01*
X0236048Y0298042D01*
X0236456Y0299027D01*
X0236595Y0300084D01*
X0236456Y0301142D01*
X0236048Y0302127D01*
X0235399Y0302973D01*
X0234552Y0303622D01*
X0233567Y0304030D01*
X0232510Y0304169D01*
D02*
G37*
G36*
X0150504Y0297817D02*
X0149447Y0297678D01*
X0148462Y0297270D01*
X0147616Y0296621D01*
X0146967Y0295775D01*
X0146558Y0294790D01*
X0146419Y0293732D01*
X0146558Y0292675D01*
X0146967Y0291690D01*
X0147616Y0290844D01*
X0148462Y0290195D01*
X0149447Y0289787D01*
X0150504Y0289647D01*
X0151561Y0289787D01*
X0152547Y0290195D01*
X0153393Y0290844D01*
X0154042Y0291690D01*
X0154450Y0292675D01*
X0154589Y0293732D01*
X0154450Y0294790D01*
X0154042Y0295775D01*
X0153393Y0296621D01*
X0152547Y0297270D01*
X0151561Y0297678D01*
X0150504Y0297817D01*
D02*
G37*
G36*
X0307511Y0295485D02*
X0306453Y0295346D01*
X0305468Y0294938D01*
X0304622Y0294288D01*
X0303973Y0293443D01*
X0303565Y0292457D01*
X0303426Y0291400D01*
X0303565Y0290343D01*
X0303973Y0289357D01*
X0304622Y0288511D01*
X0305468Y0287862D01*
X0306453Y0287454D01*
X0307511Y0287315D01*
X0308568Y0287454D01*
X0309553Y0287862D01*
X0310399Y0288511D01*
X0311049Y0289357D01*
X0311457Y0290343D01*
X0311596Y0291400D01*
X0311457Y0292457D01*
X0311049Y0293443D01*
X0310399Y0294288D01*
X0309553Y0294938D01*
X0308568Y0295346D01*
X0307511Y0295485D01*
D02*
G37*
G36*
X0136747Y0295246D02*
X0135689Y0295107D01*
X0134704Y0294699D01*
X0133858Y0294050D01*
X0133209Y0293203D01*
X0132801Y0292218D01*
X0132662Y0291161D01*
X0132801Y0290104D01*
X0133209Y0289119D01*
X0133858Y0288273D01*
X0134704Y0287623D01*
X0135689Y0287215D01*
X0136747Y0287076D01*
X0137804Y0287215D01*
X0138245Y0287398D01*
X0138312Y0287312D01*
X0139157Y0286663D01*
X0140143Y0286254D01*
X0141200Y0286115D01*
X0142257Y0286254D01*
X0143243Y0286663D01*
X0144088Y0287312D01*
X0144738Y0288158D01*
X0145146Y0289143D01*
X0145285Y0290200D01*
X0145146Y0291257D01*
X0144738Y0292243D01*
X0144088Y0293089D01*
X0143243Y0293738D01*
X0142257Y0294146D01*
X0141200Y0294285D01*
X0140143Y0294146D01*
X0139701Y0293963D01*
X0139635Y0294050D01*
X0138789Y0294699D01*
X0137804Y0295107D01*
X0136747Y0295246D01*
D02*
G37*
G36*
X0233712Y0292309D02*
X0232655Y0292170D01*
X0231670Y0291762D01*
X0230824Y0291113D01*
X0230175Y0290266D01*
X0229767Y0289281D01*
X0229627Y0288224D01*
X0229767Y0287167D01*
X0230175Y0286182D01*
X0230824Y0285336D01*
X0231670Y0284686D01*
X0232655Y0284278D01*
X0233712Y0284139D01*
X0234770Y0284278D01*
X0235755Y0284686D01*
X0236601Y0285336D01*
X0237250Y0286182D01*
X0237658Y0287167D01*
X0237797Y0288224D01*
X0237658Y0289281D01*
X0237250Y0290266D01*
X0236601Y0291113D01*
X0235755Y0291762D01*
X0234770Y0292170D01*
X0233712Y0292309D01*
D02*
G37*
G36*
X0134770Y0285094D02*
X0133713Y0284955D01*
X0132728Y0284547D01*
X0131882Y0283898D01*
X0131233Y0283052D01*
X0131086Y0282698D01*
X0130605Y0282898D01*
X0129548Y0283037D01*
X0128490Y0282898D01*
X0127505Y0282490D01*
X0126659Y0281840D01*
X0126010Y0280994D01*
X0125602Y0280009D01*
X0125463Y0278952D01*
X0125602Y0277895D01*
X0126010Y0276909D01*
X0126659Y0276063D01*
X0127505Y0275414D01*
X0128490Y0275006D01*
X0129548Y0274867D01*
X0130605Y0275006D01*
X0131590Y0275414D01*
X0132436Y0276063D01*
X0133085Y0276909D01*
X0133232Y0277263D01*
X0133713Y0277063D01*
X0134770Y0276924D01*
X0135828Y0277063D01*
X0136813Y0277471D01*
X0137659Y0278121D01*
X0138308Y0278967D01*
X0138716Y0279952D01*
X0138855Y0281009D01*
X0138716Y0282066D01*
X0138308Y0283052D01*
X0137659Y0283898D01*
X0136813Y0284547D01*
X0135828Y0284955D01*
X0134770Y0285094D01*
D02*
G37*
G36*
X0226429Y0281513D02*
X0225372Y0281374D01*
X0224386Y0280966D01*
X0223540Y0280316D01*
X0222916Y0279503D01*
X0222817Y0279399D01*
X0221994Y0279361D01*
X0221242Y0279938D01*
X0220257Y0280346D01*
X0219200Y0280485D01*
X0218143Y0280346D01*
X0217158Y0279938D01*
X0216312Y0279289D01*
X0215662Y0278443D01*
X0215254Y0277457D01*
X0215115Y0276400D01*
X0215254Y0275343D01*
X0215376Y0275050D01*
X0215193Y0274688D01*
X0214841Y0274285D01*
X0213943Y0274166D01*
X0212958Y0273758D01*
X0212111Y0273109D01*
X0211462Y0272263D01*
X0211054Y0271278D01*
X0210915Y0270221D01*
X0211054Y0269163D01*
X0211462Y0268178D01*
X0212111Y0267332D01*
X0212958Y0266683D01*
X0213943Y0266275D01*
X0215000Y0266136D01*
X0216057Y0266275D01*
X0217042Y0266683D01*
X0217888Y0267332D01*
X0218538Y0268178D01*
X0218946Y0269163D01*
X0219085Y0270221D01*
X0218946Y0271278D01*
X0218824Y0271571D01*
X0219007Y0271933D01*
X0219359Y0272336D01*
X0220257Y0272454D01*
X0221242Y0272862D01*
X0222089Y0273512D01*
X0222713Y0274325D01*
X0222812Y0274429D01*
X0223635Y0274467D01*
X0224386Y0273890D01*
X0225372Y0273482D01*
X0226429Y0273343D01*
X0227486Y0273482D01*
X0228471Y0273890D01*
X0229317Y0274539D01*
X0229967Y0275386D01*
X0230375Y0276371D01*
X0230514Y0277428D01*
X0230375Y0278485D01*
X0229967Y0279470D01*
X0229317Y0280316D01*
X0228471Y0280966D01*
X0227486Y0281374D01*
X0226429Y0281513D01*
D02*
G37*
G36*
X0333576Y0291152D02*
X0332519Y0291013D01*
X0331534Y0290605D01*
X0330688Y0289955D01*
X0330039Y0289109D01*
X0329631Y0288124D01*
X0329492Y0287067D01*
X0329631Y0286010D01*
X0330021Y0285067D01*
X0329631Y0284124D01*
X0329492Y0283067D01*
X0329631Y0282010D01*
X0330039Y0281024D01*
X0330688Y0280178D01*
X0331534Y0279529D01*
X0332519Y0279121D01*
X0333576Y0278982D01*
X0334634Y0279121D01*
X0335619Y0279529D01*
X0336465Y0280178D01*
X0337114Y0281024D01*
X0337522Y0282010D01*
X0337662Y0283067D01*
X0337522Y0284124D01*
X0337132Y0285067D01*
X0337522Y0286010D01*
X0337662Y0287067D01*
X0337522Y0288124D01*
X0337114Y0289109D01*
X0336465Y0289955D01*
X0335619Y0290605D01*
X0334634Y0291013D01*
X0333576Y0291152D01*
D02*
G37*
G36*
X0310736Y0266820D02*
X0309679Y0266681D01*
X0308694Y0266272D01*
X0307848Y0265623D01*
X0307199Y0264777D01*
X0306790Y0263792D01*
X0306651Y0262735D01*
X0306790Y0261678D01*
X0307199Y0260692D01*
X0307848Y0259846D01*
X0308694Y0259197D01*
X0309679Y0258789D01*
X0310736Y0258650D01*
X0311793Y0258789D01*
X0312779Y0259197D01*
X0313625Y0259846D01*
X0314274Y0260692D01*
X0314682Y0261678D01*
X0314821Y0262735D01*
X0314682Y0263792D01*
X0314274Y0264777D01*
X0313625Y0265623D01*
X0312779Y0266272D01*
X0311793Y0266681D01*
X0310736Y0266820D01*
D02*
G37*
G36*
X0294025Y0251316D02*
X0292968Y0251177D01*
X0291983Y0250769D01*
X0291137Y0250120D01*
X0290488Y0249274D01*
X0290079Y0248289D01*
X0289940Y0247232D01*
X0290079Y0246174D01*
X0290488Y0245189D01*
X0291137Y0244343D01*
X0291983Y0243694D01*
X0292968Y0243286D01*
X0294025Y0243147D01*
X0295082Y0243286D01*
X0296068Y0243694D01*
X0296914Y0244343D01*
X0297563Y0245189D01*
X0297971Y0246174D01*
X0298110Y0247232D01*
X0297971Y0248289D01*
X0297563Y0249274D01*
X0296914Y0250120D01*
X0296068Y0250769D01*
X0295082Y0251177D01*
X0294025Y0251316D01*
D02*
G37*
G36*
X0315560Y0245032D02*
X0314503Y0244893D01*
X0313517Y0244485D01*
X0312671Y0243836D01*
X0312022Y0242990D01*
X0311614Y0242005D01*
X0311475Y0240947D01*
X0311614Y0239890D01*
X0312022Y0238905D01*
X0312671Y0238059D01*
X0313517Y0237410D01*
X0314503Y0237002D01*
X0315560Y0236862D01*
X0316617Y0237002D01*
X0317602Y0237410D01*
X0318448Y0238059D01*
X0319098Y0238905D01*
X0319506Y0239890D01*
X0319645Y0240947D01*
X0319506Y0242005D01*
X0319098Y0242990D01*
X0318448Y0243836D01*
X0317602Y0244485D01*
X0316617Y0244893D01*
X0315560Y0245032D01*
D02*
G37*
%LPD*%
G36*
X0140265Y0367811D02*
X0140493Y0367717D01*
X0140688Y0367567D01*
X0140838Y0367372D01*
X0140932Y0367144D01*
X0140964Y0366900D01*
X0140939Y0366709D01*
X0140949Y0366556D01*
X0140918Y0366407D01*
X0140981Y0366064D01*
X0141004Y0365716D01*
X0141072Y0365579D01*
X0141100Y0365429D01*
X0141145Y0365316D01*
X0141153Y0365303D01*
X0141156Y0365287D01*
X0141382Y0364950D01*
X0141444Y0364824D01*
X0141493Y0364781D01*
X0141687Y0364483D01*
X0141700Y0364474D01*
X0141709Y0364460D01*
X0142227Y0363942D01*
X0142240Y0363933D01*
X0142249Y0363920D01*
X0142548Y0363726D01*
X0142591Y0363677D01*
X0142717Y0363615D01*
X0143054Y0363390D01*
X0143070Y0363387D01*
X0143083Y0363378D01*
X0143196Y0363333D01*
X0143346Y0363305D01*
X0143483Y0363237D01*
X0143831Y0363215D01*
X0144174Y0363151D01*
X0144323Y0363182D01*
X0144475Y0363172D01*
X0144667Y0363197D01*
X0144911Y0363165D01*
X0145138Y0363071D01*
X0145334Y0362921D01*
X0145484Y0362726D01*
X0145578Y0362498D01*
X0145610Y0362254D01*
X0145578Y0362010D01*
X0145484Y0361783D01*
X0145129Y0361321D01*
X0144982Y0361022D01*
X0144797Y0360745D01*
X0144764Y0360580D01*
X0144690Y0360429D01*
X0144668Y0360096D01*
X0144603Y0359769D01*
Y0359267D01*
X0144668Y0358940D01*
X0144690Y0358607D01*
X0144764Y0358456D01*
X0144797Y0358291D01*
X0144982Y0358014D01*
X0145129Y0357715D01*
X0145484Y0357253D01*
X0145578Y0357026D01*
X0145610Y0356782D01*
X0145578Y0356538D01*
X0145484Y0356310D01*
X0145334Y0356115D01*
X0145138Y0355965D01*
X0144911Y0355871D01*
X0144667Y0355838D01*
X0144475Y0355864D01*
X0144323Y0355854D01*
X0144174Y0355885D01*
X0143831Y0355821D01*
X0143483Y0355799D01*
X0143346Y0355731D01*
X0143196Y0355703D01*
X0143083Y0355658D01*
X0143070Y0355649D01*
X0143054Y0355646D01*
X0142717Y0355421D01*
X0142591Y0355359D01*
X0142548Y0355310D01*
X0142249Y0355116D01*
X0142240Y0355102D01*
X0142227Y0355094D01*
X0141709Y0354576D01*
X0141700Y0354562D01*
X0141687Y0354553D01*
X0141493Y0354255D01*
X0141444Y0354212D01*
X0141382Y0354086D01*
X0141156Y0353749D01*
X0141153Y0353733D01*
X0141145Y0353720D01*
X0141100Y0353607D01*
X0141072Y0353457D01*
X0141004Y0353320D01*
X0140981Y0352972D01*
X0140917Y0352629D01*
X0140949Y0352480D01*
X0140939Y0352327D01*
X0140964Y0352136D01*
X0140932Y0351892D01*
X0140838Y0351664D01*
X0140688Y0351469D01*
X0140493Y0351319D01*
X0140265Y0351225D01*
X0140021Y0351193D01*
X0139777Y0351225D01*
X0139549Y0351319D01*
X0139396Y0351437D01*
X0138974Y0351645D01*
X0138558Y0351862D01*
X0137998Y0352025D01*
X0137775Y0352044D01*
X0137562Y0352112D01*
X0137285Y0352087D01*
X0137008Y0352112D01*
X0136794Y0352044D01*
X0136571Y0352025D01*
X0136012Y0351862D01*
X0135595Y0351645D01*
X0135174Y0351437D01*
X0135020Y0351319D01*
X0134793Y0351225D01*
X0134548Y0351193D01*
X0134304Y0351225D01*
X0134077Y0351319D01*
X0133881Y0351469D01*
X0133731Y0351664D01*
X0133637Y0351892D01*
X0133605Y0352136D01*
X0133630Y0352327D01*
X0133620Y0352480D01*
X0133652Y0352629D01*
X0133588Y0352972D01*
X0133565Y0353320D01*
X0133498Y0353457D01*
X0133470Y0353607D01*
X0133425Y0353720D01*
X0133416Y0353733D01*
X0133413Y0353749D01*
X0133187Y0354086D01*
X0133125Y0354212D01*
X0133077Y0354255D01*
X0132882Y0354553D01*
X0132869Y0354562D01*
X0132860Y0354576D01*
X0132342Y0355094D01*
X0132329Y0355102D01*
X0132320Y0355116D01*
X0132021Y0355310D01*
X0131978Y0355359D01*
X0131853Y0355421D01*
X0131515Y0355646D01*
X0131500Y0355649D01*
X0131486Y0355658D01*
X0131373Y0355703D01*
X0131223Y0355731D01*
X0131087Y0355799D01*
X0130738Y0355821D01*
X0130395Y0355885D01*
X0130246Y0355854D01*
X0130094Y0355864D01*
X0129903Y0355838D01*
X0129659Y0355871D01*
X0129431Y0355965D01*
X0129236Y0356115D01*
X0129086Y0356310D01*
X0128992Y0356538D01*
X0128959Y0356782D01*
X0128992Y0357026D01*
X0129086Y0357253D01*
X0129440Y0357715D01*
X0129587Y0358014D01*
X0129773Y0358291D01*
X0129806Y0358456D01*
X0129880Y0358607D01*
X0129902Y0358940D01*
X0129967Y0359267D01*
Y0359769D01*
X0129902Y0360096D01*
X0129880Y0360429D01*
X0129806Y0360580D01*
X0129773Y0360745D01*
X0129587Y0361022D01*
X0129440Y0361321D01*
X0129086Y0361783D01*
X0128992Y0362010D01*
X0128959Y0362254D01*
X0128992Y0362498D01*
X0129086Y0362726D01*
X0129236Y0362921D01*
X0129431Y0363071D01*
X0129659Y0363165D01*
X0129903Y0363197D01*
X0130094Y0363172D01*
X0130246Y0363182D01*
X0130395Y0363151D01*
X0130738Y0363215D01*
X0131087Y0363237D01*
X0131223Y0363305D01*
X0131373Y0363333D01*
X0131486Y0363378D01*
X0131500Y0363387D01*
X0131515Y0363390D01*
X0131853Y0363615D01*
X0131978Y0363677D01*
X0132021Y0363726D01*
X0132320Y0363920D01*
X0132329Y0363933D01*
X0132342Y0363942D01*
X0132860Y0364460D01*
X0132869Y0364474D01*
X0132882Y0364483D01*
X0133077Y0364781D01*
X0133125Y0364824D01*
X0133187Y0364950D01*
X0133413Y0365287D01*
X0133416Y0365303D01*
X0133425Y0365316D01*
X0133470Y0365429D01*
X0133498Y0365579D01*
X0133565Y0365716D01*
X0133588Y0366064D01*
X0133652Y0366407D01*
X0133620Y0366556D01*
X0133630Y0366709D01*
X0133605Y0366900D01*
X0133637Y0367144D01*
X0133731Y0367372D01*
X0133881Y0367567D01*
X0134077Y0367717D01*
X0134304Y0367811D01*
X0134548Y0367843D01*
X0134793Y0367811D01*
X0135020Y0367717D01*
X0135174Y0367599D01*
X0135595Y0367391D01*
X0136012Y0367174D01*
X0136571Y0367011D01*
X0136794Y0366992D01*
X0137008Y0366924D01*
X0137285Y0366949D01*
X0137562Y0366924D01*
X0137775Y0366992D01*
X0137998Y0367011D01*
X0138558Y0367174D01*
X0138974Y0367391D01*
X0139396Y0367599D01*
X0139549Y0367717D01*
X0139777Y0367811D01*
X0140021Y0367843D01*
X0140265Y0367811D01*
D02*
G37*
G36*
X0123736Y0298760D02*
Y0292355D01*
X0123762Y0292226D01*
X0123767Y0292153D01*
X0123762Y0292080D01*
X0123736Y0291952D01*
Y0285437D01*
X0123700Y0285400D01*
X0117136D01*
X0116990Y0285371D01*
X0116844Y0285400D01*
X0110260D01*
Y0286063D01*
X0110249Y0286078D01*
X0110260Y0286135D01*
Y0291831D01*
X0110227Y0291996D01*
X0110238Y0292164D01*
X0110207Y0292400D01*
X0110162Y0292533D01*
X0110156Y0292674D01*
X0110003Y0293001D01*
X0109888Y0293342D01*
X0109795Y0293448D01*
X0109735Y0293575D01*
X0109469Y0293819D01*
X0109232Y0294090D01*
X0109106Y0294152D01*
X0109002Y0294247D01*
X0108771Y0294387D01*
X0108410Y0294518D01*
X0108063Y0294682D01*
X0108031Y0294689D01*
X0107997Y0295509D01*
X0108530Y0295690D01*
X0108604Y0295732D01*
X0108687Y0295749D01*
X0109032Y0295980D01*
X0109392Y0296187D01*
X0109443Y0296254D01*
X0109514Y0296301D01*
X0109744Y0296647D01*
X0109997Y0296976D01*
X0110019Y0297058D01*
X0110066Y0297128D01*
X0110147Y0297536D01*
X0110255Y0297937D01*
X0110244Y0298021D01*
X0110260Y0298104D01*
Y0298760D01*
Y0299011D01*
X0123736D01*
Y0298760D01*
D02*
G37*
%LPC*%
G36*
X0165000Y0202349D02*
X0163943Y0202210D01*
X0162958Y0201802D01*
X0162111Y0201153D01*
X0161462Y0200307D01*
X0161347Y0200029D01*
X0160412Y0199365D01*
X0160055Y0199389D01*
X0159327Y0199485D01*
X0158270Y0199346D01*
X0157285Y0198938D01*
X0156439Y0198289D01*
X0155789Y0197442D01*
X0155381Y0196457D01*
X0155242Y0195400D01*
X0155293Y0195012D01*
X0155143Y0194993D01*
X0154157Y0194585D01*
X0153312Y0193935D01*
X0152662Y0193089D01*
X0152362Y0192365D01*
X0151453Y0192485D01*
X0150396Y0192346D01*
X0149411Y0191938D01*
X0148565Y0191288D01*
X0147915Y0190443D01*
X0147507Y0189457D01*
X0147368Y0188400D01*
X0147507Y0187343D01*
X0147915Y0186357D01*
X0148565Y0185512D01*
X0149411Y0184862D01*
X0150396Y0184454D01*
X0151453Y0184315D01*
X0152510Y0184454D01*
X0153496Y0184862D01*
X0154342Y0185512D01*
X0154991Y0186357D01*
X0155291Y0187082D01*
X0156200Y0186962D01*
X0157257Y0187101D01*
X0158242Y0187509D01*
X0159089Y0188158D01*
X0159738Y0189004D01*
X0159910Y0189419D01*
X0160097Y0189539D01*
X0161070Y0189718D01*
X0161602Y0189310D01*
X0162587Y0188902D01*
X0163645Y0188762D01*
X0164702Y0188902D01*
X0165687Y0189310D01*
X0166533Y0189959D01*
X0167182Y0190805D01*
X0167590Y0191790D01*
X0167729Y0192848D01*
X0167590Y0193905D01*
X0167200Y0194847D01*
X0167888Y0195376D01*
X0168538Y0196222D01*
X0168946Y0197207D01*
X0169085Y0198264D01*
X0168946Y0199321D01*
X0168538Y0200307D01*
X0167888Y0201153D01*
X0167043Y0201802D01*
X0166057Y0202210D01*
X0165000Y0202349D01*
D02*
G37*
G36*
X0147326Y0206624D02*
X0146268Y0206484D01*
X0145283Y0206076D01*
X0144437Y0205427D01*
X0143788Y0204581D01*
X0143380Y0203596D01*
X0143240Y0202539D01*
X0143380Y0201481D01*
X0143788Y0200496D01*
X0144437Y0199650D01*
X0145283Y0199001D01*
X0146268Y0198593D01*
X0147326Y0198454D01*
X0148383Y0198593D01*
X0149368Y0199001D01*
X0150214Y0199650D01*
X0150863Y0200496D01*
X0151271Y0201481D01*
X0151410Y0202539D01*
X0151271Y0203596D01*
X0150863Y0204581D01*
X0150214Y0205427D01*
X0149368Y0206076D01*
X0148383Y0206484D01*
X0147326Y0206624D01*
D02*
G37*
%LPD*%
G54D16*
X0559400Y0039400D02*
Y0059683D01*
X0440500Y0040050D02*
X0700200D01*
Y0101050D01*
X0286500Y0040050D02*
Y0101050D01*
X0040000Y0040050D02*
Y0101050D01*
X0040050Y0040050D02*
X0197600D01*
X0040050D02*
Y0101050D01*
X0700200D01*
X0040000Y0040050D02*
X0440500D01*
X0040000Y0060383D02*
X0700000D01*
X0040000Y0080717D02*
X0700200D01*
X0413200D02*
Y0101050D01*
X0497200Y0080717D02*
Y0101050D01*
G54D22*
X0348550Y0067500D02*
Y0073498D01*
X0352549Y0067500D01*
Y0073498D01*
X0354548Y0067500D02*
X0358547Y0071499D01*
X0360546Y0067500D02*
Y0071499D01*
X0362545Y0073498D01*
X0364545Y0071499D01*
Y0067500D01*
Y0070499D01*
X0360546D01*
X0294000Y0073498D02*
X0297999D01*
X0295999D01*
Y0067500D01*
X0299998Y0073498D02*
X0301997D01*
X0300998D01*
Y0067500D01*
X0299998D01*
X0301997D01*
X0304996Y0073498D02*
Y0067500D01*
X0307996D01*
X0308995Y0068500D01*
Y0072498D01*
X0307996Y0073498D01*
X0304996D01*
X0317992Y0067500D02*
Y0073498D01*
X0319992D02*
Y0067500D01*
X0316993Y0071499D02*
X0319992D01*
X0320991D01*
X0316993Y0069499D02*
X0320991D01*
X0322991Y0071499D02*
X0323990D01*
Y0070499D01*
X0322991D01*
Y0071499D01*
Y0068500D02*
X0323990D01*
Y0067500D01*
X0322991D01*
Y0068500D01*
X0580500Y0052965D02*
X0584499D01*
X0582499D01*
Y0046966D01*
X0590497Y0052965D02*
X0586498D01*
Y0046966D01*
X0590497D01*
X0586498Y0049966D02*
X0588497D01*
X0592496Y0052965D02*
X0596495Y0046966D01*
Y0052965D02*
X0592496Y0046966D01*
X0598494D02*
Y0050965D01*
X0600493Y0052965D01*
X0602493Y0050965D01*
Y0046966D01*
Y0049966D01*
X0598494D01*
X0608491Y0051965D02*
X0607491Y0052965D01*
X0605492D01*
X0604492Y0051965D01*
Y0050965D01*
X0605492Y0049966D01*
X0607491D01*
X0608491Y0048966D01*
Y0047966D01*
X0607491Y0046966D01*
X0605492D01*
X0604492Y0047966D01*
X0616488Y0052965D02*
X0618488D01*
X0617488D01*
Y0046966D01*
X0616488D01*
X0618488D01*
X0621487D02*
Y0052965D01*
X0625486Y0046966D01*
Y0052965D01*
X0631484Y0051965D02*
X0630484Y0052965D01*
X0628484D01*
X0627485Y0051965D01*
Y0050965D01*
X0628484Y0049966D01*
X0630484D01*
X0631484Y0048966D01*
Y0047966D01*
X0630484Y0046966D01*
X0628484D01*
X0627485Y0047966D01*
X0633483Y0052965D02*
X0637482D01*
X0635482D01*
Y0046966D01*
X0639481D02*
Y0052965D01*
X0642480D01*
X0643480Y0051965D01*
Y0049966D01*
X0642480Y0048966D01*
X0639481D01*
X0641480D02*
X0643480Y0046966D01*
X0645479Y0052965D02*
Y0047966D01*
X0646479Y0046966D01*
X0648478D01*
X0649478Y0047966D01*
Y0052965D01*
X0651477Y0046966D02*
Y0052965D01*
X0653476Y0050965D01*
X0655476Y0052965D01*
Y0046966D01*
X0661474Y0052965D02*
X0657475D01*
Y0046966D01*
X0661474D01*
X0657475Y0049966D02*
X0659474D01*
X0663473Y0046966D02*
Y0052965D01*
X0667472Y0046966D01*
Y0052965D01*
X0669471D02*
X0673470D01*
X0671471D01*
Y0046966D01*
X0679468Y0051965D02*
X0678468Y0052965D01*
X0676469D01*
X0675469Y0051965D01*
Y0050965D01*
X0676469Y0049966D01*
X0678468D01*
X0679468Y0048966D01*
Y0047966D01*
X0678468Y0046966D01*
X0676469D01*
X0675469Y0047966D01*
X0454050Y0052965D02*
X0458049D01*
Y0051965D01*
X0454050Y0047966D01*
Y0046966D01*
X0460048Y0050965D02*
X0461048D01*
Y0049966D01*
X0460048D01*
Y0050965D01*
Y0047966D02*
X0461048D01*
Y0046966D01*
X0460048D01*
Y0047966D01*
X0469045Y0052965D02*
X0465046D01*
Y0049966D01*
X0467046Y0050965D01*
X0468046D01*
X0469045Y0049966D01*
Y0047966D01*
X0468046Y0046966D01*
X0466046D01*
X0465046Y0047966D01*
X0471044Y0051965D02*
X0472044Y0052965D01*
X0474044D01*
X0475043Y0051965D01*
Y0047966D01*
X0474044Y0046966D01*
X0472044D01*
X0471044Y0047966D01*
Y0051965D01*
X0477043Y0050965D02*
X0478042D01*
Y0049966D01*
X0477043D01*
Y0050965D01*
Y0047966D02*
X0478042D01*
Y0046966D01*
X0477043D01*
Y0047966D01*
X0486040Y0046966D02*
X0482041D01*
X0486040Y0050965D01*
Y0051965D01*
X0485040Y0052965D01*
X0483041D01*
X0482041Y0051965D01*
X0492038Y0052965D02*
X0490038Y0051965D01*
X0488039Y0049966D01*
Y0047966D01*
X0489039Y0046966D01*
X0491038D01*
X0492038Y0047966D01*
Y0048966D01*
X0491038Y0049966D01*
X0488039D01*
X0500035Y0046966D02*
Y0052965D01*
X0503034D01*
X0504034Y0051965D01*
Y0049966D01*
X0503034Y0048966D01*
X0500035D01*
X0506033Y0046966D02*
Y0052965D01*
X0508033Y0050965D01*
X0510032Y0052965D01*
Y0046966D01*
X0046350D02*
Y0052965D01*
X0049349D01*
X0050349Y0051965D01*
Y0049966D01*
X0049349Y0048966D01*
X0046350D01*
X0052348Y0052965D02*
Y0046966D01*
X0056347D01*
X0061345Y0052965D02*
X0059346D01*
X0058346Y0051965D01*
Y0047966D01*
X0059346Y0046966D01*
X0061345D01*
X0062345Y0047966D01*
Y0051965D01*
X0061345Y0052965D01*
X0064344D02*
X0068343D01*
X0066343D01*
Y0046966D01*
X0076340D02*
Y0052965D01*
X0080339Y0046966D01*
Y0052965D01*
X0082338Y0046966D02*
Y0050965D01*
X0084338Y0052965D01*
X0086337Y0050965D01*
Y0046966D01*
Y0049966D01*
X0082338D01*
X0088336Y0046966D02*
Y0052965D01*
X0090336Y0050965D01*
X0092335Y0052965D01*
Y0046966D01*
X0098333Y0052965D02*
X0094335D01*
Y0046966D01*
X0098333D01*
X0094335Y0049966D02*
X0096334D01*
X0106331Y0048966D02*
X0110329D01*
X0106331Y0050965D02*
X0110329D01*
X0046350Y0073549D02*
Y0067551D01*
X0050349D01*
X0052348D02*
Y0071549D01*
X0054347Y0073549D01*
X0056347Y0071549D01*
Y0067551D01*
Y0070550D01*
X0052348D01*
X0058346Y0073549D02*
Y0072549D01*
X0060346Y0070550D01*
X0062345Y0072549D01*
Y0073549D01*
X0060346Y0070550D02*
Y0067551D01*
X0068343Y0073549D02*
X0064344D01*
Y0067551D01*
X0068343D01*
X0064344Y0070550D02*
X0066343D01*
X0070342Y0067551D02*
Y0073549D01*
X0073341D01*
X0074341Y0072549D01*
Y0070550D01*
X0073341Y0069550D01*
X0070342D01*
X0072342D02*
X0074341Y0067551D01*
X0082338D02*
Y0073549D01*
X0086337Y0067551D01*
Y0073549D01*
X0088336Y0067551D02*
Y0071549D01*
X0090336Y0073549D01*
X0092335Y0071549D01*
Y0067551D01*
Y0070550D01*
X0088336D01*
X0094335Y0067551D02*
Y0073549D01*
X0096334Y0071549D01*
X0098333Y0073549D01*
Y0067551D01*
X0104331Y0073549D02*
X0100332D01*
Y0067551D01*
X0104331D01*
X0100332Y0070550D02*
X0102332D01*
X0112329Y0069550D02*
X0116327D01*
X0112329Y0071549D02*
X0116327D01*
X0294000Y0093831D02*
Y0087833D01*
X0296999D01*
X0297999Y0088833D01*
Y0089833D01*
X0296999Y0090832D01*
X0294000D01*
X0296999D01*
X0297999Y0091832D01*
Y0092832D01*
X0296999Y0093831D01*
X0294000D01*
X0302997D02*
X0300998D01*
X0299998Y0092832D01*
Y0088833D01*
X0300998Y0087833D01*
X0302997D01*
X0303997Y0088833D01*
Y0092832D01*
X0302997Y0093831D01*
X0305996Y0087833D02*
Y0091832D01*
X0307996Y0093831D01*
X0309995Y0091832D01*
Y0087833D01*
Y0090832D01*
X0305996D01*
X0311994Y0087833D02*
Y0093831D01*
X0314993D01*
X0315993Y0092832D01*
Y0090832D01*
X0314993Y0089833D01*
X0311994D01*
X0313994D02*
X0315993Y0087833D01*
X0317992Y0093831D02*
Y0087833D01*
X0320991D01*
X0321991Y0088833D01*
Y0092832D01*
X0320991Y0093831D01*
X0317992D01*
X0330988Y0087833D02*
Y0093831D01*
X0332987D02*
Y0087833D01*
X0329988Y0091832D02*
X0332987D01*
X0333987D01*
X0329988Y0089833D02*
X0333987D01*
X0335986Y0091832D02*
X0336986D01*
Y0090832D01*
X0335986D01*
Y0091832D01*
Y0088833D02*
X0336986D01*
Y0087833D01*
X0335986D01*
Y0088833D01*
X0348550Y0087833D02*
Y0093831D01*
X0350549Y0091832D01*
X0352549Y0093831D01*
Y0087833D01*
X0354548Y0093831D02*
Y0087833D01*
X0357547D01*
X0358547Y0088833D01*
Y0092832D01*
X0357547Y0093831D01*
X0354548D01*
X0360546Y0092832D02*
X0361546Y0093831D01*
X0363545D01*
X0364545Y0092832D01*
Y0088833D01*
X0363545Y0087833D01*
X0361546D01*
X0360546Y0088833D01*
Y0092832D01*
X0366544Y0087833D02*
X0368544D01*
X0367544D01*
Y0093831D01*
X0366544Y0092832D01*
X0375541Y0093831D02*
X0371543D01*
Y0090832D01*
X0373542Y0091832D01*
X0374542D01*
X0375541Y0090832D01*
Y0088833D01*
X0374542Y0087833D01*
X0372542D01*
X0371543Y0088833D01*
X0462150Y0087833D02*
Y0091832D01*
X0464149Y0093831D01*
X0466149Y0091832D01*
Y0087833D01*
Y0090832D01*
X0462150D01*
X0046350Y0087833D02*
Y0091832D01*
X0048349Y0093831D01*
X0050349Y0091832D01*
Y0087833D01*
Y0090832D01*
X0046350D01*
X0052348Y0093831D02*
Y0087833D01*
X0056347D01*
X0058346Y0093831D02*
Y0087833D01*
X0062345D01*
X0070342D02*
Y0091832D01*
X0072342Y0093831D01*
X0074341Y0091832D01*
Y0087833D01*
Y0090832D01*
X0070342D01*
X0076340Y0087833D02*
Y0093831D01*
X0079339D01*
X0080339Y0092832D01*
Y0090832D01*
X0079339Y0089833D01*
X0076340D01*
X0078340D02*
X0080339Y0087833D01*
X0082338Y0093831D02*
X0086337D01*
X0084338D01*
Y0087833D01*
X0088336Y0093831D02*
Y0087833D01*
X0090336Y0089833D01*
X0092335Y0087833D01*
Y0093831D01*
X0097334D02*
X0095334D01*
X0094335Y0092832D01*
Y0088833D01*
X0095334Y0087833D01*
X0097334D01*
X0098333Y0088833D01*
Y0092832D01*
X0097334Y0093831D01*
X0100332Y0087833D02*
Y0093831D01*
X0103332D01*
X0104331Y0092832D01*
Y0090832D01*
X0103332Y0089833D01*
X0100332D01*
X0102332D02*
X0104331Y0087833D01*
X0106331Y0093831D02*
Y0087833D01*
Y0089833D01*
X0110329Y0093831D01*
X0107330Y0090832D01*
X0110329Y0087833D01*
X0118327Y0093831D02*
Y0089833D01*
X0120326Y0087833D01*
X0122325Y0089833D01*
Y0093831D01*
X0124325D02*
X0126324D01*
X0125324D01*
Y0087833D01*
X0124325D01*
X0126324D01*
X0133322Y0093831D02*
X0129323D01*
Y0087833D01*
X0133322D01*
X0129323Y0090832D02*
X0131323D01*
X0135321Y0093831D02*
Y0087833D01*
X0137321Y0089833D01*
X0139320Y0087833D01*
Y0093831D01*
X0145318D02*
X0141319D01*
Y0087833D01*
X0145318D01*
X0141319Y0090832D02*
X0143319D01*
X0147317Y0093831D02*
Y0087833D01*
X0150316D01*
X0151316Y0088833D01*
Y0092832D01*
X0150316Y0093831D01*
X0147317D01*
X0163312D02*
X0159313D01*
Y0090832D01*
X0161313D01*
X0159313D01*
Y0087833D01*
X0165312D02*
Y0093831D01*
X0168310D01*
X0169310Y0092832D01*
Y0090832D01*
X0168310Y0089833D01*
X0165312D01*
X0167311D02*
X0169310Y0087833D01*
X0174309Y0093831D02*
X0172309D01*
X0171310Y0092832D01*
Y0088833D01*
X0172309Y0087833D01*
X0174309D01*
X0175308Y0088833D01*
Y0092832D01*
X0174309Y0093831D01*
X0177308Y0087833D02*
Y0093831D01*
X0179307Y0091832D01*
X0181306Y0093831D01*
Y0087833D01*
X0189304Y0093831D02*
X0193303D01*
X0191303D01*
Y0087833D01*
X0198301Y0093831D02*
X0196301D01*
X0195302Y0092832D01*
Y0088833D01*
X0196301Y0087833D01*
X0198301D01*
X0199301Y0088833D01*
Y0092832D01*
X0198301Y0093831D01*
X0201300Y0087833D02*
Y0093831D01*
X0204299D01*
X0205299Y0092832D01*
Y0090832D01*
X0204299Y0089833D01*
X0201300D01*
X0217295Y0092832D02*
X0216295Y0093831D01*
X0214296D01*
X0213296Y0092832D01*
Y0091832D01*
X0214296Y0090832D01*
X0216295D01*
X0217295Y0089833D01*
Y0088833D01*
X0216295Y0087833D01*
X0214296D01*
X0213296Y0088833D01*
X0219294Y0093831D02*
X0221293D01*
X0220294D01*
Y0087833D01*
X0219294D01*
X0221293D01*
X0224292Y0093831D02*
Y0087833D01*
X0227291D01*
X0228291Y0088833D01*
Y0092832D01*
X0227291Y0093831D01*
X0224292D01*
X0234289D02*
X0230291D01*
Y0087833D01*
X0234289D01*
X0230291Y0090832D02*
X0232290D01*
X0298199Y0051965D02*
X0297199Y0052965D01*
X0295200D01*
X0294200Y0051965D01*
Y0047966D01*
X0295200Y0046966D01*
X0297199D01*
X0298199Y0047966D01*
Y0049966D01*
X0296199D01*
X0304197Y0052965D02*
X0300198D01*
Y0046966D01*
X0304197D01*
X0300198Y0049966D02*
X0302197D01*
X0306196Y0046966D02*
Y0052965D01*
X0310195Y0046966D01*
Y0052965D01*
X0316193D02*
X0312194D01*
Y0046966D01*
X0316193D01*
X0312194Y0049966D02*
X0314194D01*
X0318192Y0046966D02*
Y0052965D01*
X0321191D01*
X0322191Y0051965D01*
Y0049966D01*
X0321191Y0048966D01*
X0318192D01*
X0320192D02*
X0322191Y0046966D01*
X0324190D02*
Y0050965D01*
X0326190Y0052965D01*
X0328189Y0050965D01*
Y0046966D01*
Y0049966D01*
X0324190D01*
X0330188Y0052965D02*
X0334187D01*
X0332188D01*
Y0046966D01*
X0340185Y0052965D02*
X0336186D01*
Y0046966D01*
X0340185D01*
X0336186Y0049966D02*
X0338186D01*
X0342184Y0052965D02*
Y0046966D01*
X0345183D01*
X0346183Y0047966D01*
Y0051965D01*
X0345183Y0052965D01*
X0342184D01*
X0372175Y0050965D02*
X0373175D01*
Y0049966D01*
X0372175D01*
Y0050965D01*
Y0047966D02*
X0373175D01*
Y0046966D01*
X0372175D01*
Y0047966D01*
X0381150Y0046966D02*
X0383149D01*
X0382150D01*
Y0052965D01*
X0381150Y0051965D01*
X0390147Y0046966D02*
X0386148D01*
X0390147Y0050965D01*
Y0051965D01*
X0389147Y0052965D01*
X0387148D01*
X0386148Y0051965D01*
X0392146Y0046966D02*
X0396145Y0050965D01*
X0402143Y0046966D02*
X0398145D01*
X0402143Y0050965D01*
Y0051965D01*
X0401144Y0052965D01*
X0399144D01*
X0398145Y0051965D01*
X0404143Y0046966D02*
X0408141Y0050965D01*
X0414139Y0046966D02*
X0410141D01*
X0414139Y0050965D01*
Y0051965D01*
X0413140Y0052965D01*
X0411140D01*
X0410141Y0051965D01*
X0416139D02*
X0417138Y0052965D01*
X0419138D01*
X0420137Y0051965D01*
Y0047966D01*
X0419138Y0046966D01*
X0417138D01*
X0416139Y0047966D01*
Y0051965D01*
X0422137Y0046966D02*
X0424136D01*
X0423136D01*
Y0052965D01*
X0422137Y0051965D01*
X0427135D02*
X0428135Y0052965D01*
X0430134D01*
X0431134Y0051965D01*
Y0050965D01*
X0430134Y0049966D01*
X0431134Y0048966D01*
Y0047966D01*
X0430134Y0046966D01*
X0428135D01*
X0427135Y0047966D01*
Y0048966D01*
X0428135Y0049966D01*
X0427135Y0050965D01*
Y0051965D01*
X0428135Y0049966D02*
X0430134D01*
X0126900Y0046966D02*
Y0052965D01*
X0128899Y0050965D01*
X0130899Y0052965D01*
Y0046966D01*
X0132898Y0052965D02*
Y0046966D01*
X0135897D01*
X0136897Y0047966D01*
Y0051965D01*
X0135897Y0052965D01*
X0132898D01*
X0138896Y0051965D02*
X0139896Y0052965D01*
X0141895D01*
X0142895Y0051965D01*
Y0047966D01*
X0141895Y0046966D01*
X0139896D01*
X0138896Y0047966D01*
Y0051965D01*
X0144894Y0046966D02*
X0146894D01*
X0145894D01*
Y0052965D01*
X0144894Y0051965D01*
X0153891Y0052965D02*
X0149893D01*
Y0049966D01*
X0151892Y0050965D01*
X0152892D01*
X0153891Y0049966D01*
Y0047966D01*
X0152892Y0046966D01*
X0150892D01*
X0149893Y0047966D01*
X0155891Y0046966D02*
Y0050965D01*
X0157890Y0052965D01*
X0159889Y0050965D01*
Y0046966D01*
Y0049966D01*
X0155891D01*
X0161889Y0046966D02*
Y0047966D01*
X0162888D01*
Y0046966D01*
X0161889D01*
X0170886Y0051965D02*
X0169886Y0052965D01*
X0167887D01*
X0166887Y0051965D01*
Y0047966D01*
X0167887Y0046966D01*
X0169886D01*
X0170886Y0047966D01*
Y0049966D01*
X0168886D01*
X0176884Y0046966D02*
X0172885D01*
X0176884Y0050965D01*
Y0051965D01*
X0175884Y0052965D01*
X0173885D01*
X0172885Y0051965D01*
X0433000Y0087833D02*
Y0093831D01*
X0435999D01*
X0436999Y0092832D01*
Y0090832D01*
X0435999Y0089833D01*
X0433000D01*
X0434999D02*
X0436999Y0087833D01*
X0442997Y0093831D02*
X0438998D01*
Y0087833D01*
X0442997D01*
X0438998Y0090832D02*
X0440997D01*
X0444996Y0093831D02*
Y0089833D01*
X0446995Y0087833D01*
X0448995Y0089833D01*
Y0093831D01*
X0450994Y0091832D02*
X0451994D01*
Y0090832D01*
X0450994D01*
Y0091832D01*
Y0088833D02*
X0451994D01*
Y0087833D01*
X0450994D01*
Y0088833D01*
X0520799Y0092832D02*
X0519799Y0093831D01*
X0517800D01*
X0516800Y0092832D01*
Y0091832D01*
X0517800Y0090832D01*
X0519799D01*
X0520799Y0089833D01*
Y0088833D01*
X0519799Y0087833D01*
X0517800D01*
X0516800Y0088833D01*
X0522798Y0093831D02*
Y0089833D01*
X0524797Y0087833D01*
X0526797Y0089833D01*
Y0093831D01*
X0528796Y0087833D02*
Y0093831D01*
X0532795Y0087833D01*
Y0093831D01*
X0540792Y0087833D02*
Y0093831D01*
X0543791D01*
X0544791Y0092832D01*
Y0090832D01*
X0543791Y0089833D01*
X0540792D01*
X0542792D02*
X0544791Y0087833D01*
X0550789Y0093831D02*
X0546790D01*
Y0087833D01*
X0550789D01*
X0546790Y0090832D02*
X0548790D01*
X0552788Y0093831D02*
Y0089833D01*
X0554788Y0087833D01*
X0556787Y0089833D01*
Y0093831D01*
X0558786Y0091832D02*
X0559786D01*
Y0090832D01*
X0558786D01*
Y0091832D01*
Y0088833D02*
X0559786D01*
Y0087833D01*
X0558786D01*
Y0088833D01*
X0567400Y0087833D02*
Y0093831D01*
X0571399Y0087833D01*
Y0093831D01*
X0574398Y0087833D02*
X0576397D01*
X0577397Y0088833D01*
Y0090832D01*
X0576397Y0091832D01*
X0574398D01*
X0573398Y0090832D01*
Y0088833D01*
X0574398Y0087833D01*
X0580396Y0092832D02*
Y0091832D01*
X0579396D01*
X0581395D01*
X0580396D01*
Y0088833D01*
X0581395Y0087833D01*
X0590393Y0093831D02*
X0592392D01*
X0591392D01*
Y0087833D01*
X0590393D01*
X0592392D01*
X0595391D02*
Y0091832D01*
X0598390D01*
X0599390Y0090832D01*
Y0087833D01*
X0607387Y0093831D02*
Y0089833D01*
X0609386Y0087833D01*
X0611386Y0089833D01*
Y0093831D01*
X0616384Y0087833D02*
X0614385D01*
X0613385Y0088833D01*
Y0090832D01*
X0614385Y0091832D01*
X0616384D01*
X0617384Y0090832D01*
Y0089833D01*
X0613385D01*
X0619383Y0091832D02*
Y0087833D01*
Y0089833D01*
X0620383Y0090832D01*
X0621383Y0091832D01*
X0622382D01*
X0625381Y0087833D02*
X0628380D01*
X0629380Y0088833D01*
X0628380Y0089833D01*
X0626381D01*
X0625381Y0090832D01*
X0626381Y0091832D01*
X0629380D01*
X0631379Y0087833D02*
X0633379D01*
X0632379D01*
Y0091832D01*
X0631379D01*
X0637377Y0087833D02*
X0639377D01*
X0640376Y0088833D01*
Y0090832D01*
X0639377Y0091832D01*
X0637377D01*
X0636378Y0090832D01*
Y0088833D01*
X0637377Y0087833D01*
X0642376D02*
Y0091832D01*
X0645375D01*
X0646374Y0090832D01*
Y0087833D01*
X0652373Y0092832D02*
X0651373Y0093831D01*
X0649373D01*
X0648374Y0092832D01*
Y0088833D01*
X0649373Y0087833D01*
X0651373D01*
X0652373Y0088833D01*
X0655372Y0087833D02*
X0657371D01*
X0658371Y0088833D01*
Y0090832D01*
X0657371Y0091832D01*
X0655372D01*
X0654372Y0090832D01*
Y0088833D01*
X0655372Y0087833D01*
X0660370D02*
Y0091832D01*
X0663369D01*
X0664369Y0090832D01*
Y0087833D01*
X0667368Y0092832D02*
Y0091832D01*
X0666368D01*
X0668367D01*
X0667368D01*
Y0088833D01*
X0668367Y0087833D01*
X0671366Y0091832D02*
Y0087833D01*
Y0089833D01*
X0672366Y0090832D01*
X0673366Y0091832D01*
X0674365D01*
X0678364Y0087833D02*
X0680364D01*
X0681363Y0088833D01*
Y0090832D01*
X0680364Y0091832D01*
X0678364D01*
X0677364Y0090832D01*
Y0088833D01*
X0678364Y0087833D01*
X0683362D02*
X0685362D01*
X0684362D01*
Y0093831D01*
X0683362D01*
G54D154*
X0392093Y0389190D02*
D03*
G54D158*
X0210200Y0666195D02*
D03*
X0172720D02*
D03*
X0307511D02*
D03*
X0106859Y0525081D02*
D03*
Y0485081D02*
D03*
X0394342Y0445250D02*
D03*
Y0405250D02*
D03*
G54D183*
X0311335Y0224336D02*
D03*
G54D184*
X0247680Y0666195D02*
D03*
X0344991D02*
D03*
G54D188*
X0382093Y0289955D02*
D03*
G54D190*
X0353200Y0628744D02*
D03*
X0318998Y0531936D02*
D03*
X0160000Y0633219D02*
D03*
X0205200Y0634189D02*
D03*
X0254634Y0634400D02*
D03*
G54D191*
X0393200Y0234400D02*
D03*
G54D192*
Y0254400D02*
D03*
G54D193*
X0295000Y0700000D02*
D03*
X0290000Y0690000D02*
D03*
X0295000Y0680000D02*
D03*
X0290000Y0670000D02*
D03*
X0295000Y0660000D02*
D03*
X0290000Y0650000D02*
D03*
X0295000Y0640000D02*
D03*
X0290000Y0630000D02*
D03*
X0295000Y0620000D02*
D03*
X0290000Y0610000D02*
D03*
X0285000Y0700000D02*
D03*
X0280000Y0690000D02*
D03*
X0285000Y0680000D02*
D03*
X0280000Y0670000D02*
D03*
X0285000Y0660000D02*
D03*
X0280000Y0650000D02*
D03*
X0285000Y0640000D02*
D03*
X0280000Y0630000D02*
D03*
X0285000Y0620000D02*
D03*
X0275000Y0700000D02*
D03*
X0270000Y0690000D02*
D03*
X0275000Y0680000D02*
D03*
X0270000Y0670000D02*
D03*
X0275000Y0660000D02*
D03*
X0270000Y0650000D02*
D03*
X0275000Y0640000D02*
D03*
X0270000Y0630000D02*
D03*
X0275000Y0620000D02*
D03*
X0270000Y0610000D02*
D03*
X0265000Y0700000D02*
D03*
X0260000Y0690000D02*
D03*
X0265000Y0680000D02*
D03*
X0260000Y0670000D02*
D03*
X0265000Y0660000D02*
D03*
X0260000Y0650000D02*
D03*
X0265000Y0640000D02*
D03*
X0260000Y0630000D02*
D03*
X0265000Y0620000D02*
D03*
X0255000Y0700000D02*
D03*
X0250000Y0690000D02*
D03*
X0255000Y0680000D02*
D03*
Y0660000D02*
D03*
X0250000Y0650000D02*
D03*
Y0630000D02*
D03*
X0230000Y0690000D02*
D03*
Y0670000D02*
D03*
Y0650000D02*
D03*
Y0630000D02*
D03*
X0220000Y0690000D02*
D03*
X0225000Y0680000D02*
D03*
X0220000Y0670000D02*
D03*
X0225000Y0660000D02*
D03*
X0220000Y0650000D02*
D03*
X0225000Y0640000D02*
D03*
X0220000Y0630000D02*
D03*
X0210000Y0690000D02*
D03*
X0215000Y0680000D02*
D03*
Y0660000D02*
D03*
X0210000Y0650000D02*
D03*
X0215000Y0640000D02*
D03*
X0210000Y0630000D02*
D03*
Y0610000D02*
D03*
X0200000Y0690000D02*
D03*
X0205000Y0680000D02*
D03*
X0200000Y0670000D02*
D03*
X0205000Y0660000D02*
D03*
X0200000Y0650000D02*
D03*
Y0630000D02*
D03*
X0205000Y0620000D02*
D03*
X0200000Y0610000D02*
D03*
X0190000Y0690000D02*
D03*
X0195000Y0680000D02*
D03*
X0190000Y0670000D02*
D03*
X0195000Y0660000D02*
D03*
X0190000Y0650000D02*
D03*
X0195000Y0640000D02*
D03*
X0190000Y0630000D02*
D03*
X0195000Y0620000D02*
D03*
X0190000Y0610000D02*
D03*
X0170000Y0690000D02*
D03*
X0175000Y0680000D02*
D03*
Y0660000D02*
D03*
X0170000Y0650000D02*
D03*
X0175000Y0640000D02*
D03*
X0170000Y0630000D02*
D03*
X0175000Y0620000D02*
D03*
X0170000Y0610000D02*
D03*
X0160000Y0690000D02*
D03*
X0165000Y0680000D02*
D03*
X0160000Y0670000D02*
D03*
X0165000Y0660000D02*
D03*
X0160000Y0650000D02*
D03*
X0165000Y0640000D02*
D03*
Y0620000D02*
D03*
X0160000Y0610000D02*
D03*
X0150000Y0690000D02*
D03*
X0155000Y0680000D02*
D03*
X0150000Y0670000D02*
D03*
X0155000Y0660000D02*
D03*
X0150000Y0650000D02*
D03*
X0155000Y0640000D02*
D03*
X0150000Y0630000D02*
D03*
X0155000Y0620000D02*
D03*
X0140000Y0690000D02*
D03*
X0145000Y0680000D02*
D03*
X0140000Y0670000D02*
D03*
X0145000Y0660000D02*
D03*
X0140000Y0650000D02*
D03*
X0145000Y0640000D02*
D03*
X0140000Y0630000D02*
D03*
X0145000Y0620000D02*
D03*
X0140000Y0610000D02*
D03*
X0130000Y0690000D02*
D03*
X0135000Y0680000D02*
D03*
X0130000Y0670000D02*
D03*
X0135000Y0660000D02*
D03*
X0130000Y0650000D02*
D03*
X0135000Y0640000D02*
D03*
X0130000Y0630000D02*
D03*
X0125000Y0680000D02*
D03*
Y0660000D02*
D03*
Y0640000D02*
D03*
X0120000Y0630000D02*
D03*
X0330000Y0650000D02*
D03*
Y0630000D02*
D03*
Y0610000D02*
D03*
X0325000Y0660000D02*
D03*
X0320000Y0650000D02*
D03*
X0325000Y0640000D02*
D03*
X0320000Y0630000D02*
D03*
X0325000Y0620000D02*
D03*
X0320000Y0610000D02*
D03*
X0315000Y0660000D02*
D03*
X0310000Y0650000D02*
D03*
X0315000Y0640000D02*
D03*
X0310000Y0630000D02*
D03*
X0345000Y0590000D02*
D03*
X0340000Y0560000D02*
D03*
X0345000Y0550000D02*
D03*
X0340000Y0540000D02*
D03*
X0345000Y0530000D02*
D03*
X0340000Y0520000D02*
D03*
X0345000Y0510000D02*
D03*
X0340000Y0480000D02*
D03*
X0335000Y0590000D02*
D03*
X0330000Y0560000D02*
D03*
X0335000Y0550000D02*
D03*
X0330000Y0540000D02*
D03*
X0335000Y0530000D02*
D03*
X0330000Y0520000D02*
D03*
X0335000Y0510000D02*
D03*
X0330000Y0480000D02*
D03*
X0325000Y0590000D02*
D03*
X0320000Y0580000D02*
D03*
Y0560000D02*
D03*
X0325000Y0550000D02*
D03*
X0320000Y0540000D02*
D03*
X0325000Y0530000D02*
D03*
X0320000Y0520000D02*
D03*
X0325000Y0510000D02*
D03*
X0320000Y0500000D02*
D03*
Y0480000D02*
D03*
X0315000Y0570000D02*
D03*
X0310000Y0560000D02*
D03*
X0315000Y0550000D02*
D03*
X0310000Y0540000D02*
D03*
Y0520000D02*
D03*
X0315000Y0510000D02*
D03*
X0310000Y0500000D02*
D03*
X0315000Y0490000D02*
D03*
X0300000Y0580000D02*
D03*
X0305000Y0570000D02*
D03*
X0300000Y0520000D02*
D03*
X0305000Y0510000D02*
D03*
X0300000Y0500000D02*
D03*
X0295000Y0510000D02*
D03*
X0290000Y0480000D02*
D03*
X0410000Y0640000D02*
D03*
Y0620000D02*
D03*
Y0600000D02*
D03*
Y0580000D02*
D03*
Y0560000D02*
D03*
Y0540000D02*
D03*
Y0520000D02*
D03*
Y0500000D02*
D03*
Y0480000D02*
D03*
Y0460000D02*
D03*
Y0440000D02*
D03*
Y0420000D02*
D03*
Y0400000D02*
D03*
Y0380000D02*
D03*
Y0360000D02*
D03*
Y0340000D02*
D03*
Y0320000D02*
D03*
Y0300000D02*
D03*
Y0280000D02*
D03*
Y0260000D02*
D03*
Y0240000D02*
D03*
Y0220000D02*
D03*
Y0200000D02*
D03*
X0405000Y0670000D02*
D03*
Y0650000D02*
D03*
X0400000Y0640000D02*
D03*
X0405000Y0630000D02*
D03*
X0400000Y0620000D02*
D03*
X0405000Y0610000D02*
D03*
X0400000Y0600000D02*
D03*
X0405000Y0590000D02*
D03*
X0400000Y0560000D02*
D03*
X0405000Y0550000D02*
D03*
X0400000Y0540000D02*
D03*
X0405000Y0530000D02*
D03*
X0400000Y0520000D02*
D03*
X0405000Y0510000D02*
D03*
X0400000Y0480000D02*
D03*
X0405000Y0470000D02*
D03*
X0400000Y0460000D02*
D03*
X0405000Y0450000D02*
D03*
X0400000Y0440000D02*
D03*
X0405000Y0430000D02*
D03*
X0400000Y0420000D02*
D03*
X0405000Y0270000D02*
D03*
Y0250000D02*
D03*
Y0230000D02*
D03*
X0400000Y0220000D02*
D03*
X0405000Y0210000D02*
D03*
X0400000Y0200000D02*
D03*
X0390000Y0660000D02*
D03*
X0395000Y0650000D02*
D03*
X0390000Y0640000D02*
D03*
X0395000Y0630000D02*
D03*
X0390000Y0620000D02*
D03*
X0395000Y0610000D02*
D03*
X0390000Y0600000D02*
D03*
X0395000Y0590000D02*
D03*
X0390000Y0560000D02*
D03*
X0395000Y0550000D02*
D03*
X0390000Y0540000D02*
D03*
X0395000Y0530000D02*
D03*
X0390000Y0520000D02*
D03*
X0395000Y0510000D02*
D03*
X0390000Y0480000D02*
D03*
X0395000Y0470000D02*
D03*
X0390000Y0460000D02*
D03*
Y0440000D02*
D03*
X0395000Y0430000D02*
D03*
X0390000Y0400000D02*
D03*
Y0380000D02*
D03*
Y0360000D02*
D03*
Y0340000D02*
D03*
Y0320000D02*
D03*
Y0220000D02*
D03*
X0395000Y0210000D02*
D03*
X0390000Y0200000D02*
D03*
X0385000Y0670000D02*
D03*
X0380000Y0660000D02*
D03*
X0385000Y0650000D02*
D03*
X0380000Y0640000D02*
D03*
X0385000Y0630000D02*
D03*
X0380000Y0620000D02*
D03*
X0385000Y0610000D02*
D03*
X0380000Y0600000D02*
D03*
X0385000Y0590000D02*
D03*
X0380000Y0560000D02*
D03*
X0385000Y0550000D02*
D03*
X0380000Y0540000D02*
D03*
X0385000Y0530000D02*
D03*
X0380000Y0520000D02*
D03*
X0385000Y0510000D02*
D03*
X0380000Y0480000D02*
D03*
X0385000Y0470000D02*
D03*
X0380000Y0460000D02*
D03*
X0385000Y0450000D02*
D03*
Y0430000D02*
D03*
Y0410000D02*
D03*
X0380000Y0400000D02*
D03*
X0385000Y0390000D02*
D03*
X0380000Y0380000D02*
D03*
Y0360000D02*
D03*
Y0340000D02*
D03*
Y0320000D02*
D03*
Y0220000D02*
D03*
X0385000Y0210000D02*
D03*
X0380000Y0200000D02*
D03*
X0370000Y0700000D02*
D03*
X0375000Y0690000D02*
D03*
X0370000Y0680000D02*
D03*
X0375000Y0670000D02*
D03*
X0370000Y0660000D02*
D03*
X0375000Y0650000D02*
D03*
X0370000Y0640000D02*
D03*
X0375000Y0630000D02*
D03*
X0370000Y0620000D02*
D03*
X0375000Y0610000D02*
D03*
X0370000Y0600000D02*
D03*
X0375000Y0590000D02*
D03*
X0370000Y0580000D02*
D03*
Y0560000D02*
D03*
X0375000Y0550000D02*
D03*
X0370000Y0540000D02*
D03*
X0375000Y0530000D02*
D03*
X0370000Y0520000D02*
D03*
X0375000Y0510000D02*
D03*
X0370000Y0500000D02*
D03*
Y0480000D02*
D03*
X0375000Y0470000D02*
D03*
X0370000Y0460000D02*
D03*
X0375000Y0450000D02*
D03*
X0370000Y0220000D02*
D03*
X0375000Y0210000D02*
D03*
X0370000Y0200000D02*
D03*
X0375000Y0190000D02*
D03*
X0370000Y0180000D02*
D03*
X0375000Y0170000D02*
D03*
X0360000Y0700000D02*
D03*
X0365000Y0690000D02*
D03*
X0360000Y0680000D02*
D03*
X0365000Y0670000D02*
D03*
X0360000Y0660000D02*
D03*
X0365000Y0650000D02*
D03*
X0360000Y0640000D02*
D03*
X0365000Y0630000D02*
D03*
X0360000Y0620000D02*
D03*
X0365000Y0610000D02*
D03*
X0360000Y0600000D02*
D03*
X0365000Y0590000D02*
D03*
X0360000Y0580000D02*
D03*
X0365000Y0570000D02*
D03*
X0360000Y0560000D02*
D03*
X0365000Y0550000D02*
D03*
X0360000Y0540000D02*
D03*
X0365000Y0530000D02*
D03*
X0360000Y0520000D02*
D03*
X0365000Y0510000D02*
D03*
X0360000Y0500000D02*
D03*
X0365000Y0490000D02*
D03*
X0360000Y0480000D02*
D03*
X0365000Y0470000D02*
D03*
X0360000Y0460000D02*
D03*
Y0220000D02*
D03*
X0365000Y0210000D02*
D03*
X0360000Y0200000D02*
D03*
X0365000Y0190000D02*
D03*
X0360000Y0180000D02*
D03*
X0365000Y0170000D02*
D03*
X0350000Y0700000D02*
D03*
X0355000Y0690000D02*
D03*
X0350000Y0680000D02*
D03*
X0355000Y0670000D02*
D03*
X0350000Y0660000D02*
D03*
X0355000Y0650000D02*
D03*
X0350000Y0640000D02*
D03*
Y0620000D02*
D03*
X0355000Y0610000D02*
D03*
X0350000Y0600000D02*
D03*
X0355000Y0590000D02*
D03*
Y0470000D02*
D03*
X0350000Y0460000D02*
D03*
Y0220000D02*
D03*
X0355000Y0210000D02*
D03*
X0350000Y0200000D02*
D03*
X0355000Y0190000D02*
D03*
X0350000Y0180000D02*
D03*
X0355000Y0170000D02*
D03*
X0340000Y0700000D02*
D03*
X0345000Y0690000D02*
D03*
X0340000Y0680000D02*
D03*
Y0660000D02*
D03*
X0345000Y0650000D02*
D03*
X0340000Y0640000D02*
D03*
X0345000Y0630000D02*
D03*
X0340000Y0620000D02*
D03*
X0345000Y0610000D02*
D03*
Y0470000D02*
D03*
X0340000Y0460000D02*
D03*
Y0220000D02*
D03*
X0345000Y0210000D02*
D03*
X0340000Y0200000D02*
D03*
X0345000Y0190000D02*
D03*
X0340000Y0180000D02*
D03*
X0345000Y0170000D02*
D03*
X0330000Y0700000D02*
D03*
X0335000Y0690000D02*
D03*
X0330000Y0680000D02*
D03*
Y0460000D02*
D03*
Y0220000D02*
D03*
X0335000Y0210000D02*
D03*
X0330000Y0200000D02*
D03*
X0335000Y0190000D02*
D03*
X0330000Y0180000D02*
D03*
X0335000Y0170000D02*
D03*
X0320000Y0700000D02*
D03*
X0325000Y0690000D02*
D03*
X0320000Y0680000D02*
D03*
Y0220000D02*
D03*
X0325000Y0210000D02*
D03*
X0320000Y0200000D02*
D03*
X0325000Y0190000D02*
D03*
X0320000Y0180000D02*
D03*
X0325000Y0170000D02*
D03*
X0310000Y0700000D02*
D03*
X0315000Y0690000D02*
D03*
X0310000Y0680000D02*
D03*
X0315000Y0210000D02*
D03*
X0310000Y0200000D02*
D03*
X0315000Y0190000D02*
D03*
X0310000Y0180000D02*
D03*
X0315000Y0170000D02*
D03*
X0305000Y0690000D02*
D03*
X0300000Y0220000D02*
D03*
X0305000Y0210000D02*
D03*
X0300000Y0200000D02*
D03*
X0305000Y0190000D02*
D03*
X0300000Y0180000D02*
D03*
X0305000Y0170000D02*
D03*
X0290000Y0460000D02*
D03*
X0295000Y0210000D02*
D03*
X0290000Y0200000D02*
D03*
X0295000Y0190000D02*
D03*
X0290000Y0180000D02*
D03*
X0295000Y0170000D02*
D03*
X0280000Y0240000D02*
D03*
X0285000Y0210000D02*
D03*
X0280000Y0200000D02*
D03*
X0285000Y0190000D02*
D03*
X0280000Y0180000D02*
D03*
X0285000Y0170000D02*
D03*
X0275000Y0210000D02*
D03*
X0270000Y0200000D02*
D03*
X0275000Y0190000D02*
D03*
X0270000Y0180000D02*
D03*
X0275000Y0170000D02*
D03*
X0260000Y0440000D02*
D03*
X0265000Y0430000D02*
D03*
X0260000Y0420000D02*
D03*
Y0220000D02*
D03*
X0265000Y0210000D02*
D03*
X0260000Y0200000D02*
D03*
X0265000Y0190000D02*
D03*
X0260000Y0180000D02*
D03*
X0265000Y0170000D02*
D03*
X0250000Y0440000D02*
D03*
X0255000Y0210000D02*
D03*
X0250000Y0200000D02*
D03*
X0255000Y0190000D02*
D03*
X0250000Y0180000D02*
D03*
X0255000Y0170000D02*
D03*
X0240000Y0420000D02*
D03*
X0245000Y0210000D02*
D03*
X0240000Y0200000D02*
D03*
X0245000Y0190000D02*
D03*
X0240000Y0180000D02*
D03*
X0245000Y0170000D02*
D03*
X0230000Y0460000D02*
D03*
Y0440000D02*
D03*
X0235000Y0430000D02*
D03*
X0230000Y0420000D02*
D03*
Y0220000D02*
D03*
X0235000Y0210000D02*
D03*
X0230000Y0200000D02*
D03*
X0235000Y0190000D02*
D03*
X0230000Y0180000D02*
D03*
X0235000Y0170000D02*
D03*
X0220000Y0460000D02*
D03*
Y0440000D02*
D03*
X0225000Y0430000D02*
D03*
X0220000Y0420000D02*
D03*
Y0220000D02*
D03*
X0225000Y0210000D02*
D03*
X0220000Y0200000D02*
D03*
X0225000Y0190000D02*
D03*
X0220000Y0180000D02*
D03*
X0225000Y0170000D02*
D03*
X0210000Y0460000D02*
D03*
X0215000Y0450000D02*
D03*
X0210000Y0440000D02*
D03*
X0215000Y0430000D02*
D03*
X0200000Y0460000D02*
D03*
X0205000Y0450000D02*
D03*
X0200000Y0440000D02*
D03*
X0195000Y0450000D02*
D03*
X0115000D02*
D03*
Y0430000D02*
D03*
X0105000Y0670000D02*
D03*
X0100000Y0660000D02*
D03*
X0105000Y0650000D02*
D03*
Y0450000D02*
D03*
X0100000Y0260000D02*
D03*
X0090000Y0660000D02*
D03*
X0095000Y0650000D02*
D03*
X0090000Y0640000D02*
D03*
Y0620000D02*
D03*
Y0600000D02*
D03*
X0095000Y0510000D02*
D03*
Y0490000D02*
D03*
X0090000Y0440000D02*
D03*
X0095000Y0430000D02*
D03*
X0090000Y0420000D02*
D03*
Y0260000D02*
D03*
X0085000Y0670000D02*
D03*
Y0650000D02*
D03*
X0080000Y0640000D02*
D03*
X0085000Y0630000D02*
D03*
X0080000Y0620000D02*
D03*
Y0440000D02*
D03*
X0085000Y0430000D02*
D03*
X0080000Y0420000D02*
D03*
Y0400000D02*
D03*
Y0360000D02*
D03*
Y0340000D02*
D03*
Y0320000D02*
D03*
Y0300000D02*
D03*
Y0260000D02*
D03*
G54D194*
X0230258Y0548861D02*
D03*
X0227905Y0553030D02*
D03*
X0220716Y0540996D02*
D03*
X0215618Y0541209D02*
D03*
X0225909Y0541282D02*
D03*
X0210582Y0548850D02*
D03*
X0213173Y0552400D02*
D03*
X0223188D02*
D03*
X0256865Y0606269D02*
D03*
X0251956Y0610192D02*
D03*
X0286917Y0587900D02*
D03*
X0112450Y0599971D02*
D03*
X0112502Y0586400D02*
D03*
X0110095Y0589468D02*
D03*
X0112502Y0592900D02*
D03*
X0108016D02*
D03*
X0110200Y0596439D02*
D03*
X0083200Y0488792D02*
D03*
X0294789Y0242901D02*
D03*
X0177200Y0185726D02*
D03*
X0101105Y0265697D02*
D03*
X0113263Y0265714D02*
D03*
X0090931Y0385000D02*
D03*
X0210915Y0250400D02*
D03*
X0203271D02*
D03*
X0195283D02*
D03*
X0187586D02*
D03*
X0143788Y0263136D02*
D03*
X0145200Y0259400D02*
D03*
X0133560Y0256756D02*
D03*
X0139904Y0198679D02*
D03*
X0181046Y0252488D02*
D03*
X0126287Y0268400D02*
D03*
X0117448Y0274400D02*
D03*
X0090419Y0273421D02*
D03*
X0271902Y0232263D02*
D03*
Y0218409D02*
D03*
X0126025Y0328212D02*
D03*
X0237697Y0247232D02*
D03*
X0328823Y0299957D02*
D03*
X0315492Y0262735D02*
D03*
X0234249Y0282359D02*
D03*
X0336773Y0377250D02*
D03*
X0321431Y0371530D02*
D03*
X0305135Y0365400D02*
D03*
X0228216Y0545323D02*
D03*
X0130597Y0387117D02*
D03*
X0303254Y0448400D02*
D03*
X0158347Y0326568D02*
D03*
X0110200Y0329472D02*
D03*
X0199232Y0591176D02*
D03*
X0194231Y0595176D02*
D03*
X0185231Y0587176D02*
D03*
X0189232D02*
D03*
X0194231D02*
D03*
X0199232D02*
D03*
X0189232Y0591176D02*
D03*
X0185231D02*
D03*
X0189232Y0595176D02*
D03*
X0185231D02*
D03*
X0199232Y0599176D02*
D03*
X0194231D02*
D03*
X0189232D02*
D03*
X0185231D02*
D03*
X0128605Y0614837D02*
D03*
X0119605Y0606837D02*
D03*
X0123605D02*
D03*
X0128605D02*
D03*
X0133605D02*
D03*
X0128605Y0610837D02*
D03*
X0123605D02*
D03*
X0119605D02*
D03*
X0133605Y0614837D02*
D03*
X0123605D02*
D03*
X0119605D02*
D03*
X0133605Y0618837D02*
D03*
X0128605D02*
D03*
X0123605D02*
D03*
X0119605D02*
D03*
X0156540Y0599028D02*
D03*
X0161540D02*
D03*
X0166540D02*
D03*
X0152540Y0595028D02*
D03*
X0156540D02*
D03*
X0152540Y0591028D02*
D03*
X0156540D02*
D03*
X0161540Y0587028D02*
D03*
X0156540D02*
D03*
X0152540D02*
D03*
X0161540Y0595028D02*
D03*
X0242865Y0618269D02*
D03*
X0246865D02*
D03*
X0251865D02*
D03*
X0256865D02*
D03*
X0242865Y0614269D02*
D03*
X0246865D02*
D03*
X0256865D02*
D03*
X0242865Y0610269D02*
D03*
X0246865D02*
D03*
X0251865Y0606269D02*
D03*
X0246865D02*
D03*
X0242865D02*
D03*
X0277661Y0599971D02*
D03*
X0281661D02*
D03*
X0286661D02*
D03*
X0291661D02*
D03*
X0277661Y0595971D02*
D03*
X0281661D02*
D03*
X0291661D02*
D03*
X0277661Y0591971D02*
D03*
X0281661D02*
D03*
X0291661Y0587971D02*
D03*
X0281661D02*
D03*
X0277661D02*
D03*
X0286661Y0595971D02*
D03*
X0216785Y0618076D02*
D03*
X0220785D02*
D03*
X0225785D02*
D03*
X0230785D02*
D03*
X0216785Y0614076D02*
D03*
X0220785D02*
D03*
X0230785D02*
D03*
X0216785Y0610076D02*
D03*
X0220785D02*
D03*
X0225785D02*
D03*
X0230785Y0606076D02*
D03*
X0225785D02*
D03*
X0220785D02*
D03*
X0216785D02*
D03*
X0225785Y0614076D02*
D03*
X0230785Y0610076D02*
D03*
X0166540Y0591028D02*
D03*
X0161540D02*
D03*
X0199232Y0595176D02*
D03*
X0194231Y0591176D02*
D03*
X0157056Y0200110D02*
D03*
X0103915Y0299043D02*
D03*
X0101108Y0277341D02*
D03*
X0218216Y0545323D02*
D03*
X0223216D02*
D03*
X0213216D02*
D03*
X0218173Y0552400D02*
D03*
X0166540Y0595028D02*
D03*
X0256865Y0610372D02*
D03*
X0251865Y0614372D02*
D03*
X0286813Y0591750D02*
D03*
X0291661Y0591800D02*
D03*
X0309684Y0241049D02*
D03*
X0166540Y0587081D02*
D03*
X0133605Y0610837D02*
D03*
X0237697Y0240630D02*
D03*
X0284198Y0475400D02*
D03*
X0249662Y0254707D02*
D03*
X0369711Y0411118D02*
D03*
X0371705Y0289849D02*
D03*
X0152540Y0599028D02*
D03*
G54D195*
X0122797Y0292153D02*
D03*
X0116990Y0297960D02*
D03*
Y0292153D02*
D03*
Y0286346D02*
D03*
X0111183Y0292153D02*
D03*
X0144667Y0362254D02*
D03*
X0140021Y0366900D02*
D03*
Y0362254D02*
D03*
X0144667Y0356782D02*
D03*
X0140021Y0352136D02*
D03*
Y0356782D02*
D03*
X0129903D02*
D03*
X0134548Y0352136D02*
D03*
Y0356782D02*
D03*
Y0362254D02*
D03*
Y0366900D02*
D03*
X0129903Y0362254D02*
D03*
X0268287Y0449758D02*
D03*
X0274113D02*
D03*
X0271200Y0454679D02*
D03*
Y0444837D02*
D03*
G54D196*
X0089193Y0354400D02*
D03*
M02*
