G04*
G04 #@! TF.GenerationSoftware,Altium Limited,Altium Designer,18.1.9 (240)*
G04*
G04 Layer_Physical_Order=2*
G04 Layer_Color=36540*
%FSAX25Y25*%
%MOIN*%
G70*
G01*
G75*
%ADD16C,0.01000*%
%ADD22C,0.00800*%
%ADD154C,0.06693*%
%ADD158C,0.07087*%
%ADD180C,0.02000*%
%ADD183C,0.06299*%
%ADD184R,0.07087X0.07087*%
%ADD190C,0.08000*%
%ADD192R,0.05315X0.05315*%
%ADD193C,0.03400*%
%ADD194C,0.03100*%
%ADD195C,0.01968*%
%ADD196C,0.06000*%
G36*
X0416651Y0155949D02*
X0217749D01*
Y0220262D01*
X0217924Y0221144D01*
Y0226341D01*
X0218711Y0226849D01*
X0219493Y0226746D01*
X0220550Y0226885D01*
X0221535Y0227293D01*
X0222381Y0227943D01*
X0223030Y0228789D01*
X0223438Y0229774D01*
X0223577Y0230831D01*
X0223438Y0231888D01*
X0223030Y0232874D01*
X0222381Y0233720D01*
X0221535Y0234369D01*
X0220550Y0234777D01*
X0219493Y0234916D01*
X0218711Y0234813D01*
X0217924Y0235322D01*
Y0245854D01*
X0217730Y0246829D01*
X0217178Y0247656D01*
X0216351Y0248208D01*
X0215376Y0248403D01*
X0072200D01*
X0071749Y0248773D01*
Y0710851D01*
X0416651D01*
Y0155949D01*
D02*
G37*
G36*
X0198651Y0155980D02*
X0187762Y0155975D01*
Y0155949D01*
X0123180D01*
X0123180Y0216090D01*
X0123295Y0216205D01*
Y0218595D01*
X0198651D01*
Y0155980D01*
D02*
G37*
%LPC*%
G36*
X0239266Y0709045D02*
X0238291Y0708851D01*
X0237464Y0708298D01*
X0236911Y0707471D01*
X0236717Y0706496D01*
Y0701018D01*
X0126200D01*
X0125286Y0700897D01*
X0124435Y0700545D01*
X0123704Y0699984D01*
X0112163Y0688442D01*
X0111446Y0688767D01*
X0111487Y0689400D01*
X0111331Y0691787D01*
X0110864Y0694133D01*
X0110095Y0696398D01*
X0109037Y0698544D01*
X0107708Y0700532D01*
X0106131Y0702331D01*
X0104332Y0703908D01*
X0102344Y0705237D01*
X0100198Y0706295D01*
X0097933Y0707064D01*
X0095587Y0707531D01*
X0093200Y0707687D01*
X0090813Y0707531D01*
X0088467Y0707064D01*
X0086202Y0706295D01*
X0084056Y0705237D01*
X0082068Y0703908D01*
X0080269Y0702331D01*
X0078692Y0700532D01*
X0077363Y0698544D01*
X0076305Y0696398D01*
X0075536Y0694133D01*
X0075069Y0691787D01*
X0074913Y0689400D01*
X0075069Y0687013D01*
X0075536Y0684667D01*
X0076305Y0682402D01*
X0077363Y0680256D01*
X0078692Y0678267D01*
X0080269Y0676469D01*
X0082068Y0674892D01*
X0084056Y0673563D01*
X0086202Y0672505D01*
X0088467Y0671736D01*
X0090813Y0671269D01*
X0093200Y0671113D01*
X0095587Y0671269D01*
X0097933Y0671736D01*
X0100198Y0672505D01*
X0102344Y0673563D01*
X0104332Y0674892D01*
X0106131Y0676469D01*
X0107439Y0677960D01*
X0108226Y0677664D01*
Y0650919D01*
X0108218Y0650909D01*
X0107810Y0649924D01*
X0107671Y0648867D01*
X0107810Y0647810D01*
X0108218Y0646825D01*
X0108867Y0645978D01*
X0109713Y0645329D01*
X0110699Y0644921D01*
X0111756Y0644782D01*
X0112521Y0644883D01*
X0112936Y0644208D01*
X0112594Y0643708D01*
X0111609Y0643300D01*
X0110763Y0642651D01*
X0110113Y0641805D01*
X0109705Y0640819D01*
X0109566Y0639762D01*
X0109705Y0638705D01*
X0110113Y0637720D01*
X0110763Y0636874D01*
X0111609Y0636224D01*
X0112594Y0635816D01*
X0113457Y0635703D01*
X0113457Y0604520D01*
X0112865Y0604001D01*
X0112450Y0604056D01*
X0111393Y0603917D01*
X0110408Y0603509D01*
X0109678Y0602949D01*
X0108016D01*
X0107040Y0602755D01*
X0106213Y0602202D01*
X0105660Y0601375D01*
X0105466Y0600400D01*
X0105466Y0596049D01*
X0105127Y0595788D01*
X0104478Y0594942D01*
X0104070Y0593957D01*
X0103930Y0592900D01*
X0104070Y0591843D01*
X0104478Y0590857D01*
X0105127Y0590011D01*
X0105466Y0589751D01*
X0105467Y0585400D01*
X0105661Y0584424D01*
X0106213Y0583598D01*
X0107040Y0583045D01*
X0108016Y0582851D01*
X0110487D01*
X0111445Y0582454D01*
X0112502Y0582315D01*
X0113559Y0582454D01*
X0114517Y0582851D01*
X0278111Y0582851D01*
X0278111Y0573676D01*
X0278135Y0573557D01*
X0277636Y0572949D01*
X0224740Y0572949D01*
X0224484Y0572983D01*
X0224229Y0572949D01*
X0221460D01*
X0220894Y0573023D01*
X0220328Y0572949D01*
X0217589D01*
X0217334Y0572983D01*
X0217079Y0572949D01*
X0126631Y0572949D01*
X0125655Y0572755D01*
X0124829Y0572202D01*
X0124276Y0571375D01*
X0124265Y0571320D01*
X0123907Y0570854D01*
X0123499Y0569869D01*
X0123360Y0568811D01*
X0123499Y0567754D01*
X0123907Y0566769D01*
X0124040Y0566595D01*
X0123923Y0566442D01*
X0123515Y0565457D01*
X0123375Y0564400D01*
X0123515Y0563343D01*
X0123923Y0562358D01*
X0124082Y0562150D01*
Y0562082D01*
X0123907Y0561854D01*
X0123499Y0560869D01*
X0123360Y0559811D01*
X0123499Y0558754D01*
X0123907Y0557769D01*
X0124082Y0557541D01*
Y0557400D01*
X0124276Y0556425D01*
X0124829Y0555598D01*
X0125655Y0555045D01*
X0126631Y0554851D01*
X0161982Y0554851D01*
X0162255Y0554815D01*
X0162529Y0554851D01*
X0164609D01*
X0165483Y0554489D01*
X0166540Y0554350D01*
X0167598Y0554489D01*
X0168472Y0554851D01*
X0170982D01*
X0171255Y0554815D01*
X0171528Y0554851D01*
X0193465D01*
X0194304Y0554504D01*
X0195361Y0554364D01*
X0196419Y0554504D01*
X0197257Y0554851D01*
X0289775Y0554851D01*
X0290751Y0555045D01*
X0291578Y0555597D01*
X0291864Y0556026D01*
X0292651Y0555787D01*
Y0544992D01*
X0280660D01*
X0279685Y0544798D01*
X0278858Y0544245D01*
X0278305Y0543418D01*
X0278111Y0542443D01*
X0278111Y0475594D01*
X0278305Y0474619D01*
X0278305Y0474619D01*
X0278858Y0473792D01*
X0281758Y0470892D01*
X0282273Y0470547D01*
X0282585Y0470339D01*
X0283560Y0470145D01*
X0339494D01*
X0340470Y0470339D01*
X0341297Y0470892D01*
X0355002Y0484598D01*
X0355555Y0485425D01*
X0355749Y0486400D01*
X0355749Y0585400D01*
X0355555Y0586376D01*
X0355002Y0587202D01*
X0340002Y0602202D01*
X0339175Y0602755D01*
X0338200Y0602949D01*
X0332254D01*
X0332016Y0603736D01*
X0332633Y0604148D01*
X0336882Y0608398D01*
X0337435Y0609225D01*
X0337629Y0610200D01*
Y0669700D01*
X0337435Y0670676D01*
X0336882Y0671502D01*
X0333882Y0674502D01*
X0333055Y0675055D01*
X0332080Y0675249D01*
X0303300Y0675249D01*
X0303222Y0675313D01*
Y0706496D01*
X0303028Y0707471D01*
X0302475Y0708298D01*
X0301648Y0708851D01*
X0300673Y0709045D01*
X0239266Y0709045D01*
D02*
G37*
G36*
X0395200Y0707687D02*
X0392813Y0707531D01*
X0390467Y0707064D01*
X0388202Y0706295D01*
X0386056Y0705237D01*
X0384068Y0703908D01*
X0382269Y0702331D01*
X0380692Y0700532D01*
X0379363Y0698544D01*
X0378305Y0696398D01*
X0377536Y0694133D01*
X0377069Y0691787D01*
X0376913Y0689400D01*
X0377069Y0687013D01*
X0377536Y0684667D01*
X0378305Y0682402D01*
X0379363Y0680256D01*
X0380692Y0678267D01*
X0382269Y0676469D01*
X0384068Y0674892D01*
X0386056Y0673563D01*
X0388202Y0672505D01*
X0390467Y0671736D01*
X0392813Y0671269D01*
X0395200Y0671113D01*
X0397587Y0671269D01*
X0399933Y0671736D01*
X0402198Y0672505D01*
X0404344Y0673563D01*
X0406332Y0674892D01*
X0408131Y0676469D01*
X0409708Y0678267D01*
X0411037Y0680256D01*
X0412095Y0682402D01*
X0412864Y0684667D01*
X0413331Y0687013D01*
X0413487Y0689400D01*
X0413331Y0691787D01*
X0412864Y0694133D01*
X0412095Y0696398D01*
X0411037Y0698544D01*
X0409708Y0700532D01*
X0408131Y0702331D01*
X0406332Y0703908D01*
X0404344Y0705237D01*
X0402198Y0706295D01*
X0399933Y0707064D01*
X0397587Y0707531D01*
X0395200Y0707687D01*
D02*
G37*
G36*
X0084279Y0615167D02*
X0083222Y0615028D01*
X0082237Y0614620D01*
X0081391Y0613970D01*
X0080742Y0613124D01*
X0080334Y0612139D01*
X0080194Y0611082D01*
X0080334Y0610025D01*
X0080742Y0609039D01*
X0081391Y0608193D01*
X0082237Y0607544D01*
X0083222Y0607136D01*
X0084279Y0606997D01*
X0085337Y0607136D01*
X0086322Y0607544D01*
X0087168Y0608193D01*
X0087817Y0609039D01*
X0088225Y0610025D01*
X0088364Y0611082D01*
X0088225Y0612139D01*
X0087817Y0613124D01*
X0087168Y0613970D01*
X0086322Y0614620D01*
X0085337Y0615028D01*
X0084279Y0615167D01*
D02*
G37*
G36*
X0088382Y0596578D02*
X0087325Y0596439D01*
X0086340Y0596031D01*
X0085494Y0595382D01*
X0084845Y0594536D01*
X0084437Y0593551D01*
X0084298Y0592493D01*
X0084437Y0591436D01*
X0084845Y0590451D01*
X0085494Y0589605D01*
X0086340Y0588956D01*
X0087325Y0588548D01*
X0088382Y0588409D01*
X0089440Y0588548D01*
X0090425Y0588956D01*
X0091271Y0589605D01*
X0091920Y0590451D01*
X0092328Y0591436D01*
X0092467Y0592493D01*
X0092328Y0593551D01*
X0091920Y0594536D01*
X0091271Y0595382D01*
X0090425Y0596031D01*
X0089440Y0596439D01*
X0088382Y0596578D01*
D02*
G37*
G36*
X0089264Y0578952D02*
X0088207Y0578813D01*
X0087222Y0578405D01*
X0086376Y0577755D01*
X0085727Y0576909D01*
X0085318Y0575924D01*
X0085179Y0574867D01*
X0085318Y0573810D01*
X0085727Y0572824D01*
X0086376Y0571978D01*
X0087222Y0571329D01*
X0088207Y0570921D01*
X0089264Y0570782D01*
X0090321Y0570921D01*
X0091307Y0571329D01*
X0092153Y0571978D01*
X0092802Y0572824D01*
X0093210Y0573810D01*
X0093349Y0574867D01*
X0093210Y0575924D01*
X0092802Y0576909D01*
X0092153Y0577755D01*
X0091307Y0578405D01*
X0090321Y0578813D01*
X0089264Y0578952D01*
D02*
G37*
G36*
X0111200Y0558485D02*
X0110143Y0558346D01*
X0109158Y0557938D01*
X0108311Y0557289D01*
X0107662Y0556442D01*
X0107254Y0555457D01*
X0107115Y0554400D01*
X0107254Y0553343D01*
X0107662Y0552357D01*
X0108311Y0551511D01*
X0109158Y0550862D01*
X0110143Y0550454D01*
X0111200Y0550315D01*
X0112257Y0550454D01*
X0113242Y0550862D01*
X0114088Y0551511D01*
X0114738Y0552357D01*
X0115146Y0553343D01*
X0115285Y0554400D01*
X0115146Y0555457D01*
X0114738Y0556442D01*
X0114088Y0557289D01*
X0113242Y0557938D01*
X0112257Y0558346D01*
X0111200Y0558485D01*
D02*
G37*
G36*
X0091182Y0554952D02*
X0090125Y0554813D01*
X0089139Y0554405D01*
X0088293Y0553755D01*
X0087644Y0552909D01*
X0087236Y0551924D01*
X0087097Y0550867D01*
X0087236Y0549810D01*
X0087644Y0548825D01*
X0088293Y0547978D01*
X0089139Y0547329D01*
X0090125Y0546921D01*
X0091182Y0546782D01*
X0092239Y0546921D01*
X0093224Y0547329D01*
X0094070Y0547978D01*
X0094719Y0548825D01*
X0095128Y0549810D01*
X0095267Y0550867D01*
X0095128Y0551924D01*
X0094719Y0552909D01*
X0094070Y0553755D01*
X0093224Y0554405D01*
X0092239Y0554813D01*
X0091182Y0554952D01*
D02*
G37*
G36*
X0173200Y0543931D02*
X0171926Y0543806D01*
X0170701Y0543434D01*
X0169571Y0542831D01*
X0168582Y0542018D01*
X0167769Y0541029D01*
X0167166Y0539899D01*
X0166794Y0538674D01*
X0166669Y0537400D01*
X0166794Y0536126D01*
X0167166Y0534901D01*
X0167769Y0533771D01*
X0168582Y0532782D01*
X0169571Y0531969D01*
X0170701Y0531366D01*
X0171926Y0530994D01*
X0173200Y0530868D01*
X0174474Y0530994D01*
X0175699Y0531366D01*
X0176829Y0531969D01*
X0177818Y0532782D01*
X0178631Y0533771D01*
X0179234Y0534901D01*
X0179606Y0536126D01*
X0179731Y0537400D01*
X0179606Y0538674D01*
X0179234Y0539899D01*
X0178631Y0541029D01*
X0177818Y0542018D01*
X0176829Y0542831D01*
X0175699Y0543434D01*
X0174474Y0543806D01*
X0173200Y0543931D01*
D02*
G37*
G36*
X0151866D02*
X0150592Y0543806D01*
X0149366Y0543434D01*
X0148237Y0542831D01*
X0147248Y0542018D01*
X0146435Y0541029D01*
X0145832Y0539899D01*
X0145460Y0538674D01*
X0145334Y0537400D01*
X0145460Y0536126D01*
X0145832Y0534901D01*
X0146435Y0533771D01*
X0147248Y0532782D01*
X0148237Y0531969D01*
X0149366Y0531366D01*
X0150592Y0530994D01*
X0151866Y0530868D01*
X0153140Y0530994D01*
X0154365Y0531366D01*
X0155495Y0531969D01*
X0156484Y0532782D01*
X0157297Y0533771D01*
X0157900Y0534901D01*
X0158272Y0536126D01*
X0158397Y0537400D01*
X0158272Y0538674D01*
X0157900Y0539899D01*
X0157297Y0541029D01*
X0156484Y0542018D01*
X0155495Y0542831D01*
X0154365Y0543434D01*
X0153140Y0543806D01*
X0151866Y0543931D01*
D02*
G37*
G36*
X0122200Y0535485D02*
X0121143Y0535346D01*
X0120158Y0534938D01*
X0119311Y0534289D01*
X0118662Y0533442D01*
X0118254Y0532457D01*
X0118115Y0531400D01*
X0118254Y0530343D01*
X0118662Y0529357D01*
X0119311Y0528511D01*
X0120158Y0527862D01*
X0121143Y0527454D01*
X0122200Y0527315D01*
X0123257Y0527454D01*
X0124242Y0527862D01*
X0125089Y0528511D01*
X0125738Y0529357D01*
X0126146Y0530343D01*
X0126285Y0531400D01*
X0126146Y0532457D01*
X0125738Y0533442D01*
X0125089Y0534289D01*
X0124242Y0534938D01*
X0123257Y0535346D01*
X0122200Y0535485D01*
D02*
G37*
G36*
X0094757Y0534656D02*
X0093700Y0534517D01*
X0092715Y0534108D01*
X0091869Y0533459D01*
X0091220Y0532613D01*
X0090812Y0531628D01*
X0090672Y0530571D01*
X0090812Y0529514D01*
X0091220Y0528528D01*
X0091869Y0527682D01*
X0092715Y0527033D01*
X0093700Y0526625D01*
X0094757Y0526486D01*
X0095815Y0526625D01*
X0096800Y0527033D01*
X0097646Y0527682D01*
X0098295Y0528528D01*
X0098703Y0529514D01*
X0098842Y0530571D01*
X0098703Y0531628D01*
X0098295Y0532613D01*
X0097646Y0533459D01*
X0096800Y0534108D01*
X0095815Y0534517D01*
X0094757Y0534656D01*
D02*
G37*
G36*
X0259200Y0535931D02*
X0257926Y0535806D01*
X0256700Y0535434D01*
X0255571Y0534831D01*
X0254582Y0534018D01*
X0253769Y0533029D01*
X0253166Y0531899D01*
X0252794Y0530674D01*
X0252669Y0529400D01*
X0252794Y0528126D01*
X0253166Y0526900D01*
X0253769Y0525771D01*
X0254582Y0524782D01*
X0255571Y0523969D01*
X0256700Y0523366D01*
X0257926Y0522994D01*
X0259200Y0522868D01*
X0260474Y0522994D01*
X0261700Y0523366D01*
X0262829Y0523969D01*
X0263818Y0524782D01*
X0264631Y0525771D01*
X0265234Y0526900D01*
X0265606Y0528126D01*
X0265731Y0529400D01*
X0265606Y0530674D01*
X0265234Y0531899D01*
X0264631Y0533029D01*
X0263818Y0534018D01*
X0262829Y0534831D01*
X0261700Y0535434D01*
X0260474Y0535806D01*
X0259200Y0535931D01*
D02*
G37*
G36*
X0238760D02*
X0237486Y0535806D01*
X0236261Y0535434D01*
X0235132Y0534831D01*
X0234142Y0534018D01*
X0233330Y0533029D01*
X0232726Y0531899D01*
X0232354Y0530674D01*
X0232229Y0529400D01*
X0232354Y0528126D01*
X0232726Y0526900D01*
X0233330Y0525771D01*
X0234142Y0524782D01*
X0235132Y0523969D01*
X0236261Y0523366D01*
X0237486Y0522994D01*
X0238760Y0522868D01*
X0240035Y0522994D01*
X0241260Y0523366D01*
X0242389Y0523969D01*
X0243379Y0524782D01*
X0244191Y0525771D01*
X0244795Y0526900D01*
X0245166Y0528126D01*
X0245292Y0529400D01*
X0245166Y0530674D01*
X0244795Y0531899D01*
X0244191Y0533029D01*
X0243379Y0534018D01*
X0242389Y0534831D01*
X0241260Y0535434D01*
X0240035Y0535806D01*
X0238760Y0535931D01*
D02*
G37*
G36*
X0196247D02*
X0194973Y0535806D01*
X0193748Y0535434D01*
X0192619Y0534831D01*
X0191629Y0534018D01*
X0190817Y0533029D01*
X0190213Y0531899D01*
X0189841Y0530674D01*
X0189716Y0529400D01*
X0189841Y0528126D01*
X0190213Y0526900D01*
X0190817Y0525771D01*
X0191629Y0524782D01*
X0192619Y0523969D01*
X0193748Y0523366D01*
X0194973Y0522994D01*
X0196247Y0522868D01*
X0197521Y0522994D01*
X0198747Y0523366D01*
X0199876Y0523969D01*
X0200866Y0524782D01*
X0201678Y0525771D01*
X0202281Y0526900D01*
X0202653Y0528126D01*
X0202779Y0529400D01*
X0202653Y0530674D01*
X0202281Y0531899D01*
X0201678Y0533029D01*
X0200866Y0534018D01*
X0199876Y0534831D01*
X0198747Y0535434D01*
X0197521Y0535806D01*
X0196247Y0535931D01*
D02*
G37*
G36*
X0215200D02*
X0213926Y0535806D01*
X0212701Y0535434D01*
X0211571Y0534831D01*
X0210582Y0534018D01*
X0209769Y0533029D01*
X0209166Y0531899D01*
X0208794Y0530674D01*
X0208669Y0529400D01*
X0208794Y0528126D01*
X0209166Y0526900D01*
X0209769Y0525771D01*
X0210582Y0524782D01*
X0211571Y0523969D01*
X0212701Y0523366D01*
X0213926Y0522994D01*
X0215200Y0522868D01*
X0216474Y0522994D01*
X0217700Y0523366D01*
X0218829Y0523969D01*
X0219818Y0524782D01*
X0220353Y0525433D01*
X0220474Y0525428D01*
X0221147Y0525160D01*
X0221254Y0524343D01*
X0221662Y0523357D01*
X0222311Y0522511D01*
X0223158Y0521862D01*
X0224143Y0521454D01*
X0225200Y0521315D01*
X0226257Y0521454D01*
X0227242Y0521862D01*
X0228088Y0522511D01*
X0228738Y0523357D01*
X0229146Y0524343D01*
X0229285Y0525400D01*
X0229146Y0526457D01*
X0228738Y0527443D01*
X0228088Y0528289D01*
X0227242Y0528938D01*
X0226257Y0529346D01*
X0225200Y0529485D01*
X0224143Y0529346D01*
X0223158Y0528938D01*
X0222421Y0528373D01*
X0222022Y0528492D01*
X0221667Y0528741D01*
X0221731Y0529400D01*
X0221606Y0530674D01*
X0221234Y0531899D01*
X0220631Y0533029D01*
X0219818Y0534018D01*
X0218829Y0534831D01*
X0217700Y0535434D01*
X0216474Y0535806D01*
X0215200Y0535931D01*
D02*
G37*
G36*
X0160375Y0497438D02*
X0159318Y0497298D01*
X0158333Y0496890D01*
X0157487Y0496241D01*
X0156838Y0495395D01*
X0156430Y0494410D01*
X0156290Y0493353D01*
X0156430Y0492296D01*
X0156838Y0491310D01*
X0157487Y0490464D01*
X0158333Y0489815D01*
X0159318Y0489407D01*
X0160375Y0489268D01*
X0161433Y0489407D01*
X0162418Y0489815D01*
X0163264Y0490464D01*
X0163913Y0491310D01*
X0164321Y0492296D01*
X0164460Y0493353D01*
X0164321Y0494410D01*
X0163913Y0495395D01*
X0163264Y0496241D01*
X0162418Y0496890D01*
X0161433Y0497298D01*
X0160375Y0497438D01*
D02*
G37*
G36*
X0139298Y0489377D02*
X0138241Y0489238D01*
X0137256Y0488830D01*
X0136410Y0488180D01*
X0135761Y0487334D01*
X0135353Y0486349D01*
X0135352Y0486343D01*
X0134512Y0485995D01*
X0134328Y0486136D01*
X0133343Y0486545D01*
X0132286Y0486684D01*
X0131228Y0486545D01*
X0130243Y0486136D01*
X0129397Y0485487D01*
X0128748Y0484641D01*
X0128658Y0484425D01*
X0128200Y0484485D01*
X0127143Y0484346D01*
X0126157Y0483938D01*
X0125312Y0483288D01*
X0124662Y0482443D01*
X0124254Y0481457D01*
X0124115Y0480400D01*
X0124254Y0479343D01*
X0124662Y0478358D01*
X0125312Y0477512D01*
X0126157Y0476862D01*
X0127143Y0476454D01*
X0128200Y0476315D01*
X0129257Y0476454D01*
X0130243Y0476862D01*
X0131088Y0477512D01*
X0131738Y0478358D01*
X0131827Y0478574D01*
X0132286Y0478514D01*
X0133343Y0478653D01*
X0134328Y0479061D01*
X0135174Y0479710D01*
X0135823Y0480556D01*
X0136231Y0481541D01*
X0136232Y0481548D01*
X0137072Y0481895D01*
X0137256Y0481754D01*
X0138241Y0481346D01*
X0139298Y0481207D01*
X0140356Y0481346D01*
X0141341Y0481754D01*
X0142187Y0482403D01*
X0142836Y0483249D01*
X0143244Y0484235D01*
X0143383Y0485292D01*
X0143244Y0486349D01*
X0142836Y0487334D01*
X0142187Y0488180D01*
X0141341Y0488830D01*
X0140356Y0489238D01*
X0139298Y0489377D01*
D02*
G37*
G36*
X0173200Y0480930D02*
X0172143Y0480791D01*
X0171158Y0480383D01*
X0171072Y0480317D01*
X0170987Y0480383D01*
X0170002Y0480791D01*
X0168945Y0480930D01*
X0167887Y0480791D01*
X0166902Y0480383D01*
X0166056Y0479733D01*
X0165407Y0478887D01*
X0164999Y0477902D01*
X0164859Y0476845D01*
X0164999Y0475788D01*
X0165407Y0474802D01*
X0166056Y0473956D01*
X0166902Y0473307D01*
X0167887Y0472899D01*
X0168945Y0472760D01*
X0170002Y0472899D01*
X0170987Y0473307D01*
X0171072Y0473373D01*
X0171158Y0473307D01*
X0172143Y0472899D01*
X0173200Y0472760D01*
X0174257Y0472899D01*
X0175242Y0473307D01*
X0176089Y0473956D01*
X0176738Y0474802D01*
X0177146Y0475788D01*
X0177285Y0476845D01*
X0177146Y0477902D01*
X0176738Y0478887D01*
X0176089Y0479733D01*
X0175242Y0480383D01*
X0174257Y0480791D01*
X0173200Y0480930D01*
D02*
G37*
G36*
X0091200Y0485205D02*
X0090143Y0485066D01*
X0089157Y0484658D01*
X0088311Y0484009D01*
X0087662Y0483163D01*
X0087254Y0482178D01*
X0087115Y0481120D01*
X0087254Y0480063D01*
X0087662Y0479078D01*
X0088311Y0478232D01*
X0089157Y0477583D01*
X0090143Y0477175D01*
X0091200Y0477036D01*
X0092257Y0477175D01*
X0093243Y0477583D01*
X0094089Y0478232D01*
X0094738Y0479078D01*
X0095146Y0480063D01*
X0095285Y0481120D01*
X0095146Y0482178D01*
X0094738Y0483163D01*
X0094089Y0484009D01*
X0093243Y0484658D01*
X0092257Y0485066D01*
X0091200Y0485205D01*
D02*
G37*
G36*
X0140200Y0477485D02*
X0139143Y0477346D01*
X0138157Y0476938D01*
X0137311Y0476289D01*
X0136662Y0475443D01*
X0136254Y0474457D01*
X0136115Y0473400D01*
X0136254Y0472343D01*
X0136662Y0471357D01*
X0137311Y0470511D01*
X0138157Y0469862D01*
X0139143Y0469454D01*
X0140200Y0469315D01*
X0141257Y0469454D01*
X0142243Y0469862D01*
X0143088Y0470511D01*
X0143738Y0471357D01*
X0144146Y0472343D01*
X0144285Y0473400D01*
X0144146Y0474457D01*
X0143738Y0475443D01*
X0143088Y0476289D01*
X0142243Y0476938D01*
X0141257Y0477346D01*
X0140200Y0477485D01*
D02*
G37*
G36*
X0181200Y0467860D02*
X0180143Y0467721D01*
X0179157Y0467312D01*
X0178312Y0466663D01*
X0177812Y0466012D01*
X0177682Y0466066D01*
X0176625Y0466205D01*
X0175567Y0466066D01*
X0174582Y0465658D01*
X0173736Y0465008D01*
X0173087Y0464162D01*
X0172679Y0463177D01*
X0172539Y0462120D01*
X0172679Y0461063D01*
X0173087Y0460077D01*
X0173736Y0459232D01*
X0174582Y0458582D01*
X0175567Y0458174D01*
X0176625Y0458035D01*
X0177682Y0458174D01*
X0178667Y0458582D01*
X0179513Y0459232D01*
X0180013Y0459883D01*
X0180143Y0459829D01*
X0181200Y0459690D01*
X0182257Y0459829D01*
X0183242Y0460237D01*
X0184089Y0460886D01*
X0184738Y0461732D01*
X0185146Y0462717D01*
X0185285Y0463775D01*
X0185146Y0464832D01*
X0184738Y0465817D01*
X0184089Y0466663D01*
X0183242Y0467312D01*
X0182257Y0467721D01*
X0181200Y0467860D01*
D02*
G37*
G36*
X0092088Y0471678D02*
X0091031Y0471538D01*
X0090046Y0471130D01*
X0089200Y0470481D01*
X0088551Y0469635D01*
X0088143Y0468650D01*
X0088003Y0467593D01*
X0088143Y0466536D01*
X0088551Y0465550D01*
X0089200Y0464704D01*
X0090046Y0464055D01*
X0091031Y0463647D01*
X0092088Y0463508D01*
X0093146Y0463647D01*
X0094131Y0464055D01*
X0094977Y0464704D01*
X0095626Y0465550D01*
X0096034Y0466536D01*
X0096173Y0467593D01*
X0096034Y0468650D01*
X0095626Y0469635D01*
X0094977Y0470481D01*
X0094131Y0471130D01*
X0093146Y0471538D01*
X0092088Y0471678D01*
D02*
G37*
G36*
X0160375Y0471310D02*
X0159318Y0471171D01*
X0158333Y0470762D01*
X0157487Y0470113D01*
X0156838Y0469267D01*
X0156430Y0468282D01*
X0156290Y0467225D01*
X0156430Y0466167D01*
X0156838Y0465182D01*
X0157487Y0464336D01*
X0158333Y0463687D01*
X0159318Y0463279D01*
X0160375Y0463140D01*
X0161433Y0463279D01*
X0162418Y0463687D01*
X0163264Y0464336D01*
X0163913Y0465182D01*
X0164321Y0466167D01*
X0164460Y0467225D01*
X0164321Y0468282D01*
X0163913Y0469267D01*
X0163264Y0470113D01*
X0162418Y0470762D01*
X0161433Y0471171D01*
X0160375Y0471310D01*
D02*
G37*
G36*
X0081331Y0471190D02*
X0080274Y0471051D01*
X0079289Y0470643D01*
X0078443Y0469994D01*
X0077793Y0469148D01*
X0077385Y0468162D01*
X0077246Y0467105D01*
X0077378Y0466100D01*
X0077206Y0466077D01*
X0076221Y0465669D01*
X0075375Y0465020D01*
X0074725Y0464174D01*
X0074317Y0463188D01*
X0074178Y0462131D01*
X0074317Y0461074D01*
X0074725Y0460089D01*
X0075375Y0459243D01*
X0076221Y0458593D01*
X0077206Y0458185D01*
X0078263Y0458046D01*
X0079320Y0458185D01*
X0080305Y0458593D01*
X0081151Y0459243D01*
X0081801Y0460089D01*
X0082209Y0461074D01*
X0082348Y0462131D01*
X0082215Y0463137D01*
X0082388Y0463160D01*
X0083374Y0463567D01*
X0084220Y0464217D01*
X0084869Y0465063D01*
X0085277Y0466048D01*
X0085416Y0467105D01*
X0085277Y0468162D01*
X0084869Y0469148D01*
X0084220Y0469994D01*
X0083374Y0470643D01*
X0082388Y0471051D01*
X0081331Y0471190D01*
D02*
G37*
G36*
X0141200Y0467485D02*
X0140143Y0467346D01*
X0139157Y0466938D01*
X0138312Y0466289D01*
X0137662Y0465443D01*
X0137254Y0464457D01*
X0137115Y0463400D01*
X0137254Y0462343D01*
X0137662Y0461357D01*
X0138312Y0460511D01*
X0139157Y0459862D01*
X0140143Y0459454D01*
X0141200Y0459315D01*
X0141262Y0459323D01*
X0141662Y0458357D01*
X0142312Y0457512D01*
X0143157Y0456862D01*
X0144143Y0456454D01*
X0145200Y0456315D01*
X0146257Y0456454D01*
X0147242Y0456862D01*
X0148089Y0457512D01*
X0148738Y0458357D01*
X0149146Y0459343D01*
X0149285Y0460400D01*
X0149146Y0461457D01*
X0148738Y0462442D01*
X0148089Y0463288D01*
X0147242Y0463938D01*
X0146257Y0464346D01*
X0145200Y0464485D01*
X0145138Y0464477D01*
X0144738Y0465443D01*
X0144088Y0466289D01*
X0143243Y0466938D01*
X0142257Y0467346D01*
X0141200Y0467485D01*
D02*
G37*
G36*
X0128200Y0459485D02*
X0127143Y0459346D01*
X0126157Y0458938D01*
X0125312Y0458288D01*
X0124662Y0457443D01*
X0124254Y0456457D01*
X0124115Y0455400D01*
X0124254Y0454343D01*
X0124662Y0453358D01*
X0125312Y0452512D01*
X0126157Y0451862D01*
X0127143Y0451454D01*
X0128200Y0451315D01*
X0129003Y0451421D01*
X0129331Y0450993D01*
X0130177Y0450344D01*
X0131162Y0449936D01*
X0132219Y0449797D01*
X0133276Y0449936D01*
X0134262Y0450344D01*
X0135108Y0450993D01*
X0135757Y0451839D01*
X0136165Y0452825D01*
X0136304Y0453882D01*
X0136165Y0454939D01*
X0135757Y0455924D01*
X0135108Y0456770D01*
X0134262Y0457419D01*
X0133276Y0457828D01*
X0132219Y0457967D01*
X0131416Y0457861D01*
X0131088Y0458288D01*
X0130243Y0458938D01*
X0129257Y0459346D01*
X0128200Y0459485D01*
D02*
G37*
G36*
X0157891Y0455174D02*
X0156834Y0455035D01*
X0155849Y0454627D01*
X0155003Y0453977D01*
X0154354Y0453131D01*
X0153946Y0452146D01*
X0153807Y0451089D01*
X0153946Y0450032D01*
X0154354Y0449046D01*
X0155003Y0448200D01*
X0155849Y0447551D01*
X0156834Y0447143D01*
X0157891Y0447004D01*
X0158949Y0447143D01*
X0159934Y0447551D01*
X0160780Y0448200D01*
X0161429Y0449046D01*
X0161837Y0450032D01*
X0161977Y0451089D01*
X0161837Y0452146D01*
X0161429Y0453131D01*
X0160780Y0453977D01*
X0159934Y0454627D01*
X0158949Y0455035D01*
X0157891Y0455174D01*
D02*
G37*
G36*
X0147200Y0449119D02*
X0146143Y0448980D01*
X0145158Y0448571D01*
X0144311Y0447922D01*
X0143662Y0447076D01*
X0143254Y0446091D01*
X0143115Y0445034D01*
X0143254Y0443977D01*
X0143287Y0443897D01*
X0142792Y0443035D01*
X0142132Y0442762D01*
X0141286Y0442112D01*
X0140637Y0441266D01*
X0140229Y0440281D01*
X0140089Y0439224D01*
X0140229Y0438167D01*
X0140373Y0437819D01*
X0139979Y0437138D01*
X0139822Y0437117D01*
X0138837Y0436709D01*
X0137991Y0436060D01*
X0137342Y0435214D01*
X0136934Y0434228D01*
X0136795Y0433171D01*
X0136934Y0432114D01*
X0137342Y0431129D01*
X0137991Y0430283D01*
X0138162Y0430152D01*
X0137850Y0429399D01*
X0137790Y0429407D01*
X0136733Y0429268D01*
X0135748Y0428860D01*
X0134901Y0428210D01*
X0134252Y0427364D01*
X0133844Y0426379D01*
X0133705Y0425322D01*
X0133844Y0424265D01*
X0134252Y0423279D01*
X0134901Y0422434D01*
X0135748Y0421784D01*
X0136733Y0421376D01*
X0137790Y0421237D01*
X0138847Y0421376D01*
X0139832Y0421784D01*
X0140679Y0422434D01*
X0141328Y0423279D01*
X0141736Y0424265D01*
X0141875Y0425322D01*
X0141736Y0426379D01*
X0141328Y0427364D01*
X0140679Y0428210D01*
X0140508Y0428341D01*
X0140820Y0429094D01*
X0140880Y0429086D01*
X0141937Y0429225D01*
X0142922Y0429633D01*
X0143768Y0430283D01*
X0144417Y0431129D01*
X0144825Y0432114D01*
X0144965Y0433171D01*
X0144825Y0434228D01*
X0144682Y0434576D01*
X0145036Y0435189D01*
X0145241Y0435282D01*
X0146217Y0435686D01*
X0147063Y0436335D01*
X0147712Y0437181D01*
X0148120Y0438167D01*
X0148259Y0439224D01*
X0148120Y0440281D01*
X0148087Y0440361D01*
X0148582Y0441223D01*
X0149242Y0441496D01*
X0150089Y0442145D01*
X0150738Y0442991D01*
X0151146Y0443977D01*
X0151285Y0445034D01*
X0151146Y0446091D01*
X0150738Y0447076D01*
X0150089Y0447922D01*
X0149242Y0448571D01*
X0148257Y0448980D01*
X0147200Y0449119D01*
D02*
G37*
G36*
X0348444Y0416225D02*
X0347387Y0416086D01*
X0346402Y0415678D01*
X0345556Y0415029D01*
X0344906Y0414183D01*
X0344498Y0413198D01*
X0344359Y0412140D01*
X0344498Y0411083D01*
X0344906Y0410098D01*
X0345556Y0409252D01*
X0346402Y0408603D01*
X0347387Y0408194D01*
X0348444Y0408055D01*
X0349501Y0408194D01*
X0350487Y0408603D01*
X0351333Y0409252D01*
X0351982Y0410098D01*
X0352390Y0411083D01*
X0352529Y0412140D01*
X0352390Y0413198D01*
X0351982Y0414183D01*
X0351333Y0415029D01*
X0350487Y0415678D01*
X0349501Y0416086D01*
X0348444Y0416225D01*
D02*
G37*
G36*
X0369711Y0415202D02*
X0368654Y0415063D01*
X0367669Y0414655D01*
X0366823Y0414006D01*
X0366173Y0413160D01*
X0365765Y0412175D01*
X0365626Y0411118D01*
X0365765Y0410060D01*
X0366173Y0409075D01*
X0366823Y0408229D01*
X0367669Y0407580D01*
X0368654Y0407172D01*
X0369711Y0407032D01*
X0370768Y0407172D01*
X0371754Y0407580D01*
X0372600Y0408229D01*
X0373249Y0409075D01*
X0373657Y0410060D01*
X0373796Y0411118D01*
X0373657Y0412175D01*
X0373249Y0413160D01*
X0372600Y0414006D01*
X0371754Y0414655D01*
X0370768Y0415063D01*
X0369711Y0415202D01*
D02*
G37*
G36*
X0340311Y0398485D02*
X0339254Y0398346D01*
X0338268Y0397938D01*
X0337422Y0397288D01*
X0336773Y0396443D01*
X0336365Y0395457D01*
X0336226Y0394400D01*
X0336365Y0393343D01*
X0336773Y0392357D01*
X0337422Y0391512D01*
X0338268Y0390862D01*
X0339254Y0390454D01*
X0340311Y0390315D01*
X0341368Y0390454D01*
X0342354Y0390862D01*
X0343199Y0391512D01*
X0343849Y0392357D01*
X0344257Y0393343D01*
X0344396Y0394400D01*
X0344257Y0395457D01*
X0343849Y0396443D01*
X0343199Y0397288D01*
X0342354Y0397938D01*
X0341368Y0398346D01*
X0340311Y0398485D01*
D02*
G37*
G36*
X0112608Y0398242D02*
X0111551Y0398103D01*
X0110566Y0397695D01*
X0109720Y0397045D01*
X0109071Y0396199D01*
X0108663Y0395214D01*
X0108523Y0394157D01*
X0108663Y0393100D01*
X0109071Y0392115D01*
X0109720Y0391268D01*
X0110566Y0390619D01*
X0111551Y0390211D01*
X0112608Y0390072D01*
X0113666Y0390211D01*
X0114651Y0390619D01*
X0115497Y0391268D01*
X0116146Y0392115D01*
X0116554Y0393100D01*
X0116693Y0394157D01*
X0116554Y0395214D01*
X0116146Y0396199D01*
X0115497Y0397045D01*
X0114651Y0397695D01*
X0113666Y0398103D01*
X0112608Y0398242D01*
D02*
G37*
G36*
X0279076Y0395877D02*
X0278019Y0395738D01*
X0277033Y0395329D01*
X0276187Y0394680D01*
X0275538Y0393834D01*
X0275130Y0392849D01*
X0274991Y0391792D01*
X0275130Y0390735D01*
X0275538Y0389749D01*
X0276187Y0388903D01*
X0277033Y0388254D01*
X0278019Y0387846D01*
X0279076Y0387707D01*
X0280133Y0387846D01*
X0281118Y0388254D01*
X0281964Y0388903D01*
X0282614Y0389749D01*
X0283022Y0390735D01*
X0283161Y0391792D01*
X0283022Y0392849D01*
X0282614Y0393834D01*
X0281964Y0394680D01*
X0281118Y0395329D01*
X0280133Y0395738D01*
X0279076Y0395877D01*
D02*
G37*
G36*
X0325675Y0392630D02*
X0324618Y0392491D01*
X0323632Y0392083D01*
X0322786Y0391434D01*
X0322137Y0390588D01*
X0321729Y0389602D01*
X0321590Y0388545D01*
X0321729Y0387488D01*
X0322137Y0386503D01*
X0322786Y0385657D01*
X0323632Y0385008D01*
X0324618Y0384599D01*
X0325675Y0384460D01*
X0326732Y0384599D01*
X0327717Y0385008D01*
X0328563Y0385657D01*
X0329212Y0386503D01*
X0329621Y0387488D01*
X0329760Y0388545D01*
X0329621Y0389602D01*
X0329212Y0390588D01*
X0328563Y0391434D01*
X0327717Y0392083D01*
X0326732Y0392491D01*
X0325675Y0392630D01*
D02*
G37*
G36*
X0269200Y0391548D02*
X0268143Y0391409D01*
X0267158Y0391001D01*
X0266312Y0390352D01*
X0265662Y0389506D01*
X0265254Y0388520D01*
X0265115Y0387463D01*
X0265254Y0386406D01*
X0265662Y0385420D01*
X0266312Y0384575D01*
X0267158Y0383925D01*
X0268143Y0383517D01*
X0269200Y0383378D01*
X0270257Y0383517D01*
X0271242Y0383925D01*
X0272089Y0384575D01*
X0272738Y0385420D01*
X0273146Y0386406D01*
X0273285Y0387463D01*
X0273146Y0388520D01*
X0272738Y0389506D01*
X0272089Y0390352D01*
X0271242Y0391001D01*
X0270257Y0391409D01*
X0269200Y0391548D01*
D02*
G37*
G36*
X0251273Y0391161D02*
X0250216Y0391022D01*
X0249231Y0390614D01*
X0248385Y0389965D01*
X0247736Y0389119D01*
X0247328Y0388133D01*
X0247188Y0387076D01*
X0247328Y0386019D01*
X0247736Y0385033D01*
X0248385Y0384188D01*
X0249231Y0383538D01*
X0250216Y0383130D01*
X0251273Y0382991D01*
X0252331Y0383130D01*
X0253316Y0383538D01*
X0254162Y0384188D01*
X0254811Y0385033D01*
X0255219Y0386019D01*
X0255358Y0387076D01*
X0255219Y0388133D01*
X0254811Y0389119D01*
X0254162Y0389965D01*
X0253316Y0390614D01*
X0252331Y0391022D01*
X0251273Y0391161D01*
D02*
G37*
G36*
X0103269Y0391127D02*
X0102212Y0390988D01*
X0101226Y0390580D01*
X0100380Y0389931D01*
X0099731Y0389085D01*
X0099323Y0388100D01*
X0099184Y0387042D01*
X0099323Y0385985D01*
X0099731Y0385000D01*
X0100380Y0384154D01*
X0101226Y0383505D01*
X0102212Y0383097D01*
X0103269Y0382958D01*
X0104326Y0383097D01*
X0105311Y0383505D01*
X0106157Y0384154D01*
X0106807Y0385000D01*
X0107215Y0385985D01*
X0107354Y0387042D01*
X0107215Y0388100D01*
X0106807Y0389085D01*
X0106157Y0389931D01*
X0105311Y0390580D01*
X0104326Y0390988D01*
X0103269Y0391127D01*
D02*
G37*
G36*
X0309379Y0386558D02*
X0308321Y0386418D01*
X0307336Y0386010D01*
X0306490Y0385361D01*
X0305841Y0384515D01*
X0305433Y0383530D01*
X0305294Y0382473D01*
X0305433Y0381415D01*
X0305841Y0380430D01*
X0306490Y0379584D01*
X0307336Y0378935D01*
X0308321Y0378527D01*
X0309379Y0378388D01*
X0310436Y0378527D01*
X0311421Y0378935D01*
X0312267Y0379584D01*
X0312916Y0380430D01*
X0313324Y0381415D01*
X0313464Y0382473D01*
X0313324Y0383530D01*
X0312916Y0384515D01*
X0312267Y0385361D01*
X0311421Y0386010D01*
X0310436Y0386418D01*
X0309379Y0386558D01*
D02*
G37*
G36*
X0130597Y0391202D02*
X0129539Y0391063D01*
X0128554Y0390655D01*
X0127708Y0390006D01*
X0127059Y0389160D01*
X0126651Y0388175D01*
X0126512Y0387117D01*
X0126651Y0386060D01*
X0126989Y0385243D01*
X0126252Y0384938D01*
X0125406Y0384289D01*
X0124757Y0383442D01*
X0124349Y0382457D01*
X0124209Y0381400D01*
X0124349Y0380343D01*
X0124757Y0379358D01*
X0125406Y0378512D01*
X0126252Y0377862D01*
X0127237Y0377454D01*
X0128295Y0377315D01*
X0129352Y0377454D01*
X0130337Y0377862D01*
X0130378Y0377893D01*
X0131287Y0377517D01*
X0132344Y0377378D01*
X0133402Y0377517D01*
X0134387Y0377925D01*
X0135233Y0378574D01*
X0135882Y0379420D01*
X0136290Y0380405D01*
X0136429Y0381463D01*
X0136290Y0382520D01*
X0135882Y0383505D01*
X0135233Y0384351D01*
X0134387Y0385000D01*
X0134145Y0385100D01*
X0134542Y0386060D01*
X0134682Y0387117D01*
X0134542Y0388175D01*
X0134134Y0389160D01*
X0133485Y0390006D01*
X0132639Y0390655D01*
X0131654Y0391063D01*
X0130597Y0391202D01*
D02*
G37*
G36*
X0259300Y0385485D02*
X0258243Y0385346D01*
X0257258Y0384938D01*
X0256412Y0384289D01*
X0255763Y0383442D01*
X0255354Y0382457D01*
X0255215Y0381400D01*
X0255354Y0380343D01*
X0255763Y0379358D01*
X0256412Y0378512D01*
X0257258Y0377862D01*
X0258243Y0377454D01*
X0259300Y0377315D01*
X0260357Y0377454D01*
X0261343Y0377862D01*
X0262189Y0378512D01*
X0262838Y0379358D01*
X0263246Y0380343D01*
X0263385Y0381400D01*
X0263246Y0382457D01*
X0262838Y0383442D01*
X0262189Y0384289D01*
X0261343Y0384938D01*
X0260357Y0385346D01*
X0259300Y0385485D01*
D02*
G37*
G36*
X0336773Y0381335D02*
X0335716Y0381196D01*
X0334731Y0380788D01*
X0333885Y0380139D01*
X0333236Y0379293D01*
X0332828Y0378308D01*
X0332688Y0377250D01*
X0332828Y0376193D01*
X0333236Y0375208D01*
X0333768Y0374515D01*
X0333642Y0374418D01*
X0332993Y0373572D01*
X0332585Y0372587D01*
X0332445Y0371530D01*
X0332585Y0370473D01*
X0332993Y0369487D01*
X0333642Y0368641D01*
X0334488Y0367992D01*
X0335473Y0367584D01*
X0336530Y0367445D01*
X0337587Y0367584D01*
X0338573Y0367992D01*
X0339419Y0368641D01*
X0340068Y0369487D01*
X0340476Y0370473D01*
X0340615Y0371530D01*
X0340476Y0372587D01*
X0340068Y0373572D01*
X0339633Y0374140D01*
X0339662Y0374362D01*
X0340311Y0375208D01*
X0340719Y0376193D01*
X0340858Y0377250D01*
X0340719Y0378308D01*
X0340311Y0379293D01*
X0339662Y0380139D01*
X0338816Y0380788D01*
X0337831Y0381196D01*
X0336773Y0381335D01*
D02*
G37*
G36*
X0279200Y0375485D02*
X0278143Y0375346D01*
X0277157Y0374938D01*
X0276311Y0374289D01*
X0275662Y0373443D01*
X0275254Y0372457D01*
X0275115Y0371400D01*
X0275254Y0370343D01*
X0275662Y0369357D01*
X0276311Y0368512D01*
X0277157Y0367862D01*
X0278143Y0367454D01*
X0279200Y0367315D01*
X0280257Y0367454D01*
X0281242Y0367862D01*
X0282088Y0368512D01*
X0282738Y0369357D01*
X0283146Y0370343D01*
X0283285Y0371400D01*
X0283146Y0372457D01*
X0282738Y0373443D01*
X0282088Y0374289D01*
X0281242Y0374938D01*
X0280257Y0375346D01*
X0279200Y0375485D01*
D02*
G37*
G36*
X0346083Y0375062D02*
X0345025Y0374923D01*
X0344040Y0374515D01*
X0343194Y0373866D01*
X0342545Y0373020D01*
X0342137Y0372035D01*
X0341998Y0370977D01*
X0342137Y0369920D01*
X0342545Y0368935D01*
X0343194Y0368089D01*
X0344040Y0367440D01*
X0345025Y0367032D01*
X0346083Y0366893D01*
X0347140Y0367032D01*
X0348125Y0367440D01*
X0348971Y0368089D01*
X0349620Y0368935D01*
X0350028Y0369920D01*
X0350168Y0370977D01*
X0350028Y0372035D01*
X0349620Y0373020D01*
X0348971Y0373866D01*
X0348125Y0374515D01*
X0347140Y0374923D01*
X0346083Y0375062D01*
D02*
G37*
G36*
X0110898Y0372463D02*
X0109841Y0372324D01*
X0108856Y0371916D01*
X0108010Y0371267D01*
X0107360Y0370421D01*
X0106952Y0369436D01*
X0106813Y0368378D01*
X0106952Y0367321D01*
X0107360Y0366336D01*
X0108010Y0365490D01*
X0108856Y0364841D01*
X0109841Y0364433D01*
X0110898Y0364294D01*
X0111955Y0364433D01*
X0112941Y0364841D01*
X0113787Y0365490D01*
X0114436Y0366336D01*
X0114844Y0367321D01*
X0114983Y0368378D01*
X0114844Y0369436D01*
X0114436Y0370421D01*
X0113787Y0371267D01*
X0112941Y0371916D01*
X0111955Y0372324D01*
X0110898Y0372463D01*
D02*
G37*
G36*
X0392093Y0375380D02*
X0390947Y0375267D01*
X0389845Y0374933D01*
X0388830Y0374390D01*
X0387939Y0373659D01*
X0387209Y0372769D01*
X0386666Y0371753D01*
X0386332Y0370651D01*
X0386219Y0369505D01*
X0386332Y0368359D01*
X0386666Y0367257D01*
X0387209Y0366241D01*
X0387939Y0365351D01*
X0388830Y0364620D01*
X0389845Y0364077D01*
X0390947Y0363743D01*
X0392093Y0363630D01*
X0393239Y0363743D01*
X0394342Y0364077D01*
X0395357Y0364620D01*
X0396248Y0365351D01*
X0396978Y0366241D01*
X0397521Y0367257D01*
X0397855Y0368359D01*
X0397968Y0369505D01*
X0397855Y0370651D01*
X0397521Y0371753D01*
X0396978Y0372769D01*
X0396248Y0373659D01*
X0395357Y0374390D01*
X0394342Y0374933D01*
X0393239Y0375267D01*
X0392093Y0375380D01*
D02*
G37*
G36*
X0269200Y0371552D02*
X0268143Y0371413D01*
X0267158Y0371005D01*
X0266312Y0370355D01*
X0265662Y0369509D01*
X0265254Y0368524D01*
X0265115Y0367467D01*
X0265254Y0366410D01*
X0265662Y0365424D01*
X0266312Y0364578D01*
X0267158Y0363929D01*
X0268143Y0363521D01*
X0269200Y0363382D01*
X0270257Y0363521D01*
X0271242Y0363929D01*
X0272089Y0364578D01*
X0272738Y0365424D01*
X0273146Y0366410D01*
X0273285Y0367467D01*
X0273146Y0368524D01*
X0272738Y0369509D01*
X0272089Y0370355D01*
X0271242Y0371005D01*
X0270257Y0371413D01*
X0269200Y0371552D01*
D02*
G37*
G36*
X0321431Y0375615D02*
X0320374Y0375476D01*
X0319388Y0375068D01*
X0318542Y0374418D01*
X0317893Y0373572D01*
X0317485Y0372587D01*
X0317346Y0371530D01*
X0317485Y0370473D01*
X0317893Y0369487D01*
X0318148Y0369155D01*
X0318308Y0368309D01*
X0318088Y0367998D01*
X0317662Y0367442D01*
X0317254Y0366457D01*
X0317115Y0365400D01*
X0317254Y0364343D01*
X0317662Y0363357D01*
X0318312Y0362511D01*
X0319158Y0361862D01*
X0320143Y0361454D01*
X0321200Y0361315D01*
X0322257Y0361454D01*
X0323242Y0361862D01*
X0324089Y0362511D01*
X0324738Y0363357D01*
X0325146Y0364343D01*
X0325285Y0365400D01*
X0325146Y0366457D01*
X0324738Y0367442D01*
X0324483Y0367775D01*
X0324323Y0368621D01*
X0324542Y0368932D01*
X0324968Y0369487D01*
X0325377Y0370473D01*
X0325516Y0371530D01*
X0325377Y0372587D01*
X0324968Y0373572D01*
X0324319Y0374418D01*
X0323473Y0375068D01*
X0322488Y0375476D01*
X0321431Y0375615D01*
D02*
G37*
G36*
X0305135Y0369485D02*
X0304077Y0369346D01*
X0303092Y0368938D01*
X0302246Y0368288D01*
X0301597Y0367442D01*
X0301189Y0366457D01*
X0301050Y0365400D01*
X0301189Y0364343D01*
X0301597Y0363357D01*
X0302246Y0362511D01*
X0303092Y0361862D01*
X0304077Y0361454D01*
X0305135Y0361315D01*
X0306192Y0361454D01*
X0307177Y0361862D01*
X0308023Y0362511D01*
X0308672Y0363357D01*
X0309080Y0364343D01*
X0309220Y0365400D01*
X0309080Y0366457D01*
X0308672Y0367442D01*
X0308023Y0368288D01*
X0307177Y0368938D01*
X0306192Y0369346D01*
X0305135Y0369485D01*
D02*
G37*
G36*
X0168517Y0370985D02*
X0167459Y0370846D01*
X0166474Y0370438D01*
X0165628Y0369788D01*
X0164979Y0368942D01*
X0164571Y0367957D01*
X0164518Y0367554D01*
X0163692Y0367445D01*
X0162707Y0367037D01*
X0161861Y0366388D01*
X0161212Y0365542D01*
X0160803Y0364556D01*
X0160664Y0363499D01*
X0160803Y0362442D01*
X0161212Y0361457D01*
X0161861Y0360611D01*
X0162707Y0359962D01*
X0163692Y0359553D01*
X0164749Y0359414D01*
X0165806Y0359553D01*
X0166792Y0359962D01*
X0167638Y0360611D01*
X0168287Y0361457D01*
X0168695Y0362442D01*
X0168748Y0362845D01*
X0169574Y0362954D01*
X0170559Y0363362D01*
X0171405Y0364011D01*
X0172054Y0364857D01*
X0172462Y0365843D01*
X0172602Y0366900D01*
X0172462Y0367957D01*
X0172054Y0368942D01*
X0171405Y0369788D01*
X0170559Y0370438D01*
X0169574Y0370846D01*
X0168517Y0370985D01*
D02*
G37*
G36*
X0276200Y0365485D02*
X0275143Y0365346D01*
X0274158Y0364938D01*
X0273311Y0364288D01*
X0272662Y0363442D01*
X0272254Y0362457D01*
X0272115Y0361400D01*
X0272254Y0360343D01*
X0272662Y0359358D01*
X0273311Y0358511D01*
X0274158Y0357862D01*
X0275143Y0357454D01*
X0276200Y0357315D01*
X0277257Y0357454D01*
X0278242Y0357862D01*
X0279088Y0358511D01*
X0279738Y0359358D01*
X0280146Y0360343D01*
X0280285Y0361400D01*
X0280146Y0362457D01*
X0279738Y0363442D01*
X0279088Y0364288D01*
X0278242Y0364938D01*
X0277257Y0365346D01*
X0276200Y0365485D01*
D02*
G37*
G36*
X0253365Y0364485D02*
X0252308Y0364346D01*
X0251323Y0363938D01*
X0250477Y0363288D01*
X0249828Y0362442D01*
X0249420Y0361457D01*
X0249280Y0360400D01*
X0249420Y0359343D01*
X0249828Y0358358D01*
X0249917Y0358241D01*
X0249569Y0357402D01*
X0249143Y0357346D01*
X0248158Y0356938D01*
X0247311Y0356289D01*
X0246662Y0355443D01*
X0246254Y0354457D01*
X0246115Y0353400D01*
X0246254Y0352343D01*
X0246662Y0351358D01*
X0247311Y0350512D01*
X0248158Y0349862D01*
X0249143Y0349454D01*
X0250200Y0349315D01*
X0251257Y0349454D01*
X0252242Y0349862D01*
X0253088Y0350512D01*
X0253738Y0351358D01*
X0254146Y0352343D01*
X0254285Y0353400D01*
X0254146Y0354457D01*
X0253738Y0355443D01*
X0253649Y0355559D01*
X0253996Y0356398D01*
X0254423Y0356454D01*
X0255408Y0356862D01*
X0256254Y0357511D01*
X0256353Y0357641D01*
X0256985Y0357441D01*
X0257122Y0357350D01*
X0257254Y0356343D01*
X0257662Y0355358D01*
X0258312Y0354511D01*
X0259157Y0353862D01*
X0260143Y0353454D01*
X0261200Y0353315D01*
X0262257Y0353454D01*
X0263243Y0353862D01*
X0264089Y0354511D01*
X0264738Y0355358D01*
X0265146Y0356343D01*
X0265285Y0357400D01*
X0265146Y0358457D01*
X0264738Y0359442D01*
X0264089Y0360289D01*
X0263243Y0360938D01*
X0262257Y0361346D01*
X0261200Y0361485D01*
X0260143Y0361346D01*
X0259157Y0360938D01*
X0258312Y0360289D01*
X0258212Y0360159D01*
X0257580Y0360359D01*
X0257444Y0360450D01*
X0257311Y0361457D01*
X0256903Y0362442D01*
X0256254Y0363288D01*
X0255408Y0363938D01*
X0254423Y0364346D01*
X0253365Y0364485D01*
D02*
G37*
G36*
X0392093Y0355695D02*
X0390947Y0355582D01*
X0389845Y0355247D01*
X0388830Y0354705D01*
X0387939Y0353974D01*
X0387209Y0353084D01*
X0386666Y0352068D01*
X0386332Y0350966D01*
X0386219Y0349820D01*
X0386332Y0348674D01*
X0386666Y0347572D01*
X0387209Y0346556D01*
X0387939Y0345666D01*
X0388830Y0344935D01*
X0389845Y0344392D01*
X0390947Y0344058D01*
X0392093Y0343945D01*
X0393239Y0344058D01*
X0394342Y0344392D01*
X0395357Y0344935D01*
X0396248Y0345666D01*
X0396978Y0346556D01*
X0397521Y0347572D01*
X0397855Y0348674D01*
X0397968Y0349820D01*
X0397855Y0350966D01*
X0397521Y0352068D01*
X0396978Y0353084D01*
X0396248Y0353974D01*
X0395357Y0354705D01*
X0394342Y0355247D01*
X0393239Y0355582D01*
X0392093Y0355695D01*
D02*
G37*
G36*
X0114206Y0340579D02*
X0113149Y0340439D01*
X0112163Y0340031D01*
X0111318Y0339382D01*
X0110668Y0338536D01*
X0110260Y0337551D01*
X0110121Y0336494D01*
X0110260Y0335436D01*
X0110668Y0334451D01*
X0110807Y0334270D01*
X0110381Y0333533D01*
X0110200Y0333557D01*
X0109143Y0333417D01*
X0108158Y0333009D01*
X0107311Y0332360D01*
X0106662Y0331514D01*
X0106254Y0330529D01*
X0106115Y0329472D01*
X0106254Y0328414D01*
X0106662Y0327429D01*
X0107311Y0326583D01*
X0108158Y0325934D01*
X0109143Y0325526D01*
X0110200Y0325387D01*
X0111257Y0325526D01*
X0112242Y0325934D01*
X0113089Y0326583D01*
X0113738Y0327429D01*
X0114146Y0328414D01*
X0114285Y0329472D01*
X0114146Y0330529D01*
X0113738Y0331514D01*
X0113599Y0331695D01*
X0114025Y0332433D01*
X0114206Y0332409D01*
X0115263Y0332548D01*
X0116248Y0332956D01*
X0117095Y0333605D01*
X0117744Y0334451D01*
X0118152Y0335436D01*
X0118291Y0336494D01*
X0118152Y0337551D01*
X0117744Y0338536D01*
X0117095Y0339382D01*
X0116248Y0340031D01*
X0115263Y0340439D01*
X0114206Y0340579D01*
D02*
G37*
G36*
X0242049Y0336329D02*
X0240992Y0336190D01*
X0240006Y0335782D01*
X0239160Y0335133D01*
X0238511Y0334286D01*
X0238103Y0333301D01*
X0237964Y0332244D01*
X0238103Y0331187D01*
X0238511Y0330202D01*
X0238652Y0330018D01*
X0238167Y0329646D01*
X0237619Y0328933D01*
X0237110Y0328691D01*
X0236763Y0328598D01*
X0236737Y0328618D01*
X0235752Y0329026D01*
X0234695Y0329165D01*
X0233637Y0329026D01*
X0232652Y0328618D01*
X0231806Y0327968D01*
X0231157Y0327122D01*
X0230749Y0326137D01*
X0230609Y0325080D01*
X0230687Y0324490D01*
X0230085Y0324241D01*
X0229239Y0323592D01*
X0228590Y0322746D01*
X0228182Y0321760D01*
X0228042Y0320703D01*
X0228182Y0319646D01*
X0228570Y0318709D01*
X0228493Y0318518D01*
X0228125Y0317974D01*
X0227699Y0318030D01*
X0226642Y0317891D01*
X0225656Y0317482D01*
X0224810Y0316833D01*
X0224161Y0315987D01*
X0223753Y0315002D01*
X0223614Y0313945D01*
X0223753Y0312888D01*
X0224161Y0311902D01*
X0224810Y0311056D01*
X0225656Y0310407D01*
X0226642Y0309999D01*
X0227699Y0309860D01*
X0228756Y0309999D01*
X0229741Y0310407D01*
X0230587Y0311056D01*
X0230850Y0311398D01*
X0230923Y0311368D01*
X0231980Y0311229D01*
X0233037Y0311368D01*
X0234022Y0311776D01*
X0234868Y0312425D01*
X0235518Y0313271D01*
X0235926Y0314257D01*
X0236065Y0315314D01*
X0235926Y0316371D01*
X0235518Y0317356D01*
X0235091Y0317913D01*
X0235665Y0318661D01*
X0236073Y0319646D01*
X0236212Y0320703D01*
X0236135Y0321293D01*
X0236737Y0321542D01*
X0237583Y0322191D01*
X0238232Y0323037D01*
X0238717Y0323167D01*
X0239138Y0323168D01*
X0239998Y0322812D01*
X0241055Y0322673D01*
X0242112Y0322812D01*
X0243098Y0323220D01*
X0243944Y0323869D01*
X0244593Y0324715D01*
X0245001Y0325700D01*
X0245140Y0326758D01*
X0245001Y0327815D01*
X0244593Y0328800D01*
X0244452Y0328983D01*
X0244937Y0329356D01*
X0245587Y0330202D01*
X0245995Y0331187D01*
X0246134Y0332244D01*
X0245995Y0333301D01*
X0245587Y0334286D01*
X0244937Y0335133D01*
X0244092Y0335782D01*
X0243106Y0336190D01*
X0242049Y0336329D01*
D02*
G37*
G36*
X0392093Y0336010D02*
X0390947Y0335897D01*
X0389845Y0335562D01*
X0388830Y0335020D01*
X0387939Y0334289D01*
X0387209Y0333399D01*
X0386666Y0332383D01*
X0386332Y0331281D01*
X0386219Y0330135D01*
X0386332Y0328989D01*
X0386666Y0327887D01*
X0387209Y0326871D01*
X0387939Y0325981D01*
X0388830Y0325250D01*
X0389845Y0324707D01*
X0390947Y0324373D01*
X0392093Y0324260D01*
X0393239Y0324373D01*
X0394342Y0324707D01*
X0395357Y0325250D01*
X0396248Y0325981D01*
X0396978Y0326871D01*
X0397521Y0327887D01*
X0397855Y0328989D01*
X0397968Y0330135D01*
X0397855Y0331281D01*
X0397521Y0332383D01*
X0396978Y0333399D01*
X0396248Y0334289D01*
X0395357Y0335020D01*
X0394342Y0335562D01*
X0393239Y0335897D01*
X0392093Y0336010D01*
D02*
G37*
G36*
X0126025Y0332297D02*
X0124968Y0332158D01*
X0123982Y0331750D01*
X0123136Y0331101D01*
X0122487Y0330255D01*
X0122079Y0329270D01*
X0121940Y0328212D01*
X0122079Y0327155D01*
X0122487Y0326170D01*
X0123136Y0325324D01*
X0123982Y0324675D01*
X0124968Y0324267D01*
X0126025Y0324128D01*
X0127082Y0324267D01*
X0128067Y0324675D01*
X0128913Y0325324D01*
X0129562Y0326170D01*
X0129971Y0327155D01*
X0130110Y0328212D01*
X0129971Y0329270D01*
X0129562Y0330255D01*
X0128913Y0331101D01*
X0128067Y0331750D01*
X0127082Y0332158D01*
X0126025Y0332297D01*
D02*
G37*
G36*
X0158347Y0330653D02*
X0157290Y0330514D01*
X0156305Y0330106D01*
X0155459Y0329457D01*
X0154809Y0328611D01*
X0154401Y0327625D01*
X0154262Y0326568D01*
X0154401Y0325511D01*
X0154809Y0324526D01*
X0155459Y0323680D01*
X0156305Y0323031D01*
X0157290Y0322622D01*
X0158347Y0322483D01*
X0159404Y0322622D01*
X0160390Y0323031D01*
X0161236Y0323680D01*
X0161885Y0324526D01*
X0162293Y0325511D01*
X0162432Y0326568D01*
X0162293Y0327625D01*
X0161885Y0328611D01*
X0161236Y0329457D01*
X0160390Y0330106D01*
X0159404Y0330514D01*
X0158347Y0330653D01*
D02*
G37*
G36*
X0131644Y0322929D02*
X0130587Y0322790D01*
X0129602Y0322382D01*
X0128756Y0321733D01*
X0128107Y0320887D01*
X0127699Y0319901D01*
X0127559Y0318844D01*
X0127699Y0317787D01*
X0128107Y0316802D01*
X0128756Y0315956D01*
X0129602Y0315306D01*
X0130587Y0314898D01*
X0131644Y0314759D01*
X0132702Y0314898D01*
X0133687Y0315306D01*
X0134533Y0315956D01*
X0135182Y0316802D01*
X0135590Y0317787D01*
X0135729Y0318844D01*
X0135590Y0319901D01*
X0135182Y0320887D01*
X0134533Y0321733D01*
X0133687Y0322382D01*
X0132702Y0322790D01*
X0131644Y0322929D01*
D02*
G37*
G36*
X0139225Y0317485D02*
X0138168Y0317346D01*
X0137183Y0316938D01*
X0136337Y0316288D01*
X0135687Y0315442D01*
X0135279Y0314457D01*
X0135140Y0313400D01*
X0135279Y0312343D01*
X0135687Y0311357D01*
X0136337Y0310511D01*
X0137183Y0309862D01*
X0138168Y0309454D01*
X0139225Y0309315D01*
X0140282Y0309454D01*
X0141268Y0309862D01*
X0142114Y0310511D01*
X0142763Y0311357D01*
X0143171Y0312343D01*
X0143310Y0313400D01*
X0143171Y0314457D01*
X0142763Y0315442D01*
X0142114Y0316288D01*
X0141268Y0316938D01*
X0140282Y0317346D01*
X0139225Y0317485D01*
D02*
G37*
G36*
X0107206Y0316751D02*
X0106149Y0316612D01*
X0105164Y0316204D01*
X0104317Y0315555D01*
X0103668Y0314709D01*
X0103260Y0313723D01*
X0103121Y0312666D01*
X0103260Y0311609D01*
X0103668Y0310624D01*
X0104317Y0309778D01*
X0105164Y0309128D01*
X0106149Y0308720D01*
X0107206Y0308581D01*
X0108263Y0308720D01*
X0109248Y0309128D01*
X0109881Y0309614D01*
X0110669Y0309010D01*
X0111654Y0308602D01*
X0112711Y0308463D01*
X0113768Y0308602D01*
X0114753Y0309010D01*
X0115599Y0309659D01*
X0116249Y0310505D01*
X0116657Y0311491D01*
X0116796Y0312548D01*
X0116657Y0313605D01*
X0116249Y0314590D01*
X0115599Y0315436D01*
X0114753Y0316085D01*
X0113768Y0316494D01*
X0112711Y0316633D01*
X0111654Y0316494D01*
X0110669Y0316085D01*
X0110036Y0315600D01*
X0109248Y0316204D01*
X0108263Y0316612D01*
X0107206Y0316751D01*
D02*
G37*
G36*
X0150200Y0314485D02*
X0149143Y0314346D01*
X0148158Y0313938D01*
X0147311Y0313288D01*
X0146662Y0312442D01*
X0146254Y0311457D01*
X0146115Y0310400D01*
X0146254Y0309343D01*
X0146662Y0308358D01*
X0147311Y0307511D01*
X0148158Y0306862D01*
X0149143Y0306454D01*
X0150200Y0306315D01*
X0151257Y0306454D01*
X0152243Y0306862D01*
X0153088Y0307511D01*
X0153738Y0308358D01*
X0154146Y0309343D01*
X0154285Y0310400D01*
X0154146Y0311457D01*
X0153738Y0312442D01*
X0153088Y0313288D01*
X0152243Y0313938D01*
X0151257Y0314346D01*
X0150200Y0314485D01*
D02*
G37*
G36*
X0393767Y0316332D02*
X0390420D01*
X0389331Y0316189D01*
X0388316Y0315768D01*
X0387444Y0315100D01*
X0386775Y0314228D01*
X0386354Y0313213D01*
X0386211Y0312123D01*
Y0308777D01*
X0386354Y0307687D01*
X0386775Y0306672D01*
X0387444Y0305800D01*
X0388316Y0305131D01*
X0389331Y0304711D01*
X0390420Y0304568D01*
X0393767D01*
X0394856Y0304711D01*
X0395871Y0305131D01*
X0396743Y0305800D01*
X0397412Y0306672D01*
X0397832Y0307687D01*
X0397976Y0308777D01*
Y0312123D01*
X0397832Y0313213D01*
X0397412Y0314228D01*
X0396743Y0315100D01*
X0395871Y0315768D01*
X0394856Y0316189D01*
X0393767Y0316332D01*
D02*
G37*
G36*
X0126200Y0312485D02*
X0125143Y0312346D01*
X0124158Y0311938D01*
X0123311Y0311288D01*
X0122662Y0310442D01*
X0122254Y0309457D01*
X0122115Y0308400D01*
X0122254Y0307343D01*
X0122662Y0306358D01*
X0123311Y0305511D01*
X0124158Y0304862D01*
X0125143Y0304454D01*
X0126200Y0304315D01*
X0126440Y0304347D01*
X0126993Y0303626D01*
X0126986Y0303608D01*
X0126847Y0302551D01*
X0126986Y0301494D01*
X0127394Y0300508D01*
X0128043Y0299662D01*
X0128889Y0299013D01*
X0129875Y0298605D01*
X0130932Y0298466D01*
X0131989Y0298605D01*
X0132974Y0299013D01*
X0133820Y0299662D01*
X0134469Y0300508D01*
X0134878Y0301494D01*
X0135017Y0302551D01*
X0134878Y0303608D01*
X0134469Y0304593D01*
X0133820Y0305439D01*
X0132974Y0306088D01*
X0131989Y0306497D01*
X0130932Y0306636D01*
X0130692Y0306604D01*
X0130139Y0307325D01*
X0130146Y0307343D01*
X0130285Y0308400D01*
X0130146Y0309457D01*
X0129738Y0310442D01*
X0129088Y0311288D01*
X0128243Y0311938D01*
X0127257Y0312346D01*
X0126200Y0312485D01*
D02*
G37*
G36*
X0328823Y0304042D02*
X0327766Y0303903D01*
X0326780Y0303494D01*
X0325934Y0302845D01*
X0325285Y0301999D01*
X0324877Y0301014D01*
X0324738Y0299957D01*
X0324877Y0298900D01*
X0325285Y0297914D01*
X0325934Y0297068D01*
X0326780Y0296419D01*
X0327766Y0296011D01*
X0328823Y0295872D01*
X0329880Y0296011D01*
X0330865Y0296419D01*
X0331711Y0297068D01*
X0332361Y0297914D01*
X0332769Y0298900D01*
X0332908Y0299957D01*
X0332769Y0301014D01*
X0332361Y0301999D01*
X0331711Y0302845D01*
X0330865Y0303494D01*
X0329880Y0303903D01*
X0328823Y0304042D01*
D02*
G37*
G36*
X0103915Y0303128D02*
X0102857Y0302989D01*
X0101872Y0302581D01*
X0101026Y0301932D01*
X0100377Y0301085D01*
X0099969Y0300100D01*
X0099830Y0299043D01*
X0099969Y0297986D01*
X0100377Y0297001D01*
X0101026Y0296154D01*
X0101872Y0295505D01*
X0102857Y0295097D01*
X0103915Y0294958D01*
X0104972Y0295097D01*
X0105957Y0295505D01*
X0106803Y0296154D01*
X0107452Y0297001D01*
X0107860Y0297986D01*
X0108000Y0299043D01*
X0107860Y0300100D01*
X0107452Y0301085D01*
X0106803Y0301932D01*
X0105957Y0302581D01*
X0104972Y0302989D01*
X0103915Y0303128D01*
D02*
G37*
G36*
X0392093Y0295515D02*
X0390655Y0295325D01*
X0389314Y0294770D01*
X0388162Y0293886D01*
X0387564Y0293107D01*
X0387559Y0293104D01*
X0386628D01*
X0386623Y0293107D01*
X0386024Y0293886D01*
X0384873Y0294770D01*
X0383532Y0295325D01*
X0382093Y0295515D01*
X0380655Y0295325D01*
X0379314Y0294770D01*
X0378162Y0293886D01*
X0377279Y0292735D01*
X0376724Y0291394D01*
X0376604Y0290484D01*
X0376552Y0290091D01*
X0375758D01*
X0375651Y0290906D01*
X0375243Y0291891D01*
X0374594Y0292737D01*
X0373747Y0293387D01*
X0372762Y0293795D01*
X0371705Y0293934D01*
X0370648Y0293795D01*
X0369663Y0293387D01*
X0368817Y0292737D01*
X0368167Y0291891D01*
X0367759Y0290906D01*
X0367620Y0289849D01*
X0367759Y0288791D01*
X0368167Y0287806D01*
X0368817Y0286960D01*
X0369663Y0286311D01*
X0370648Y0285903D01*
X0371705Y0285764D01*
X0372762Y0285903D01*
X0373747Y0286311D01*
X0374594Y0286960D01*
X0375243Y0287806D01*
X0375651Y0288791D01*
X0375772Y0289713D01*
X0376566D01*
X0376616Y0289331D01*
X0376724Y0288516D01*
X0377279Y0287176D01*
X0378162Y0286024D01*
X0379314Y0285141D01*
X0380655Y0284585D01*
X0382093Y0284396D01*
X0383532Y0284585D01*
X0384873Y0285141D01*
X0386024Y0286024D01*
X0386623Y0286804D01*
X0386628Y0286807D01*
X0387559D01*
X0387564Y0286804D01*
X0388162Y0286024D01*
X0389314Y0285141D01*
X0390655Y0284585D01*
X0392093Y0284396D01*
X0393532Y0284585D01*
X0394873Y0285141D01*
X0396024Y0286024D01*
X0396336Y0286430D01*
X0397208Y0286274D01*
X0397730Y0285592D01*
X0398567Y0284950D01*
X0399542Y0284547D01*
X0400588Y0284409D01*
X0403599D01*
X0404645Y0284547D01*
X0405620Y0284950D01*
X0406456Y0285592D01*
X0407098Y0286429D01*
X0407502Y0287404D01*
X0407640Y0288450D01*
Y0291461D01*
X0407502Y0292507D01*
X0407098Y0293481D01*
X0406456Y0294318D01*
X0405620Y0294960D01*
X0404645Y0295364D01*
X0403599Y0295502D01*
X0400588D01*
X0399542Y0295364D01*
X0398567Y0294960D01*
X0397730Y0294318D01*
X0397208Y0293637D01*
X0396336Y0293481D01*
X0396024Y0293886D01*
X0394873Y0294770D01*
X0393532Y0295325D01*
X0392093Y0295515D01*
D02*
G37*
G36*
X0089200Y0349948D02*
X0087764Y0349758D01*
X0086426Y0349204D01*
X0085277Y0348323D01*
X0084396Y0347174D01*
X0083842Y0345836D01*
X0083653Y0344400D01*
X0083842Y0342964D01*
X0084396Y0341626D01*
X0085277Y0340477D01*
X0086066Y0339872D01*
X0086077Y0339851D01*
Y0338949D01*
X0086066Y0338928D01*
X0085277Y0338323D01*
X0084396Y0337174D01*
X0083842Y0335836D01*
X0083653Y0334400D01*
X0083842Y0332964D01*
X0084396Y0331626D01*
X0085277Y0330477D01*
X0086066Y0329872D01*
X0086077Y0329851D01*
Y0328949D01*
X0086066Y0328928D01*
X0085277Y0328323D01*
X0084396Y0327174D01*
X0083842Y0325836D01*
X0083653Y0324400D01*
X0083842Y0322964D01*
X0084396Y0321626D01*
X0085277Y0320477D01*
X0086072Y0319867D01*
X0086088Y0319837D01*
Y0318952D01*
X0086072Y0318922D01*
X0085277Y0318312D01*
X0084396Y0317163D01*
X0083842Y0315825D01*
X0083653Y0314389D01*
X0083842Y0312953D01*
X0084396Y0311615D01*
X0085277Y0310466D01*
X0086060Y0309866D01*
X0086067Y0309853D01*
Y0308936D01*
X0086060Y0308923D01*
X0085277Y0308323D01*
X0084396Y0307174D01*
X0083842Y0305836D01*
X0083653Y0304400D01*
X0083842Y0302964D01*
X0084396Y0301626D01*
X0085277Y0300477D01*
X0086062Y0299875D01*
X0086076Y0299850D01*
X0086072Y0298948D01*
X0086063Y0298931D01*
X0085270Y0298323D01*
X0084389Y0297174D01*
X0083834Y0295836D01*
X0083645Y0294400D01*
X0083834Y0292964D01*
X0084389Y0291626D01*
X0085270Y0290477D01*
X0086419Y0289596D01*
X0087757Y0289042D01*
X0089193Y0288853D01*
X0090629Y0289042D01*
X0091967Y0289596D01*
X0093116Y0290477D01*
X0093997Y0291626D01*
X0094551Y0292964D01*
X0094740Y0294400D01*
X0094551Y0295836D01*
X0093997Y0297174D01*
X0093116Y0298323D01*
X0092331Y0298925D01*
X0092317Y0298950D01*
X0092321Y0299852D01*
X0092330Y0299869D01*
X0093123Y0300477D01*
X0094004Y0301626D01*
X0094558Y0302964D01*
X0094748Y0304400D01*
X0094558Y0305836D01*
X0094004Y0307174D01*
X0093123Y0308323D01*
X0092340Y0308923D01*
X0092333Y0308936D01*
Y0309853D01*
X0092340Y0309866D01*
X0093123Y0310466D01*
X0094004Y0311615D01*
X0094558Y0312953D01*
X0094748Y0314389D01*
X0094558Y0315825D01*
X0094004Y0317163D01*
X0093123Y0318312D01*
X0092328Y0318922D01*
X0092312Y0318952D01*
Y0319837D01*
X0092328Y0319867D01*
X0093123Y0320477D01*
X0094004Y0321626D01*
X0094558Y0322964D01*
X0094748Y0324400D01*
X0094558Y0325836D01*
X0094004Y0327174D01*
X0093123Y0328323D01*
X0092334Y0328928D01*
X0092323Y0328949D01*
Y0329851D01*
X0092334Y0329872D01*
X0093123Y0330477D01*
X0094004Y0331626D01*
X0094558Y0332964D01*
X0094748Y0334400D01*
X0094558Y0335836D01*
X0094004Y0337174D01*
X0093123Y0338323D01*
X0092334Y0338928D01*
X0092323Y0338949D01*
Y0339851D01*
X0092334Y0339872D01*
X0093123Y0340477D01*
X0094004Y0341626D01*
X0094558Y0342964D01*
X0094748Y0344400D01*
X0094558Y0345836D01*
X0094004Y0347174D01*
X0093123Y0348323D01*
X0091974Y0349204D01*
X0090636Y0349758D01*
X0089200Y0349948D01*
D02*
G37*
G36*
X0136747Y0295246D02*
X0135689Y0295107D01*
X0134704Y0294699D01*
X0133858Y0294050D01*
X0133209Y0293203D01*
X0132801Y0292218D01*
X0132662Y0291161D01*
X0132801Y0290104D01*
X0133209Y0289119D01*
X0133858Y0288273D01*
X0134704Y0287623D01*
X0135689Y0287215D01*
X0136747Y0287076D01*
X0137804Y0287215D01*
X0138245Y0287398D01*
X0138312Y0287312D01*
X0139157Y0286663D01*
X0140143Y0286254D01*
X0141200Y0286115D01*
X0142257Y0286254D01*
X0143243Y0286663D01*
X0144088Y0287312D01*
X0144738Y0288158D01*
X0145146Y0289143D01*
X0145285Y0290200D01*
X0145146Y0291257D01*
X0144738Y0292243D01*
X0144088Y0293089D01*
X0143243Y0293738D01*
X0142257Y0294146D01*
X0141200Y0294285D01*
X0140143Y0294146D01*
X0139701Y0293963D01*
X0139635Y0294050D01*
X0138789Y0294699D01*
X0137804Y0295107D01*
X0136747Y0295246D01*
D02*
G37*
G36*
X0134770Y0285094D02*
X0133713Y0284955D01*
X0132728Y0284547D01*
X0131882Y0283898D01*
X0131233Y0283052D01*
X0131086Y0282698D01*
X0130605Y0282898D01*
X0129548Y0283037D01*
X0128490Y0282898D01*
X0127505Y0282490D01*
X0126659Y0281840D01*
X0126010Y0280994D01*
X0125602Y0280009D01*
X0125463Y0278952D01*
X0125602Y0277895D01*
X0126010Y0276909D01*
X0126659Y0276063D01*
X0127505Y0275414D01*
X0128490Y0275006D01*
X0129548Y0274867D01*
X0130605Y0275006D01*
X0131590Y0275414D01*
X0132436Y0276063D01*
X0133085Y0276909D01*
X0133232Y0277263D01*
X0133713Y0277063D01*
X0134770Y0276924D01*
X0135828Y0277063D01*
X0136813Y0277471D01*
X0137659Y0278121D01*
X0138308Y0278967D01*
X0138716Y0279952D01*
X0138855Y0281009D01*
X0138716Y0282066D01*
X0138308Y0283052D01*
X0137659Y0283898D01*
X0136813Y0284547D01*
X0135828Y0284955D01*
X0134770Y0285094D01*
D02*
G37*
G36*
X0234249Y0286444D02*
X0233192Y0286304D01*
X0232207Y0285896D01*
X0231361Y0285247D01*
X0230711Y0284401D01*
X0230303Y0283416D01*
X0230164Y0282359D01*
X0230303Y0281301D01*
X0230711Y0280316D01*
X0231361Y0279470D01*
X0232207Y0278821D01*
X0233192Y0278413D01*
X0234249Y0278274D01*
X0235306Y0278413D01*
X0236292Y0278821D01*
X0237138Y0279470D01*
X0237787Y0280316D01*
X0238195Y0281301D01*
X0238334Y0282359D01*
X0238195Y0283416D01*
X0237787Y0284401D01*
X0237138Y0285247D01*
X0236292Y0285896D01*
X0235306Y0286304D01*
X0234249Y0286444D01*
D02*
G37*
G36*
X0101108Y0281426D02*
X0100051Y0281287D01*
X0099066Y0280879D01*
X0098220Y0280230D01*
X0097571Y0279384D01*
X0097162Y0278399D01*
X0097023Y0277341D01*
X0097162Y0276284D01*
X0097571Y0275299D01*
X0098220Y0274453D01*
X0099066Y0273804D01*
X0100051Y0273396D01*
X0101108Y0273256D01*
X0102165Y0273396D01*
X0103151Y0273804D01*
X0103997Y0274453D01*
X0104646Y0275299D01*
X0105054Y0276284D01*
X0105193Y0277341D01*
X0105054Y0278399D01*
X0104646Y0279384D01*
X0103997Y0280230D01*
X0103151Y0280879D01*
X0102165Y0281287D01*
X0101108Y0281426D01*
D02*
G37*
G36*
X0286092Y0276641D02*
X0285035Y0276502D01*
X0284050Y0276094D01*
X0283204Y0275444D01*
X0282555Y0274598D01*
X0282147Y0273613D01*
X0282065Y0272993D01*
X0281316Y0272493D01*
X0281236Y0272485D01*
X0280857Y0272642D01*
X0279800Y0272781D01*
X0278743Y0272642D01*
X0277758Y0272234D01*
X0276912Y0271585D01*
X0276262Y0270739D01*
X0275854Y0269753D01*
X0275775Y0269150D01*
X0275027Y0268455D01*
X0274800Y0268485D01*
X0273972Y0268376D01*
X0273946Y0268572D01*
X0273538Y0269557D01*
X0272888Y0270404D01*
X0272042Y0271053D01*
X0271057Y0271461D01*
X0270000Y0271600D01*
X0268943Y0271461D01*
X0267957Y0271053D01*
X0267111Y0270404D01*
X0266462Y0269557D01*
X0266054Y0268572D01*
X0265915Y0267515D01*
X0266054Y0266458D01*
X0266462Y0265473D01*
X0266786Y0265051D01*
X0267042Y0264468D01*
X0266786Y0263884D01*
X0266462Y0263463D01*
X0266054Y0262478D01*
X0265915Y0261421D01*
X0266054Y0260363D01*
X0266462Y0259378D01*
X0267111Y0258532D01*
X0267957Y0257883D01*
X0268943Y0257475D01*
X0270000Y0257336D01*
X0271057Y0257475D01*
X0272042Y0257883D01*
X0272888Y0258532D01*
X0273538Y0259378D01*
X0273946Y0260363D01*
X0273954Y0260426D01*
X0274800Y0260315D01*
X0275857Y0260454D01*
X0276843Y0260862D01*
X0277689Y0261511D01*
X0278338Y0262357D01*
X0278746Y0263343D01*
X0278825Y0263946D01*
X0279573Y0264641D01*
X0279800Y0264611D01*
X0280857Y0264750D01*
X0281843Y0265158D01*
X0282146Y0265391D01*
X0282450Y0265158D01*
X0283435Y0264750D01*
X0284492Y0264611D01*
X0285549Y0264750D01*
X0286535Y0265158D01*
X0287381Y0265808D01*
X0288030Y0266654D01*
X0288438Y0267639D01*
X0288577Y0268696D01*
X0288498Y0269297D01*
X0288981Y0269667D01*
X0289630Y0270513D01*
X0290038Y0271499D01*
X0290177Y0272556D01*
X0290038Y0273613D01*
X0289630Y0274598D01*
X0288981Y0275444D01*
X0288135Y0276094D01*
X0287150Y0276502D01*
X0286092Y0276641D01*
D02*
G37*
G36*
X0150758Y0273486D02*
X0149701Y0273347D01*
X0148716Y0272939D01*
X0147870Y0272290D01*
X0147652Y0272006D01*
X0146865D01*
X0146647Y0272290D01*
X0145801Y0272939D01*
X0144816Y0273347D01*
X0143758Y0273486D01*
X0142701Y0273347D01*
X0141716Y0272939D01*
X0140870Y0272290D01*
X0140221Y0271444D01*
X0139813Y0270458D01*
X0139673Y0269401D01*
X0139813Y0268344D01*
X0140221Y0267359D01*
X0140870Y0266513D01*
X0140645Y0265693D01*
X0140250Y0265179D01*
X0139842Y0264194D01*
X0139703Y0263136D01*
X0139842Y0262079D01*
X0140250Y0261094D01*
X0140899Y0260248D01*
X0141745Y0259599D01*
X0142730Y0259191D01*
X0143788Y0259051D01*
X0144845Y0259191D01*
X0145830Y0259599D01*
X0146676Y0260248D01*
X0147326Y0261094D01*
X0147733Y0262079D01*
X0147873Y0263136D01*
X0147733Y0264194D01*
X0147326Y0265179D01*
X0146909Y0265722D01*
X0146805Y0266034D01*
X0147023Y0266333D01*
X0147435Y0266420D01*
X0148015Y0266402D01*
X0148716Y0265863D01*
X0149701Y0265455D01*
X0150758Y0265316D01*
X0151816Y0265455D01*
X0152095Y0265571D01*
X0152936Y0265068D01*
X0153230Y0264357D01*
X0153880Y0263511D01*
X0154726Y0262862D01*
X0155711Y0262454D01*
X0156768Y0262315D01*
X0157825Y0262454D01*
X0158811Y0262862D01*
X0159657Y0263511D01*
X0159875Y0263796D01*
X0160662D01*
X0160880Y0263511D01*
X0161726Y0262862D01*
X0162711Y0262454D01*
X0163768Y0262315D01*
X0164825Y0262454D01*
X0165811Y0262862D01*
X0166657Y0263511D01*
X0167306Y0264357D01*
X0167714Y0265343D01*
X0167853Y0266400D01*
X0167714Y0267457D01*
X0167306Y0268443D01*
X0166657Y0269288D01*
X0165811Y0269938D01*
X0164825Y0270346D01*
X0163768Y0270485D01*
X0162711Y0270346D01*
X0161726Y0269938D01*
X0160880Y0269288D01*
X0160662Y0269004D01*
X0159875D01*
X0159657Y0269288D01*
X0158811Y0269938D01*
X0157825Y0270346D01*
X0156768Y0270485D01*
X0155711Y0270346D01*
X0155431Y0270230D01*
X0154650Y0270590D01*
X0154296Y0271444D01*
X0153647Y0272290D01*
X0152801Y0272939D01*
X0151816Y0273347D01*
X0150758Y0273486D01*
D02*
G37*
G36*
X0117448Y0278485D02*
X0116391Y0278346D01*
X0115405Y0277938D01*
X0114559Y0277289D01*
X0113910Y0276443D01*
X0113502Y0275457D01*
X0113363Y0274400D01*
X0113502Y0273343D01*
X0113910Y0272358D01*
X0114559Y0271512D01*
X0115405Y0270862D01*
X0116391Y0270454D01*
X0117448Y0270315D01*
X0118505Y0270454D01*
X0119490Y0270862D01*
X0120336Y0271512D01*
X0120985Y0272358D01*
X0121394Y0273343D01*
X0121533Y0274400D01*
X0121394Y0275457D01*
X0120985Y0276443D01*
X0120336Y0277289D01*
X0119490Y0277938D01*
X0118505Y0278346D01*
X0117448Y0278485D01*
D02*
G37*
G36*
X0219200Y0280485D02*
X0218143Y0280346D01*
X0217158Y0279938D01*
X0216312Y0279289D01*
X0215662Y0278443D01*
X0215254Y0277457D01*
X0215115Y0276400D01*
X0215254Y0275343D01*
X0215376Y0275050D01*
X0215193Y0274688D01*
X0214841Y0274285D01*
X0213943Y0274166D01*
X0212958Y0273758D01*
X0212111Y0273109D01*
X0211462Y0272263D01*
X0211054Y0271278D01*
X0210915Y0270221D01*
X0211054Y0269163D01*
X0211462Y0268178D01*
X0212111Y0267332D01*
X0212958Y0266683D01*
X0213943Y0266275D01*
X0215000Y0266136D01*
X0216057Y0266275D01*
X0217042Y0266683D01*
X0217888Y0267332D01*
X0218538Y0268178D01*
X0218946Y0269163D01*
X0219085Y0270221D01*
X0218946Y0271278D01*
X0218824Y0271571D01*
X0219007Y0271933D01*
X0219359Y0272336D01*
X0220257Y0272454D01*
X0221242Y0272862D01*
X0222089Y0273512D01*
X0222738Y0274358D01*
X0223146Y0275343D01*
X0223285Y0276400D01*
X0223146Y0277457D01*
X0222738Y0278443D01*
X0222089Y0279289D01*
X0221242Y0279938D01*
X0220257Y0280346D01*
X0219200Y0280485D01*
D02*
G37*
G36*
X0126287Y0272485D02*
X0125230Y0272346D01*
X0124245Y0271938D01*
X0123398Y0271288D01*
X0122749Y0270443D01*
X0122341Y0269457D01*
X0122202Y0268400D01*
X0122341Y0267343D01*
X0122749Y0266357D01*
X0123398Y0265511D01*
X0124245Y0264862D01*
X0125230Y0264454D01*
X0126287Y0264315D01*
X0127344Y0264454D01*
X0128330Y0264862D01*
X0129175Y0265511D01*
X0129825Y0266357D01*
X0130233Y0267343D01*
X0130372Y0268400D01*
X0130233Y0269457D01*
X0129825Y0270443D01*
X0129175Y0271288D01*
X0128330Y0271938D01*
X0127344Y0272346D01*
X0126287Y0272485D01*
D02*
G37*
G36*
X0315492Y0266820D02*
X0314435Y0266681D01*
X0313450Y0266272D01*
X0312604Y0265623D01*
X0311954Y0264777D01*
X0311546Y0263792D01*
X0311407Y0262735D01*
X0311546Y0261678D01*
X0311954Y0260692D01*
X0312604Y0259846D01*
X0313450Y0259197D01*
X0314435Y0258789D01*
X0315492Y0258650D01*
X0316549Y0258789D01*
X0317535Y0259197D01*
X0318381Y0259846D01*
X0319030Y0260692D01*
X0319438Y0261678D01*
X0319577Y0262735D01*
X0319438Y0263792D01*
X0319030Y0264777D01*
X0318381Y0265623D01*
X0317535Y0266272D01*
X0316549Y0266681D01*
X0315492Y0266820D01*
D02*
G37*
G36*
X0213761Y0264926D02*
X0212703Y0264787D01*
X0211718Y0264379D01*
X0210872Y0263729D01*
X0210223Y0262883D01*
X0209815Y0261898D01*
X0209676Y0260841D01*
X0209815Y0259784D01*
X0210223Y0258799D01*
X0210872Y0257952D01*
X0211718Y0257303D01*
X0212703Y0256895D01*
X0213761Y0256756D01*
X0214818Y0256895D01*
X0215803Y0257303D01*
X0216649Y0257952D01*
X0217298Y0258799D01*
X0217706Y0259784D01*
X0217846Y0260841D01*
X0217706Y0261898D01*
X0217298Y0262883D01*
X0216649Y0263729D01*
X0215803Y0264379D01*
X0214818Y0264787D01*
X0213761Y0264926D01*
D02*
G37*
G36*
X0294789Y0246987D02*
X0293732Y0246847D01*
X0292747Y0246439D01*
X0291901Y0245790D01*
X0291252Y0244944D01*
X0290844Y0243959D01*
X0290704Y0242901D01*
X0290844Y0241844D01*
X0291252Y0240859D01*
X0291901Y0240013D01*
X0292747Y0239364D01*
X0293732Y0238956D01*
X0294789Y0238817D01*
X0295847Y0238956D01*
X0296832Y0239364D01*
X0297678Y0240013D01*
X0298327Y0240859D01*
X0298735Y0241844D01*
X0298874Y0242901D01*
X0298735Y0243959D01*
X0298327Y0244944D01*
X0297678Y0245790D01*
X0296832Y0246439D01*
X0295847Y0246847D01*
X0294789Y0246987D01*
D02*
G37*
G36*
X0309684Y0245134D02*
X0308627Y0244995D01*
X0307642Y0244587D01*
X0306796Y0243938D01*
X0306147Y0243092D01*
X0305739Y0242107D01*
X0305599Y0241049D01*
X0305739Y0239992D01*
X0306147Y0239007D01*
X0306796Y0238161D01*
X0307642Y0237512D01*
X0308627Y0237104D01*
X0309684Y0236964D01*
X0310742Y0237104D01*
X0311727Y0237512D01*
X0312573Y0238161D01*
X0313222Y0239007D01*
X0313630Y0239992D01*
X0313769Y0241049D01*
X0313630Y0242107D01*
X0313222Y0243092D01*
X0312573Y0243938D01*
X0311727Y0244587D01*
X0310742Y0244995D01*
X0309684Y0245134D01*
D02*
G37*
G36*
X0393200Y0249602D02*
X0391854Y0249425D01*
X0390599Y0248905D01*
X0389522Y0248078D01*
X0388695Y0247001D01*
X0388175Y0245746D01*
X0387998Y0244400D01*
X0388175Y0243054D01*
X0388695Y0241799D01*
X0389522Y0240722D01*
X0390599Y0239895D01*
X0390844Y0239793D01*
Y0239006D01*
X0390599Y0238905D01*
X0389522Y0238078D01*
X0388695Y0237001D01*
X0388175Y0235746D01*
X0387998Y0234400D01*
X0388175Y0233054D01*
X0388695Y0231799D01*
X0389522Y0230722D01*
X0390599Y0229895D01*
X0391854Y0229375D01*
X0393200Y0229198D01*
X0394546Y0229375D01*
X0395801Y0229895D01*
X0396878Y0230722D01*
X0397705Y0231799D01*
X0398225Y0233054D01*
X0398402Y0234400D01*
X0398225Y0235746D01*
X0397705Y0237001D01*
X0396878Y0238078D01*
X0395801Y0238905D01*
X0395556Y0239006D01*
Y0239793D01*
X0395801Y0239895D01*
X0396878Y0240722D01*
X0397705Y0241799D01*
X0398225Y0243054D01*
X0398402Y0244400D01*
X0398225Y0245746D01*
X0397705Y0247001D01*
X0396878Y0248078D01*
X0395801Y0248905D01*
X0394546Y0249425D01*
X0393200Y0249602D01*
D02*
G37*
G36*
X0291650Y0230034D02*
X0290175Y0229840D01*
X0288800Y0229271D01*
X0287620Y0228365D01*
X0286715Y0227185D01*
X0286145Y0225811D01*
X0285951Y0224336D01*
X0286145Y0222861D01*
X0286715Y0221486D01*
X0287620Y0220306D01*
X0288800Y0219401D01*
X0290175Y0218831D01*
X0291650Y0218637D01*
X0293125Y0218831D01*
X0294499Y0219401D01*
X0295679Y0220306D01*
X0296585Y0221486D01*
X0297154Y0222861D01*
X0297348Y0224336D01*
X0297154Y0225811D01*
X0296585Y0227185D01*
X0295679Y0228365D01*
X0294499Y0229271D01*
X0293125Y0229840D01*
X0291650Y0230034D01*
D02*
G37*
G36*
X0395200Y0195687D02*
X0392813Y0195531D01*
X0390467Y0195064D01*
X0388202Y0194295D01*
X0386056Y0193237D01*
X0384068Y0191908D01*
X0382269Y0190331D01*
X0380692Y0188532D01*
X0379363Y0186544D01*
X0378305Y0184398D01*
X0377536Y0182133D01*
X0377069Y0179787D01*
X0376913Y0177400D01*
X0377069Y0175013D01*
X0377536Y0172667D01*
X0378305Y0170402D01*
X0379363Y0168256D01*
X0380692Y0166268D01*
X0382269Y0164469D01*
X0384068Y0162892D01*
X0386056Y0161563D01*
X0388202Y0160505D01*
X0390467Y0159736D01*
X0392813Y0159269D01*
X0395200Y0159113D01*
X0397587Y0159269D01*
X0399933Y0159736D01*
X0402198Y0160505D01*
X0404344Y0161563D01*
X0406332Y0162892D01*
X0408131Y0164469D01*
X0409708Y0166268D01*
X0411037Y0168256D01*
X0412095Y0170402D01*
X0412864Y0172667D01*
X0413331Y0175013D01*
X0413487Y0177400D01*
X0413331Y0179787D01*
X0412864Y0182133D01*
X0412095Y0184398D01*
X0411037Y0186544D01*
X0409708Y0188532D01*
X0408131Y0190331D01*
X0406332Y0191908D01*
X0404344Y0193237D01*
X0402198Y0194295D01*
X0399933Y0195064D01*
X0397587Y0195531D01*
X0395200Y0195687D01*
D02*
G37*
%LPD*%
G36*
X0332080Y0672700D02*
X0335080Y0669700D01*
Y0610200D01*
X0330830Y0605951D01*
X0303300Y0605951D01*
X0303300Y0672700D01*
X0332080Y0672700D01*
D02*
G37*
G36*
X0176892Y0690715D02*
X0176892Y0603404D01*
X0148725Y0603404D01*
X0116006D01*
X0116006Y0636464D01*
X0116540Y0636874D01*
X0117189Y0637720D01*
X0117597Y0638705D01*
X0117598Y0638717D01*
X0124009Y0645127D01*
X0124009Y0645127D01*
X0124570Y0645859D01*
X0124923Y0646710D01*
X0125043Y0647624D01*
Y0684982D01*
X0131230Y0691170D01*
X0176438D01*
X0176892Y0690715D01*
D02*
G37*
G36*
X0236717Y0603404D02*
X0208129D01*
X0179441Y0603404D01*
X0179441Y0693957D01*
X0236717D01*
X0236717Y0603404D01*
D02*
G37*
G36*
X0300673Y0706496D02*
X0300673Y0602836D01*
X0294568Y0602836D01*
X0294550Y0602859D01*
X0293704Y0603509D01*
X0292718Y0603917D01*
X0291661Y0604056D01*
X0290604Y0603917D01*
X0289619Y0603509D01*
X0289161Y0603158D01*
X0288704Y0603509D01*
X0287718Y0603917D01*
X0286661Y0604056D01*
X0285604Y0603917D01*
X0284619Y0603509D01*
X0284161Y0603158D01*
X0283704Y0603509D01*
X0282718Y0603917D01*
X0281661Y0604056D01*
X0280604Y0603917D01*
X0279661Y0603526D01*
X0278718Y0603917D01*
X0277661Y0604056D01*
X0276604Y0603917D01*
X0275619Y0603509D01*
X0274773Y0602859D01*
X0274755Y0602836D01*
X0271985D01*
X0239266D01*
X0239266Y0706496D01*
X0300673Y0706496D01*
D02*
G37*
G36*
X0289775Y0570400D02*
X0289775Y0557400D01*
X0126631Y0557400D01*
X0126631Y0570400D01*
X0289775Y0570400D01*
D02*
G37*
G36*
X0238697Y0600400D02*
X0239266Y0600287D01*
X0274755D01*
X0274919Y0600319D01*
X0275087Y0600308D01*
X0275328Y0600390D01*
X0275432Y0600397D01*
X0275438Y0600400D01*
X0293884D01*
X0293890Y0600397D01*
X0293994Y0600390D01*
X0294235Y0600309D01*
X0294403Y0600319D01*
X0294568Y0600287D01*
X0300673Y0600287D01*
X0301242Y0600400D01*
X0338200D01*
X0353200Y0585400D01*
X0353200Y0486400D01*
X0339494Y0472694D01*
X0283560D01*
X0280660Y0475594D01*
X0280660Y0542443D01*
X0295157D01*
X0295200Y0542400D01*
Y0573380D01*
X0280956D01*
X0280660Y0573676D01*
X0280660Y0585400D01*
X0108016Y0585400D01*
X0108016Y0600400D01*
X0238697Y0600400D01*
D02*
G37*
%LPC*%
G36*
X0139904Y0202765D02*
X0138846Y0202625D01*
X0137861Y0202217D01*
X0137015Y0201568D01*
X0136366Y0200722D01*
X0135958Y0199737D01*
X0135819Y0198679D01*
X0135958Y0197622D01*
X0136366Y0196637D01*
X0137015Y0195791D01*
X0137861Y0195142D01*
X0138846Y0194734D01*
X0139904Y0194595D01*
X0140961Y0194734D01*
X0141946Y0195142D01*
X0142792Y0195791D01*
X0143441Y0196637D01*
X0143849Y0197622D01*
X0143989Y0198679D01*
X0143849Y0199737D01*
X0143441Y0200722D01*
X0142792Y0201568D01*
X0141946Y0202217D01*
X0140961Y0202625D01*
X0139904Y0202765D01*
D02*
G37*
G36*
X0157056Y0204194D02*
X0155999Y0204055D01*
X0155014Y0203647D01*
X0154168Y0202998D01*
X0153519Y0202152D01*
X0153111Y0201167D01*
X0152971Y0200110D01*
X0153111Y0199052D01*
X0153519Y0198067D01*
X0154168Y0197221D01*
X0155014Y0196572D01*
X0155377Y0196422D01*
X0155242Y0195400D01*
X0155293Y0195012D01*
X0155143Y0194993D01*
X0154157Y0194585D01*
X0153312Y0193935D01*
X0152662Y0193089D01*
X0152254Y0192104D01*
X0152115Y0191047D01*
X0152254Y0189990D01*
X0152662Y0189004D01*
X0153312Y0188158D01*
X0154157Y0187509D01*
X0155143Y0187101D01*
X0156200Y0186962D01*
X0157257Y0187101D01*
X0158242Y0187509D01*
X0159089Y0188158D01*
X0159738Y0189004D01*
X0159910Y0189419D01*
X0160097Y0189539D01*
X0161070Y0189718D01*
X0161602Y0189310D01*
X0162587Y0188902D01*
X0163645Y0188762D01*
X0164702Y0188902D01*
X0165687Y0189310D01*
X0166533Y0189959D01*
X0167182Y0190805D01*
X0167590Y0191790D01*
X0167729Y0192848D01*
X0167590Y0193905D01*
X0167200Y0194847D01*
X0167888Y0195376D01*
X0168538Y0196222D01*
X0168946Y0197207D01*
X0169085Y0198264D01*
X0168946Y0199321D01*
X0168538Y0200307D01*
X0167888Y0201153D01*
X0167043Y0201802D01*
X0166057Y0202210D01*
X0165000Y0202349D01*
X0163943Y0202210D01*
X0162958Y0201802D01*
X0162111Y0201153D01*
X0162027Y0201043D01*
X0161380Y0201121D01*
X0160953Y0201286D01*
X0160594Y0202152D01*
X0159945Y0202998D01*
X0159099Y0203647D01*
X0158114Y0204055D01*
X0157056Y0204194D01*
D02*
G37*
G36*
X0177200Y0189811D02*
X0176143Y0189672D01*
X0175157Y0189264D01*
X0174311Y0188615D01*
X0173662Y0187769D01*
X0173254Y0186784D01*
X0173115Y0185726D01*
X0173254Y0184669D01*
X0173662Y0183684D01*
X0174311Y0182838D01*
X0175157Y0182189D01*
X0176143Y0181781D01*
X0177200Y0181641D01*
X0178257Y0181781D01*
X0179243Y0182189D01*
X0180088Y0182838D01*
X0180738Y0183684D01*
X0181146Y0184669D01*
X0181285Y0185726D01*
X0181146Y0186784D01*
X0180738Y0187769D01*
X0180088Y0188615D01*
X0179243Y0189264D01*
X0178257Y0189672D01*
X0177200Y0189811D01*
D02*
G37*
G36*
X0174878Y0171983D02*
X0173506Y0171803D01*
X0172228Y0171273D01*
X0171130Y0170431D01*
X0170287Y0169333D01*
X0169758Y0168054D01*
X0169577Y0166682D01*
Y0163926D01*
X0169758Y0162554D01*
X0170287Y0161276D01*
X0171130Y0160178D01*
X0172228Y0159335D01*
X0173506Y0158806D01*
X0174878Y0158625D01*
X0176250Y0158806D01*
X0177529Y0159335D01*
X0178627Y0160178D01*
X0179469Y0161276D01*
X0179999Y0162554D01*
X0180180Y0163926D01*
Y0166682D01*
X0179999Y0168054D01*
X0179469Y0169333D01*
X0178627Y0170431D01*
X0177529Y0171273D01*
X0176250Y0171803D01*
X0174878Y0171983D01*
D02*
G37*
G36*
X0143776D02*
X0142404Y0171803D01*
X0141125Y0171273D01*
X0140027Y0170431D01*
X0139185Y0169333D01*
X0138655Y0168054D01*
X0138475Y0166682D01*
Y0163926D01*
X0138655Y0162554D01*
X0139185Y0161276D01*
X0140027Y0160178D01*
X0141125Y0159335D01*
X0142404Y0158806D01*
X0143776Y0158625D01*
X0145148Y0158806D01*
X0146427Y0159335D01*
X0147524Y0160178D01*
X0148367Y0161276D01*
X0148897Y0162554D01*
X0149077Y0163926D01*
Y0166682D01*
X0148897Y0168054D01*
X0148367Y0169333D01*
X0147524Y0170431D01*
X0146427Y0171273D01*
X0145148Y0171803D01*
X0143776Y0171983D01*
D02*
G37*
%LPD*%
G54D16*
X0245137Y0668739D02*
X0247680Y0666195D01*
X0210100Y0666295D02*
X0210200Y0666195D01*
X0559400Y0039400D02*
Y0059683D01*
X0440500Y0040050D02*
X0700200D01*
Y0101050D01*
X0286500Y0040050D02*
Y0101050D01*
X0040000Y0040050D02*
Y0101050D01*
X0040050Y0040050D02*
X0197600D01*
X0040050D02*
Y0101050D01*
X0700200D01*
X0040000Y0040050D02*
X0440500D01*
X0040000Y0060383D02*
X0700000D01*
X0040000Y0080717D02*
X0700200D01*
X0413200D02*
Y0101050D01*
X0497200Y0080717D02*
Y0101050D01*
G54D22*
X0348550Y0067500D02*
Y0073498D01*
X0352549Y0067500D01*
Y0073498D01*
X0354548Y0067500D02*
X0358547Y0071499D01*
X0360546Y0067500D02*
Y0071499D01*
X0362545Y0073498D01*
X0364545Y0071499D01*
Y0067500D01*
Y0070499D01*
X0360546D01*
X0294000Y0073498D02*
X0297999D01*
X0295999D01*
Y0067500D01*
X0299998Y0073498D02*
X0301997D01*
X0300998D01*
Y0067500D01*
X0299998D01*
X0301997D01*
X0304996Y0073498D02*
Y0067500D01*
X0307996D01*
X0308995Y0068500D01*
Y0072498D01*
X0307996Y0073498D01*
X0304996D01*
X0317992Y0067500D02*
Y0073498D01*
X0319992D02*
Y0067500D01*
X0316993Y0071499D02*
X0319992D01*
X0320991D01*
X0316993Y0069499D02*
X0320991D01*
X0322991Y0071499D02*
X0323990D01*
Y0070499D01*
X0322991D01*
Y0071499D01*
Y0068500D02*
X0323990D01*
Y0067500D01*
X0322991D01*
Y0068500D01*
X0580500Y0052965D02*
X0584499D01*
X0582499D01*
Y0046966D01*
X0590497Y0052965D02*
X0586498D01*
Y0046966D01*
X0590497D01*
X0586498Y0049966D02*
X0588497D01*
X0592496Y0052965D02*
X0596495Y0046966D01*
Y0052965D02*
X0592496Y0046966D01*
X0598494D02*
Y0050965D01*
X0600493Y0052965D01*
X0602493Y0050965D01*
Y0046966D01*
Y0049966D01*
X0598494D01*
X0608491Y0051965D02*
X0607491Y0052965D01*
X0605492D01*
X0604492Y0051965D01*
Y0050965D01*
X0605492Y0049966D01*
X0607491D01*
X0608491Y0048966D01*
Y0047966D01*
X0607491Y0046966D01*
X0605492D01*
X0604492Y0047966D01*
X0616488Y0052965D02*
X0618488D01*
X0617488D01*
Y0046966D01*
X0616488D01*
X0618488D01*
X0621487D02*
Y0052965D01*
X0625486Y0046966D01*
Y0052965D01*
X0631484Y0051965D02*
X0630484Y0052965D01*
X0628484D01*
X0627485Y0051965D01*
Y0050965D01*
X0628484Y0049966D01*
X0630484D01*
X0631484Y0048966D01*
Y0047966D01*
X0630484Y0046966D01*
X0628484D01*
X0627485Y0047966D01*
X0633483Y0052965D02*
X0637482D01*
X0635482D01*
Y0046966D01*
X0639481D02*
Y0052965D01*
X0642480D01*
X0643480Y0051965D01*
Y0049966D01*
X0642480Y0048966D01*
X0639481D01*
X0641480D02*
X0643480Y0046966D01*
X0645479Y0052965D02*
Y0047966D01*
X0646479Y0046966D01*
X0648478D01*
X0649478Y0047966D01*
Y0052965D01*
X0651477Y0046966D02*
Y0052965D01*
X0653476Y0050965D01*
X0655476Y0052965D01*
Y0046966D01*
X0661474Y0052965D02*
X0657475D01*
Y0046966D01*
X0661474D01*
X0657475Y0049966D02*
X0659474D01*
X0663473Y0046966D02*
Y0052965D01*
X0667472Y0046966D01*
Y0052965D01*
X0669471D02*
X0673470D01*
X0671471D01*
Y0046966D01*
X0679468Y0051965D02*
X0678468Y0052965D01*
X0676469D01*
X0675469Y0051965D01*
Y0050965D01*
X0676469Y0049966D01*
X0678468D01*
X0679468Y0048966D01*
Y0047966D01*
X0678468Y0046966D01*
X0676469D01*
X0675469Y0047966D01*
X0454050Y0052965D02*
X0458049D01*
Y0051965D01*
X0454050Y0047966D01*
Y0046966D01*
X0460048Y0050965D02*
X0461048D01*
Y0049966D01*
X0460048D01*
Y0050965D01*
Y0047966D02*
X0461048D01*
Y0046966D01*
X0460048D01*
Y0047966D01*
X0469045Y0052965D02*
X0465046D01*
Y0049966D01*
X0467046Y0050965D01*
X0468046D01*
X0469045Y0049966D01*
Y0047966D01*
X0468046Y0046966D01*
X0466046D01*
X0465046Y0047966D01*
X0471044Y0051965D02*
X0472044Y0052965D01*
X0474044D01*
X0475043Y0051965D01*
Y0047966D01*
X0474044Y0046966D01*
X0472044D01*
X0471044Y0047966D01*
Y0051965D01*
X0477043Y0050965D02*
X0478042D01*
Y0049966D01*
X0477043D01*
Y0050965D01*
Y0047966D02*
X0478042D01*
Y0046966D01*
X0477043D01*
Y0047966D01*
X0486040Y0046966D02*
X0482041D01*
X0486040Y0050965D01*
Y0051965D01*
X0485040Y0052965D01*
X0483041D01*
X0482041Y0051965D01*
X0492038Y0052965D02*
X0490038Y0051965D01*
X0488039Y0049966D01*
Y0047966D01*
X0489039Y0046966D01*
X0491038D01*
X0492038Y0047966D01*
Y0048966D01*
X0491038Y0049966D01*
X0488039D01*
X0500035Y0046966D02*
Y0052965D01*
X0503034D01*
X0504034Y0051965D01*
Y0049966D01*
X0503034Y0048966D01*
X0500035D01*
X0506033Y0046966D02*
Y0052965D01*
X0508033Y0050965D01*
X0510032Y0052965D01*
Y0046966D01*
X0046350D02*
Y0052965D01*
X0049349D01*
X0050349Y0051965D01*
Y0049966D01*
X0049349Y0048966D01*
X0046350D01*
X0052348Y0052965D02*
Y0046966D01*
X0056347D01*
X0061345Y0052965D02*
X0059346D01*
X0058346Y0051965D01*
Y0047966D01*
X0059346Y0046966D01*
X0061345D01*
X0062345Y0047966D01*
Y0051965D01*
X0061345Y0052965D01*
X0064344D02*
X0068343D01*
X0066343D01*
Y0046966D01*
X0076340D02*
Y0052965D01*
X0080339Y0046966D01*
Y0052965D01*
X0082338Y0046966D02*
Y0050965D01*
X0084338Y0052965D01*
X0086337Y0050965D01*
Y0046966D01*
Y0049966D01*
X0082338D01*
X0088336Y0046966D02*
Y0052965D01*
X0090336Y0050965D01*
X0092335Y0052965D01*
Y0046966D01*
X0098333Y0052965D02*
X0094335D01*
Y0046966D01*
X0098333D01*
X0094335Y0049966D02*
X0096334D01*
X0106331Y0048966D02*
X0110329D01*
X0106331Y0050965D02*
X0110329D01*
X0046350Y0073549D02*
Y0067551D01*
X0050349D01*
X0052348D02*
Y0071549D01*
X0054347Y0073549D01*
X0056347Y0071549D01*
Y0067551D01*
Y0070550D01*
X0052348D01*
X0058346Y0073549D02*
Y0072549D01*
X0060346Y0070550D01*
X0062345Y0072549D01*
Y0073549D01*
X0060346Y0070550D02*
Y0067551D01*
X0068343Y0073549D02*
X0064344D01*
Y0067551D01*
X0068343D01*
X0064344Y0070550D02*
X0066343D01*
X0070342Y0067551D02*
Y0073549D01*
X0073341D01*
X0074341Y0072549D01*
Y0070550D01*
X0073341Y0069550D01*
X0070342D01*
X0072342D02*
X0074341Y0067551D01*
X0082338D02*
Y0073549D01*
X0086337Y0067551D01*
Y0073549D01*
X0088336Y0067551D02*
Y0071549D01*
X0090336Y0073549D01*
X0092335Y0071549D01*
Y0067551D01*
Y0070550D01*
X0088336D01*
X0094335Y0067551D02*
Y0073549D01*
X0096334Y0071549D01*
X0098333Y0073549D01*
Y0067551D01*
X0104331Y0073549D02*
X0100332D01*
Y0067551D01*
X0104331D01*
X0100332Y0070550D02*
X0102332D01*
X0112329Y0069550D02*
X0116327D01*
X0112329Y0071549D02*
X0116327D01*
X0294000Y0093831D02*
Y0087833D01*
X0296999D01*
X0297999Y0088833D01*
Y0089833D01*
X0296999Y0090832D01*
X0294000D01*
X0296999D01*
X0297999Y0091832D01*
Y0092832D01*
X0296999Y0093831D01*
X0294000D01*
X0302997D02*
X0300998D01*
X0299998Y0092832D01*
Y0088833D01*
X0300998Y0087833D01*
X0302997D01*
X0303997Y0088833D01*
Y0092832D01*
X0302997Y0093831D01*
X0305996Y0087833D02*
Y0091832D01*
X0307996Y0093831D01*
X0309995Y0091832D01*
Y0087833D01*
Y0090832D01*
X0305996D01*
X0311994Y0087833D02*
Y0093831D01*
X0314993D01*
X0315993Y0092832D01*
Y0090832D01*
X0314993Y0089833D01*
X0311994D01*
X0313994D02*
X0315993Y0087833D01*
X0317992Y0093831D02*
Y0087833D01*
X0320991D01*
X0321991Y0088833D01*
Y0092832D01*
X0320991Y0093831D01*
X0317992D01*
X0330988Y0087833D02*
Y0093831D01*
X0332987D02*
Y0087833D01*
X0329988Y0091832D02*
X0332987D01*
X0333987D01*
X0329988Y0089833D02*
X0333987D01*
X0335986Y0091832D02*
X0336986D01*
Y0090832D01*
X0335986D01*
Y0091832D01*
Y0088833D02*
X0336986D01*
Y0087833D01*
X0335986D01*
Y0088833D01*
X0348550Y0087833D02*
Y0093831D01*
X0350549Y0091832D01*
X0352549Y0093831D01*
Y0087833D01*
X0354548Y0093831D02*
Y0087833D01*
X0357547D01*
X0358547Y0088833D01*
Y0092832D01*
X0357547Y0093831D01*
X0354548D01*
X0360546Y0092832D02*
X0361546Y0093831D01*
X0363545D01*
X0364545Y0092832D01*
Y0088833D01*
X0363545Y0087833D01*
X0361546D01*
X0360546Y0088833D01*
Y0092832D01*
X0366544Y0087833D02*
X0368544D01*
X0367544D01*
Y0093831D01*
X0366544Y0092832D01*
X0375541Y0093831D02*
X0371543D01*
Y0090832D01*
X0373542Y0091832D01*
X0374542D01*
X0375541Y0090832D01*
Y0088833D01*
X0374542Y0087833D01*
X0372542D01*
X0371543Y0088833D01*
X0462150Y0087833D02*
Y0091832D01*
X0464149Y0093831D01*
X0466149Y0091832D01*
Y0087833D01*
Y0090832D01*
X0462150D01*
X0046350Y0087833D02*
Y0091832D01*
X0048349Y0093831D01*
X0050349Y0091832D01*
Y0087833D01*
Y0090832D01*
X0046350D01*
X0052348Y0093831D02*
Y0087833D01*
X0056347D01*
X0058346Y0093831D02*
Y0087833D01*
X0062345D01*
X0070342D02*
Y0091832D01*
X0072342Y0093831D01*
X0074341Y0091832D01*
Y0087833D01*
Y0090832D01*
X0070342D01*
X0076340Y0087833D02*
Y0093831D01*
X0079339D01*
X0080339Y0092832D01*
Y0090832D01*
X0079339Y0089833D01*
X0076340D01*
X0078340D02*
X0080339Y0087833D01*
X0082338Y0093831D02*
X0086337D01*
X0084338D01*
Y0087833D01*
X0088336Y0093831D02*
Y0087833D01*
X0090336Y0089833D01*
X0092335Y0087833D01*
Y0093831D01*
X0097334D02*
X0095334D01*
X0094335Y0092832D01*
Y0088833D01*
X0095334Y0087833D01*
X0097334D01*
X0098333Y0088833D01*
Y0092832D01*
X0097334Y0093831D01*
X0100332Y0087833D02*
Y0093831D01*
X0103332D01*
X0104331Y0092832D01*
Y0090832D01*
X0103332Y0089833D01*
X0100332D01*
X0102332D02*
X0104331Y0087833D01*
X0106331Y0093831D02*
Y0087833D01*
Y0089833D01*
X0110329Y0093831D01*
X0107330Y0090832D01*
X0110329Y0087833D01*
X0118327Y0093831D02*
Y0089833D01*
X0120326Y0087833D01*
X0122325Y0089833D01*
Y0093831D01*
X0124325D02*
X0126324D01*
X0125324D01*
Y0087833D01*
X0124325D01*
X0126324D01*
X0133322Y0093831D02*
X0129323D01*
Y0087833D01*
X0133322D01*
X0129323Y0090832D02*
X0131323D01*
X0135321Y0093831D02*
Y0087833D01*
X0137321Y0089833D01*
X0139320Y0087833D01*
Y0093831D01*
X0145318D02*
X0141319D01*
Y0087833D01*
X0145318D01*
X0141319Y0090832D02*
X0143319D01*
X0147317Y0093831D02*
Y0087833D01*
X0150316D01*
X0151316Y0088833D01*
Y0092832D01*
X0150316Y0093831D01*
X0147317D01*
X0163312D02*
X0159313D01*
Y0090832D01*
X0161313D01*
X0159313D01*
Y0087833D01*
X0165312D02*
Y0093831D01*
X0168310D01*
X0169310Y0092832D01*
Y0090832D01*
X0168310Y0089833D01*
X0165312D01*
X0167311D02*
X0169310Y0087833D01*
X0174309Y0093831D02*
X0172309D01*
X0171310Y0092832D01*
Y0088833D01*
X0172309Y0087833D01*
X0174309D01*
X0175308Y0088833D01*
Y0092832D01*
X0174309Y0093831D01*
X0177308Y0087833D02*
Y0093831D01*
X0179307Y0091832D01*
X0181306Y0093831D01*
Y0087833D01*
X0189304Y0093831D02*
X0193303D01*
X0191303D01*
Y0087833D01*
X0198301Y0093831D02*
X0196301D01*
X0195302Y0092832D01*
Y0088833D01*
X0196301Y0087833D01*
X0198301D01*
X0199301Y0088833D01*
Y0092832D01*
X0198301Y0093831D01*
X0201300Y0087833D02*
Y0093831D01*
X0204299D01*
X0205299Y0092832D01*
Y0090832D01*
X0204299Y0089833D01*
X0201300D01*
X0217295Y0092832D02*
X0216295Y0093831D01*
X0214296D01*
X0213296Y0092832D01*
Y0091832D01*
X0214296Y0090832D01*
X0216295D01*
X0217295Y0089833D01*
Y0088833D01*
X0216295Y0087833D01*
X0214296D01*
X0213296Y0088833D01*
X0219294Y0093831D02*
X0221293D01*
X0220294D01*
Y0087833D01*
X0219294D01*
X0221293D01*
X0224292Y0093831D02*
Y0087833D01*
X0227291D01*
X0228291Y0088833D01*
Y0092832D01*
X0227291Y0093831D01*
X0224292D01*
X0234289D02*
X0230291D01*
Y0087833D01*
X0234289D01*
X0230291Y0090832D02*
X0232290D01*
X0298199Y0051965D02*
X0297199Y0052965D01*
X0295200D01*
X0294200Y0051965D01*
Y0047966D01*
X0295200Y0046966D01*
X0297199D01*
X0298199Y0047966D01*
Y0049966D01*
X0296199D01*
X0304197Y0052965D02*
X0300198D01*
Y0046966D01*
X0304197D01*
X0300198Y0049966D02*
X0302197D01*
X0306196Y0046966D02*
Y0052965D01*
X0310195Y0046966D01*
Y0052965D01*
X0316193D02*
X0312194D01*
Y0046966D01*
X0316193D01*
X0312194Y0049966D02*
X0314194D01*
X0318192Y0046966D02*
Y0052965D01*
X0321191D01*
X0322191Y0051965D01*
Y0049966D01*
X0321191Y0048966D01*
X0318192D01*
X0320192D02*
X0322191Y0046966D01*
X0324190D02*
Y0050965D01*
X0326190Y0052965D01*
X0328189Y0050965D01*
Y0046966D01*
Y0049966D01*
X0324190D01*
X0330188Y0052965D02*
X0334187D01*
X0332188D01*
Y0046966D01*
X0340185Y0052965D02*
X0336186D01*
Y0046966D01*
X0340185D01*
X0336186Y0049966D02*
X0338186D01*
X0342184Y0052965D02*
Y0046966D01*
X0345183D01*
X0346183Y0047966D01*
Y0051965D01*
X0345183Y0052965D01*
X0342184D01*
X0372175Y0050965D02*
X0373175D01*
Y0049966D01*
X0372175D01*
Y0050965D01*
Y0047966D02*
X0373175D01*
Y0046966D01*
X0372175D01*
Y0047966D01*
X0381150Y0046966D02*
X0383149D01*
X0382150D01*
Y0052965D01*
X0381150Y0051965D01*
X0390147Y0046966D02*
X0386148D01*
X0390147Y0050965D01*
Y0051965D01*
X0389147Y0052965D01*
X0387148D01*
X0386148Y0051965D01*
X0392146Y0046966D02*
X0396145Y0050965D01*
X0402143Y0046966D02*
X0398145D01*
X0402143Y0050965D01*
Y0051965D01*
X0401144Y0052965D01*
X0399144D01*
X0398145Y0051965D01*
X0404143Y0046966D02*
X0408141Y0050965D01*
X0414139Y0046966D02*
X0410141D01*
X0414139Y0050965D01*
Y0051965D01*
X0413140Y0052965D01*
X0411140D01*
X0410141Y0051965D01*
X0416139D02*
X0417138Y0052965D01*
X0419138D01*
X0420137Y0051965D01*
Y0047966D01*
X0419138Y0046966D01*
X0417138D01*
X0416139Y0047966D01*
Y0051965D01*
X0422137Y0046966D02*
X0424136D01*
X0423136D01*
Y0052965D01*
X0422137Y0051965D01*
X0427135D02*
X0428135Y0052965D01*
X0430134D01*
X0431134Y0051965D01*
Y0050965D01*
X0430134Y0049966D01*
X0431134Y0048966D01*
Y0047966D01*
X0430134Y0046966D01*
X0428135D01*
X0427135Y0047966D01*
Y0048966D01*
X0428135Y0049966D01*
X0427135Y0050965D01*
Y0051965D01*
X0428135Y0049966D02*
X0430134D01*
X0126900Y0046966D02*
Y0052965D01*
X0128899Y0050965D01*
X0130899Y0052965D01*
Y0046966D01*
X0132898Y0052965D02*
Y0046966D01*
X0135897D01*
X0136897Y0047966D01*
Y0051965D01*
X0135897Y0052965D01*
X0132898D01*
X0138896Y0051965D02*
X0139896Y0052965D01*
X0141895D01*
X0142895Y0051965D01*
Y0047966D01*
X0141895Y0046966D01*
X0139896D01*
X0138896Y0047966D01*
Y0051965D01*
X0144894Y0046966D02*
X0146894D01*
X0145894D01*
Y0052965D01*
X0144894Y0051965D01*
X0153891Y0052965D02*
X0149893D01*
Y0049966D01*
X0151892Y0050965D01*
X0152892D01*
X0153891Y0049966D01*
Y0047966D01*
X0152892Y0046966D01*
X0150892D01*
X0149893Y0047966D01*
X0155891Y0046966D02*
Y0050965D01*
X0157890Y0052965D01*
X0159889Y0050965D01*
Y0046966D01*
Y0049966D01*
X0155891D01*
X0161889Y0046966D02*
Y0047966D01*
X0162888D01*
Y0046966D01*
X0161889D01*
X0170886Y0051965D02*
X0169886Y0052965D01*
X0167887D01*
X0166887Y0051965D01*
Y0047966D01*
X0167887Y0046966D01*
X0169886D01*
X0170886Y0047966D01*
Y0049966D01*
X0168886D01*
X0172885Y0046966D02*
X0174884D01*
X0173885D01*
Y0052965D01*
X0172885Y0051965D01*
X0433000Y0087833D02*
Y0093831D01*
X0435999D01*
X0436999Y0092832D01*
Y0090832D01*
X0435999Y0089833D01*
X0433000D01*
X0434999D02*
X0436999Y0087833D01*
X0442997Y0093831D02*
X0438998D01*
Y0087833D01*
X0442997D01*
X0438998Y0090832D02*
X0440997D01*
X0444996Y0093831D02*
Y0089833D01*
X0446995Y0087833D01*
X0448995Y0089833D01*
Y0093831D01*
X0450994Y0091832D02*
X0451994D01*
Y0090832D01*
X0450994D01*
Y0091832D01*
Y0088833D02*
X0451994D01*
Y0087833D01*
X0450994D01*
Y0088833D01*
X0520799Y0092832D02*
X0519799Y0093831D01*
X0517800D01*
X0516800Y0092832D01*
Y0091832D01*
X0517800Y0090832D01*
X0519799D01*
X0520799Y0089833D01*
Y0088833D01*
X0519799Y0087833D01*
X0517800D01*
X0516800Y0088833D01*
X0522798Y0093831D02*
Y0089833D01*
X0524797Y0087833D01*
X0526797Y0089833D01*
Y0093831D01*
X0528796Y0087833D02*
Y0093831D01*
X0532795Y0087833D01*
Y0093831D01*
X0540792Y0087833D02*
Y0093831D01*
X0543791D01*
X0544791Y0092832D01*
Y0090832D01*
X0543791Y0089833D01*
X0540792D01*
X0542792D02*
X0544791Y0087833D01*
X0550789Y0093831D02*
X0546790D01*
Y0087833D01*
X0550789D01*
X0546790Y0090832D02*
X0548790D01*
X0552788Y0093831D02*
Y0089833D01*
X0554788Y0087833D01*
X0556787Y0089833D01*
Y0093831D01*
X0558786Y0091832D02*
X0559786D01*
Y0090832D01*
X0558786D01*
Y0091832D01*
Y0088833D02*
X0559786D01*
Y0087833D01*
X0558786D01*
Y0088833D01*
X0567400Y0087833D02*
Y0093831D01*
X0571399Y0087833D01*
Y0093831D01*
X0574398Y0087833D02*
X0576397D01*
X0577397Y0088833D01*
Y0090832D01*
X0576397Y0091832D01*
X0574398D01*
X0573398Y0090832D01*
Y0088833D01*
X0574398Y0087833D01*
X0580396Y0092832D02*
Y0091832D01*
X0579396D01*
X0581395D01*
X0580396D01*
Y0088833D01*
X0581395Y0087833D01*
X0590393Y0093831D02*
X0592392D01*
X0591392D01*
Y0087833D01*
X0590393D01*
X0592392D01*
X0595391D02*
Y0091832D01*
X0598390D01*
X0599390Y0090832D01*
Y0087833D01*
X0607387Y0093831D02*
Y0089833D01*
X0609386Y0087833D01*
X0611386Y0089833D01*
Y0093831D01*
X0616384Y0087833D02*
X0614385D01*
X0613385Y0088833D01*
Y0090832D01*
X0614385Y0091832D01*
X0616384D01*
X0617384Y0090832D01*
Y0089833D01*
X0613385D01*
X0619383Y0091832D02*
Y0087833D01*
Y0089833D01*
X0620383Y0090832D01*
X0621383Y0091832D01*
X0622382D01*
X0625381Y0087833D02*
X0628380D01*
X0629380Y0088833D01*
X0628380Y0089833D01*
X0626381D01*
X0625381Y0090832D01*
X0626381Y0091832D01*
X0629380D01*
X0631379Y0087833D02*
X0633379D01*
X0632379D01*
Y0091832D01*
X0631379D01*
X0637377Y0087833D02*
X0639377D01*
X0640376Y0088833D01*
Y0090832D01*
X0639377Y0091832D01*
X0637377D01*
X0636378Y0090832D01*
Y0088833D01*
X0637377Y0087833D01*
X0642376D02*
Y0091832D01*
X0645375D01*
X0646374Y0090832D01*
Y0087833D01*
X0652373Y0092832D02*
X0651373Y0093831D01*
X0649373D01*
X0648374Y0092832D01*
Y0088833D01*
X0649373Y0087833D01*
X0651373D01*
X0652373Y0088833D01*
X0655372Y0087833D02*
X0657371D01*
X0658371Y0088833D01*
Y0090832D01*
X0657371Y0091832D01*
X0655372D01*
X0654372Y0090832D01*
Y0088833D01*
X0655372Y0087833D01*
X0660370D02*
Y0091832D01*
X0663369D01*
X0664369Y0090832D01*
Y0087833D01*
X0667368Y0092832D02*
Y0091832D01*
X0666368D01*
X0668367D01*
X0667368D01*
Y0088833D01*
X0668367Y0087833D01*
X0671366Y0091832D02*
Y0087833D01*
Y0089833D01*
X0672366Y0090832D01*
X0673366Y0091832D01*
X0674365D01*
X0678364Y0087833D02*
X0680364D01*
X0681363Y0088833D01*
Y0090832D01*
X0680364Y0091832D01*
X0678364D01*
X0677364Y0090832D01*
Y0088833D01*
X0678364Y0087833D01*
X0683362D02*
X0685362D01*
X0684362D01*
Y0093831D01*
X0683362D01*
G54D154*
X0392093Y0389190D02*
D03*
G54D158*
X0210200Y0666195D02*
D03*
X0172720D02*
D03*
X0307511D02*
D03*
X0106859Y0525081D02*
D03*
Y0485081D02*
D03*
X0394342Y0445250D02*
D03*
Y0405250D02*
D03*
G54D180*
X0111756Y0683043D02*
X0126200Y0697487D01*
X0111756Y0648867D02*
Y0683043D01*
X0126200Y0697487D02*
X0240113D01*
X0113651Y0639762D02*
X0121513Y0647624D01*
Y0686445D01*
X0129768Y0694700D01*
X0177900D01*
X0180150Y0692450D01*
G54D183*
X0311335Y0224336D02*
D03*
G54D184*
X0247680Y0666195D02*
D03*
X0344991D02*
D03*
G54D190*
X0353200Y0628744D02*
D03*
X0318998Y0531936D02*
D03*
X0160000Y0633219D02*
D03*
X0205200Y0634189D02*
D03*
X0254634Y0634400D02*
D03*
G54D192*
X0393200Y0254400D02*
D03*
G54D193*
X0295000Y0700000D02*
D03*
X0290000Y0690000D02*
D03*
X0295000Y0680000D02*
D03*
X0290000Y0670000D02*
D03*
X0295000Y0660000D02*
D03*
X0290000Y0650000D02*
D03*
X0295000Y0640000D02*
D03*
X0290000Y0630000D02*
D03*
X0295000Y0620000D02*
D03*
X0290000Y0610000D02*
D03*
X0285000Y0700000D02*
D03*
X0280000Y0690000D02*
D03*
X0285000Y0680000D02*
D03*
X0280000Y0670000D02*
D03*
X0285000Y0660000D02*
D03*
X0280000Y0650000D02*
D03*
X0285000Y0640000D02*
D03*
X0280000Y0630000D02*
D03*
X0285000Y0620000D02*
D03*
X0275000Y0700000D02*
D03*
X0270000Y0690000D02*
D03*
X0275000Y0680000D02*
D03*
X0270000Y0670000D02*
D03*
X0275000Y0660000D02*
D03*
X0270000Y0650000D02*
D03*
X0275000Y0640000D02*
D03*
X0270000Y0630000D02*
D03*
X0275000Y0620000D02*
D03*
X0270000Y0610000D02*
D03*
X0265000Y0700000D02*
D03*
X0260000Y0690000D02*
D03*
X0265000Y0680000D02*
D03*
X0260000Y0670000D02*
D03*
X0265000Y0660000D02*
D03*
X0260000Y0650000D02*
D03*
X0265000Y0640000D02*
D03*
X0260000Y0630000D02*
D03*
X0265000Y0620000D02*
D03*
X0255000Y0700000D02*
D03*
X0250000Y0690000D02*
D03*
X0255000Y0680000D02*
D03*
Y0660000D02*
D03*
X0250000Y0650000D02*
D03*
Y0630000D02*
D03*
X0230000Y0690000D02*
D03*
Y0670000D02*
D03*
Y0650000D02*
D03*
Y0630000D02*
D03*
X0220000Y0690000D02*
D03*
X0225000Y0680000D02*
D03*
X0220000Y0670000D02*
D03*
X0225000Y0660000D02*
D03*
X0220000Y0650000D02*
D03*
X0225000Y0640000D02*
D03*
X0220000Y0630000D02*
D03*
X0210000Y0690000D02*
D03*
X0215000Y0680000D02*
D03*
Y0660000D02*
D03*
X0210000Y0650000D02*
D03*
X0215000Y0640000D02*
D03*
X0210000Y0630000D02*
D03*
Y0610000D02*
D03*
X0200000Y0690000D02*
D03*
X0205000Y0680000D02*
D03*
X0200000Y0670000D02*
D03*
X0205000Y0660000D02*
D03*
X0200000Y0650000D02*
D03*
Y0630000D02*
D03*
X0205000Y0620000D02*
D03*
X0200000Y0610000D02*
D03*
X0190000Y0690000D02*
D03*
X0195000Y0680000D02*
D03*
X0190000Y0670000D02*
D03*
X0195000Y0660000D02*
D03*
X0190000Y0650000D02*
D03*
X0195000Y0640000D02*
D03*
X0190000Y0630000D02*
D03*
X0195000Y0620000D02*
D03*
X0190000Y0610000D02*
D03*
X0170000Y0690000D02*
D03*
X0175000Y0680000D02*
D03*
Y0660000D02*
D03*
X0170000Y0650000D02*
D03*
X0175000Y0640000D02*
D03*
X0170000Y0630000D02*
D03*
X0175000Y0620000D02*
D03*
X0170000Y0610000D02*
D03*
X0160000Y0690000D02*
D03*
X0165000Y0680000D02*
D03*
X0160000Y0670000D02*
D03*
X0165000Y0660000D02*
D03*
X0160000Y0650000D02*
D03*
X0165000Y0640000D02*
D03*
Y0620000D02*
D03*
X0160000Y0610000D02*
D03*
X0150000Y0690000D02*
D03*
X0155000Y0680000D02*
D03*
X0150000Y0670000D02*
D03*
X0155000Y0660000D02*
D03*
X0150000Y0650000D02*
D03*
X0155000Y0640000D02*
D03*
X0150000Y0630000D02*
D03*
X0155000Y0620000D02*
D03*
X0140000Y0690000D02*
D03*
X0145000Y0680000D02*
D03*
X0140000Y0670000D02*
D03*
X0145000Y0660000D02*
D03*
X0140000Y0650000D02*
D03*
X0145000Y0640000D02*
D03*
X0140000Y0630000D02*
D03*
X0145000Y0620000D02*
D03*
X0140000Y0610000D02*
D03*
X0130000Y0690000D02*
D03*
X0135000Y0680000D02*
D03*
X0130000Y0670000D02*
D03*
X0135000Y0660000D02*
D03*
X0130000Y0650000D02*
D03*
X0135000Y0640000D02*
D03*
X0130000Y0630000D02*
D03*
X0125000Y0680000D02*
D03*
Y0660000D02*
D03*
Y0640000D02*
D03*
X0120000Y0630000D02*
D03*
X0330000Y0650000D02*
D03*
Y0630000D02*
D03*
Y0610000D02*
D03*
X0325000Y0660000D02*
D03*
X0320000Y0650000D02*
D03*
X0325000Y0640000D02*
D03*
X0320000Y0630000D02*
D03*
X0325000Y0620000D02*
D03*
X0320000Y0610000D02*
D03*
X0315000Y0660000D02*
D03*
X0310000Y0650000D02*
D03*
X0315000Y0640000D02*
D03*
X0310000Y0630000D02*
D03*
X0345000Y0590000D02*
D03*
X0340000Y0560000D02*
D03*
X0345000Y0550000D02*
D03*
X0340000Y0540000D02*
D03*
X0345000Y0530000D02*
D03*
X0340000Y0520000D02*
D03*
X0345000Y0510000D02*
D03*
X0340000Y0480000D02*
D03*
X0335000Y0590000D02*
D03*
X0330000Y0560000D02*
D03*
X0335000Y0550000D02*
D03*
X0330000Y0540000D02*
D03*
X0335000Y0530000D02*
D03*
X0330000Y0520000D02*
D03*
X0335000Y0510000D02*
D03*
X0330000Y0480000D02*
D03*
X0325000Y0590000D02*
D03*
X0320000Y0580000D02*
D03*
Y0560000D02*
D03*
X0325000Y0550000D02*
D03*
X0320000Y0540000D02*
D03*
X0325000Y0530000D02*
D03*
X0320000Y0520000D02*
D03*
X0325000Y0510000D02*
D03*
X0320000Y0500000D02*
D03*
Y0480000D02*
D03*
X0315000Y0570000D02*
D03*
X0310000Y0560000D02*
D03*
X0315000Y0550000D02*
D03*
X0310000Y0540000D02*
D03*
Y0520000D02*
D03*
X0315000Y0510000D02*
D03*
X0310000Y0500000D02*
D03*
X0315000Y0490000D02*
D03*
X0300000Y0580000D02*
D03*
X0305000Y0570000D02*
D03*
X0300000Y0520000D02*
D03*
X0305000Y0510000D02*
D03*
X0300000Y0500000D02*
D03*
X0295000Y0510000D02*
D03*
X0290000Y0480000D02*
D03*
X0410000Y0640000D02*
D03*
Y0620000D02*
D03*
Y0600000D02*
D03*
Y0580000D02*
D03*
Y0560000D02*
D03*
Y0540000D02*
D03*
Y0520000D02*
D03*
Y0500000D02*
D03*
Y0480000D02*
D03*
Y0460000D02*
D03*
Y0440000D02*
D03*
Y0420000D02*
D03*
Y0400000D02*
D03*
Y0380000D02*
D03*
Y0360000D02*
D03*
Y0340000D02*
D03*
Y0320000D02*
D03*
Y0300000D02*
D03*
Y0280000D02*
D03*
Y0260000D02*
D03*
Y0240000D02*
D03*
Y0220000D02*
D03*
Y0200000D02*
D03*
X0405000Y0670000D02*
D03*
Y0650000D02*
D03*
X0400000Y0640000D02*
D03*
X0405000Y0630000D02*
D03*
X0400000Y0620000D02*
D03*
X0405000Y0610000D02*
D03*
X0400000Y0600000D02*
D03*
X0405000Y0590000D02*
D03*
X0400000Y0560000D02*
D03*
X0405000Y0550000D02*
D03*
X0400000Y0540000D02*
D03*
X0405000Y0530000D02*
D03*
X0400000Y0520000D02*
D03*
X0405000Y0510000D02*
D03*
X0400000Y0480000D02*
D03*
X0405000Y0470000D02*
D03*
X0400000Y0460000D02*
D03*
X0405000Y0450000D02*
D03*
X0400000Y0440000D02*
D03*
X0405000Y0430000D02*
D03*
X0400000Y0420000D02*
D03*
X0405000Y0270000D02*
D03*
Y0250000D02*
D03*
Y0230000D02*
D03*
X0400000Y0220000D02*
D03*
X0405000Y0210000D02*
D03*
X0400000Y0200000D02*
D03*
X0390000Y0660000D02*
D03*
X0395000Y0650000D02*
D03*
X0390000Y0640000D02*
D03*
X0395000Y0630000D02*
D03*
X0390000Y0620000D02*
D03*
X0395000Y0610000D02*
D03*
X0390000Y0600000D02*
D03*
X0395000Y0590000D02*
D03*
X0390000Y0560000D02*
D03*
X0395000Y0550000D02*
D03*
X0390000Y0540000D02*
D03*
X0395000Y0530000D02*
D03*
X0390000Y0520000D02*
D03*
X0395000Y0510000D02*
D03*
X0390000Y0480000D02*
D03*
X0395000Y0470000D02*
D03*
X0390000Y0460000D02*
D03*
Y0440000D02*
D03*
X0395000Y0430000D02*
D03*
X0390000Y0400000D02*
D03*
Y0380000D02*
D03*
Y0360000D02*
D03*
Y0340000D02*
D03*
Y0320000D02*
D03*
Y0220000D02*
D03*
X0395000Y0210000D02*
D03*
X0390000Y0200000D02*
D03*
X0385000Y0670000D02*
D03*
X0380000Y0660000D02*
D03*
X0385000Y0650000D02*
D03*
X0380000Y0640000D02*
D03*
X0385000Y0630000D02*
D03*
X0380000Y0620000D02*
D03*
X0385000Y0610000D02*
D03*
X0380000Y0600000D02*
D03*
X0385000Y0590000D02*
D03*
X0380000Y0560000D02*
D03*
X0385000Y0550000D02*
D03*
X0380000Y0540000D02*
D03*
X0385000Y0530000D02*
D03*
X0380000Y0520000D02*
D03*
X0385000Y0510000D02*
D03*
X0380000Y0480000D02*
D03*
X0385000Y0470000D02*
D03*
X0380000Y0460000D02*
D03*
X0385000Y0450000D02*
D03*
Y0430000D02*
D03*
Y0410000D02*
D03*
X0380000Y0400000D02*
D03*
X0385000Y0390000D02*
D03*
X0380000Y0380000D02*
D03*
Y0360000D02*
D03*
Y0340000D02*
D03*
Y0320000D02*
D03*
Y0220000D02*
D03*
X0385000Y0210000D02*
D03*
X0380000Y0200000D02*
D03*
X0370000Y0700000D02*
D03*
X0375000Y0690000D02*
D03*
X0370000Y0680000D02*
D03*
X0375000Y0670000D02*
D03*
X0370000Y0660000D02*
D03*
X0375000Y0650000D02*
D03*
X0370000Y0640000D02*
D03*
X0375000Y0630000D02*
D03*
X0370000Y0620000D02*
D03*
X0375000Y0610000D02*
D03*
X0370000Y0600000D02*
D03*
X0375000Y0590000D02*
D03*
X0370000Y0580000D02*
D03*
Y0560000D02*
D03*
X0375000Y0550000D02*
D03*
X0370000Y0540000D02*
D03*
X0375000Y0530000D02*
D03*
X0370000Y0520000D02*
D03*
X0375000Y0510000D02*
D03*
X0370000Y0500000D02*
D03*
Y0480000D02*
D03*
X0375000Y0470000D02*
D03*
X0370000Y0460000D02*
D03*
X0375000Y0450000D02*
D03*
X0370000Y0220000D02*
D03*
X0375000Y0210000D02*
D03*
X0370000Y0200000D02*
D03*
X0375000Y0190000D02*
D03*
X0370000Y0180000D02*
D03*
X0375000Y0170000D02*
D03*
X0360000Y0700000D02*
D03*
X0365000Y0690000D02*
D03*
X0360000Y0680000D02*
D03*
X0365000Y0670000D02*
D03*
X0360000Y0660000D02*
D03*
X0365000Y0650000D02*
D03*
X0360000Y0640000D02*
D03*
X0365000Y0630000D02*
D03*
X0360000Y0620000D02*
D03*
X0365000Y0610000D02*
D03*
X0360000Y0600000D02*
D03*
X0365000Y0590000D02*
D03*
X0360000Y0580000D02*
D03*
X0365000Y0570000D02*
D03*
X0360000Y0560000D02*
D03*
X0365000Y0550000D02*
D03*
X0360000Y0540000D02*
D03*
X0365000Y0530000D02*
D03*
X0360000Y0520000D02*
D03*
X0365000Y0510000D02*
D03*
X0360000Y0500000D02*
D03*
X0365000Y0490000D02*
D03*
X0360000Y0480000D02*
D03*
X0365000Y0470000D02*
D03*
X0360000Y0460000D02*
D03*
Y0220000D02*
D03*
X0365000Y0210000D02*
D03*
X0360000Y0200000D02*
D03*
X0365000Y0190000D02*
D03*
X0360000Y0180000D02*
D03*
X0365000Y0170000D02*
D03*
X0350000Y0700000D02*
D03*
X0355000Y0690000D02*
D03*
X0350000Y0680000D02*
D03*
X0355000Y0670000D02*
D03*
X0350000Y0660000D02*
D03*
X0355000Y0650000D02*
D03*
X0350000Y0640000D02*
D03*
Y0620000D02*
D03*
X0355000Y0610000D02*
D03*
X0350000Y0600000D02*
D03*
X0355000Y0590000D02*
D03*
Y0470000D02*
D03*
X0350000Y0460000D02*
D03*
Y0220000D02*
D03*
X0355000Y0210000D02*
D03*
X0350000Y0200000D02*
D03*
X0355000Y0190000D02*
D03*
X0350000Y0180000D02*
D03*
X0355000Y0170000D02*
D03*
X0340000Y0700000D02*
D03*
X0345000Y0690000D02*
D03*
X0340000Y0680000D02*
D03*
Y0660000D02*
D03*
X0345000Y0650000D02*
D03*
X0340000Y0640000D02*
D03*
X0345000Y0630000D02*
D03*
X0340000Y0620000D02*
D03*
X0345000Y0610000D02*
D03*
Y0470000D02*
D03*
X0340000Y0460000D02*
D03*
Y0220000D02*
D03*
X0345000Y0210000D02*
D03*
X0340000Y0200000D02*
D03*
X0345000Y0190000D02*
D03*
X0340000Y0180000D02*
D03*
X0345000Y0170000D02*
D03*
X0330000Y0700000D02*
D03*
X0335000Y0690000D02*
D03*
X0330000Y0680000D02*
D03*
Y0460000D02*
D03*
Y0220000D02*
D03*
X0335000Y0210000D02*
D03*
X0330000Y0200000D02*
D03*
X0335000Y0190000D02*
D03*
X0330000Y0180000D02*
D03*
X0335000Y0170000D02*
D03*
X0320000Y0700000D02*
D03*
X0325000Y0690000D02*
D03*
X0320000Y0680000D02*
D03*
Y0220000D02*
D03*
X0325000Y0210000D02*
D03*
X0320000Y0200000D02*
D03*
X0325000Y0190000D02*
D03*
X0320000Y0180000D02*
D03*
X0325000Y0170000D02*
D03*
X0310000Y0700000D02*
D03*
X0315000Y0690000D02*
D03*
X0310000Y0680000D02*
D03*
X0315000Y0210000D02*
D03*
X0310000Y0200000D02*
D03*
X0315000Y0190000D02*
D03*
X0310000Y0180000D02*
D03*
X0315000Y0170000D02*
D03*
X0305000Y0690000D02*
D03*
X0300000Y0220000D02*
D03*
X0305000Y0210000D02*
D03*
X0300000Y0200000D02*
D03*
X0305000Y0190000D02*
D03*
X0300000Y0180000D02*
D03*
X0305000Y0170000D02*
D03*
X0290000Y0460000D02*
D03*
X0295000Y0210000D02*
D03*
X0290000Y0200000D02*
D03*
X0295000Y0190000D02*
D03*
X0290000Y0180000D02*
D03*
X0295000Y0170000D02*
D03*
X0280000Y0240000D02*
D03*
X0285000Y0210000D02*
D03*
X0280000Y0200000D02*
D03*
X0285000Y0190000D02*
D03*
X0280000Y0180000D02*
D03*
X0285000Y0170000D02*
D03*
X0275000Y0210000D02*
D03*
X0270000Y0200000D02*
D03*
X0275000Y0190000D02*
D03*
X0270000Y0180000D02*
D03*
X0275000Y0170000D02*
D03*
X0260000Y0440000D02*
D03*
X0265000Y0430000D02*
D03*
X0260000Y0420000D02*
D03*
Y0220000D02*
D03*
X0265000Y0210000D02*
D03*
X0260000Y0200000D02*
D03*
X0265000Y0190000D02*
D03*
X0260000Y0180000D02*
D03*
X0265000Y0170000D02*
D03*
X0250000Y0440000D02*
D03*
X0255000Y0210000D02*
D03*
X0250000Y0200000D02*
D03*
X0255000Y0190000D02*
D03*
X0250000Y0180000D02*
D03*
X0255000Y0170000D02*
D03*
X0240000Y0420000D02*
D03*
X0245000Y0210000D02*
D03*
X0240000Y0200000D02*
D03*
X0245000Y0190000D02*
D03*
X0240000Y0180000D02*
D03*
X0245000Y0170000D02*
D03*
X0230000Y0460000D02*
D03*
Y0440000D02*
D03*
X0235000Y0430000D02*
D03*
X0230000Y0420000D02*
D03*
Y0220000D02*
D03*
X0235000Y0210000D02*
D03*
X0230000Y0200000D02*
D03*
X0235000Y0190000D02*
D03*
X0230000Y0180000D02*
D03*
X0235000Y0170000D02*
D03*
X0220000Y0460000D02*
D03*
Y0440000D02*
D03*
X0225000Y0430000D02*
D03*
X0220000Y0420000D02*
D03*
Y0220000D02*
D03*
X0225000Y0210000D02*
D03*
X0220000Y0200000D02*
D03*
X0225000Y0190000D02*
D03*
X0220000Y0180000D02*
D03*
X0225000Y0170000D02*
D03*
X0210000Y0460000D02*
D03*
X0215000Y0450000D02*
D03*
X0210000Y0440000D02*
D03*
X0215000Y0430000D02*
D03*
X0200000Y0460000D02*
D03*
X0205000Y0450000D02*
D03*
X0200000Y0440000D02*
D03*
X0195000Y0450000D02*
D03*
X0115000D02*
D03*
Y0430000D02*
D03*
X0105000Y0670000D02*
D03*
X0100000Y0660000D02*
D03*
X0105000Y0650000D02*
D03*
Y0450000D02*
D03*
X0100000Y0260000D02*
D03*
X0090000Y0660000D02*
D03*
X0095000Y0650000D02*
D03*
X0090000Y0640000D02*
D03*
Y0620000D02*
D03*
Y0600000D02*
D03*
X0095000Y0510000D02*
D03*
Y0490000D02*
D03*
X0090000Y0440000D02*
D03*
X0095000Y0430000D02*
D03*
X0090000Y0420000D02*
D03*
Y0260000D02*
D03*
X0085000Y0670000D02*
D03*
Y0650000D02*
D03*
X0080000Y0640000D02*
D03*
X0085000Y0630000D02*
D03*
X0080000Y0620000D02*
D03*
Y0440000D02*
D03*
X0085000Y0430000D02*
D03*
X0080000Y0420000D02*
D03*
Y0400000D02*
D03*
Y0360000D02*
D03*
Y0340000D02*
D03*
Y0320000D02*
D03*
Y0300000D02*
D03*
Y0260000D02*
D03*
G54D194*
X0230258Y0548861D02*
D03*
X0227905Y0553030D02*
D03*
X0220716Y0540996D02*
D03*
X0215618Y0541209D02*
D03*
X0225909Y0541282D02*
D03*
X0210582Y0548850D02*
D03*
X0213173Y0552400D02*
D03*
X0127445Y0559811D02*
D03*
X0127461Y0564400D02*
D03*
X0127445Y0568811D02*
D03*
X0131530D02*
D03*
X0131545Y0564400D02*
D03*
X0131530Y0559811D02*
D03*
X0135615Y0568811D02*
D03*
X0135630Y0564400D02*
D03*
X0135615Y0559811D02*
D03*
X0211321Y0568790D02*
D03*
X0211337Y0564379D02*
D03*
X0211321Y0559791D02*
D03*
X0256700Y0568343D02*
D03*
X0256716Y0563932D02*
D03*
X0256700Y0559343D02*
D03*
X0220894Y0568938D02*
D03*
X0220910Y0564527D02*
D03*
X0220894Y0559938D02*
D03*
X0166540Y0558434D02*
D03*
Y0567400D02*
D03*
X0282111Y0568898D02*
D03*
Y0559400D02*
D03*
X0223188Y0552400D02*
D03*
X0256865Y0606269D02*
D03*
X0251956Y0610192D02*
D03*
X0286917Y0587900D02*
D03*
X0113651Y0639762D02*
D03*
X0112450Y0599971D02*
D03*
X0112502Y0586400D02*
D03*
X0110095Y0589468D02*
D03*
X0112502Y0592900D02*
D03*
X0108016D02*
D03*
X0110200Y0596439D02*
D03*
X0111756Y0648867D02*
D03*
X0115748Y0553400D02*
D03*
X0139798Y0559898D02*
D03*
X0083200Y0488792D02*
D03*
X0277737Y0560324D02*
D03*
X0286737D02*
D03*
X0277737Y0567474D02*
D03*
X0286737D02*
D03*
X0162255Y0558900D02*
D03*
X0171255D02*
D03*
X0162255Y0566050D02*
D03*
X0171255D02*
D03*
X0190950Y0559156D02*
D03*
X0195361Y0558449D02*
D03*
X0199950Y0559156D02*
D03*
X0190950Y0566306D02*
D03*
X0195361Y0567116D02*
D03*
X0199950Y0566306D02*
D03*
X0136614Y0186487D02*
D03*
X0294025Y0247232D02*
D03*
X0184789Y0204055D02*
D03*
X0192469D02*
D03*
X0196137Y0207593D02*
D03*
X0188572Y0200110D02*
D03*
X0196137D02*
D03*
X0188572Y0207593D02*
D03*
X0184789Y0191869D02*
D03*
X0192469D02*
D03*
X0196137Y0195407D02*
D03*
X0188572Y0187923D02*
D03*
X0196137D02*
D03*
X0188572Y0195407D02*
D03*
X0184789Y0179400D02*
D03*
X0192469D02*
D03*
X0196137Y0182938D02*
D03*
X0188572Y0175454D02*
D03*
X0196137D02*
D03*
X0188572Y0182938D02*
D03*
Y0170220D02*
D03*
X0147326Y0202539D02*
D03*
X0150504Y0293732D02*
D03*
X0150541Y0273968D02*
D03*
X0143597Y0308736D02*
D03*
X0132658Y0311846D02*
D03*
X0101105Y0265697D02*
D03*
X0113263Y0265714D02*
D03*
X0090931Y0385000D02*
D03*
X0210915Y0250400D02*
D03*
X0203271D02*
D03*
X0195283D02*
D03*
X0187586D02*
D03*
X0127200Y0182949D02*
D03*
Y0174243D02*
D03*
X0127035Y0166092D02*
D03*
X0134200D02*
D03*
X0196137Y0162736D02*
D03*
X0188572D02*
D03*
X0196137Y0170220D02*
D03*
X0192469Y0166682D02*
D03*
X0184789D02*
D03*
X0178241Y0200641D02*
D03*
X0187200Y0216400D02*
D03*
X0151453Y0188400D02*
D03*
X0133560Y0184006D02*
D03*
X0145200Y0259400D02*
D03*
X0133560Y0256756D02*
D03*
X0181046Y0252488D02*
D03*
X0100189Y0314466D02*
D03*
X0090419Y0273421D02*
D03*
X0142217Y0322965D02*
D03*
X0138206Y0328208D02*
D03*
X0142206D02*
D03*
X0271902Y0232263D02*
D03*
Y0218409D02*
D03*
X0237697Y0247232D02*
D03*
X0333576Y0287067D02*
D03*
Y0283067D02*
D03*
X0310736Y0262735D02*
D03*
X0352127Y0401694D02*
D03*
X0232510Y0300084D02*
D03*
X0316492Y0313937D02*
D03*
X0201455Y0321094D02*
D03*
X0336395Y0383530D02*
D03*
X0321480Y0377530D02*
D03*
X0305135Y0371400D02*
D03*
X0241940Y0568400D02*
D03*
X0241956Y0563989D02*
D03*
X0241940Y0559400D02*
D03*
X0246940D02*
D03*
X0247038Y0563989D02*
D03*
X0246940Y0568400D02*
D03*
X0251940D02*
D03*
X0251956Y0563989D02*
D03*
X0251940Y0559400D02*
D03*
X0224484Y0559898D02*
D03*
X0224500Y0564486D02*
D03*
X0224484Y0568898D02*
D03*
X0217334Y0559898D02*
D03*
X0217350Y0564486D02*
D03*
X0217334Y0568898D02*
D03*
X0228216Y0545323D02*
D03*
X0139700Y0568811D02*
D03*
X0139798Y0564400D02*
D03*
X0127301Y0548489D02*
D03*
X0140200Y0478400D02*
D03*
X0163645Y0357943D02*
D03*
X0303254Y0448400D02*
D03*
X0116445Y0392400D02*
D03*
X0233712Y0288224D02*
D03*
X0115972Y0340522D02*
D03*
X0111343Y0322214D02*
D03*
X0116200Y0316400D02*
D03*
X0199232Y0591176D02*
D03*
X0194231Y0595176D02*
D03*
X0185231Y0587176D02*
D03*
X0189232D02*
D03*
X0194231D02*
D03*
X0199232D02*
D03*
X0189232Y0591176D02*
D03*
X0185231D02*
D03*
X0189232Y0595176D02*
D03*
X0185231D02*
D03*
X0199232Y0599176D02*
D03*
X0194231D02*
D03*
X0189232D02*
D03*
X0185231D02*
D03*
X0128605Y0614837D02*
D03*
X0119605Y0606837D02*
D03*
X0123605D02*
D03*
X0128605D02*
D03*
X0133605D02*
D03*
X0128605Y0610837D02*
D03*
X0123605D02*
D03*
X0119605D02*
D03*
X0133605Y0614837D02*
D03*
X0123605D02*
D03*
X0119605D02*
D03*
X0133605Y0618837D02*
D03*
X0128605D02*
D03*
X0123605D02*
D03*
X0119605D02*
D03*
X0156540Y0599028D02*
D03*
X0161540D02*
D03*
X0166540D02*
D03*
X0152540Y0595028D02*
D03*
X0156540D02*
D03*
X0152540Y0591028D02*
D03*
X0156540D02*
D03*
X0161540Y0587028D02*
D03*
X0156540D02*
D03*
X0152540D02*
D03*
X0161540Y0595028D02*
D03*
X0242865Y0618269D02*
D03*
X0246865D02*
D03*
X0251865D02*
D03*
X0256865D02*
D03*
X0242865Y0614269D02*
D03*
X0246865D02*
D03*
X0256865D02*
D03*
X0242865Y0610269D02*
D03*
X0246865D02*
D03*
X0251865Y0606269D02*
D03*
X0246865D02*
D03*
X0242865D02*
D03*
X0277661Y0599971D02*
D03*
X0281661D02*
D03*
X0286661D02*
D03*
X0291661D02*
D03*
X0277661Y0595971D02*
D03*
X0281661D02*
D03*
X0291661D02*
D03*
X0277661Y0591971D02*
D03*
X0281661D02*
D03*
X0291661Y0587971D02*
D03*
X0281661D02*
D03*
X0277661D02*
D03*
X0286661Y0595971D02*
D03*
X0216785Y0618076D02*
D03*
X0220785D02*
D03*
X0225785D02*
D03*
X0230785D02*
D03*
X0216785Y0614076D02*
D03*
X0220785D02*
D03*
X0230785D02*
D03*
X0216785Y0610076D02*
D03*
X0220785D02*
D03*
X0225785D02*
D03*
X0230785Y0606076D02*
D03*
X0225785D02*
D03*
X0220785D02*
D03*
X0216785D02*
D03*
X0225785Y0614076D02*
D03*
X0230785Y0610076D02*
D03*
X0166540Y0591028D02*
D03*
X0161540D02*
D03*
X0199232Y0595176D02*
D03*
X0194231Y0591176D02*
D03*
X0317998Y0341579D02*
D03*
X0170961Y0329253D02*
D03*
X0102875Y0285810D02*
D03*
X0103915Y0295106D02*
D03*
X0218216Y0545323D02*
D03*
X0223216D02*
D03*
X0213216D02*
D03*
X0218173Y0552400D02*
D03*
X0166540Y0595028D02*
D03*
X0256865Y0610372D02*
D03*
X0251865Y0614372D02*
D03*
X0286813Y0591750D02*
D03*
X0291661Y0591800D02*
D03*
X0315560Y0240947D02*
D03*
X0166540Y0587081D02*
D03*
X0133605Y0610837D02*
D03*
X0307511Y0291400D02*
D03*
X0142366Y0388149D02*
D03*
X0237697Y0240630D02*
D03*
X0226429Y0277428D02*
D03*
X0284198Y0475400D02*
D03*
X0249662Y0254707D02*
D03*
X0117200Y0380400D02*
D03*
X0348420Y0430400D02*
D03*
X0152540Y0599028D02*
D03*
X0128605Y0322623D02*
D03*
X0335544Y0424425D02*
D03*
G54D195*
X0199169Y0484628D02*
D03*
Y0496046D02*
D03*
X0204877Y0490337D02*
D03*
X0193460D02*
D03*
X0199169D02*
D03*
X0122797Y0292153D02*
D03*
X0116990Y0297960D02*
D03*
Y0292153D02*
D03*
Y0286346D02*
D03*
X0111183Y0292153D02*
D03*
X0144667Y0362254D02*
D03*
X0140021Y0366900D02*
D03*
Y0362254D02*
D03*
X0144667Y0356782D02*
D03*
X0140021Y0352136D02*
D03*
Y0356782D02*
D03*
X0129903D02*
D03*
X0134548Y0352136D02*
D03*
Y0356782D02*
D03*
Y0362254D02*
D03*
Y0366900D02*
D03*
X0129903Y0362254D02*
D03*
X0268287Y0449758D02*
D03*
X0274113D02*
D03*
X0271200Y0454679D02*
D03*
Y0444837D02*
D03*
G54D196*
X0089193Y0354400D02*
D03*
M02*
