G04*
G04 #@! TF.GenerationSoftware,Altium Limited,Altium Designer,18.1.9 (240)*
G04*
G04 Layer_Color=128*
%FSAX25Y25*%
%MOIN*%
G70*
G01*
G75*
%ADD16C,0.01000*%
%ADD18C,0.00500*%
%ADD22C,0.00800*%
G54D16*
X0559400Y0039400D02*
Y0059683D01*
X0440500Y0040050D02*
X0700200D01*
Y0101050D01*
X0286500Y0040050D02*
Y0101050D01*
X0040000Y0040050D02*
Y0101050D01*
X0040050Y0040050D02*
X0197600D01*
X0040050D02*
Y0101050D01*
X0700200D01*
X0040000Y0040050D02*
X0440500D01*
X0040000Y0060383D02*
X0700000D01*
X0040000Y0080717D02*
X0700200D01*
X0413200D02*
Y0101050D01*
X0497200Y0080717D02*
Y0101050D01*
G54D18*
X0309366Y0224336D02*
X0313303D01*
X0311335Y0222367D02*
Y0226304D01*
X0289681Y0224336D02*
X0293618D01*
X0291650Y0222367D02*
Y0226304D01*
X0207641Y0666195D02*
X0212759D01*
X0210200Y0663636D02*
Y0668754D01*
X0245121Y0666195D02*
X0250239D01*
X0247680Y0663636D02*
Y0668754D01*
X0170161Y0666195D02*
X0175279D01*
X0172720Y0663636D02*
Y0668754D01*
X0304952Y0666195D02*
X0310070D01*
X0307511Y0663636D02*
Y0668754D01*
X0342432Y0666195D02*
X0347550D01*
X0344991Y0663636D02*
Y0668754D01*
X0389731Y0310450D02*
X0394456D01*
X0392093Y0308088D02*
Y0312812D01*
X0389731Y0330135D02*
X0394456D01*
X0392093Y0327773D02*
Y0332497D01*
X0389731Y0349820D02*
X0394456D01*
X0392093Y0347458D02*
Y0352182D01*
X0389731Y0369505D02*
X0394456D01*
X0392093Y0367143D02*
Y0371867D01*
X0389731Y0389190D02*
X0394456D01*
X0392093Y0386828D02*
Y0391552D01*
X0388901Y0177400D02*
X0401499D01*
X0395200Y0171101D02*
Y0183699D01*
X0173697Y0165304D02*
X0176059D01*
X0174878Y0164123D02*
Y0166485D01*
X0142595Y0165304D02*
X0144957D01*
X0143776Y0164123D02*
Y0166485D01*
X0380086Y0289955D02*
X0384101D01*
X0382093Y0287948D02*
Y0291963D01*
X0390086Y0289955D02*
X0394101D01*
X0392093Y0287948D02*
Y0291963D01*
X0400086Y0289955D02*
X0404101D01*
X0402093Y0287948D02*
Y0291963D01*
X0171200Y0537400D02*
X0175200D01*
X0173200Y0535400D02*
Y0539400D01*
X0351200Y0628744D02*
X0355200D01*
X0353200Y0626744D02*
Y0630744D01*
X0316998Y0531936D02*
X0320998D01*
X0318998Y0529936D02*
Y0533936D01*
X0104300Y0525081D02*
X0109418D01*
X0106859Y0522522D02*
Y0527640D01*
X0104300Y0485081D02*
X0109418D01*
X0106859Y0482522D02*
Y0487640D01*
X0391527Y0234400D02*
X0394873D01*
X0393200Y0232727D02*
Y0236073D01*
X0391527Y0244400D02*
X0394873D01*
X0393200Y0242727D02*
Y0246073D01*
X0391527Y0254400D02*
X0394873D01*
X0393200Y0252727D02*
Y0256073D01*
X0086901Y0689400D02*
X0099499D01*
X0093200Y0683101D02*
Y0695699D01*
X0086901Y0177400D02*
X0099499D01*
X0093200Y0171101D02*
Y0183699D01*
X0388901Y0689400D02*
X0401499D01*
X0395200Y0683101D02*
Y0695699D01*
X0158000Y0633219D02*
X0162000D01*
X0160000Y0631219D02*
Y0635219D01*
X0203200Y0634189D02*
X0207200D01*
X0205200Y0632189D02*
Y0636189D01*
X0252634Y0634400D02*
X0256634D01*
X0254634Y0632400D02*
Y0636400D01*
X0149866Y0537400D02*
X0153866D01*
X0151866Y0535400D02*
Y0539400D01*
X0213200Y0529400D02*
X0217200D01*
X0215200Y0527400D02*
Y0531400D01*
X0236760Y0529400D02*
X0240760D01*
X0238760Y0527400D02*
Y0531400D01*
X0391782Y0445250D02*
X0396901D01*
X0394342Y0442691D02*
Y0447809D01*
X0391782Y0405250D02*
X0396901D01*
X0394342Y0402691D02*
Y0407809D01*
X0257200Y0529400D02*
X0261200D01*
X0259200Y0527400D02*
Y0531400D01*
X0194247Y0529400D02*
X0198247D01*
X0196247Y0527400D02*
Y0531400D01*
X0294200Y0700000D02*
X0295800D01*
X0295000Y0699200D02*
Y0700800D01*
X0289200Y0690000D02*
X0290800D01*
X0290000Y0689200D02*
Y0690800D01*
X0294200Y0680000D02*
X0295800D01*
X0295000Y0679200D02*
Y0680800D01*
X0289200Y0670000D02*
X0290800D01*
X0290000Y0669200D02*
Y0670800D01*
X0294200Y0660000D02*
X0295800D01*
X0295000Y0659200D02*
Y0660800D01*
X0289200Y0650000D02*
X0290800D01*
X0290000Y0649200D02*
Y0650800D01*
X0294200Y0640000D02*
X0295800D01*
X0295000Y0639200D02*
Y0640800D01*
X0289200Y0630000D02*
X0290800D01*
X0290000Y0629200D02*
Y0630800D01*
X0294200Y0620000D02*
X0295800D01*
X0295000Y0619200D02*
Y0620800D01*
X0289200Y0610000D02*
X0290800D01*
X0290000Y0609200D02*
Y0610800D01*
X0284200Y0700000D02*
X0285800D01*
X0285000Y0699200D02*
Y0700800D01*
X0279200Y0690000D02*
X0280800D01*
X0280000Y0689200D02*
Y0690800D01*
X0284200Y0680000D02*
X0285800D01*
X0285000Y0679200D02*
Y0680800D01*
X0279200Y0670000D02*
X0280800D01*
X0280000Y0669200D02*
Y0670800D01*
X0284200Y0660000D02*
X0285800D01*
X0285000Y0659200D02*
Y0660800D01*
X0279200Y0650000D02*
X0280800D01*
X0280000Y0649200D02*
Y0650800D01*
X0284200Y0640000D02*
X0285800D01*
X0285000Y0639200D02*
Y0640800D01*
X0279200Y0630000D02*
X0280800D01*
X0280000Y0629200D02*
Y0630800D01*
X0284200Y0620000D02*
X0285800D01*
X0285000Y0619200D02*
Y0620800D01*
X0274200Y0700000D02*
X0275800D01*
X0275000Y0699200D02*
Y0700800D01*
X0269200Y0690000D02*
X0270800D01*
X0270000Y0689200D02*
Y0690800D01*
X0274200Y0680000D02*
X0275800D01*
X0275000Y0679200D02*
Y0680800D01*
X0269200Y0670000D02*
X0270800D01*
X0270000Y0669200D02*
Y0670800D01*
X0274200Y0660000D02*
X0275800D01*
X0275000Y0659200D02*
Y0660800D01*
X0269200Y0650000D02*
X0270800D01*
X0270000Y0649200D02*
Y0650800D01*
X0274200Y0640000D02*
X0275800D01*
X0275000Y0639200D02*
Y0640800D01*
X0269200Y0630000D02*
X0270800D01*
X0270000Y0629200D02*
Y0630800D01*
X0274200Y0620000D02*
X0275800D01*
X0275000Y0619200D02*
Y0620800D01*
X0269200Y0610000D02*
X0270800D01*
X0270000Y0609200D02*
Y0610800D01*
X0264200Y0700000D02*
X0265800D01*
X0265000Y0699200D02*
Y0700800D01*
X0259200Y0690000D02*
X0260800D01*
X0260000Y0689200D02*
Y0690800D01*
X0264200Y0680000D02*
X0265800D01*
X0265000Y0679200D02*
Y0680800D01*
X0259200Y0670000D02*
X0260800D01*
X0260000Y0669200D02*
Y0670800D01*
X0264200Y0660000D02*
X0265800D01*
X0265000Y0659200D02*
Y0660800D01*
X0259200Y0650000D02*
X0260800D01*
X0260000Y0649200D02*
Y0650800D01*
X0264200Y0640000D02*
X0265800D01*
X0265000Y0639200D02*
Y0640800D01*
X0259200Y0630000D02*
X0260800D01*
X0260000Y0629200D02*
Y0630800D01*
X0264200Y0620000D02*
X0265800D01*
X0265000Y0619200D02*
Y0620800D01*
X0254200Y0700000D02*
X0255800D01*
X0255000Y0699200D02*
Y0700800D01*
X0249200Y0690000D02*
X0250800D01*
X0250000Y0689200D02*
Y0690800D01*
X0254200Y0680000D02*
X0255800D01*
X0255000Y0679200D02*
Y0680800D01*
X0254200Y0660000D02*
X0255800D01*
X0255000Y0659200D02*
Y0660800D01*
X0249200Y0650000D02*
X0250800D01*
X0250000Y0649200D02*
Y0650800D01*
X0249200Y0630000D02*
X0250800D01*
X0250000Y0629200D02*
Y0630800D01*
X0229200Y0690000D02*
X0230800D01*
X0230000Y0689200D02*
Y0690800D01*
X0229200Y0670000D02*
X0230800D01*
X0230000Y0669200D02*
Y0670800D01*
X0229200Y0650000D02*
X0230800D01*
X0230000Y0649200D02*
Y0650800D01*
X0229200Y0630000D02*
X0230800D01*
X0230000Y0629200D02*
Y0630800D01*
X0219200Y0690000D02*
X0220800D01*
X0220000Y0689200D02*
Y0690800D01*
X0224200Y0680000D02*
X0225800D01*
X0225000Y0679200D02*
Y0680800D01*
X0219200Y0670000D02*
X0220800D01*
X0220000Y0669200D02*
Y0670800D01*
X0224200Y0660000D02*
X0225800D01*
X0225000Y0659200D02*
Y0660800D01*
X0219200Y0650000D02*
X0220800D01*
X0220000Y0649200D02*
Y0650800D01*
X0224200Y0640000D02*
X0225800D01*
X0225000Y0639200D02*
Y0640800D01*
X0219200Y0630000D02*
X0220800D01*
X0220000Y0629200D02*
Y0630800D01*
X0209200Y0690000D02*
X0210800D01*
X0210000Y0689200D02*
Y0690800D01*
X0214200Y0680000D02*
X0215800D01*
X0215000Y0679200D02*
Y0680800D01*
X0214200Y0660000D02*
X0215800D01*
X0215000Y0659200D02*
Y0660800D01*
X0209200Y0650000D02*
X0210800D01*
X0210000Y0649200D02*
Y0650800D01*
X0214200Y0640000D02*
X0215800D01*
X0215000Y0639200D02*
Y0640800D01*
X0209200Y0630000D02*
X0210800D01*
X0210000Y0629200D02*
Y0630800D01*
X0209200Y0610000D02*
X0210800D01*
X0210000Y0609200D02*
Y0610800D01*
X0199200Y0690000D02*
X0200800D01*
X0200000Y0689200D02*
Y0690800D01*
X0204200Y0680000D02*
X0205800D01*
X0205000Y0679200D02*
Y0680800D01*
X0199200Y0670000D02*
X0200800D01*
X0200000Y0669200D02*
Y0670800D01*
X0204200Y0660000D02*
X0205800D01*
X0205000Y0659200D02*
Y0660800D01*
X0199200Y0650000D02*
X0200800D01*
X0200000Y0649200D02*
Y0650800D01*
X0199200Y0630000D02*
X0200800D01*
X0200000Y0629200D02*
Y0630800D01*
X0204200Y0620000D02*
X0205800D01*
X0205000Y0619200D02*
Y0620800D01*
X0199200Y0610000D02*
X0200800D01*
X0200000Y0609200D02*
Y0610800D01*
X0189200Y0690000D02*
X0190800D01*
X0190000Y0689200D02*
Y0690800D01*
X0194200Y0680000D02*
X0195800D01*
X0195000Y0679200D02*
Y0680800D01*
X0189200Y0670000D02*
X0190800D01*
X0190000Y0669200D02*
Y0670800D01*
X0194200Y0660000D02*
X0195800D01*
X0195000Y0659200D02*
Y0660800D01*
X0189200Y0650000D02*
X0190800D01*
X0190000Y0649200D02*
Y0650800D01*
X0194200Y0640000D02*
X0195800D01*
X0195000Y0639200D02*
Y0640800D01*
X0189200Y0630000D02*
X0190800D01*
X0190000Y0629200D02*
Y0630800D01*
X0194200Y0620000D02*
X0195800D01*
X0195000Y0619200D02*
Y0620800D01*
X0189200Y0610000D02*
X0190800D01*
X0190000Y0609200D02*
Y0610800D01*
X0169200Y0690000D02*
X0170800D01*
X0170000Y0689200D02*
Y0690800D01*
X0174200Y0680000D02*
X0175800D01*
X0175000Y0679200D02*
Y0680800D01*
X0174200Y0660000D02*
X0175800D01*
X0175000Y0659200D02*
Y0660800D01*
X0169200Y0650000D02*
X0170800D01*
X0170000Y0649200D02*
Y0650800D01*
X0174200Y0640000D02*
X0175800D01*
X0175000Y0639200D02*
Y0640800D01*
X0169200Y0630000D02*
X0170800D01*
X0170000Y0629200D02*
Y0630800D01*
X0174200Y0620000D02*
X0175800D01*
X0175000Y0619200D02*
Y0620800D01*
X0169200Y0610000D02*
X0170800D01*
X0170000Y0609200D02*
Y0610800D01*
X0159200Y0690000D02*
X0160800D01*
X0160000Y0689200D02*
Y0690800D01*
X0164200Y0680000D02*
X0165800D01*
X0165000Y0679200D02*
Y0680800D01*
X0159200Y0670000D02*
X0160800D01*
X0160000Y0669200D02*
Y0670800D01*
X0164200Y0660000D02*
X0165800D01*
X0165000Y0659200D02*
Y0660800D01*
X0159200Y0650000D02*
X0160800D01*
X0160000Y0649200D02*
Y0650800D01*
X0164200Y0640000D02*
X0165800D01*
X0165000Y0639200D02*
Y0640800D01*
X0164200Y0620000D02*
X0165800D01*
X0165000Y0619200D02*
Y0620800D01*
X0159200Y0610000D02*
X0160800D01*
X0160000Y0609200D02*
Y0610800D01*
X0149200Y0690000D02*
X0150800D01*
X0150000Y0689200D02*
Y0690800D01*
X0154200Y0680000D02*
X0155800D01*
X0155000Y0679200D02*
Y0680800D01*
X0149200Y0670000D02*
X0150800D01*
X0150000Y0669200D02*
Y0670800D01*
X0154200Y0660000D02*
X0155800D01*
X0155000Y0659200D02*
Y0660800D01*
X0149200Y0650000D02*
X0150800D01*
X0150000Y0649200D02*
Y0650800D01*
X0154200Y0640000D02*
X0155800D01*
X0155000Y0639200D02*
Y0640800D01*
X0149200Y0630000D02*
X0150800D01*
X0150000Y0629200D02*
Y0630800D01*
X0154200Y0620000D02*
X0155800D01*
X0155000Y0619200D02*
Y0620800D01*
X0139200Y0690000D02*
X0140800D01*
X0140000Y0689200D02*
Y0690800D01*
X0144200Y0680000D02*
X0145800D01*
X0145000Y0679200D02*
Y0680800D01*
X0139200Y0670000D02*
X0140800D01*
X0140000Y0669200D02*
Y0670800D01*
X0144200Y0660000D02*
X0145800D01*
X0145000Y0659200D02*
Y0660800D01*
X0139200Y0650000D02*
X0140800D01*
X0140000Y0649200D02*
Y0650800D01*
X0144200Y0640000D02*
X0145800D01*
X0145000Y0639200D02*
Y0640800D01*
X0139200Y0630000D02*
X0140800D01*
X0140000Y0629200D02*
Y0630800D01*
X0144200Y0620000D02*
X0145800D01*
X0145000Y0619200D02*
Y0620800D01*
X0139200Y0610000D02*
X0140800D01*
X0140000Y0609200D02*
Y0610800D01*
X0129200Y0690000D02*
X0130800D01*
X0130000Y0689200D02*
Y0690800D01*
X0134200Y0680000D02*
X0135800D01*
X0135000Y0679200D02*
Y0680800D01*
X0129200Y0670000D02*
X0130800D01*
X0130000Y0669200D02*
Y0670800D01*
X0134200Y0660000D02*
X0135800D01*
X0135000Y0659200D02*
Y0660800D01*
X0129200Y0650000D02*
X0130800D01*
X0130000Y0649200D02*
Y0650800D01*
X0134200Y0640000D02*
X0135800D01*
X0135000Y0639200D02*
Y0640800D01*
X0129200Y0630000D02*
X0130800D01*
X0130000Y0629200D02*
Y0630800D01*
X0124200Y0680000D02*
X0125800D01*
X0125000Y0679200D02*
Y0680800D01*
X0124200Y0660000D02*
X0125800D01*
X0125000Y0659200D02*
Y0660800D01*
X0124200Y0640000D02*
X0125800D01*
X0125000Y0639200D02*
Y0640800D01*
X0119200Y0630000D02*
X0120800D01*
X0120000Y0629200D02*
Y0630800D01*
X0329200Y0650000D02*
X0330800D01*
X0330000Y0649200D02*
Y0650800D01*
X0329200Y0630000D02*
X0330800D01*
X0330000Y0629200D02*
Y0630800D01*
X0329200Y0610000D02*
X0330800D01*
X0330000Y0609200D02*
Y0610800D01*
X0324200Y0660000D02*
X0325800D01*
X0325000Y0659200D02*
Y0660800D01*
X0319200Y0650000D02*
X0320800D01*
X0320000Y0649200D02*
Y0650800D01*
X0324200Y0640000D02*
X0325800D01*
X0325000Y0639200D02*
Y0640800D01*
X0319200Y0630000D02*
X0320800D01*
X0320000Y0629200D02*
Y0630800D01*
X0324200Y0620000D02*
X0325800D01*
X0325000Y0619200D02*
Y0620800D01*
X0319200Y0610000D02*
X0320800D01*
X0320000Y0609200D02*
Y0610800D01*
X0314200Y0660000D02*
X0315800D01*
X0315000Y0659200D02*
Y0660800D01*
X0309200Y0650000D02*
X0310800D01*
X0310000Y0649200D02*
Y0650800D01*
X0314200Y0640000D02*
X0315800D01*
X0315000Y0639200D02*
Y0640800D01*
X0309200Y0630000D02*
X0310800D01*
X0310000Y0629200D02*
Y0630800D01*
X0344200Y0590000D02*
X0345800D01*
X0345000Y0589200D02*
Y0590800D01*
X0339200Y0560000D02*
X0340800D01*
X0340000Y0559200D02*
Y0560800D01*
X0344200Y0550000D02*
X0345800D01*
X0345000Y0549200D02*
Y0550800D01*
X0339200Y0540000D02*
X0340800D01*
X0340000Y0539200D02*
Y0540800D01*
X0344200Y0530000D02*
X0345800D01*
X0345000Y0529200D02*
Y0530800D01*
X0339200Y0520000D02*
X0340800D01*
X0340000Y0519200D02*
Y0520800D01*
X0344200Y0510000D02*
X0345800D01*
X0345000Y0509200D02*
Y0510800D01*
X0339200Y0480000D02*
X0340800D01*
X0340000Y0479200D02*
Y0480800D01*
X0334200Y0590000D02*
X0335800D01*
X0335000Y0589200D02*
Y0590800D01*
X0329200Y0560000D02*
X0330800D01*
X0330000Y0559200D02*
Y0560800D01*
X0334200Y0550000D02*
X0335800D01*
X0335000Y0549200D02*
Y0550800D01*
X0329200Y0540000D02*
X0330800D01*
X0330000Y0539200D02*
Y0540800D01*
X0334200Y0530000D02*
X0335800D01*
X0335000Y0529200D02*
Y0530800D01*
X0329200Y0520000D02*
X0330800D01*
X0330000Y0519200D02*
Y0520800D01*
X0334200Y0510000D02*
X0335800D01*
X0335000Y0509200D02*
Y0510800D01*
X0329200Y0480000D02*
X0330800D01*
X0330000Y0479200D02*
Y0480800D01*
X0324200Y0590000D02*
X0325800D01*
X0325000Y0589200D02*
Y0590800D01*
X0319200Y0580000D02*
X0320800D01*
X0320000Y0579200D02*
Y0580800D01*
X0319200Y0560000D02*
X0320800D01*
X0320000Y0559200D02*
Y0560800D01*
X0324200Y0550000D02*
X0325800D01*
X0325000Y0549200D02*
Y0550800D01*
X0319200Y0540000D02*
X0320800D01*
X0320000Y0539200D02*
Y0540800D01*
X0324200Y0530000D02*
X0325800D01*
X0325000Y0529200D02*
Y0530800D01*
X0319200Y0520000D02*
X0320800D01*
X0320000Y0519200D02*
Y0520800D01*
X0324200Y0510000D02*
X0325800D01*
X0325000Y0509200D02*
Y0510800D01*
X0319200Y0500000D02*
X0320800D01*
X0320000Y0499200D02*
Y0500800D01*
X0319200Y0480000D02*
X0320800D01*
X0320000Y0479200D02*
Y0480800D01*
X0314200Y0570000D02*
X0315800D01*
X0315000Y0569200D02*
Y0570800D01*
X0309200Y0560000D02*
X0310800D01*
X0310000Y0559200D02*
Y0560800D01*
X0314200Y0550000D02*
X0315800D01*
X0315000Y0549200D02*
Y0550800D01*
X0309200Y0540000D02*
X0310800D01*
X0310000Y0539200D02*
Y0540800D01*
X0309200Y0520000D02*
X0310800D01*
X0310000Y0519200D02*
Y0520800D01*
X0314200Y0510000D02*
X0315800D01*
X0315000Y0509200D02*
Y0510800D01*
X0309200Y0500000D02*
X0310800D01*
X0310000Y0499200D02*
Y0500800D01*
X0314200Y0490000D02*
X0315800D01*
X0315000Y0489200D02*
Y0490800D01*
X0299200Y0580000D02*
X0300800D01*
X0300000Y0579200D02*
Y0580800D01*
X0304200Y0570000D02*
X0305800D01*
X0305000Y0569200D02*
Y0570800D01*
X0299200Y0520000D02*
X0300800D01*
X0300000Y0519200D02*
Y0520800D01*
X0304200Y0510000D02*
X0305800D01*
X0305000Y0509200D02*
Y0510800D01*
X0299200Y0500000D02*
X0300800D01*
X0300000Y0499200D02*
Y0500800D01*
X0294200Y0510000D02*
X0295800D01*
X0295000Y0509200D02*
Y0510800D01*
X0289200Y0480000D02*
X0290800D01*
X0290000Y0479200D02*
Y0480800D01*
X0409200Y0640000D02*
X0410800D01*
X0410000Y0639200D02*
Y0640800D01*
X0409200Y0620000D02*
X0410800D01*
X0410000Y0619200D02*
Y0620800D01*
X0409200Y0600000D02*
X0410800D01*
X0410000Y0599200D02*
Y0600800D01*
X0409200Y0580000D02*
X0410800D01*
X0410000Y0579200D02*
Y0580800D01*
X0409200Y0560000D02*
X0410800D01*
X0410000Y0559200D02*
Y0560800D01*
X0409200Y0540000D02*
X0410800D01*
X0410000Y0539200D02*
Y0540800D01*
X0409200Y0520000D02*
X0410800D01*
X0410000Y0519200D02*
Y0520800D01*
X0409200Y0500000D02*
X0410800D01*
X0410000Y0499200D02*
Y0500800D01*
X0409200Y0480000D02*
X0410800D01*
X0410000Y0479200D02*
Y0480800D01*
X0409200Y0460000D02*
X0410800D01*
X0410000Y0459200D02*
Y0460800D01*
X0409200Y0440000D02*
X0410800D01*
X0410000Y0439200D02*
Y0440800D01*
X0409200Y0420000D02*
X0410800D01*
X0410000Y0419200D02*
Y0420800D01*
X0409200Y0400000D02*
X0410800D01*
X0410000Y0399200D02*
Y0400800D01*
X0409200Y0380000D02*
X0410800D01*
X0410000Y0379200D02*
Y0380800D01*
X0409200Y0360000D02*
X0410800D01*
X0410000Y0359200D02*
Y0360800D01*
X0409200Y0340000D02*
X0410800D01*
X0410000Y0339200D02*
Y0340800D01*
X0409200Y0320000D02*
X0410800D01*
X0410000Y0319200D02*
Y0320800D01*
X0409200Y0300000D02*
X0410800D01*
X0410000Y0299200D02*
Y0300800D01*
X0409200Y0280000D02*
X0410800D01*
X0410000Y0279200D02*
Y0280800D01*
X0409200Y0260000D02*
X0410800D01*
X0410000Y0259200D02*
Y0260800D01*
X0409200Y0240000D02*
X0410800D01*
X0410000Y0239200D02*
Y0240800D01*
X0409200Y0220000D02*
X0410800D01*
X0410000Y0219200D02*
Y0220800D01*
X0409200Y0200000D02*
X0410800D01*
X0410000Y0199200D02*
Y0200800D01*
X0404200Y0670000D02*
X0405800D01*
X0405000Y0669200D02*
Y0670800D01*
X0404200Y0650000D02*
X0405800D01*
X0405000Y0649200D02*
Y0650800D01*
X0399200Y0640000D02*
X0400800D01*
X0400000Y0639200D02*
Y0640800D01*
X0404200Y0630000D02*
X0405800D01*
X0405000Y0629200D02*
Y0630800D01*
X0399200Y0620000D02*
X0400800D01*
X0400000Y0619200D02*
Y0620800D01*
X0404200Y0610000D02*
X0405800D01*
X0405000Y0609200D02*
Y0610800D01*
X0399200Y0600000D02*
X0400800D01*
X0400000Y0599200D02*
Y0600800D01*
X0404200Y0590000D02*
X0405800D01*
X0405000Y0589200D02*
Y0590800D01*
X0399200Y0560000D02*
X0400800D01*
X0400000Y0559200D02*
Y0560800D01*
X0404200Y0550000D02*
X0405800D01*
X0405000Y0549200D02*
Y0550800D01*
X0399200Y0540000D02*
X0400800D01*
X0400000Y0539200D02*
Y0540800D01*
X0404200Y0530000D02*
X0405800D01*
X0405000Y0529200D02*
Y0530800D01*
X0399200Y0520000D02*
X0400800D01*
X0400000Y0519200D02*
Y0520800D01*
X0404200Y0510000D02*
X0405800D01*
X0405000Y0509200D02*
Y0510800D01*
X0399200Y0480000D02*
X0400800D01*
X0400000Y0479200D02*
Y0480800D01*
X0404200Y0470000D02*
X0405800D01*
X0405000Y0469200D02*
Y0470800D01*
X0399200Y0460000D02*
X0400800D01*
X0400000Y0459200D02*
Y0460800D01*
X0404200Y0450000D02*
X0405800D01*
X0405000Y0449200D02*
Y0450800D01*
X0399200Y0440000D02*
X0400800D01*
X0400000Y0439200D02*
Y0440800D01*
X0404200Y0430000D02*
X0405800D01*
X0405000Y0429200D02*
Y0430800D01*
X0399200Y0420000D02*
X0400800D01*
X0400000Y0419200D02*
Y0420800D01*
X0404200Y0270000D02*
X0405800D01*
X0405000Y0269200D02*
Y0270800D01*
X0404200Y0250000D02*
X0405800D01*
X0405000Y0249200D02*
Y0250800D01*
X0404200Y0230000D02*
X0405800D01*
X0405000Y0229200D02*
Y0230800D01*
X0399200Y0220000D02*
X0400800D01*
X0400000Y0219200D02*
Y0220800D01*
X0404200Y0210000D02*
X0405800D01*
X0405000Y0209200D02*
Y0210800D01*
X0399200Y0200000D02*
X0400800D01*
X0400000Y0199200D02*
Y0200800D01*
X0389200Y0660000D02*
X0390800D01*
X0390000Y0659200D02*
Y0660800D01*
X0394200Y0650000D02*
X0395800D01*
X0395000Y0649200D02*
Y0650800D01*
X0389200Y0640000D02*
X0390800D01*
X0390000Y0639200D02*
Y0640800D01*
X0394200Y0630000D02*
X0395800D01*
X0395000Y0629200D02*
Y0630800D01*
X0389200Y0620000D02*
X0390800D01*
X0390000Y0619200D02*
Y0620800D01*
X0394200Y0610000D02*
X0395800D01*
X0395000Y0609200D02*
Y0610800D01*
X0389200Y0600000D02*
X0390800D01*
X0390000Y0599200D02*
Y0600800D01*
X0394200Y0590000D02*
X0395800D01*
X0395000Y0589200D02*
Y0590800D01*
X0389200Y0560000D02*
X0390800D01*
X0390000Y0559200D02*
Y0560800D01*
X0394200Y0550000D02*
X0395800D01*
X0395000Y0549200D02*
Y0550800D01*
X0389200Y0540000D02*
X0390800D01*
X0390000Y0539200D02*
Y0540800D01*
X0394200Y0530000D02*
X0395800D01*
X0395000Y0529200D02*
Y0530800D01*
X0389200Y0520000D02*
X0390800D01*
X0390000Y0519200D02*
Y0520800D01*
X0394200Y0510000D02*
X0395800D01*
X0395000Y0509200D02*
Y0510800D01*
X0389200Y0480000D02*
X0390800D01*
X0390000Y0479200D02*
Y0480800D01*
X0394200Y0470000D02*
X0395800D01*
X0395000Y0469200D02*
Y0470800D01*
X0389200Y0460000D02*
X0390800D01*
X0390000Y0459200D02*
Y0460800D01*
X0389200Y0440000D02*
X0390800D01*
X0390000Y0439200D02*
Y0440800D01*
X0394200Y0430000D02*
X0395800D01*
X0395000Y0429200D02*
Y0430800D01*
X0389200Y0400000D02*
X0390800D01*
X0390000Y0399200D02*
Y0400800D01*
X0389200Y0380000D02*
X0390800D01*
X0390000Y0379200D02*
Y0380800D01*
X0389200Y0360000D02*
X0390800D01*
X0390000Y0359200D02*
Y0360800D01*
X0389200Y0340000D02*
X0390800D01*
X0390000Y0339200D02*
Y0340800D01*
X0389200Y0320000D02*
X0390800D01*
X0390000Y0319200D02*
Y0320800D01*
X0389200Y0220000D02*
X0390800D01*
X0390000Y0219200D02*
Y0220800D01*
X0394200Y0210000D02*
X0395800D01*
X0395000Y0209200D02*
Y0210800D01*
X0389200Y0200000D02*
X0390800D01*
X0390000Y0199200D02*
Y0200800D01*
X0384200Y0670000D02*
X0385800D01*
X0385000Y0669200D02*
Y0670800D01*
X0379200Y0660000D02*
X0380800D01*
X0380000Y0659200D02*
Y0660800D01*
X0384200Y0650000D02*
X0385800D01*
X0385000Y0649200D02*
Y0650800D01*
X0379200Y0640000D02*
X0380800D01*
X0380000Y0639200D02*
Y0640800D01*
X0384200Y0630000D02*
X0385800D01*
X0385000Y0629200D02*
Y0630800D01*
X0379200Y0620000D02*
X0380800D01*
X0380000Y0619200D02*
Y0620800D01*
X0384200Y0610000D02*
X0385800D01*
X0385000Y0609200D02*
Y0610800D01*
X0379200Y0600000D02*
X0380800D01*
X0380000Y0599200D02*
Y0600800D01*
X0384200Y0590000D02*
X0385800D01*
X0385000Y0589200D02*
Y0590800D01*
X0379200Y0560000D02*
X0380800D01*
X0380000Y0559200D02*
Y0560800D01*
X0384200Y0550000D02*
X0385800D01*
X0385000Y0549200D02*
Y0550800D01*
X0379200Y0540000D02*
X0380800D01*
X0380000Y0539200D02*
Y0540800D01*
X0384200Y0530000D02*
X0385800D01*
X0385000Y0529200D02*
Y0530800D01*
X0379200Y0520000D02*
X0380800D01*
X0380000Y0519200D02*
Y0520800D01*
X0384200Y0510000D02*
X0385800D01*
X0385000Y0509200D02*
Y0510800D01*
X0379200Y0480000D02*
X0380800D01*
X0380000Y0479200D02*
Y0480800D01*
X0384200Y0470000D02*
X0385800D01*
X0385000Y0469200D02*
Y0470800D01*
X0379200Y0460000D02*
X0380800D01*
X0380000Y0459200D02*
Y0460800D01*
X0384200Y0450000D02*
X0385800D01*
X0385000Y0449200D02*
Y0450800D01*
X0384200Y0430000D02*
X0385800D01*
X0385000Y0429200D02*
Y0430800D01*
X0384200Y0410000D02*
X0385800D01*
X0385000Y0409200D02*
Y0410800D01*
X0379200Y0400000D02*
X0380800D01*
X0380000Y0399200D02*
Y0400800D01*
X0384200Y0390000D02*
X0385800D01*
X0385000Y0389200D02*
Y0390800D01*
X0379200Y0380000D02*
X0380800D01*
X0380000Y0379200D02*
Y0380800D01*
X0379200Y0360000D02*
X0380800D01*
X0380000Y0359200D02*
Y0360800D01*
X0379200Y0340000D02*
X0380800D01*
X0380000Y0339200D02*
Y0340800D01*
X0379200Y0320000D02*
X0380800D01*
X0380000Y0319200D02*
Y0320800D01*
X0379200Y0220000D02*
X0380800D01*
X0380000Y0219200D02*
Y0220800D01*
X0384200Y0210000D02*
X0385800D01*
X0385000Y0209200D02*
Y0210800D01*
X0379200Y0200000D02*
X0380800D01*
X0380000Y0199200D02*
Y0200800D01*
X0369200Y0700000D02*
X0370800D01*
X0370000Y0699200D02*
Y0700800D01*
X0374200Y0690000D02*
X0375800D01*
X0375000Y0689200D02*
Y0690800D01*
X0369200Y0680000D02*
X0370800D01*
X0370000Y0679200D02*
Y0680800D01*
X0374200Y0670000D02*
X0375800D01*
X0375000Y0669200D02*
Y0670800D01*
X0369200Y0660000D02*
X0370800D01*
X0370000Y0659200D02*
Y0660800D01*
X0374200Y0650000D02*
X0375800D01*
X0375000Y0649200D02*
Y0650800D01*
X0369200Y0640000D02*
X0370800D01*
X0370000Y0639200D02*
Y0640800D01*
X0374200Y0630000D02*
X0375800D01*
X0375000Y0629200D02*
Y0630800D01*
X0369200Y0620000D02*
X0370800D01*
X0370000Y0619200D02*
Y0620800D01*
X0374200Y0610000D02*
X0375800D01*
X0375000Y0609200D02*
Y0610800D01*
X0369200Y0600000D02*
X0370800D01*
X0370000Y0599200D02*
Y0600800D01*
X0374200Y0590000D02*
X0375800D01*
X0375000Y0589200D02*
Y0590800D01*
X0369200Y0580000D02*
X0370800D01*
X0370000Y0579200D02*
Y0580800D01*
X0369200Y0560000D02*
X0370800D01*
X0370000Y0559200D02*
Y0560800D01*
X0374200Y0550000D02*
X0375800D01*
X0375000Y0549200D02*
Y0550800D01*
X0369200Y0540000D02*
X0370800D01*
X0370000Y0539200D02*
Y0540800D01*
X0374200Y0530000D02*
X0375800D01*
X0375000Y0529200D02*
Y0530800D01*
X0369200Y0520000D02*
X0370800D01*
X0370000Y0519200D02*
Y0520800D01*
X0374200Y0510000D02*
X0375800D01*
X0375000Y0509200D02*
Y0510800D01*
X0369200Y0500000D02*
X0370800D01*
X0370000Y0499200D02*
Y0500800D01*
X0369200Y0480000D02*
X0370800D01*
X0370000Y0479200D02*
Y0480800D01*
X0374200Y0470000D02*
X0375800D01*
X0375000Y0469200D02*
Y0470800D01*
X0369200Y0460000D02*
X0370800D01*
X0370000Y0459200D02*
Y0460800D01*
X0374200Y0450000D02*
X0375800D01*
X0375000Y0449200D02*
Y0450800D01*
X0369200Y0220000D02*
X0370800D01*
X0370000Y0219200D02*
Y0220800D01*
X0374200Y0210000D02*
X0375800D01*
X0375000Y0209200D02*
Y0210800D01*
X0369200Y0200000D02*
X0370800D01*
X0370000Y0199200D02*
Y0200800D01*
X0374200Y0190000D02*
X0375800D01*
X0375000Y0189200D02*
Y0190800D01*
X0369200Y0180000D02*
X0370800D01*
X0370000Y0179200D02*
Y0180800D01*
X0374200Y0170000D02*
X0375800D01*
X0375000Y0169200D02*
Y0170800D01*
X0359200Y0700000D02*
X0360800D01*
X0360000Y0699200D02*
Y0700800D01*
X0364200Y0690000D02*
X0365800D01*
X0365000Y0689200D02*
Y0690800D01*
X0359200Y0680000D02*
X0360800D01*
X0360000Y0679200D02*
Y0680800D01*
X0364200Y0670000D02*
X0365800D01*
X0365000Y0669200D02*
Y0670800D01*
X0359200Y0660000D02*
X0360800D01*
X0360000Y0659200D02*
Y0660800D01*
X0364200Y0650000D02*
X0365800D01*
X0365000Y0649200D02*
Y0650800D01*
X0359200Y0640000D02*
X0360800D01*
X0360000Y0639200D02*
Y0640800D01*
X0364200Y0630000D02*
X0365800D01*
X0365000Y0629200D02*
Y0630800D01*
X0359200Y0620000D02*
X0360800D01*
X0360000Y0619200D02*
Y0620800D01*
X0364200Y0610000D02*
X0365800D01*
X0365000Y0609200D02*
Y0610800D01*
X0359200Y0600000D02*
X0360800D01*
X0360000Y0599200D02*
Y0600800D01*
X0364200Y0590000D02*
X0365800D01*
X0365000Y0589200D02*
Y0590800D01*
X0359200Y0580000D02*
X0360800D01*
X0360000Y0579200D02*
Y0580800D01*
X0364200Y0570000D02*
X0365800D01*
X0365000Y0569200D02*
Y0570800D01*
X0359200Y0560000D02*
X0360800D01*
X0360000Y0559200D02*
Y0560800D01*
X0364200Y0550000D02*
X0365800D01*
X0365000Y0549200D02*
Y0550800D01*
X0359200Y0540000D02*
X0360800D01*
X0360000Y0539200D02*
Y0540800D01*
X0364200Y0530000D02*
X0365800D01*
X0365000Y0529200D02*
Y0530800D01*
X0359200Y0520000D02*
X0360800D01*
X0360000Y0519200D02*
Y0520800D01*
X0364200Y0510000D02*
X0365800D01*
X0365000Y0509200D02*
Y0510800D01*
X0359200Y0500000D02*
X0360800D01*
X0360000Y0499200D02*
Y0500800D01*
X0364200Y0490000D02*
X0365800D01*
X0365000Y0489200D02*
Y0490800D01*
X0359200Y0480000D02*
X0360800D01*
X0360000Y0479200D02*
Y0480800D01*
X0364200Y0470000D02*
X0365800D01*
X0365000Y0469200D02*
Y0470800D01*
X0359200Y0460000D02*
X0360800D01*
X0360000Y0459200D02*
Y0460800D01*
X0359200Y0220000D02*
X0360800D01*
X0360000Y0219200D02*
Y0220800D01*
X0364200Y0210000D02*
X0365800D01*
X0365000Y0209200D02*
Y0210800D01*
X0359200Y0200000D02*
X0360800D01*
X0360000Y0199200D02*
Y0200800D01*
X0364200Y0190000D02*
X0365800D01*
X0365000Y0189200D02*
Y0190800D01*
X0359200Y0180000D02*
X0360800D01*
X0360000Y0179200D02*
Y0180800D01*
X0364200Y0170000D02*
X0365800D01*
X0365000Y0169200D02*
Y0170800D01*
X0349200Y0700000D02*
X0350800D01*
X0350000Y0699200D02*
Y0700800D01*
X0354200Y0690000D02*
X0355800D01*
X0355000Y0689200D02*
Y0690800D01*
X0349200Y0680000D02*
X0350800D01*
X0350000Y0679200D02*
Y0680800D01*
X0354200Y0670000D02*
X0355800D01*
X0355000Y0669200D02*
Y0670800D01*
X0349200Y0660000D02*
X0350800D01*
X0350000Y0659200D02*
Y0660800D01*
X0354200Y0650000D02*
X0355800D01*
X0355000Y0649200D02*
Y0650800D01*
X0349200Y0640000D02*
X0350800D01*
X0350000Y0639200D02*
Y0640800D01*
X0349200Y0620000D02*
X0350800D01*
X0350000Y0619200D02*
Y0620800D01*
X0354200Y0610000D02*
X0355800D01*
X0355000Y0609200D02*
Y0610800D01*
X0349200Y0600000D02*
X0350800D01*
X0350000Y0599200D02*
Y0600800D01*
X0354200Y0590000D02*
X0355800D01*
X0355000Y0589200D02*
Y0590800D01*
X0354200Y0470000D02*
X0355800D01*
X0355000Y0469200D02*
Y0470800D01*
X0349200Y0460000D02*
X0350800D01*
X0350000Y0459200D02*
Y0460800D01*
X0349200Y0220000D02*
X0350800D01*
X0350000Y0219200D02*
Y0220800D01*
X0354200Y0210000D02*
X0355800D01*
X0355000Y0209200D02*
Y0210800D01*
X0349200Y0200000D02*
X0350800D01*
X0350000Y0199200D02*
Y0200800D01*
X0354200Y0190000D02*
X0355800D01*
X0355000Y0189200D02*
Y0190800D01*
X0349200Y0180000D02*
X0350800D01*
X0350000Y0179200D02*
Y0180800D01*
X0354200Y0170000D02*
X0355800D01*
X0355000Y0169200D02*
Y0170800D01*
X0339200Y0700000D02*
X0340800D01*
X0340000Y0699200D02*
Y0700800D01*
X0344200Y0690000D02*
X0345800D01*
X0345000Y0689200D02*
Y0690800D01*
X0339200Y0680000D02*
X0340800D01*
X0340000Y0679200D02*
Y0680800D01*
X0339200Y0660000D02*
X0340800D01*
X0340000Y0659200D02*
Y0660800D01*
X0344200Y0650000D02*
X0345800D01*
X0345000Y0649200D02*
Y0650800D01*
X0339200Y0640000D02*
X0340800D01*
X0340000Y0639200D02*
Y0640800D01*
X0344200Y0630000D02*
X0345800D01*
X0345000Y0629200D02*
Y0630800D01*
X0339200Y0620000D02*
X0340800D01*
X0340000Y0619200D02*
Y0620800D01*
X0344200Y0610000D02*
X0345800D01*
X0345000Y0609200D02*
Y0610800D01*
X0344200Y0470000D02*
X0345800D01*
X0345000Y0469200D02*
Y0470800D01*
X0339200Y0460000D02*
X0340800D01*
X0340000Y0459200D02*
Y0460800D01*
X0339200Y0220000D02*
X0340800D01*
X0340000Y0219200D02*
Y0220800D01*
X0344200Y0210000D02*
X0345800D01*
X0345000Y0209200D02*
Y0210800D01*
X0339200Y0200000D02*
X0340800D01*
X0340000Y0199200D02*
Y0200800D01*
X0344200Y0190000D02*
X0345800D01*
X0345000Y0189200D02*
Y0190800D01*
X0339200Y0180000D02*
X0340800D01*
X0340000Y0179200D02*
Y0180800D01*
X0344200Y0170000D02*
X0345800D01*
X0345000Y0169200D02*
Y0170800D01*
X0329200Y0700000D02*
X0330800D01*
X0330000Y0699200D02*
Y0700800D01*
X0334200Y0690000D02*
X0335800D01*
X0335000Y0689200D02*
Y0690800D01*
X0329200Y0680000D02*
X0330800D01*
X0330000Y0679200D02*
Y0680800D01*
X0329200Y0460000D02*
X0330800D01*
X0330000Y0459200D02*
Y0460800D01*
X0329200Y0220000D02*
X0330800D01*
X0330000Y0219200D02*
Y0220800D01*
X0334200Y0210000D02*
X0335800D01*
X0335000Y0209200D02*
Y0210800D01*
X0329200Y0200000D02*
X0330800D01*
X0330000Y0199200D02*
Y0200800D01*
X0334200Y0190000D02*
X0335800D01*
X0335000Y0189200D02*
Y0190800D01*
X0329200Y0180000D02*
X0330800D01*
X0330000Y0179200D02*
Y0180800D01*
X0334200Y0170000D02*
X0335800D01*
X0335000Y0169200D02*
Y0170800D01*
X0319200Y0700000D02*
X0320800D01*
X0320000Y0699200D02*
Y0700800D01*
X0324200Y0690000D02*
X0325800D01*
X0325000Y0689200D02*
Y0690800D01*
X0319200Y0680000D02*
X0320800D01*
X0320000Y0679200D02*
Y0680800D01*
X0319200Y0220000D02*
X0320800D01*
X0320000Y0219200D02*
Y0220800D01*
X0324200Y0210000D02*
X0325800D01*
X0325000Y0209200D02*
Y0210800D01*
X0319200Y0200000D02*
X0320800D01*
X0320000Y0199200D02*
Y0200800D01*
X0324200Y0190000D02*
X0325800D01*
X0325000Y0189200D02*
Y0190800D01*
X0319200Y0180000D02*
X0320800D01*
X0320000Y0179200D02*
Y0180800D01*
X0324200Y0170000D02*
X0325800D01*
X0325000Y0169200D02*
Y0170800D01*
X0309200Y0700000D02*
X0310800D01*
X0310000Y0699200D02*
Y0700800D01*
X0314200Y0690000D02*
X0315800D01*
X0315000Y0689200D02*
Y0690800D01*
X0309200Y0680000D02*
X0310800D01*
X0310000Y0679200D02*
Y0680800D01*
X0314200Y0210000D02*
X0315800D01*
X0315000Y0209200D02*
Y0210800D01*
X0309200Y0200000D02*
X0310800D01*
X0310000Y0199200D02*
Y0200800D01*
X0314200Y0190000D02*
X0315800D01*
X0315000Y0189200D02*
Y0190800D01*
X0309200Y0180000D02*
X0310800D01*
X0310000Y0179200D02*
Y0180800D01*
X0314200Y0170000D02*
X0315800D01*
X0315000Y0169200D02*
Y0170800D01*
X0304200Y0690000D02*
X0305800D01*
X0305000Y0689200D02*
Y0690800D01*
X0299200Y0220000D02*
X0300800D01*
X0300000Y0219200D02*
Y0220800D01*
X0304200Y0210000D02*
X0305800D01*
X0305000Y0209200D02*
Y0210800D01*
X0299200Y0200000D02*
X0300800D01*
X0300000Y0199200D02*
Y0200800D01*
X0304200Y0190000D02*
X0305800D01*
X0305000Y0189200D02*
Y0190800D01*
X0299200Y0180000D02*
X0300800D01*
X0300000Y0179200D02*
Y0180800D01*
X0304200Y0170000D02*
X0305800D01*
X0305000Y0169200D02*
Y0170800D01*
X0289200Y0460000D02*
X0290800D01*
X0290000Y0459200D02*
Y0460800D01*
X0294200Y0210000D02*
X0295800D01*
X0295000Y0209200D02*
Y0210800D01*
X0289200Y0200000D02*
X0290800D01*
X0290000Y0199200D02*
Y0200800D01*
X0294200Y0190000D02*
X0295800D01*
X0295000Y0189200D02*
Y0190800D01*
X0289200Y0180000D02*
X0290800D01*
X0290000Y0179200D02*
Y0180800D01*
X0294200Y0170000D02*
X0295800D01*
X0295000Y0169200D02*
Y0170800D01*
X0279200Y0240000D02*
X0280800D01*
X0280000Y0239200D02*
Y0240800D01*
X0284200Y0210000D02*
X0285800D01*
X0285000Y0209200D02*
Y0210800D01*
X0279200Y0200000D02*
X0280800D01*
X0280000Y0199200D02*
Y0200800D01*
X0284200Y0190000D02*
X0285800D01*
X0285000Y0189200D02*
Y0190800D01*
X0279200Y0180000D02*
X0280800D01*
X0280000Y0179200D02*
Y0180800D01*
X0284200Y0170000D02*
X0285800D01*
X0285000Y0169200D02*
Y0170800D01*
X0274200Y0210000D02*
X0275800D01*
X0275000Y0209200D02*
Y0210800D01*
X0269200Y0200000D02*
X0270800D01*
X0270000Y0199200D02*
Y0200800D01*
X0274200Y0190000D02*
X0275800D01*
X0275000Y0189200D02*
Y0190800D01*
X0269200Y0180000D02*
X0270800D01*
X0270000Y0179200D02*
Y0180800D01*
X0274200Y0170000D02*
X0275800D01*
X0275000Y0169200D02*
Y0170800D01*
X0259200Y0440000D02*
X0260800D01*
X0260000Y0439200D02*
Y0440800D01*
X0264200Y0430000D02*
X0265800D01*
X0265000Y0429200D02*
Y0430800D01*
X0259200Y0420000D02*
X0260800D01*
X0260000Y0419200D02*
Y0420800D01*
X0259200Y0220000D02*
X0260800D01*
X0260000Y0219200D02*
Y0220800D01*
X0264200Y0210000D02*
X0265800D01*
X0265000Y0209200D02*
Y0210800D01*
X0259200Y0200000D02*
X0260800D01*
X0260000Y0199200D02*
Y0200800D01*
X0264200Y0190000D02*
X0265800D01*
X0265000Y0189200D02*
Y0190800D01*
X0259200Y0180000D02*
X0260800D01*
X0260000Y0179200D02*
Y0180800D01*
X0264200Y0170000D02*
X0265800D01*
X0265000Y0169200D02*
Y0170800D01*
X0249200Y0440000D02*
X0250800D01*
X0250000Y0439200D02*
Y0440800D01*
X0254200Y0210000D02*
X0255800D01*
X0255000Y0209200D02*
Y0210800D01*
X0249200Y0200000D02*
X0250800D01*
X0250000Y0199200D02*
Y0200800D01*
X0254200Y0190000D02*
X0255800D01*
X0255000Y0189200D02*
Y0190800D01*
X0249200Y0180000D02*
X0250800D01*
X0250000Y0179200D02*
Y0180800D01*
X0254200Y0170000D02*
X0255800D01*
X0255000Y0169200D02*
Y0170800D01*
X0239200Y0420000D02*
X0240800D01*
X0240000Y0419200D02*
Y0420800D01*
X0244200Y0210000D02*
X0245800D01*
X0245000Y0209200D02*
Y0210800D01*
X0239200Y0200000D02*
X0240800D01*
X0240000Y0199200D02*
Y0200800D01*
X0244200Y0190000D02*
X0245800D01*
X0245000Y0189200D02*
Y0190800D01*
X0239200Y0180000D02*
X0240800D01*
X0240000Y0179200D02*
Y0180800D01*
X0244200Y0170000D02*
X0245800D01*
X0245000Y0169200D02*
Y0170800D01*
X0229200Y0460000D02*
X0230800D01*
X0230000Y0459200D02*
Y0460800D01*
X0229200Y0440000D02*
X0230800D01*
X0230000Y0439200D02*
Y0440800D01*
X0234200Y0430000D02*
X0235800D01*
X0235000Y0429200D02*
Y0430800D01*
X0229200Y0420000D02*
X0230800D01*
X0230000Y0419200D02*
Y0420800D01*
X0229200Y0220000D02*
X0230800D01*
X0230000Y0219200D02*
Y0220800D01*
X0234200Y0210000D02*
X0235800D01*
X0235000Y0209200D02*
Y0210800D01*
X0229200Y0200000D02*
X0230800D01*
X0230000Y0199200D02*
Y0200800D01*
X0234200Y0190000D02*
X0235800D01*
X0235000Y0189200D02*
Y0190800D01*
X0229200Y0180000D02*
X0230800D01*
X0230000Y0179200D02*
Y0180800D01*
X0234200Y0170000D02*
X0235800D01*
X0235000Y0169200D02*
Y0170800D01*
X0219200Y0460000D02*
X0220800D01*
X0220000Y0459200D02*
Y0460800D01*
X0219200Y0440000D02*
X0220800D01*
X0220000Y0439200D02*
Y0440800D01*
X0224200Y0430000D02*
X0225800D01*
X0225000Y0429200D02*
Y0430800D01*
X0219200Y0420000D02*
X0220800D01*
X0220000Y0419200D02*
Y0420800D01*
X0219200Y0220000D02*
X0220800D01*
X0220000Y0219200D02*
Y0220800D01*
X0224200Y0210000D02*
X0225800D01*
X0225000Y0209200D02*
Y0210800D01*
X0219200Y0200000D02*
X0220800D01*
X0220000Y0199200D02*
Y0200800D01*
X0224200Y0190000D02*
X0225800D01*
X0225000Y0189200D02*
Y0190800D01*
X0219200Y0180000D02*
X0220800D01*
X0220000Y0179200D02*
Y0180800D01*
X0224200Y0170000D02*
X0225800D01*
X0225000Y0169200D02*
Y0170800D01*
X0209200Y0460000D02*
X0210800D01*
X0210000Y0459200D02*
Y0460800D01*
X0214200Y0450000D02*
X0215800D01*
X0215000Y0449200D02*
Y0450800D01*
X0209200Y0440000D02*
X0210800D01*
X0210000Y0439200D02*
Y0440800D01*
X0214200Y0430000D02*
X0215800D01*
X0215000Y0429200D02*
Y0430800D01*
X0199200Y0460000D02*
X0200800D01*
X0200000Y0459200D02*
Y0460800D01*
X0204200Y0450000D02*
X0205800D01*
X0205000Y0449200D02*
Y0450800D01*
X0199200Y0440000D02*
X0200800D01*
X0200000Y0439200D02*
Y0440800D01*
X0194200Y0450000D02*
X0195800D01*
X0195000Y0449200D02*
Y0450800D01*
X0114200Y0450000D02*
X0115800D01*
X0115000Y0449200D02*
Y0450800D01*
X0114200Y0430000D02*
X0115800D01*
X0115000Y0429200D02*
Y0430800D01*
X0104200Y0670000D02*
X0105800D01*
X0105000Y0669200D02*
Y0670800D01*
X0099200Y0660000D02*
X0100800D01*
X0100000Y0659200D02*
Y0660800D01*
X0104200Y0650000D02*
X0105800D01*
X0105000Y0649200D02*
Y0650800D01*
X0104200Y0450000D02*
X0105800D01*
X0105000Y0449200D02*
Y0450800D01*
X0099200Y0260000D02*
X0100800D01*
X0100000Y0259200D02*
Y0260800D01*
X0089200Y0660000D02*
X0090800D01*
X0090000Y0659200D02*
Y0660800D01*
X0094200Y0650000D02*
X0095800D01*
X0095000Y0649200D02*
Y0650800D01*
X0089200Y0640000D02*
X0090800D01*
X0090000Y0639200D02*
Y0640800D01*
X0089200Y0620000D02*
X0090800D01*
X0090000Y0619200D02*
Y0620800D01*
X0089200Y0600000D02*
X0090800D01*
X0090000Y0599200D02*
Y0600800D01*
X0094200Y0510000D02*
X0095800D01*
X0095000Y0509200D02*
Y0510800D01*
X0094200Y0490000D02*
X0095800D01*
X0095000Y0489200D02*
Y0490800D01*
X0089200Y0440000D02*
X0090800D01*
X0090000Y0439200D02*
Y0440800D01*
X0094200Y0430000D02*
X0095800D01*
X0095000Y0429200D02*
Y0430800D01*
X0089200Y0420000D02*
X0090800D01*
X0090000Y0419200D02*
Y0420800D01*
X0089200Y0260000D02*
X0090800D01*
X0090000Y0259200D02*
Y0260800D01*
X0084200Y0670000D02*
X0085800D01*
X0085000Y0669200D02*
Y0670800D01*
X0084200Y0650000D02*
X0085800D01*
X0085000Y0649200D02*
Y0650800D01*
X0079200Y0640000D02*
X0080800D01*
X0080000Y0639200D02*
Y0640800D01*
X0084200Y0630000D02*
X0085800D01*
X0085000Y0629200D02*
Y0630800D01*
X0079200Y0620000D02*
X0080800D01*
X0080000Y0619200D02*
Y0620800D01*
X0079200Y0440000D02*
X0080800D01*
X0080000Y0439200D02*
Y0440800D01*
X0084200Y0430000D02*
X0085800D01*
X0085000Y0429200D02*
Y0430800D01*
X0079200Y0420000D02*
X0080800D01*
X0080000Y0419200D02*
Y0420800D01*
X0079200Y0400000D02*
X0080800D01*
X0080000Y0399200D02*
Y0400800D01*
X0079200Y0360000D02*
X0080800D01*
X0080000Y0359200D02*
Y0360800D01*
X0079200Y0340000D02*
X0080800D01*
X0080000Y0339200D02*
Y0340800D01*
X0079200Y0320000D02*
X0080800D01*
X0080000Y0319200D02*
Y0320800D01*
X0079200Y0300000D02*
X0080800D01*
X0080000Y0299200D02*
Y0300800D01*
X0079200Y0260000D02*
X0080800D01*
X0080000Y0259200D02*
Y0260800D01*
X0347694Y0412140D02*
X0349194D01*
X0348444Y0411390D02*
Y0412890D01*
X0229508Y0548861D02*
X0231008D01*
X0230258Y0548111D02*
Y0549611D01*
X0227155Y0553030D02*
X0228655D01*
X0227905Y0552280D02*
Y0553780D01*
X0219966Y0540996D02*
X0221466D01*
X0220716Y0540246D02*
Y0541746D01*
X0214868Y0541209D02*
X0216368D01*
X0215618Y0540459D02*
Y0541959D01*
X0225160Y0541282D02*
X0226659D01*
X0225909Y0540532D02*
Y0542032D01*
X0209832Y0548850D02*
X0211332D01*
X0210582Y0548101D02*
Y0549601D01*
X0212423Y0552400D02*
X0213923D01*
X0213173Y0551650D02*
Y0553150D01*
X0131469Y0453882D02*
X0132969D01*
X0132219Y0453132D02*
Y0454632D01*
X0131536Y0482599D02*
X0133036D01*
X0132286Y0481849D02*
Y0483349D01*
X0126695Y0559811D02*
X0128195D01*
X0127445Y0559061D02*
Y0560561D01*
X0126710Y0564400D02*
X0128210D01*
X0127461Y0563650D02*
Y0565150D01*
X0126695Y0568811D02*
X0128195D01*
X0127445Y0568061D02*
Y0569561D01*
X0121450Y0531400D02*
X0122950D01*
X0122200Y0530650D02*
Y0532150D01*
X0130780Y0568811D02*
X0132280D01*
X0131530Y0568061D02*
Y0569561D01*
X0130796Y0564400D02*
X0132296D01*
X0131545Y0563650D02*
Y0565150D01*
X0130780Y0559811D02*
X0132280D01*
X0131530Y0559061D02*
Y0560561D01*
X0134865Y0568811D02*
X0136365D01*
X0135615Y0568061D02*
Y0569561D01*
X0134880Y0564400D02*
X0136380D01*
X0135630Y0563650D02*
Y0565150D01*
X0134865Y0559811D02*
X0136365D01*
X0135615Y0559061D02*
Y0560561D01*
X0210571Y0568790D02*
X0212071D01*
X0211321Y0568041D02*
Y0569541D01*
X0210587Y0564379D02*
X0212087D01*
X0211337Y0563629D02*
Y0565129D01*
X0210571Y0559791D02*
X0212071D01*
X0211321Y0559040D02*
Y0560540D01*
X0255950Y0568343D02*
X0257451D01*
X0256700Y0567593D02*
Y0569093D01*
X0255966Y0563932D02*
X0257466D01*
X0256716Y0563182D02*
Y0564682D01*
X0255950Y0559343D02*
X0257451D01*
X0256700Y0558593D02*
Y0560093D01*
X0220144Y0568938D02*
X0221644D01*
X0220894Y0568188D02*
Y0569689D01*
X0220160Y0564527D02*
X0221660D01*
X0220910Y0563777D02*
Y0565277D01*
X0220144Y0559938D02*
X0221644D01*
X0220894Y0559189D02*
Y0560688D01*
X0165790Y0558434D02*
X0167290D01*
X0166540Y0557685D02*
Y0559185D01*
X0165790Y0567400D02*
X0167290D01*
X0166540Y0566650D02*
Y0568150D01*
X0281361Y0568898D02*
X0282861D01*
X0282111Y0568148D02*
Y0569648D01*
X0281361Y0559400D02*
X0282861D01*
X0282111Y0558650D02*
Y0560150D01*
X0222439Y0552400D02*
X0223938D01*
X0223188Y0551650D02*
Y0553150D01*
X0256165Y0606269D02*
X0257565D01*
X0256865Y0605569D02*
Y0606969D01*
X0251256Y0610192D02*
X0252656D01*
X0251956Y0609492D02*
Y0610892D01*
X0286217Y0587900D02*
X0287617D01*
X0286917Y0587200D02*
Y0588600D01*
X0112901Y0639762D02*
X0114401D01*
X0113651Y0639012D02*
Y0640512D01*
X0111700Y0599971D02*
X0113200D01*
X0112450Y0599221D02*
Y0600721D01*
X0111752Y0586400D02*
X0113252D01*
X0112502Y0585650D02*
Y0587150D01*
X0109345Y0589468D02*
X0110845D01*
X0110095Y0588718D02*
Y0590218D01*
X0111752Y0592900D02*
X0113252D01*
X0112502Y0592150D02*
Y0593650D01*
X0107265Y0592900D02*
X0108765D01*
X0108016Y0592150D02*
Y0593650D01*
X0109450Y0596439D02*
X0110950D01*
X0110200Y0595689D02*
Y0597189D01*
X0111006Y0648867D02*
X0112506D01*
X0111756Y0648117D02*
Y0649617D01*
X0114998Y0553400D02*
X0116498D01*
X0115748Y0552650D02*
Y0554150D01*
X0224450Y0525400D02*
X0225950D01*
X0225200Y0524650D02*
Y0526150D01*
X0139048Y0559898D02*
X0140548D01*
X0139798Y0559148D02*
Y0560648D01*
X0146450Y0445034D02*
X0147950D01*
X0147200Y0444284D02*
Y0445784D01*
X0143424Y0439224D02*
X0144924D01*
X0144174Y0438474D02*
Y0439974D01*
X0090450Y0481120D02*
X0091950D01*
X0091200Y0480371D02*
Y0481871D01*
X0077513Y0462131D02*
X0079013D01*
X0078263Y0461381D02*
Y0462881D01*
X0082450Y0488792D02*
X0083950D01*
X0083200Y0488042D02*
Y0489542D01*
X0276987Y0560324D02*
X0278487D01*
X0277737Y0559574D02*
Y0561074D01*
X0285987Y0560324D02*
X0287487D01*
X0286737Y0559574D02*
Y0561074D01*
X0276987Y0567474D02*
X0278487D01*
X0277737Y0566724D02*
Y0568224D01*
X0285987Y0567474D02*
X0287487D01*
X0286737Y0566724D02*
Y0568224D01*
X0161505Y0558900D02*
X0163005D01*
X0162255Y0558150D02*
Y0559650D01*
X0170505Y0558900D02*
X0172005D01*
X0171255Y0558150D02*
Y0559650D01*
X0161505Y0566050D02*
X0163005D01*
X0162255Y0565300D02*
Y0566800D01*
X0170505Y0566050D02*
X0172005D01*
X0171255Y0565300D02*
Y0566800D01*
X0190200Y0559156D02*
X0191700D01*
X0190950Y0558406D02*
Y0559906D01*
X0194611Y0558449D02*
X0196111D01*
X0195361Y0557699D02*
Y0559199D01*
X0199200Y0559156D02*
X0200700D01*
X0199950Y0558406D02*
Y0559906D01*
X0190200Y0566306D02*
X0191700D01*
X0190950Y0565556D02*
Y0567056D01*
X0194611Y0567116D02*
X0196111D01*
X0195361Y0566366D02*
Y0567866D01*
X0199200Y0566306D02*
X0200700D01*
X0199950Y0565556D02*
Y0567056D01*
X0135864Y0186487D02*
X0137364D01*
X0136614Y0185737D02*
Y0187237D01*
X0198775Y0484628D02*
X0199562D01*
X0199169Y0484235D02*
Y0485022D01*
X0198775Y0496046D02*
X0199562D01*
X0199169Y0495652D02*
Y0496439D01*
X0204484Y0490337D02*
X0205271D01*
X0204877Y0489943D02*
Y0490731D01*
X0193066Y0490337D02*
X0193853D01*
X0193460Y0489943D02*
Y0490731D01*
X0198775Y0490337D02*
X0199562D01*
X0199169Y0489943D02*
Y0490731D01*
X0122404Y0292153D02*
X0123191D01*
X0122797Y0291759D02*
Y0292547D01*
X0116596Y0297960D02*
X0117384D01*
X0116990Y0297567D02*
Y0298354D01*
X0116596Y0292153D02*
X0117384D01*
X0116990Y0291759D02*
Y0292547D01*
X0116596Y0286346D02*
X0117384D01*
X0116990Y0285952D02*
Y0286740D01*
X0110790Y0292153D02*
X0111577D01*
X0111183Y0291759D02*
Y0292547D01*
X0144273Y0362254D02*
X0145060D01*
X0144667Y0361860D02*
Y0362648D01*
X0139627Y0366900D02*
X0140415D01*
X0140021Y0366506D02*
Y0367294D01*
X0139627Y0362254D02*
X0140415D01*
X0140021Y0361860D02*
Y0362648D01*
X0144273Y0356782D02*
X0145060D01*
X0144667Y0356388D02*
Y0357175D01*
X0139627Y0352136D02*
X0140415D01*
X0140021Y0351742D02*
Y0352530D01*
X0139627Y0356782D02*
X0140415D01*
X0140021Y0356388D02*
Y0357175D01*
X0129509Y0356782D02*
X0130297D01*
X0129903Y0356388D02*
Y0357175D01*
X0134155Y0352136D02*
X0134942D01*
X0134548Y0351742D02*
Y0352530D01*
X0134155Y0356782D02*
X0134942D01*
X0134548Y0356388D02*
Y0357175D01*
X0134155Y0362254D02*
X0134942D01*
X0134548Y0361860D02*
Y0362648D01*
X0134155Y0366900D02*
X0134942D01*
X0134548Y0366506D02*
Y0367294D01*
X0129509Y0362254D02*
X0130297D01*
X0129903Y0361860D02*
Y0362648D01*
X0267893Y0449758D02*
X0268680D01*
X0268287Y0449365D02*
Y0450152D01*
X0273720Y0449758D02*
X0274507D01*
X0274113Y0449365D02*
Y0450152D01*
X0270806Y0454679D02*
X0271594D01*
X0271200Y0454286D02*
Y0455073D01*
X0270806Y0444837D02*
X0271594D01*
X0271200Y0444443D02*
Y0445231D01*
X0293275Y0247232D02*
X0294775D01*
X0294025Y0246481D02*
Y0247982D01*
X0294039Y0242901D02*
X0295539D01*
X0294789Y0242151D02*
Y0243652D01*
X0184039Y0204055D02*
X0185539D01*
X0184789Y0203305D02*
Y0204805D01*
X0191719Y0204055D02*
X0193219D01*
X0192469Y0203305D02*
Y0204805D01*
X0195387Y0207593D02*
X0196887D01*
X0196137Y0206843D02*
Y0208343D01*
X0187822Y0200110D02*
X0189322D01*
X0188572Y0199360D02*
Y0200859D01*
X0195387Y0200110D02*
X0196887D01*
X0196137Y0199360D02*
Y0200859D01*
X0187822Y0207593D02*
X0189322D01*
X0188572Y0206843D02*
Y0208343D01*
X0184039Y0191869D02*
X0185539D01*
X0184789Y0191119D02*
Y0192619D01*
X0191719Y0191869D02*
X0193219D01*
X0192469Y0191119D02*
Y0192619D01*
X0195387Y0195407D02*
X0196887D01*
X0196137Y0194657D02*
Y0196157D01*
X0187822Y0187923D02*
X0189322D01*
X0188572Y0187173D02*
Y0188673D01*
X0195387Y0187923D02*
X0196887D01*
X0196137Y0187173D02*
Y0188673D01*
X0187822Y0195407D02*
X0189322D01*
X0188572Y0194657D02*
Y0196157D01*
X0184039Y0179400D02*
X0185539D01*
X0184789Y0178650D02*
Y0180150D01*
X0191719Y0179400D02*
X0193219D01*
X0192469Y0178650D02*
Y0180150D01*
X0195387Y0182938D02*
X0196887D01*
X0196137Y0182188D02*
Y0183688D01*
X0187822Y0175454D02*
X0189322D01*
X0188572Y0174704D02*
Y0176204D01*
X0195387Y0175454D02*
X0196887D01*
X0196137Y0174704D02*
Y0176204D01*
X0187822Y0182938D02*
X0189322D01*
X0188572Y0182188D02*
Y0183688D01*
X0187822Y0170220D02*
X0189322D01*
X0188572Y0169470D02*
Y0170970D01*
X0176450Y0185726D02*
X0177950D01*
X0177200Y0184976D02*
Y0186476D01*
X0146575Y0202539D02*
X0148075D01*
X0147326Y0201789D02*
Y0203289D01*
X0149754Y0293732D02*
X0151254D01*
X0150504Y0292982D02*
Y0294482D01*
X0149791Y0273968D02*
X0151291D01*
X0150541Y0273218D02*
Y0274718D01*
X0149450Y0310400D02*
X0150950D01*
X0150200Y0309650D02*
Y0311150D01*
X0142847Y0308736D02*
X0144347D01*
X0143597Y0307986D02*
Y0309486D01*
X0131908Y0311846D02*
X0133408D01*
X0132658Y0311096D02*
Y0312596D01*
X0138475Y0313400D02*
X0139975D01*
X0139225Y0312650D02*
Y0314150D01*
X0156018Y0266400D02*
X0157518D01*
X0156768Y0265650D02*
Y0267150D01*
X0163018Y0266400D02*
X0164518D01*
X0163768Y0265650D02*
Y0267150D01*
X0143008Y0269401D02*
X0144508D01*
X0143758Y0268651D02*
Y0270151D01*
X0150008Y0269401D02*
X0151508D01*
X0150758Y0268651D02*
Y0270151D01*
X0100356Y0265697D02*
X0101856D01*
X0101105Y0264947D02*
Y0266447D01*
X0112513Y0265714D02*
X0114013D01*
X0113263Y0264964D02*
Y0266464D01*
X0162894Y0192848D02*
X0164394D01*
X0163645Y0192097D02*
Y0193597D01*
X0164250Y0198264D02*
X0165750D01*
X0165000Y0197514D02*
Y0199014D01*
X0158577Y0195400D02*
X0160077D01*
X0159327Y0194650D02*
Y0196150D01*
X0155450Y0191047D02*
X0156950D01*
X0156200Y0190297D02*
Y0191797D01*
X0090181Y0385000D02*
X0091681D01*
X0090931Y0384250D02*
Y0385750D01*
X0210165Y0250400D02*
X0211665D01*
X0210915Y0249650D02*
Y0251150D01*
X0202521Y0250400D02*
X0204021D01*
X0203271Y0249650D02*
Y0251150D01*
X0194533Y0250400D02*
X0196033D01*
X0195283Y0249650D02*
Y0251150D01*
X0186836Y0250400D02*
X0188336D01*
X0187586Y0249650D02*
Y0251150D01*
X0126450Y0182949D02*
X0127950D01*
X0127200Y0182199D02*
Y0183699D01*
X0126450Y0174243D02*
X0127950D01*
X0127200Y0173493D02*
Y0174993D01*
X0126285Y0166092D02*
X0127785D01*
X0127035Y0165342D02*
Y0166842D01*
X0133450Y0166092D02*
X0134950D01*
X0134200Y0165342D02*
Y0166842D01*
X0195387Y0162736D02*
X0196887D01*
X0196137Y0161986D02*
Y0163486D01*
X0187822Y0162736D02*
X0189322D01*
X0188572Y0161986D02*
Y0163486D01*
X0195387Y0170220D02*
X0196887D01*
X0196137Y0169470D02*
Y0170970D01*
X0191719Y0166682D02*
X0193219D01*
X0192469Y0165932D02*
Y0167432D01*
X0184039Y0166682D02*
X0185539D01*
X0184789Y0165932D02*
Y0167432D01*
X0177490Y0200641D02*
X0178990D01*
X0178241Y0199890D02*
Y0201391D01*
X0186450Y0216400D02*
X0187950D01*
X0187200Y0215650D02*
Y0217150D01*
X0150703Y0188400D02*
X0152203D01*
X0151453Y0187650D02*
Y0189150D01*
X0132810Y0184006D02*
X0134310D01*
X0133560Y0183256D02*
Y0184756D01*
X0143038Y0263136D02*
X0144538D01*
X0143788Y0262386D02*
Y0263886D01*
X0144450Y0259400D02*
X0145950D01*
X0145200Y0258650D02*
Y0260150D01*
X0132810Y0256756D02*
X0134310D01*
X0133560Y0256006D02*
Y0257506D01*
X0139154Y0198679D02*
X0140654D01*
X0139904Y0197930D02*
Y0199430D01*
X0180297Y0252488D02*
X0181797D01*
X0181046Y0251738D02*
Y0253238D01*
X0125537Y0268400D02*
X0127037D01*
X0126287Y0267650D02*
Y0269150D01*
X0099439Y0314466D02*
X0100939D01*
X0100189Y0313716D02*
Y0315216D01*
X0116698Y0274400D02*
X0118198D01*
X0117448Y0273650D02*
Y0275150D01*
X0111961Y0312548D02*
X0113461D01*
X0112711Y0311798D02*
Y0313298D01*
X0089669Y0273421D02*
X0091169D01*
X0090419Y0272671D02*
Y0274170D01*
X0141467Y0322965D02*
X0142967D01*
X0142217Y0322215D02*
Y0323714D01*
X0137456Y0328208D02*
X0138956D01*
X0138206Y0327458D02*
Y0328958D01*
X0141456Y0328208D02*
X0142956D01*
X0142206Y0327458D02*
Y0328958D01*
X0271152Y0232263D02*
X0272652D01*
X0271902Y0231513D02*
Y0233013D01*
X0271152Y0218409D02*
X0272652D01*
X0271902Y0217659D02*
Y0219159D01*
X0125275Y0328212D02*
X0126775D01*
X0126025Y0327463D02*
Y0328962D01*
X0236947Y0247232D02*
X0238447D01*
X0237697Y0246481D02*
Y0247982D01*
X0328073Y0299957D02*
X0329573D01*
X0328823Y0299207D02*
Y0300707D01*
X0332826Y0287067D02*
X0334327D01*
X0333576Y0286317D02*
Y0287817D01*
X0332826Y0283067D02*
X0334327D01*
X0333576Y0282317D02*
Y0283817D01*
X0285342Y0272556D02*
X0286842D01*
X0286092Y0271806D02*
Y0273306D01*
X0309986Y0262735D02*
X0311486D01*
X0310736Y0261985D02*
Y0263485D01*
X0314742Y0262735D02*
X0316242D01*
X0315492Y0261985D02*
Y0263485D01*
X0226949Y0313945D02*
X0228449D01*
X0227699Y0313195D02*
Y0314695D01*
X0110148Y0368378D02*
X0111648D01*
X0110898Y0367629D02*
Y0369128D01*
X0268450Y0387463D02*
X0269950D01*
X0269200Y0386713D02*
Y0388213D01*
X0258550Y0381400D02*
X0260050D01*
X0259300Y0380650D02*
Y0382150D01*
X0278450Y0371400D02*
X0279950D01*
X0279200Y0370650D02*
Y0372150D01*
X0268450Y0367467D02*
X0269950D01*
X0269200Y0366717D02*
Y0368217D01*
X0320450Y0365400D02*
X0321950D01*
X0321200Y0364650D02*
Y0366150D01*
X0335780Y0371530D02*
X0337280D01*
X0336530Y0370780D02*
Y0372280D01*
X0159625Y0467225D02*
X0161125D01*
X0160375Y0466475D02*
Y0467975D01*
X0159625Y0493353D02*
X0161125D01*
X0160375Y0492603D02*
Y0494103D01*
X0180450Y0463775D02*
X0181950D01*
X0181200Y0463025D02*
Y0464525D01*
X0140130Y0433171D02*
X0141630D01*
X0140880Y0432421D02*
Y0433921D01*
X0279050Y0268696D02*
X0280550D01*
X0279800Y0267946D02*
Y0269446D01*
X0274050Y0264400D02*
X0275550D01*
X0274800Y0263650D02*
Y0265150D01*
X0131595Y0381463D02*
X0133095D01*
X0132344Y0380713D02*
Y0382212D01*
X0351377Y0401694D02*
X0352877D01*
X0352127Y0400944D02*
Y0402444D01*
X0231760Y0300084D02*
X0233260D01*
X0232510Y0299334D02*
Y0300834D01*
X0233499Y0282359D02*
X0234999D01*
X0234249Y0281609D02*
Y0283109D01*
X0315742Y0313937D02*
X0317242D01*
X0316492Y0313188D02*
Y0314687D01*
X0200705Y0321094D02*
X0202205D01*
X0201455Y0320344D02*
Y0321844D01*
X0111858Y0394157D02*
X0113358D01*
X0112608Y0393407D02*
Y0394907D01*
X0102519Y0387042D02*
X0104019D01*
X0103269Y0386293D02*
Y0387792D01*
X0335645Y0383530D02*
X0337145D01*
X0336395Y0382780D02*
Y0384280D01*
X0336023Y0377250D02*
X0337523D01*
X0336773Y0376500D02*
Y0378000D01*
X0320730Y0377530D02*
X0322230D01*
X0321480Y0376780D02*
Y0378280D01*
X0320681Y0371530D02*
X0322181D01*
X0321431Y0370780D02*
Y0372280D01*
X0304385Y0371400D02*
X0305885D01*
X0305135Y0370650D02*
Y0372150D01*
X0304385Y0365400D02*
X0305885D01*
X0305135Y0364650D02*
Y0366150D01*
X0241190Y0568400D02*
X0242690D01*
X0241940Y0567650D02*
Y0569150D01*
X0241206Y0563989D02*
X0242706D01*
X0241956Y0563239D02*
Y0564739D01*
X0241190Y0559400D02*
X0242690D01*
X0241940Y0558650D02*
Y0560150D01*
X0246190Y0559400D02*
X0247690D01*
X0246940Y0558650D02*
Y0560150D01*
X0246288Y0563989D02*
X0247788D01*
X0247038Y0563239D02*
Y0564739D01*
X0246190Y0568400D02*
X0247690D01*
X0246940Y0567650D02*
Y0569150D01*
X0251190Y0568400D02*
X0252690D01*
X0251940Y0567650D02*
Y0569150D01*
X0251206Y0563989D02*
X0252706D01*
X0251956Y0563239D02*
Y0564739D01*
X0251190Y0559400D02*
X0252690D01*
X0251940Y0558650D02*
Y0560150D01*
X0223734Y0559898D02*
X0225234D01*
X0224484Y0559148D02*
Y0560648D01*
X0223750Y0564486D02*
X0225250D01*
X0224500Y0563736D02*
Y0565236D01*
X0223734Y0568898D02*
X0225234D01*
X0224484Y0568148D02*
Y0569648D01*
X0216584Y0559898D02*
X0218084D01*
X0217334Y0559148D02*
Y0560648D01*
X0216600Y0564486D02*
X0218100D01*
X0217350Y0563736D02*
Y0565236D01*
X0216584Y0568898D02*
X0218084D01*
X0217334Y0568148D02*
Y0569648D01*
X0227466Y0545323D02*
X0228966D01*
X0228216Y0544573D02*
Y0546073D01*
X0138950Y0568811D02*
X0140450D01*
X0139700Y0568061D02*
Y0569561D01*
X0139048Y0564400D02*
X0140548D01*
X0139798Y0563650D02*
Y0565150D01*
X0126550Y0548489D02*
X0128050D01*
X0127301Y0547739D02*
Y0549239D01*
X0140450Y0463400D02*
X0141950D01*
X0141200Y0462650D02*
Y0464150D01*
X0144450Y0460400D02*
X0145950D01*
X0145200Y0459650D02*
Y0461150D01*
X0139450Y0473400D02*
X0140950D01*
X0140200Y0472650D02*
Y0474150D01*
X0139450Y0478400D02*
X0140950D01*
X0140200Y0477650D02*
Y0479150D01*
X0138549Y0485292D02*
X0140049D01*
X0139298Y0484542D02*
Y0486042D01*
X0080581Y0467105D02*
X0082081D01*
X0081331Y0466355D02*
Y0467855D01*
X0127450Y0480400D02*
X0128950D01*
X0128200Y0479650D02*
Y0481150D01*
X0127450Y0455400D02*
X0128950D01*
X0128200Y0454650D02*
Y0456150D01*
X0250523Y0387076D02*
X0252024D01*
X0251273Y0386326D02*
Y0387826D01*
X0130894Y0318844D02*
X0132395D01*
X0131644Y0318094D02*
Y0319594D01*
X0213011Y0260841D02*
X0214511D01*
X0213761Y0260091D02*
Y0261591D01*
X0129847Y0387117D02*
X0131347D01*
X0130597Y0386367D02*
Y0387867D01*
X0162894Y0357943D02*
X0164394D01*
X0163645Y0357193D02*
Y0358693D01*
X0087632Y0592493D02*
X0089132D01*
X0088382Y0591744D02*
Y0593244D01*
X0088514Y0574867D02*
X0090014D01*
X0089264Y0574117D02*
Y0575617D01*
X0168194Y0476845D02*
X0169694D01*
X0168945Y0476095D02*
Y0477595D01*
X0172450Y0476845D02*
X0173950D01*
X0173200Y0476095D02*
Y0477595D01*
X0175874Y0462120D02*
X0177374D01*
X0176625Y0461370D02*
Y0462870D01*
X0302504Y0448400D02*
X0304004D01*
X0303254Y0447650D02*
Y0449150D01*
X0278326Y0391792D02*
X0279826D01*
X0279076Y0391042D02*
Y0392542D01*
X0249450Y0353400D02*
X0250950D01*
X0250200Y0352650D02*
Y0354150D01*
X0252615Y0360400D02*
X0254115D01*
X0253365Y0359650D02*
Y0361150D01*
X0115694Y0392400D02*
X0117194D01*
X0116445Y0391650D02*
Y0393150D01*
X0231377Y0320703D02*
X0232877D01*
X0232127Y0319953D02*
Y0321453D01*
X0232962Y0288224D02*
X0234462D01*
X0233712Y0287474D02*
Y0288974D01*
X0157597Y0326568D02*
X0159097D01*
X0158347Y0325818D02*
Y0327318D01*
X0163999Y0363499D02*
X0165499D01*
X0164749Y0362749D02*
Y0364249D01*
X0167767Y0366900D02*
X0169267D01*
X0168517Y0366150D02*
Y0367650D01*
X0113456Y0336494D02*
X0114956D01*
X0114206Y0335744D02*
Y0337244D01*
X0115222Y0340522D02*
X0116722D01*
X0115972Y0339772D02*
Y0341272D01*
X0109450Y0329472D02*
X0110950D01*
X0110200Y0328722D02*
Y0330222D01*
X0110593Y0322214D02*
X0112093D01*
X0111343Y0321464D02*
Y0322964D01*
X0115450Y0316400D02*
X0116950D01*
X0116200Y0315650D02*
Y0317150D01*
X0198531Y0591176D02*
X0199932D01*
X0199232Y0590476D02*
Y0591876D01*
X0193532Y0595176D02*
X0194931D01*
X0194231Y0594476D02*
Y0595876D01*
X0184531Y0587176D02*
X0185932D01*
X0185231Y0586476D02*
Y0587876D01*
X0188531Y0587176D02*
X0189931D01*
X0189232Y0586476D02*
Y0587876D01*
X0193532Y0587176D02*
X0194931D01*
X0194231Y0586476D02*
Y0587876D01*
X0198531Y0587176D02*
X0199932D01*
X0199232Y0586476D02*
Y0587876D01*
X0188531Y0591176D02*
X0189931D01*
X0189232Y0590476D02*
Y0591876D01*
X0184531Y0591176D02*
X0185932D01*
X0185231Y0590476D02*
Y0591876D01*
X0188531Y0595176D02*
X0189931D01*
X0189232Y0594476D02*
Y0595876D01*
X0184531Y0595176D02*
X0185932D01*
X0185231Y0594476D02*
Y0595876D01*
X0198531Y0599176D02*
X0199932D01*
X0199232Y0598476D02*
Y0599876D01*
X0193532Y0599176D02*
X0194931D01*
X0194231Y0598476D02*
Y0599876D01*
X0188531Y0599176D02*
X0189931D01*
X0189232Y0598476D02*
Y0599876D01*
X0184531Y0599176D02*
X0185932D01*
X0185231Y0598476D02*
Y0599876D01*
X0127905Y0614837D02*
X0129305D01*
X0128605Y0614137D02*
Y0615537D01*
X0118905Y0606837D02*
X0120305D01*
X0119605Y0606137D02*
Y0607537D01*
X0122905Y0606837D02*
X0124305D01*
X0123605Y0606137D02*
Y0607537D01*
X0127905Y0606837D02*
X0129305D01*
X0128605Y0606137D02*
Y0607537D01*
X0132905Y0606837D02*
X0134305D01*
X0133605Y0606137D02*
Y0607537D01*
X0127905Y0610837D02*
X0129305D01*
X0128605Y0610137D02*
Y0611537D01*
X0122905Y0610837D02*
X0124305D01*
X0123605Y0610137D02*
Y0611537D01*
X0118905Y0610837D02*
X0120305D01*
X0119605Y0610137D02*
Y0611537D01*
X0132905Y0614837D02*
X0134305D01*
X0133605Y0614137D02*
Y0615537D01*
X0122905Y0614837D02*
X0124305D01*
X0123605Y0614137D02*
Y0615537D01*
X0118905Y0614837D02*
X0120305D01*
X0119605Y0614137D02*
Y0615537D01*
X0132905Y0618837D02*
X0134305D01*
X0133605Y0618137D02*
Y0619537D01*
X0127905Y0618837D02*
X0129305D01*
X0128605Y0618137D02*
Y0619537D01*
X0122905Y0618837D02*
X0124305D01*
X0123605Y0618137D02*
Y0619537D01*
X0118905Y0618837D02*
X0120305D01*
X0119605Y0618137D02*
Y0619537D01*
X0155840Y0599028D02*
X0157240D01*
X0156540Y0598328D02*
Y0599728D01*
X0160840Y0599028D02*
X0162240D01*
X0161540Y0598328D02*
Y0599728D01*
X0165840Y0599028D02*
X0167240D01*
X0166540Y0598328D02*
Y0599728D01*
X0151840Y0595028D02*
X0153240D01*
X0152540Y0594328D02*
Y0595728D01*
X0155840Y0595028D02*
X0157240D01*
X0156540Y0594328D02*
Y0595728D01*
X0151840Y0591028D02*
X0153240D01*
X0152540Y0590328D02*
Y0591728D01*
X0155840Y0591028D02*
X0157240D01*
X0156540Y0590328D02*
Y0591728D01*
X0160840Y0587028D02*
X0162240D01*
X0161540Y0586328D02*
Y0587728D01*
X0155840Y0587028D02*
X0157240D01*
X0156540Y0586328D02*
Y0587728D01*
X0151840Y0587028D02*
X0153240D01*
X0152540Y0586328D02*
Y0587728D01*
X0160840Y0595028D02*
X0162240D01*
X0161540Y0594328D02*
Y0595728D01*
X0242165Y0618269D02*
X0243565D01*
X0242865Y0617569D02*
Y0618969D01*
X0246165Y0618269D02*
X0247565D01*
X0246865Y0617569D02*
Y0618969D01*
X0251165Y0618269D02*
X0252565D01*
X0251865Y0617569D02*
Y0618969D01*
X0256165Y0618269D02*
X0257565D01*
X0256865Y0617569D02*
Y0618969D01*
X0242165Y0614269D02*
X0243565D01*
X0242865Y0613569D02*
Y0614969D01*
X0246165Y0614269D02*
X0247565D01*
X0246865Y0613569D02*
Y0614969D01*
X0256165Y0614269D02*
X0257565D01*
X0256865Y0613569D02*
Y0614969D01*
X0242165Y0610269D02*
X0243565D01*
X0242865Y0609569D02*
Y0610969D01*
X0246165Y0610269D02*
X0247565D01*
X0246865Y0609569D02*
Y0610969D01*
X0251165Y0606269D02*
X0252565D01*
X0251865Y0605569D02*
Y0606969D01*
X0246165Y0606269D02*
X0247565D01*
X0246865Y0605569D02*
Y0606969D01*
X0242165Y0606269D02*
X0243565D01*
X0242865Y0605569D02*
Y0606969D01*
X0276961Y0599971D02*
X0278361D01*
X0277661Y0599271D02*
Y0600671D01*
X0280961Y0599971D02*
X0282361D01*
X0281661Y0599271D02*
Y0600671D01*
X0285961Y0599971D02*
X0287361D01*
X0286661Y0599271D02*
Y0600671D01*
X0290961Y0599971D02*
X0292361D01*
X0291661Y0599271D02*
Y0600671D01*
X0276961Y0595971D02*
X0278361D01*
X0277661Y0595271D02*
Y0596671D01*
X0280961Y0595971D02*
X0282361D01*
X0281661Y0595271D02*
Y0596671D01*
X0290961Y0595971D02*
X0292361D01*
X0291661Y0595271D02*
Y0596671D01*
X0276961Y0591971D02*
X0278361D01*
X0277661Y0591271D02*
Y0592671D01*
X0280961Y0591971D02*
X0282361D01*
X0281661Y0591271D02*
Y0592671D01*
X0290961Y0587971D02*
X0292361D01*
X0291661Y0587271D02*
Y0588671D01*
X0280961Y0587971D02*
X0282361D01*
X0281661Y0587271D02*
Y0588671D01*
X0276961Y0587971D02*
X0278361D01*
X0277661Y0587271D02*
Y0588671D01*
X0285961Y0595971D02*
X0287361D01*
X0286661Y0595271D02*
Y0596671D01*
X0216085Y0618076D02*
X0217485D01*
X0216785Y0617376D02*
Y0618776D01*
X0220085Y0618076D02*
X0221485D01*
X0220785Y0617376D02*
Y0618776D01*
X0225085Y0618076D02*
X0226485D01*
X0225785Y0617376D02*
Y0618776D01*
X0230085Y0618076D02*
X0231485D01*
X0230785Y0617376D02*
Y0618776D01*
X0216085Y0614076D02*
X0217485D01*
X0216785Y0613376D02*
Y0614776D01*
X0220085Y0614076D02*
X0221485D01*
X0220785Y0613376D02*
Y0614776D01*
X0230085Y0614076D02*
X0231485D01*
X0230785Y0613376D02*
Y0614776D01*
X0216085Y0610076D02*
X0217485D01*
X0216785Y0609376D02*
Y0610776D01*
X0220085Y0610076D02*
X0221485D01*
X0220785Y0609376D02*
Y0610776D01*
X0225085Y0610076D02*
X0226485D01*
X0225785Y0609376D02*
Y0610776D01*
X0230085Y0606076D02*
X0231485D01*
X0230785Y0605376D02*
Y0606776D01*
X0225085Y0606076D02*
X0226485D01*
X0225785Y0605376D02*
Y0606776D01*
X0220085Y0606076D02*
X0221485D01*
X0220785Y0605376D02*
Y0606776D01*
X0216085Y0606076D02*
X0217485D01*
X0216785Y0605376D02*
Y0606776D01*
X0225085Y0614076D02*
X0226485D01*
X0225785Y0613376D02*
Y0614776D01*
X0230085Y0610076D02*
X0231485D01*
X0230785Y0609376D02*
Y0610776D01*
X0165840Y0591028D02*
X0167240D01*
X0166540Y0590328D02*
Y0591728D01*
X0160840Y0591028D02*
X0162240D01*
X0161540Y0590328D02*
Y0591728D01*
X0198531Y0595176D02*
X0199932D01*
X0199232Y0594476D02*
Y0595876D01*
X0193532Y0591176D02*
X0194931D01*
X0194231Y0590476D02*
Y0591876D01*
X0156306Y0200110D02*
X0157806D01*
X0157056Y0199360D02*
Y0200859D01*
X0339561Y0394400D02*
X0341061D01*
X0340311Y0393650D02*
Y0395150D01*
X0324925Y0388545D02*
X0326425D01*
X0325675Y0387795D02*
Y0389295D01*
X0345333Y0370977D02*
X0346833D01*
X0346083Y0370228D02*
Y0371727D01*
X0317248Y0341579D02*
X0318748D01*
X0317998Y0340829D02*
Y0342329D01*
X0170211Y0329253D02*
X0171711D01*
X0170961Y0328503D02*
Y0330003D01*
X0127544Y0381400D02*
X0129044D01*
X0128295Y0380650D02*
Y0382150D01*
X0269250Y0261421D02*
X0270750D01*
X0270000Y0260671D02*
Y0262171D01*
X0102125Y0285810D02*
X0103625D01*
X0102875Y0285060D02*
Y0286560D01*
X0103165Y0299043D02*
X0104665D01*
X0103915Y0298293D02*
Y0299793D01*
X0103165Y0295106D02*
X0104665D01*
X0103915Y0294356D02*
Y0295856D01*
X0100358Y0277341D02*
X0101858D01*
X0101108Y0276591D02*
Y0278091D01*
X0130182Y0302551D02*
X0131682D01*
X0130932Y0301801D02*
Y0303301D01*
X0128798Y0278952D02*
X0130298D01*
X0129548Y0278202D02*
Y0279702D01*
X0135997Y0291161D02*
X0137497D01*
X0136747Y0290411D02*
Y0291911D01*
X0134020Y0281009D02*
X0135520D01*
X0134770Y0280259D02*
Y0281759D01*
X0140450Y0290200D02*
X0141950D01*
X0141200Y0289450D02*
Y0290950D01*
X0125450Y0308400D02*
X0126950D01*
X0126200Y0307650D02*
Y0309150D01*
X0106456Y0312666D02*
X0107956D01*
X0107206Y0311916D02*
Y0313416D01*
X0217466Y0545323D02*
X0218966D01*
X0218216Y0544573D02*
Y0546073D01*
X0222466Y0545323D02*
X0223966D01*
X0223216Y0544573D02*
Y0546073D01*
X0212466Y0545323D02*
X0213966D01*
X0213216Y0544573D02*
Y0546073D01*
X0217423Y0552400D02*
X0218923D01*
X0218173Y0551650D02*
Y0553150D01*
X0165840Y0595028D02*
X0167240D01*
X0166540Y0594328D02*
Y0595728D01*
X0256165Y0610372D02*
X0257565D01*
X0256865Y0609672D02*
Y0611072D01*
X0251165Y0614372D02*
X0252565D01*
X0251865Y0613672D02*
Y0615072D01*
X0286113Y0591750D02*
X0287513D01*
X0286813Y0591050D02*
Y0592450D01*
X0290961Y0591800D02*
X0292361D01*
X0291661Y0591100D02*
Y0592500D01*
X0308934Y0241049D02*
X0310434D01*
X0309684Y0240299D02*
Y0241799D01*
X0314810Y0240947D02*
X0316310D01*
X0315560Y0240197D02*
Y0241697D01*
X0165840Y0587081D02*
X0167240D01*
X0166540Y0586381D02*
Y0587781D01*
X0132905Y0610837D02*
X0134305D01*
X0133605Y0610137D02*
Y0611537D01*
X0306761Y0291400D02*
X0308261D01*
X0307511Y0290650D02*
Y0292150D01*
X0141616Y0388149D02*
X0143116D01*
X0142366Y0387400D02*
Y0388899D01*
X0137040Y0425322D02*
X0138540D01*
X0137790Y0424572D02*
Y0426072D01*
X0260450Y0357400D02*
X0261950D01*
X0261200Y0356650D02*
Y0358150D01*
X0275450Y0361400D02*
X0276950D01*
X0276200Y0360650D02*
Y0362150D01*
X0236947Y0240630D02*
X0238447D01*
X0237697Y0239880D02*
Y0241380D01*
X0214250Y0270221D02*
X0215750D01*
X0215000Y0269471D02*
Y0270971D01*
X0218450Y0276400D02*
X0219950D01*
X0219200Y0275650D02*
Y0277150D01*
X0225679Y0277428D02*
X0227179D01*
X0226429Y0276678D02*
Y0278178D01*
X0283448Y0475400D02*
X0284948D01*
X0284198Y0474650D02*
Y0476150D01*
X0218742Y0230831D02*
X0220243D01*
X0219493Y0230081D02*
Y0231581D01*
X0248912Y0254707D02*
X0250412D01*
X0249662Y0253957D02*
Y0255457D01*
X0116450Y0380400D02*
X0117950D01*
X0117200Y0379650D02*
Y0381150D01*
X0368961Y0411118D02*
X0370461D01*
X0369711Y0410367D02*
Y0411868D01*
X0347670Y0430400D02*
X0349170D01*
X0348420Y0429650D02*
Y0431150D01*
X0231230Y0315314D02*
X0232730D01*
X0231980Y0314564D02*
Y0316064D01*
X0283742Y0268696D02*
X0285242D01*
X0284492Y0267946D02*
Y0269446D01*
X0241299Y0332244D02*
X0242799D01*
X0242049Y0331494D02*
Y0332994D01*
X0233945Y0325080D02*
X0235444D01*
X0234695Y0324330D02*
Y0325830D01*
X0240305Y0326758D02*
X0241805D01*
X0241055Y0326008D02*
Y0327508D01*
X0083529Y0611082D02*
X0085029D01*
X0084279Y0610332D02*
Y0611832D01*
X0269250Y0267515D02*
X0270750D01*
X0270000Y0266765D02*
Y0268265D01*
X0094007Y0530571D02*
X0095507D01*
X0094757Y0529821D02*
Y0531321D01*
X0090432Y0550867D02*
X0091932D01*
X0091182Y0550117D02*
Y0551617D01*
X0091338Y0467593D02*
X0092838D01*
X0092088Y0466843D02*
Y0468343D01*
X0157141Y0451089D02*
X0158642D01*
X0157891Y0450339D02*
Y0451839D01*
X0370955Y0289849D02*
X0372455D01*
X0371705Y0289099D02*
Y0290599D01*
X0151840Y0599028D02*
X0153240D01*
X0152540Y0598328D02*
Y0599728D01*
X0087600Y0334400D02*
X0090800D01*
X0089200Y0332800D02*
Y0336000D01*
X0087600Y0344400D02*
X0090800D01*
X0089200Y0342800D02*
Y0346000D01*
X0087593Y0354400D02*
X0090793D01*
X0089193Y0352800D02*
Y0356000D01*
X0087593Y0294400D02*
X0090793D01*
X0089193Y0292800D02*
Y0296000D01*
X0087600Y0304400D02*
X0090800D01*
X0089200Y0302800D02*
Y0306000D01*
X0087600Y0314389D02*
X0090800D01*
X0089200Y0312789D02*
Y0315989D01*
X0087600Y0324400D02*
X0090800D01*
X0089200Y0322800D02*
Y0326000D01*
X0308629Y0382473D02*
X0310129D01*
X0309379Y0381723D02*
Y0383223D01*
X0127855Y0322623D02*
X0129355D01*
X0128605Y0321873D02*
Y0323373D01*
X0334794Y0424425D02*
X0336294D01*
X0335544Y0423675D02*
Y0425175D01*
X0110450Y0554400D02*
X0111950D01*
X0111200Y0553650D02*
Y0555150D01*
G54D22*
X0348550Y0067500D02*
Y0073498D01*
X0352549Y0067500D01*
Y0073498D01*
X0354548Y0067500D02*
X0358547Y0071499D01*
X0360546Y0067500D02*
Y0071499D01*
X0362545Y0073498D01*
X0364545Y0071499D01*
Y0067500D01*
Y0070499D01*
X0360546D01*
X0294000Y0073498D02*
X0297999D01*
X0295999D01*
Y0067500D01*
X0299998Y0073498D02*
X0301997D01*
X0300998D01*
Y0067500D01*
X0299998D01*
X0301997D01*
X0304996Y0073498D02*
Y0067500D01*
X0307996D01*
X0308995Y0068500D01*
Y0072498D01*
X0307996Y0073498D01*
X0304996D01*
X0317992Y0067500D02*
Y0073498D01*
X0319992D02*
Y0067500D01*
X0316993Y0071499D02*
X0319992D01*
X0320991D01*
X0316993Y0069499D02*
X0320991D01*
X0322991Y0071499D02*
X0323990D01*
Y0070499D01*
X0322991D01*
Y0071499D01*
Y0068500D02*
X0323990D01*
Y0067500D01*
X0322991D01*
Y0068500D01*
X0580500Y0052965D02*
X0584499D01*
X0582499D01*
Y0046966D01*
X0590497Y0052965D02*
X0586498D01*
Y0046966D01*
X0590497D01*
X0586498Y0049966D02*
X0588497D01*
X0592496Y0052965D02*
X0596495Y0046966D01*
Y0052965D02*
X0592496Y0046966D01*
X0598494D02*
Y0050965D01*
X0600493Y0052965D01*
X0602493Y0050965D01*
Y0046966D01*
Y0049966D01*
X0598494D01*
X0608491Y0051965D02*
X0607491Y0052965D01*
X0605492D01*
X0604492Y0051965D01*
Y0050965D01*
X0605492Y0049966D01*
X0607491D01*
X0608491Y0048966D01*
Y0047966D01*
X0607491Y0046966D01*
X0605492D01*
X0604492Y0047966D01*
X0616488Y0052965D02*
X0618488D01*
X0617488D01*
Y0046966D01*
X0616488D01*
X0618488D01*
X0621487D02*
Y0052965D01*
X0625486Y0046966D01*
Y0052965D01*
X0631484Y0051965D02*
X0630484Y0052965D01*
X0628484D01*
X0627485Y0051965D01*
Y0050965D01*
X0628484Y0049966D01*
X0630484D01*
X0631484Y0048966D01*
Y0047966D01*
X0630484Y0046966D01*
X0628484D01*
X0627485Y0047966D01*
X0633483Y0052965D02*
X0637482D01*
X0635482D01*
Y0046966D01*
X0639481D02*
Y0052965D01*
X0642480D01*
X0643480Y0051965D01*
Y0049966D01*
X0642480Y0048966D01*
X0639481D01*
X0641480D02*
X0643480Y0046966D01*
X0645479Y0052965D02*
Y0047966D01*
X0646479Y0046966D01*
X0648478D01*
X0649478Y0047966D01*
Y0052965D01*
X0651477Y0046966D02*
Y0052965D01*
X0653476Y0050965D01*
X0655476Y0052965D01*
Y0046966D01*
X0661474Y0052965D02*
X0657475D01*
Y0046966D01*
X0661474D01*
X0657475Y0049966D02*
X0659474D01*
X0663473Y0046966D02*
Y0052965D01*
X0667472Y0046966D01*
Y0052965D01*
X0669471D02*
X0673470D01*
X0671471D01*
Y0046966D01*
X0679468Y0051965D02*
X0678468Y0052965D01*
X0676469D01*
X0675469Y0051965D01*
Y0050965D01*
X0676469Y0049966D01*
X0678468D01*
X0679468Y0048966D01*
Y0047966D01*
X0678468Y0046966D01*
X0676469D01*
X0675469Y0047966D01*
X0454050Y0052965D02*
X0458049D01*
Y0051965D01*
X0454050Y0047966D01*
Y0046966D01*
X0460048Y0050965D02*
X0461048D01*
Y0049966D01*
X0460048D01*
Y0050965D01*
Y0047966D02*
X0461048D01*
Y0046966D01*
X0460048D01*
Y0047966D01*
X0469045Y0052965D02*
X0465046D01*
Y0049966D01*
X0467046Y0050965D01*
X0468046D01*
X0469045Y0049966D01*
Y0047966D01*
X0468046Y0046966D01*
X0466046D01*
X0465046Y0047966D01*
X0471044Y0051965D02*
X0472044Y0052965D01*
X0474044D01*
X0475043Y0051965D01*
Y0047966D01*
X0474044Y0046966D01*
X0472044D01*
X0471044Y0047966D01*
Y0051965D01*
X0477043Y0050965D02*
X0478042D01*
Y0049966D01*
X0477043D01*
Y0050965D01*
Y0047966D02*
X0478042D01*
Y0046966D01*
X0477043D01*
Y0047966D01*
X0482041Y0051965D02*
X0483041Y0052965D01*
X0485040D01*
X0486040Y0051965D01*
Y0050965D01*
X0485040Y0049966D01*
X0484040D01*
X0485040D01*
X0486040Y0048966D01*
Y0047966D01*
X0485040Y0046966D01*
X0483041D01*
X0482041Y0047966D01*
X0488039Y0046966D02*
X0490038D01*
X0489039D01*
Y0052965D01*
X0488039Y0051965D01*
X0499035Y0046966D02*
Y0052965D01*
X0502035D01*
X0503034Y0051965D01*
Y0049966D01*
X0502035Y0048966D01*
X0499035D01*
X0505033Y0046966D02*
Y0052965D01*
X0507033Y0050965D01*
X0509032Y0052965D01*
Y0046966D01*
X0046350D02*
Y0052965D01*
X0049349D01*
X0050349Y0051965D01*
Y0049966D01*
X0049349Y0048966D01*
X0046350D01*
X0052348Y0052965D02*
Y0046966D01*
X0056347D01*
X0061345Y0052965D02*
X0059346D01*
X0058346Y0051965D01*
Y0047966D01*
X0059346Y0046966D01*
X0061345D01*
X0062345Y0047966D01*
Y0051965D01*
X0061345Y0052965D01*
X0064344D02*
X0068343D01*
X0066343D01*
Y0046966D01*
X0076340D02*
Y0052965D01*
X0080339Y0046966D01*
Y0052965D01*
X0082338Y0046966D02*
Y0050965D01*
X0084338Y0052965D01*
X0086337Y0050965D01*
Y0046966D01*
Y0049966D01*
X0082338D01*
X0088336Y0046966D02*
Y0052965D01*
X0090336Y0050965D01*
X0092335Y0052965D01*
Y0046966D01*
X0098333Y0052965D02*
X0094335D01*
Y0046966D01*
X0098333D01*
X0094335Y0049966D02*
X0096334D01*
X0106331Y0048966D02*
X0110329D01*
X0106331Y0050965D02*
X0110329D01*
X0046350Y0073549D02*
Y0067551D01*
X0050349D01*
X0052348D02*
Y0071549D01*
X0054347Y0073549D01*
X0056347Y0071549D01*
Y0067551D01*
Y0070550D01*
X0052348D01*
X0058346Y0073549D02*
Y0072549D01*
X0060346Y0070550D01*
X0062345Y0072549D01*
Y0073549D01*
X0060346Y0070550D02*
Y0067551D01*
X0068343Y0073549D02*
X0064344D01*
Y0067551D01*
X0068343D01*
X0064344Y0070550D02*
X0066343D01*
X0070342Y0067551D02*
Y0073549D01*
X0073341D01*
X0074341Y0072549D01*
Y0070550D01*
X0073341Y0069550D01*
X0070342D01*
X0072342D02*
X0074341Y0067551D01*
X0082338D02*
Y0073549D01*
X0086337Y0067551D01*
Y0073549D01*
X0088336Y0067551D02*
Y0071549D01*
X0090336Y0073549D01*
X0092335Y0071549D01*
Y0067551D01*
Y0070550D01*
X0088336D01*
X0094335Y0067551D02*
Y0073549D01*
X0096334Y0071549D01*
X0098333Y0073549D01*
Y0067551D01*
X0104331Y0073549D02*
X0100332D01*
Y0067551D01*
X0104331D01*
X0100332Y0070550D02*
X0102332D01*
X0112329Y0069550D02*
X0116327D01*
X0112329Y0071549D02*
X0116327D01*
X0294000Y0093831D02*
Y0087833D01*
X0296999D01*
X0297999Y0088833D01*
Y0089833D01*
X0296999Y0090832D01*
X0294000D01*
X0296999D01*
X0297999Y0091832D01*
Y0092832D01*
X0296999Y0093831D01*
X0294000D01*
X0302997D02*
X0300998D01*
X0299998Y0092832D01*
Y0088833D01*
X0300998Y0087833D01*
X0302997D01*
X0303997Y0088833D01*
Y0092832D01*
X0302997Y0093831D01*
X0305996Y0087833D02*
Y0091832D01*
X0307996Y0093831D01*
X0309995Y0091832D01*
Y0087833D01*
Y0090832D01*
X0305996D01*
X0311994Y0087833D02*
Y0093831D01*
X0314993D01*
X0315993Y0092832D01*
Y0090832D01*
X0314993Y0089833D01*
X0311994D01*
X0313994D02*
X0315993Y0087833D01*
X0317992Y0093831D02*
Y0087833D01*
X0320991D01*
X0321991Y0088833D01*
Y0092832D01*
X0320991Y0093831D01*
X0317992D01*
X0330988Y0087833D02*
Y0093831D01*
X0332987D02*
Y0087833D01*
X0329988Y0091832D02*
X0332987D01*
X0333987D01*
X0329988Y0089833D02*
X0333987D01*
X0335986Y0091832D02*
X0336986D01*
Y0090832D01*
X0335986D01*
Y0091832D01*
Y0088833D02*
X0336986D01*
Y0087833D01*
X0335986D01*
Y0088833D01*
X0348550Y0087833D02*
Y0093831D01*
X0350549Y0091832D01*
X0352549Y0093831D01*
Y0087833D01*
X0354548Y0093831D02*
Y0087833D01*
X0357547D01*
X0358547Y0088833D01*
Y0092832D01*
X0357547Y0093831D01*
X0354548D01*
X0360546Y0092832D02*
X0361546Y0093831D01*
X0363545D01*
X0364545Y0092832D01*
Y0088833D01*
X0363545Y0087833D01*
X0361546D01*
X0360546Y0088833D01*
Y0092832D01*
X0366544Y0087833D02*
X0368544D01*
X0367544D01*
Y0093831D01*
X0366544Y0092832D01*
X0375541Y0093831D02*
X0371543D01*
Y0090832D01*
X0373542Y0091832D01*
X0374542D01*
X0375541Y0090832D01*
Y0088833D01*
X0374542Y0087833D01*
X0372542D01*
X0371543Y0088833D01*
X0462150Y0087833D02*
Y0091832D01*
X0464149Y0093831D01*
X0466149Y0091832D01*
Y0087833D01*
Y0090832D01*
X0462150D01*
X0046350Y0087833D02*
Y0091832D01*
X0048349Y0093831D01*
X0050349Y0091832D01*
Y0087833D01*
Y0090832D01*
X0046350D01*
X0052348Y0093831D02*
Y0087833D01*
X0056347D01*
X0058346Y0093831D02*
Y0087833D01*
X0062345D01*
X0070342D02*
Y0091832D01*
X0072342Y0093831D01*
X0074341Y0091832D01*
Y0087833D01*
Y0090832D01*
X0070342D01*
X0076340Y0087833D02*
Y0093831D01*
X0079339D01*
X0080339Y0092832D01*
Y0090832D01*
X0079339Y0089833D01*
X0076340D01*
X0078340D02*
X0080339Y0087833D01*
X0082338Y0093831D02*
X0086337D01*
X0084338D01*
Y0087833D01*
X0088336Y0093831D02*
Y0087833D01*
X0090336Y0089833D01*
X0092335Y0087833D01*
Y0093831D01*
X0097334D02*
X0095334D01*
X0094335Y0092832D01*
Y0088833D01*
X0095334Y0087833D01*
X0097334D01*
X0098333Y0088833D01*
Y0092832D01*
X0097334Y0093831D01*
X0100332Y0087833D02*
Y0093831D01*
X0103332D01*
X0104331Y0092832D01*
Y0090832D01*
X0103332Y0089833D01*
X0100332D01*
X0102332D02*
X0104331Y0087833D01*
X0106331Y0093831D02*
Y0087833D01*
Y0089833D01*
X0110329Y0093831D01*
X0107330Y0090832D01*
X0110329Y0087833D01*
X0118327Y0093831D02*
Y0089833D01*
X0120326Y0087833D01*
X0122325Y0089833D01*
Y0093831D01*
X0124325D02*
X0126324D01*
X0125324D01*
Y0087833D01*
X0124325D01*
X0126324D01*
X0133322Y0093831D02*
X0129323D01*
Y0087833D01*
X0133322D01*
X0129323Y0090832D02*
X0131323D01*
X0135321Y0093831D02*
Y0087833D01*
X0137321Y0089833D01*
X0139320Y0087833D01*
Y0093831D01*
X0145318D02*
X0141319D01*
Y0087833D01*
X0145318D01*
X0141319Y0090832D02*
X0143319D01*
X0147317Y0093831D02*
Y0087833D01*
X0150316D01*
X0151316Y0088833D01*
Y0092832D01*
X0150316Y0093831D01*
X0147317D01*
X0163312D02*
X0159313D01*
Y0090832D01*
X0161313D01*
X0159313D01*
Y0087833D01*
X0165312D02*
Y0093831D01*
X0168310D01*
X0169310Y0092832D01*
Y0090832D01*
X0168310Y0089833D01*
X0165312D01*
X0167311D02*
X0169310Y0087833D01*
X0174309Y0093831D02*
X0172309D01*
X0171310Y0092832D01*
Y0088833D01*
X0172309Y0087833D01*
X0174309D01*
X0175308Y0088833D01*
Y0092832D01*
X0174309Y0093831D01*
X0177308Y0087833D02*
Y0093831D01*
X0179307Y0091832D01*
X0181306Y0093831D01*
Y0087833D01*
X0189304Y0093831D02*
X0193303D01*
X0191303D01*
Y0087833D01*
X0198301Y0093831D02*
X0196301D01*
X0195302Y0092832D01*
Y0088833D01*
X0196301Y0087833D01*
X0198301D01*
X0199301Y0088833D01*
Y0092832D01*
X0198301Y0093831D01*
X0201300Y0087833D02*
Y0093831D01*
X0204299D01*
X0205299Y0092832D01*
Y0090832D01*
X0204299Y0089833D01*
X0201300D01*
X0217295Y0092832D02*
X0216295Y0093831D01*
X0214296D01*
X0213296Y0092832D01*
Y0091832D01*
X0214296Y0090832D01*
X0216295D01*
X0217295Y0089833D01*
Y0088833D01*
X0216295Y0087833D01*
X0214296D01*
X0213296Y0088833D01*
X0219294Y0093831D02*
X0221293D01*
X0220294D01*
Y0087833D01*
X0219294D01*
X0221293D01*
X0224292Y0093831D02*
Y0087833D01*
X0227291D01*
X0228291Y0088833D01*
Y0092832D01*
X0227291Y0093831D01*
X0224292D01*
X0234289D02*
X0230291D01*
Y0087833D01*
X0234289D01*
X0230291Y0090832D02*
X0232290D01*
X0298199Y0051965D02*
X0297199Y0052965D01*
X0295200D01*
X0294200Y0051965D01*
Y0047966D01*
X0295200Y0046966D01*
X0297199D01*
X0298199Y0047966D01*
Y0049966D01*
X0296199D01*
X0304197Y0052965D02*
X0300198D01*
Y0046966D01*
X0304197D01*
X0300198Y0049966D02*
X0302197D01*
X0306196Y0046966D02*
Y0052965D01*
X0310195Y0046966D01*
Y0052965D01*
X0316193D02*
X0312194D01*
Y0046966D01*
X0316193D01*
X0312194Y0049966D02*
X0314194D01*
X0318192Y0046966D02*
Y0052965D01*
X0321191D01*
X0322191Y0051965D01*
Y0049966D01*
X0321191Y0048966D01*
X0318192D01*
X0320192D02*
X0322191Y0046966D01*
X0324190D02*
Y0050965D01*
X0326190Y0052965D01*
X0328189Y0050965D01*
Y0046966D01*
Y0049966D01*
X0324190D01*
X0330188Y0052965D02*
X0334187D01*
X0332188D01*
Y0046966D01*
X0340185Y0052965D02*
X0336186D01*
Y0046966D01*
X0340185D01*
X0336186Y0049966D02*
X0338186D01*
X0342184Y0052965D02*
Y0046966D01*
X0345183D01*
X0346183Y0047966D01*
Y0051965D01*
X0345183Y0052965D01*
X0342184D01*
X0372175Y0050965D02*
X0373175D01*
Y0049966D01*
X0372175D01*
Y0050965D01*
Y0047966D02*
X0373175D01*
Y0046966D01*
X0372175D01*
Y0047966D01*
X0381150Y0046966D02*
X0383149D01*
X0382150D01*
Y0052965D01*
X0381150Y0051965D01*
X0390147Y0046966D02*
X0386148D01*
X0390147Y0050965D01*
Y0051965D01*
X0389147Y0052965D01*
X0387148D01*
X0386148Y0051965D01*
X0392146Y0046966D02*
X0396145Y0050965D01*
X0402143Y0046966D02*
X0398145D01*
X0402143Y0050965D01*
Y0051965D01*
X0401144Y0052965D01*
X0399144D01*
X0398145Y0051965D01*
X0404143Y0046966D02*
X0408141Y0050965D01*
X0414139Y0046966D02*
X0410141D01*
X0414139Y0050965D01*
Y0051965D01*
X0413140Y0052965D01*
X0411140D01*
X0410141Y0051965D01*
X0416139D02*
X0417138Y0052965D01*
X0419138D01*
X0420137Y0051965D01*
Y0047966D01*
X0419138Y0046966D01*
X0417138D01*
X0416139Y0047966D01*
Y0051965D01*
X0422137Y0046966D02*
X0424136D01*
X0423136D01*
Y0052965D01*
X0422137Y0051965D01*
X0427135D02*
X0428135Y0052965D01*
X0430134D01*
X0431134Y0051965D01*
Y0050965D01*
X0430134Y0049966D01*
X0431134Y0048966D01*
Y0047966D01*
X0430134Y0046966D01*
X0428135D01*
X0427135Y0047966D01*
Y0048966D01*
X0428135Y0049966D01*
X0427135Y0050965D01*
Y0051965D01*
X0428135Y0049966D02*
X0430134D01*
X0126900Y0046966D02*
Y0052965D01*
X0128899Y0050965D01*
X0130899Y0052965D01*
Y0046966D01*
X0132898Y0052965D02*
Y0046966D01*
X0135897D01*
X0136897Y0047966D01*
Y0051965D01*
X0135897Y0052965D01*
X0132898D01*
X0138896Y0051965D02*
X0139896Y0052965D01*
X0141895D01*
X0142895Y0051965D01*
Y0047966D01*
X0141895Y0046966D01*
X0139896D01*
X0138896Y0047966D01*
Y0051965D01*
X0144894Y0046966D02*
X0146894D01*
X0145894D01*
Y0052965D01*
X0144894Y0051965D01*
X0153891Y0052965D02*
X0149893D01*
Y0049966D01*
X0151892Y0050965D01*
X0152892D01*
X0153891Y0049966D01*
Y0047966D01*
X0152892Y0046966D01*
X0150892D01*
X0149893Y0047966D01*
X0155891Y0046966D02*
Y0050965D01*
X0157890Y0052965D01*
X0159889Y0050965D01*
Y0046966D01*
Y0049966D01*
X0155891D01*
X0161889Y0046966D02*
Y0047966D01*
X0162888D01*
Y0046966D01*
X0161889D01*
X0170886Y0051965D02*
X0169886Y0052965D01*
X0167887D01*
X0166887Y0051965D01*
Y0047966D01*
X0167887Y0046966D01*
X0169886D01*
X0170886Y0047966D01*
Y0049966D01*
X0168886D01*
X0176884Y0051965D02*
X0175884Y0052965D01*
X0173885D01*
X0172885Y0051965D01*
Y0047966D01*
X0173885Y0046966D01*
X0175884D01*
X0176884Y0047966D01*
Y0049966D01*
X0174884D01*
X0178883Y0046966D02*
X0180883D01*
X0179883D01*
Y0052965D01*
X0178883Y0051965D01*
X0433000Y0087833D02*
Y0093831D01*
X0435999D01*
X0436999Y0092832D01*
Y0090832D01*
X0435999Y0089833D01*
X0433000D01*
X0434999D02*
X0436999Y0087833D01*
X0442997Y0093831D02*
X0438998D01*
Y0087833D01*
X0442997D01*
X0438998Y0090832D02*
X0440997D01*
X0444996Y0093831D02*
Y0089833D01*
X0446995Y0087833D01*
X0448995Y0089833D01*
Y0093831D01*
X0450994Y0091832D02*
X0451994D01*
Y0090832D01*
X0450994D01*
Y0091832D01*
Y0088833D02*
X0451994D01*
Y0087833D01*
X0450994D01*
Y0088833D01*
X0520799Y0092832D02*
X0519799Y0093831D01*
X0517800D01*
X0516800Y0092832D01*
Y0091832D01*
X0517800Y0090832D01*
X0519799D01*
X0520799Y0089833D01*
Y0088833D01*
X0519799Y0087833D01*
X0517800D01*
X0516800Y0088833D01*
X0522798Y0093831D02*
Y0089833D01*
X0524797Y0087833D01*
X0526797Y0089833D01*
Y0093831D01*
X0528796Y0087833D02*
Y0093831D01*
X0532795Y0087833D01*
Y0093831D01*
X0540792Y0087833D02*
Y0093831D01*
X0543791D01*
X0544791Y0092832D01*
Y0090832D01*
X0543791Y0089833D01*
X0540792D01*
X0542792D02*
X0544791Y0087833D01*
X0550789Y0093831D02*
X0546790D01*
Y0087833D01*
X0550789D01*
X0546790Y0090832D02*
X0548790D01*
X0552788Y0093831D02*
Y0089833D01*
X0554788Y0087833D01*
X0556787Y0089833D01*
Y0093831D01*
X0558786Y0091832D02*
X0559786D01*
Y0090832D01*
X0558786D01*
Y0091832D01*
Y0088833D02*
X0559786D01*
Y0087833D01*
X0558786D01*
Y0088833D01*
X0567400Y0087833D02*
Y0093831D01*
X0571399Y0087833D01*
Y0093831D01*
X0574398Y0087833D02*
X0576397D01*
X0577397Y0088833D01*
Y0090832D01*
X0576397Y0091832D01*
X0574398D01*
X0573398Y0090832D01*
Y0088833D01*
X0574398Y0087833D01*
X0580396Y0092832D02*
Y0091832D01*
X0579396D01*
X0581395D01*
X0580396D01*
Y0088833D01*
X0581395Y0087833D01*
X0590393Y0093831D02*
X0592392D01*
X0591392D01*
Y0087833D01*
X0590393D01*
X0592392D01*
X0595391D02*
Y0091832D01*
X0598390D01*
X0599390Y0090832D01*
Y0087833D01*
X0607387Y0093831D02*
Y0089833D01*
X0609386Y0087833D01*
X0611386Y0089833D01*
Y0093831D01*
X0616384Y0087833D02*
X0614385D01*
X0613385Y0088833D01*
Y0090832D01*
X0614385Y0091832D01*
X0616384D01*
X0617384Y0090832D01*
Y0089833D01*
X0613385D01*
X0619383Y0091832D02*
Y0087833D01*
Y0089833D01*
X0620383Y0090832D01*
X0621383Y0091832D01*
X0622382D01*
X0625381Y0087833D02*
X0628380D01*
X0629380Y0088833D01*
X0628380Y0089833D01*
X0626381D01*
X0625381Y0090832D01*
X0626381Y0091832D01*
X0629380D01*
X0631379Y0087833D02*
X0633379D01*
X0632379D01*
Y0091832D01*
X0631379D01*
X0637377Y0087833D02*
X0639377D01*
X0640376Y0088833D01*
Y0090832D01*
X0639377Y0091832D01*
X0637377D01*
X0636378Y0090832D01*
Y0088833D01*
X0637377Y0087833D01*
X0642376D02*
Y0091832D01*
X0645375D01*
X0646374Y0090832D01*
Y0087833D01*
X0652373Y0092832D02*
X0651373Y0093831D01*
X0649373D01*
X0648374Y0092832D01*
Y0088833D01*
X0649373Y0087833D01*
X0651373D01*
X0652373Y0088833D01*
X0655372Y0087833D02*
X0657371D01*
X0658371Y0088833D01*
Y0090832D01*
X0657371Y0091832D01*
X0655372D01*
X0654372Y0090832D01*
Y0088833D01*
X0655372Y0087833D01*
X0660370D02*
Y0091832D01*
X0663369D01*
X0664369Y0090832D01*
Y0087833D01*
X0667368Y0092832D02*
Y0091832D01*
X0666368D01*
X0668367D01*
X0667368D01*
Y0088833D01*
X0668367Y0087833D01*
X0671366Y0091832D02*
Y0087833D01*
Y0089833D01*
X0672366Y0090832D01*
X0673366Y0091832D01*
X0674365D01*
X0678364Y0087833D02*
X0680364D01*
X0681363Y0088833D01*
Y0090832D01*
X0680364Y0091832D01*
X0678364D01*
X0677364Y0090832D01*
Y0088833D01*
X0678364Y0087833D01*
X0683362D02*
X0685362D01*
X0684362D01*
Y0093831D01*
X0683362D01*
X0126900Y0073549D02*
Y0067551D01*
X0129899D01*
X0130899Y0068550D01*
Y0072549D01*
X0129899Y0073549D01*
X0126900D01*
X0132898Y0071549D02*
Y0067551D01*
Y0069550D01*
X0133898Y0070550D01*
X0134897Y0071549D01*
X0135897D01*
X0138896Y0067551D02*
X0140895D01*
X0139896D01*
Y0071549D01*
X0138896D01*
X0143895Y0067551D02*
X0145894D01*
X0144894D01*
Y0073549D01*
X0143895D01*
X0148893Y0067551D02*
X0150892D01*
X0149893D01*
Y0073549D01*
X0148893D01*
X0163888Y0072549D02*
X0162888Y0073549D01*
X0160889D01*
X0159889Y0072549D01*
Y0068550D01*
X0160889Y0067551D01*
X0162888D01*
X0163888Y0068550D01*
Y0070550D01*
X0161889D01*
X0165887Y0071549D02*
Y0068550D01*
X0166887Y0067551D01*
X0169886D01*
Y0071549D01*
X0171885Y0067551D02*
X0173885D01*
X0172885D01*
Y0071549D01*
X0171885D01*
X0180883Y0073549D02*
Y0067551D01*
X0177884D01*
X0176884Y0068550D01*
Y0070550D01*
X0177884Y0071549D01*
X0180883D01*
X0185881Y0067551D02*
X0183882D01*
X0182882Y0068550D01*
Y0070550D01*
X0183882Y0071549D01*
X0185881D01*
X0186881Y0070550D01*
Y0069550D01*
X0182882D01*
M02*
