M48
;Layer_Color=9474304
;FILE_FORMAT=2:5
INCH
;TYPE=PLATED
T1F00S00C0.00787
T2F00S00C0.01400
T3F00S00C0.01500
T4F00S00C0.01600
T6F00S00C0.03200
T7F00S00C0.03346
T8F00S00C0.03937
T9F00S00C0.04000
T10F00S00C0.04016
T11F00S00C0.04724
T12F00S00C0.05118
T13F00S00C0.05118
T14F00S00C0.12598
%
T01
X0116990Y0286346
Y0292153
X0111183
X0116990Y0297960
X0122797Y0292153
X0129903Y0356782
X0134548
Y0352136
X0140021
Y0356782
X0144667
Y0362254
X0140021
Y0366900
X0134548
Y0362254
X0129903
X0271200Y0444837
X0268287Y0449758
X0274113
X0271200Y0454679
X0199169Y0484628
Y0490337
Y0496046
X0204877Y0490337
X0193460
T02
X0156540Y0587028
Y0591028
Y0595028
Y0599028
X0161540
Y0595028
Y0591028
Y0587028
X0166540Y0587081
Y0591028
Y0595028
Y0599028
X0185231Y0599176
Y0595176
Y0591176
Y0587176
X0189232
Y0591176
Y0595176
Y0599176
X0194231
Y0595176
Y0591176
Y0587176
X0199232
Y0591176
Y0595176
Y0599176
X0216785Y0606076
Y0610076
Y0614076
Y0618076
X0220785
Y0614076
Y0610076
Y0606076
X0225785
Y0610076
Y0614076
Y0618076
X0230785
Y0614076
Y0610076
Y0606076
X0242865Y0606269
Y0610269
Y0614269
Y0618269
X0246865
Y0614269
Y0610269
Y0606269
X0251865
X0251956Y0610192
X0251865Y0614372
Y0618269
X0256865
Y0614269
Y0610372
Y0606269
X0277661Y0599971
X0281661
Y0595971
X0277661
Y0591971
X0281661
Y0587971
X0277661
X0286917Y0587900
X0286813Y0591750
X0286661Y0595971
Y0599971
X0291661
Y0595971
Y0591800
Y0587971
X0152540Y0587028
Y0591028
Y0595028
Y0599028
X0133605Y0606837
Y0610837
Y0614837
Y0618837
X0128605
Y0614837
Y0610837
Y0606837
X0123605
X0119605
Y0610837
X0123605
Y0614837
X0119605
Y0618837
X0123605
T03
X0315560Y0240947
X0315492Y0262735
X0333576Y0283067
Y0287067
X0328823Y0299957
X0371705Y0289849
X0307511Y0291400
X0310736Y0262735
X0309684Y0241049
X0294789Y0242901
X0294025Y0247232
X0284492Y0268696
X0279800
X0274800Y0264400
X0270000Y0261421
Y0267515
X0286092Y0272556
X0249662Y0254707
X0237697Y0247232
Y0240630
X0219493Y0230831
X0210915Y0250400
X0203271
X0195283
X0187586
X0181046Y0252488
X0163768Y0266400
X0156768
X0215000Y0270221
X0219200Y0276400
X0226429Y0277428
X0234249Y0282359
X0233712Y0288224
X0232510Y0300084
X0213761Y0260841
X0196137Y0207593
X0192469Y0204055
X0188572Y0207593
X0184789Y0204055
X0188572Y0200110
Y0195407
X0184789Y0191869
X0192469
X0196137Y0195407
Y0200110
Y0187923
Y0182938
X0192469Y0179400
X0188572Y0182938
Y0187923
X0184789Y0179400
X0188572Y0175454
Y0170220
X0184789Y0166682
X0192469
X0196137Y0170220
Y0175454
Y0162736
X0188572
X0177200Y0185726
X0178241Y0200641
X0165000Y0198264
X0163645Y0192848
X0159327Y0195400
X0157056Y0200110
X0187200Y0216400
X0271902Y0218409
Y0232263
X0145200Y0259400
X0143788Y0263136
X0143758Y0269401
X0150758
X0150541Y0273968
X0150504Y0293732
X0141200Y0290200
X0136747Y0291161
X0134770Y0281009
X0129548Y0278952
X0126287Y0268400
X0117448Y0274400
X0113263Y0265714
X0101105Y0265697
X0101108Y0277341
X0102875Y0285810
X0103915Y0295106
Y0299043
X0130932Y0302551
X0126200Y0308400
X0132658Y0311846
X0143597Y0308736
X0150200Y0310400
X0133560Y0256756
X0090419Y0273421
X0139904Y0198679
X0147326Y0202539
X0151453Y0188400
X0156200Y0191047
X0136614Y0186487
X0133560Y0184006
X0127200Y0182949
Y0174243
X0127035Y0166092
X0134200
X0139225Y0313400
X0142217Y0322965
X0142206Y0328208
X0138206
X0126025Y0328212
X0128605Y0322623
X0131644Y0318844
X0116200Y0316400
X0112711Y0312548
X0107206Y0312666
X0100189Y0314466
X0111343Y0322214
X0110200Y0329472
X0114206Y0336494
X0115972Y0340522
X0110898Y0368378
X0117200Y0380400
X0128295Y0381400
X0132344Y0381463
X0130597Y0387117
X0142366Y0388149
X0116445Y0392400
X0112608Y0394157
X0103269Y0387042
X0090931Y0385000
X0092088Y0467593
X0081331Y0467105
X0078263Y0462131
X0128200Y0455400
X0132219Y0453882
X0141200Y0463400
X0145200Y0460400
X0147200Y0445034
X0144174Y0439224
X0140880Y0433171
X0137790Y0425322
X0157891Y0451089
X0160375Y0467225
X0176625Y0462120
X0181200Y0463775
X0168517Y0366900
X0164749Y0363499
X0163645Y0357943
X0170961Y0329253
X0158347Y0326568
X0201455Y0321094
X0232127Y0320703
X0231980Y0315314
X0227699Y0313945
X0234695Y0325080
X0241055Y0326758
X0242049Y0332244
X0250200Y0353400
X0253365Y0360400
X0261200Y0357400
X0269200Y0367467
X0276200Y0361400
X0279200Y0371400
X0279076Y0391792
X0269200Y0387463
X0259300Y0381400
X0251273Y0387076
X0309379Y0382473
X0305135Y0371400
Y0365400
X0303254Y0448400
X0335544Y0424425
X0348420Y0430400
X0348444Y0412140
X0352127Y0401694
X0340311Y0394400
X0336395Y0383530
X0336773Y0377250
X0336530Y0371530
X0346083Y0370977
X0321431Y0371530
X0321480Y0377530
X0321200Y0365400
X0317998Y0341579
X0316492Y0313937
X0325675Y0388545
X0369711Y0411118
X0284198Y0475400
X0282111Y0559400
X0277737Y0560324
Y0567474
X0282111Y0568898
X0286737Y0567474
Y0560324
X0256700Y0559343
X0256716Y0563932
X0256700Y0568343
X0251940Y0568400
X0251956Y0563989
X0251940Y0559400
X0246940
X0247038Y0563989
X0246940Y0568400
X0241940
X0241956Y0563989
X0241940Y0559400
X0224484Y0559898
X0220894Y0559938
X0217334Y0559898
X0217350Y0564486
X0220910Y0564527
X0224500Y0564486
X0224484Y0568898
X0220894Y0568938
X0217334Y0568898
X0211321Y0568790
X0211337Y0564379
X0211321Y0559791
X0213173Y0552400
X0218173
X0223188
X0227905Y0553030
X0230258Y0548861
X0228216Y0545323
X0223216
X0218216
X0213216
X0210582Y0548850
X0215618Y0541209
X0220716Y0540996
X0225909Y0541282
X0225200Y0525400
X0199950Y0559156
X0195361Y0558449
X0190950Y0559156
Y0566306
X0195361Y0567116
X0199950Y0566306
X0171255Y0566050
X0166540Y0567400
X0162255Y0566050
Y0558900
X0166540Y0558434
X0171255Y0558900
X0160375Y0493353
X0168945Y0476845
X0173200
X0140200Y0478400
Y0473400
X0139298Y0485292
X0132286Y0482599
X0128200Y0480400
X0091200Y0481120
X0083200Y0488792
X0094757Y0530571
X0091182Y0550867
X0111200Y0554400
X0115748Y0553400
X0127301Y0548489
X0127445Y0559811
X0131530
X0135615
X0139798Y0559898
Y0564400
X0135630
X0131545
X0127461
X0127445Y0568811
X0131530
X0135615
X0139700
X0112502Y0586400
X0110095Y0589468
X0108016Y0592900
X0112502
X0110200Y0596439
X0112450Y0599971
X0088382Y0592493
X0089264Y0574867
X0084279Y0611082
X0122200Y0531400
X0113651Y0639762
X0111756Y0648867
T04
X0315000Y0170000
X0325000
X0335000
X0345000
X0355000
X0365000
X0375000
X0370000Y0180000
X0360000
X0350000
X0340000
X0330000
X0320000
X0325000Y0190000
X0335000
X0345000
X0355000
X0365000
X0375000
X0380000Y0200000
X0390000
X0400000
X0410000
X0405000Y0210000
X0395000
X0385000
X0375000
X0365000
X0355000
X0345000
X0335000
X0325000
X0315000
X0320000Y0220000
X0330000
X0340000
X0350000
X0360000
X0370000
X0380000
X0390000
X0400000
X0410000
X0405000Y0230000
X0410000Y0240000
X0405000Y0250000
X0410000Y0260000
X0405000Y0270000
X0410000Y0280000
Y0300000
X0370000Y0200000
X0360000
X0350000
X0340000
X0330000
X0320000
X0315000Y0190000
X0305000
X0295000
X0285000
X0275000
X0265000
X0255000
X0245000
X0235000
X0225000
X0230000Y0200000
X0240000
X0250000
X0260000
X0270000
X0280000
X0290000
X0300000
X0310000
X0305000Y0210000
X0295000
X0285000
X0275000
X0265000
X0255000
X0245000
X0235000
X0225000
X0230000Y0220000
X0220000
Y0200000
Y0180000
X0230000
X0240000
X0250000
X0260000
X0270000
X0280000
X0290000
X0300000
X0310000
X0305000Y0170000
X0295000
X0285000
X0275000
X0265000
X0255000
X0245000
X0235000
X0225000
X0260000Y0220000
X0300000
X0280000Y0240000
X0100000Y0260000
X0090000
X0080000
Y0300000
Y0320000
Y0340000
Y0360000
Y0400000
Y0420000
X0090000
X0095000Y0430000
X0085000
X0090000Y0440000
X0080000
X0105000Y0450000
X0115000
Y0430000
X0200000Y0440000
X0210000
X0220000
X0230000
X0235000Y0430000
X0225000
X0215000
X0220000Y0420000
X0230000
X0240000
X0260000
X0265000Y0430000
X0260000Y0440000
X0250000
X0230000Y0460000
X0220000
X0210000
X0200000
X0205000Y0450000
X0215000
X0195000
X0290000Y0460000
X0330000
X0340000
X0350000
X0360000
X0370000
X0380000
X0390000
X0400000
X0410000
X0405000Y0450000
X0410000Y0440000
X0400000
X0390000
X0395000Y0430000
X0405000
X0410000Y0420000
X0400000
X0385000Y0430000
Y0450000
X0375000
X0385000Y0410000
X0390000Y0400000
X0380000
X0385000Y0390000
X0390000Y0380000
X0380000
Y0360000
X0390000
X0410000
Y0380000
Y0400000
Y0340000
Y0320000
X0390000
X0380000
Y0340000
X0390000
X0395000Y0470000
X0405000
X0410000Y0480000
X0400000
X0390000
X0380000
X0370000
X0360000
X0365000Y0490000
X0370000Y0500000
X0360000
X0365000Y0510000
X0375000
X0385000
X0395000
X0405000
X0410000Y0520000
X0400000
X0390000
X0380000
X0370000
X0360000
X0365000Y0530000
X0375000
X0385000
X0395000
X0405000
X0410000Y0540000
X0400000
X0390000
X0380000
X0370000
X0360000
X0365000Y0550000
X0375000
X0385000
X0395000
X0405000
X0410000Y0560000
X0400000
X0390000
X0380000
X0370000
X0360000
X0365000Y0570000
X0370000Y0580000
X0360000
X0365000Y0590000
X0375000
X0385000
X0395000
X0405000
X0410000Y0600000
X0400000
X0390000
X0380000
X0370000
X0360000
X0350000
X0345000Y0590000
X0335000
X0325000
X0320000Y0580000
X0315000Y0570000
X0320000Y0560000
X0330000
X0340000
X0345000Y0550000
X0335000
X0325000
X0315000
X0320000Y0540000
X0330000
X0340000
X0345000Y0530000
X0335000
X0325000
X0330000Y0520000
X0340000
X0345000Y0510000
X0335000
X0325000
X0315000
X0320000Y0520000
Y0500000
X0315000Y0490000
X0320000Y0480000
X0330000
X0340000
X0345000Y0470000
X0355000
X0365000
X0375000
X0385000
X0410000Y0500000
Y0580000
X0405000Y0610000
X0395000
X0385000
X0375000
X0365000
X0355000
X0345000
X0330000
X0320000
X0325000Y0620000
X0340000
X0350000
X0360000
X0370000
X0380000
X0390000
X0400000
X0410000
X0355000Y0590000
X0300000Y0580000
X0305000Y0570000
X0310000Y0560000
Y0540000
Y0520000
X0300000
X0305000Y0510000
X0295000
X0300000Y0500000
X0310000
X0290000Y0480000
Y0610000
X0295000Y0620000
X0285000
X0275000
X0265000
X0270000Y0610000
X0210000
X0200000
X0190000
X0195000Y0620000
X0205000
X0175000
X0165000
X0170000Y0610000
X0160000
X0155000Y0620000
X0145000
X0140000Y0610000
X0090000Y0620000
X0080000
X0090000Y0600000
X0095000Y0510000
Y0490000
X0085000Y0630000
X0090000Y0640000
X0080000
X0085000Y0650000
X0095000
X0105000
X0100000Y0660000
X0090000
X0085000Y0670000
X0105000
X0130000
X0140000
X0150000
X0155000Y0680000
X0145000
X0135000
X0125000
X0130000Y0690000
X0140000
X0150000
X0155000Y0660000
X0145000
X0135000
X0125000
X0130000Y0650000
X0140000
X0150000
X0155000Y0640000
X0145000
X0135000
X0125000
X0130000Y0630000
X0140000
X0150000
X0120000
X0170000
X0175000Y0640000
X0165000
X0170000Y0650000
X0160000
X0165000Y0660000
X0175000
X0195000
X0205000
X0215000
X0225000
X0230000Y0670000
X0220000
X0225000Y0680000
X0215000
X0205000
X0195000
X0200000Y0690000
X0210000
X0220000
X0230000
X0250000
X0260000
X0270000
X0280000
X0290000
X0295000Y0700000
X0285000
X0275000
X0265000
X0255000
Y0680000
X0265000
X0275000
X0285000
X0295000
X0290000Y0670000
X0280000
X0270000
X0260000
X0265000Y0660000
X0275000
X0285000
X0295000
X0290000Y0650000
X0280000
X0270000
X0260000
X0250000
X0255000Y0660000
X0265000Y0640000
X0275000
X0285000
X0295000
X0290000Y0630000
X0280000
X0270000
X0260000
X0250000
X0230000
X0220000
X0210000
X0200000
X0190000
X0195000Y0640000
X0200000Y0650000
X0210000
X0220000
X0230000
X0225000Y0640000
X0215000
X0190000Y0650000
Y0670000
X0200000
X0190000Y0690000
X0170000
X0160000
X0165000Y0680000
X0175000
X0160000Y0670000
X0310000Y0680000
X0305000Y0690000
X0310000Y0700000
Y0650000
Y0630000
X0320000
X0330000
X0325000Y0640000
X0315000
X0320000Y0650000
X0330000
X0325000Y0660000
X0315000
X0340000
X0350000
X0360000
X0370000
X0380000
X0390000
X0395000Y0650000
X0405000
X0410000Y0640000
X0400000
X0390000
X0380000
X0370000
X0360000
X0350000
X0340000
X0345000Y0650000
X0355000
X0365000
X0375000
X0385000
Y0670000
X0375000
X0365000
X0355000
X0360000Y0680000
X0370000
X0375000Y0690000
X0365000
X0355000
X0345000
X0335000
X0325000
X0315000
X0320000Y0700000
X0330000
X0340000
X0350000
X0360000
X0370000
X0350000Y0680000
X0340000
X0330000
X0320000
X0345000Y0630000
X0365000
X0375000
X0385000
X0395000
X0405000
Y0670000
T06
X0089193Y0294400
X0089200Y0304400
Y0314389
Y0324400
Y0334400
Y0344400
X0089193Y0354400
T07
X0393200Y0234400
Y0244400
Y0254400
T08
X0291650Y0224336
X0311335
T09
X0318998Y0531936
X0259200Y0529400
X0238760
X0215200
X0196247
X0173200Y0537400
X0151866
X0160000Y0633219
X0205200Y0634189
X0254634Y0634400
X0353200Y0628744
T10
X0382093Y0289955
X0392093
X0402093
T11
X0392093Y0310450
Y0330135
Y0349820
Y0369505
Y0389190
T12
X0172720Y0666195
X0210200
X0247680
X0307511
X0344991
T13
X0394342Y0405250
Y0445250
X0106859Y0485081
Y0525081
T14
X0395200Y0177400
X0093200
Y0689400
X0395200
M30
