G04*
G04 #@! TF.GenerationSoftware,Altium Limited,Altium Designer,18.1.9 (240)*
G04*
G04 Layer_Color=8388736*
%FSAX25Y25*%
%MOIN*%
G70*
G01*
G75*
%ADD16C,0.01000*%
%ADD22C,0.00800*%
G04:AMPARAMS|DCode=35|XSize=9.84mil|YSize=21.85mil|CornerRadius=1.97mil|HoleSize=0mil|Usage=FLASHONLY|Rotation=270.000|XOffset=0mil|YOffset=0mil|HoleType=Round|Shape=RoundedRectangle|*
%AMROUNDEDRECTD35*
21,1,0.00984,0.01791,0,0,270.0*
21,1,0.00591,0.02185,0,0,270.0*
1,1,0.00394,-0.00896,-0.00295*
1,1,0.00394,-0.00896,0.00295*
1,1,0.00394,0.00896,0.00295*
1,1,0.00394,0.00896,-0.00295*
%
%ADD35ROUNDEDRECTD35*%
G04:AMPARAMS|DCode=65|XSize=7.87mil|YSize=11.81mil|CornerRadius=1.99mil|HoleSize=0mil|Usage=FLASHONLY|Rotation=90.000|XOffset=0mil|YOffset=0mil|HoleType=Round|Shape=RoundedRectangle|*
%AMROUNDEDRECTD65*
21,1,0.00787,0.00784,0,0,90.0*
21,1,0.00390,0.01181,0,0,90.0*
1,1,0.00398,0.00392,0.00195*
1,1,0.00398,0.00392,-0.00195*
1,1,0.00398,-0.00392,-0.00195*
1,1,0.00398,-0.00392,0.00195*
%
%ADD65ROUNDEDRECTD65*%
G04:AMPARAMS|DCode=66|XSize=7.87mil|YSize=13.78mil|CornerRadius=1.99mil|HoleSize=0mil|Usage=FLASHONLY|Rotation=90.000|XOffset=0mil|YOffset=0mil|HoleType=Round|Shape=RoundedRectangle|*
%AMROUNDEDRECTD66*
21,1,0.00787,0.00980,0,0,90.0*
21,1,0.00390,0.01378,0,0,90.0*
1,1,0.00398,0.00490,0.00195*
1,1,0.00398,0.00490,-0.00195*
1,1,0.00398,-0.00490,-0.00195*
1,1,0.00398,-0.00490,0.00195*
%
%ADD66ROUNDEDRECTD66*%
G04:AMPARAMS|DCode=68|XSize=29.92mil|YSize=16.14mil|CornerRadius=1.95mil|HoleSize=0mil|Usage=FLASHONLY|Rotation=270.000|XOffset=0mil|YOffset=0mil|HoleType=Round|Shape=RoundedRectangle|*
%AMROUNDEDRECTD68*
21,1,0.02992,0.01225,0,0,270.0*
21,1,0.02603,0.01614,0,0,270.0*
1,1,0.00389,-0.00612,-0.01301*
1,1,0.00389,-0.00612,0.01301*
1,1,0.00389,0.00612,0.01301*
1,1,0.00389,0.00612,-0.01301*
%
%ADD68ROUNDEDRECTD68*%
G04:AMPARAMS|DCode=95|XSize=140.94mil|YSize=157.48mil|CornerRadius=2.11mil|HoleSize=0mil|Usage=FLASHONLY|Rotation=270.000|XOffset=0mil|YOffset=0mil|HoleType=Round|Shape=RoundedRectangle|*
%AMROUNDEDRECTD95*
21,1,0.14094,0.15325,0,0,270.0*
21,1,0.13672,0.15748,0,0,270.0*
1,1,0.00423,-0.07663,-0.06836*
1,1,0.00423,-0.07663,0.06836*
1,1,0.00423,0.07663,0.06836*
1,1,0.00423,0.07663,-0.06836*
%
%ADD95ROUNDEDRECTD95*%
%ADD96R,0.00709X0.00984*%
%ADD97C,0.07874*%
G04:AMPARAMS|DCode=98|XSize=98.43mil|YSize=299.21mil|CornerRadius=3.86mil|HoleSize=0mil|Usage=FLASHONLY|Rotation=0.000|XOffset=0mil|YOffset=0mil|HoleType=Round|Shape=RoundedRectangle|*
%AMROUNDEDRECTD98*
21,1,0.09843,0.29150,0,0,0.0*
21,1,0.09071,0.29921,0,0,0.0*
1,1,0.00772,0.04535,-0.14575*
1,1,0.00772,-0.04535,-0.14575*
1,1,0.00772,-0.04535,0.14575*
1,1,0.00772,0.04535,0.14575*
%
%ADD98ROUNDEDRECTD98*%
G04:AMPARAMS|DCode=99|XSize=29.53mil|YSize=92.52mil|CornerRadius=3.89mil|HoleSize=0mil|Usage=FLASHONLY|Rotation=0.000|XOffset=0mil|YOffset=0mil|HoleType=Round|Shape=RoundedRectangle|*
%AMROUNDEDRECTD99*
21,1,0.02953,0.08474,0,0,0.0*
21,1,0.02175,0.09252,0,0,0.0*
1,1,0.00778,0.01088,-0.04237*
1,1,0.00778,-0.01088,-0.04237*
1,1,0.00778,-0.01088,0.04237*
1,1,0.00778,0.01088,0.04237*
%
%ADD99ROUNDEDRECTD99*%
%ADD100R,0.29921X0.10236*%
%ADD101R,0.13976X0.13976*%
%ADD102O,0.01339X0.02756*%
%ADD103O,0.02756X0.01339*%
G04:AMPARAMS|DCode=104|XSize=139.76mil|YSize=139.76mil|CornerRadius=4.01mil|HoleSize=0mil|Usage=FLASHONLY|Rotation=90.000|XOffset=0mil|YOffset=0mil|HoleType=Round|Shape=RoundedRectangle|*
%AMROUNDEDRECTD104*
21,1,0.13976,0.13175,0,0,90.0*
21,1,0.13175,0.13976,0,0,90.0*
1,1,0.00801,0.06588,0.06588*
1,1,0.00801,0.06588,-0.06588*
1,1,0.00801,-0.06588,-0.06588*
1,1,0.00801,-0.06588,0.06588*
%
%ADD104ROUNDEDRECTD104*%
G04:AMPARAMS|DCode=105|XSize=13.78mil|YSize=27.56mil|CornerRadius=3.94mil|HoleSize=0mil|Usage=FLASHONLY|Rotation=90.000|XOffset=0mil|YOffset=0mil|HoleType=Round|Shape=RoundedRectangle|*
%AMROUNDEDRECTD105*
21,1,0.01378,0.01968,0,0,90.0*
21,1,0.00591,0.02756,0,0,90.0*
1,1,0.00787,0.00984,0.00295*
1,1,0.00787,0.00984,-0.00295*
1,1,0.00787,-0.00984,-0.00295*
1,1,0.00787,-0.00984,0.00295*
%
%ADD105ROUNDEDRECTD105*%
G04:AMPARAMS|DCode=106|XSize=13.78mil|YSize=27.56mil|CornerRadius=3.94mil|HoleSize=0mil|Usage=FLASHONLY|Rotation=180.000|XOffset=0mil|YOffset=0mil|HoleType=Round|Shape=RoundedRectangle|*
%AMROUNDEDRECTD106*
21,1,0.01378,0.01968,0,0,180.0*
21,1,0.00591,0.02756,0,0,180.0*
1,1,0.00787,-0.00295,0.00984*
1,1,0.00787,0.00295,0.00984*
1,1,0.00787,0.00295,-0.00984*
1,1,0.00787,-0.00295,-0.00984*
%
%ADD106ROUNDEDRECTD106*%
G04:AMPARAMS|DCode=107|XSize=171.26mil|YSize=171.26mil|CornerRadius=3.64mil|HoleSize=0mil|Usage=FLASHONLY|Rotation=90.000|XOffset=0mil|YOffset=0mil|HoleType=Round|Shape=RoundedRectangle|*
%AMROUNDEDRECTD107*
21,1,0.17126,0.16398,0,0,90.0*
21,1,0.16398,0.17126,0,0,90.0*
1,1,0.00728,0.08199,0.08199*
1,1,0.00728,0.08199,-0.08199*
1,1,0.00728,-0.08199,-0.08199*
1,1,0.00728,-0.08199,0.08199*
%
%ADD107ROUNDEDRECTD107*%
G04:AMPARAMS|DCode=108|XSize=14.96mil|YSize=29.13mil|CornerRadius=4.74mil|HoleSize=0mil|Usage=FLASHONLY|Rotation=270.000|XOffset=0mil|YOffset=0mil|HoleType=Round|Shape=RoundedRectangle|*
%AMROUNDEDRECTD108*
21,1,0.01496,0.01965,0,0,270.0*
21,1,0.00548,0.02913,0,0,270.0*
1,1,0.00948,-0.00983,-0.00274*
1,1,0.00948,-0.00983,0.00274*
1,1,0.00948,0.00983,0.00274*
1,1,0.00948,0.00983,-0.00274*
%
%ADD108ROUNDEDRECTD108*%
G04:AMPARAMS|DCode=109|XSize=14.96mil|YSize=29.13mil|CornerRadius=4.74mil|HoleSize=0mil|Usage=FLASHONLY|Rotation=0.000|XOffset=0mil|YOffset=0mil|HoleType=Round|Shape=RoundedRectangle|*
%AMROUNDEDRECTD109*
21,1,0.01496,0.01965,0,0,0.0*
21,1,0.00548,0.02913,0,0,0.0*
1,1,0.00948,0.00274,-0.00983*
1,1,0.00948,-0.00274,-0.00983*
1,1,0.00948,-0.00274,0.00983*
1,1,0.00948,0.00274,0.00983*
%
%ADD109ROUNDEDRECTD109*%
%ADD110R,0.09055X0.05906*%
%ADD111R,0.03937X0.05906*%
%ADD112O,0.01378X0.05315*%
%ADD113O,0.05315X0.01378*%
G04:AMPARAMS|DCode=114|XSize=122.05mil|YSize=81.89mil|CornerRadius=3.92mil|HoleSize=0mil|Usage=FLASHONLY|Rotation=270.000|XOffset=0mil|YOffset=0mil|HoleType=Round|Shape=RoundedRectangle|*
%AMROUNDEDRECTD114*
21,1,0.12205,0.07406,0,0,270.0*
21,1,0.11421,0.08189,0,0,270.0*
1,1,0.00784,-0.03703,-0.05711*
1,1,0.00784,-0.03703,0.05711*
1,1,0.00784,0.03703,0.05711*
1,1,0.00784,0.03703,-0.05711*
%
%ADD114ROUNDEDRECTD114*%
G04:AMPARAMS|DCode=115|XSize=15.75mil|YSize=27.56mil|CornerRadius=3.92mil|HoleSize=0mil|Usage=FLASHONLY|Rotation=270.000|XOffset=0mil|YOffset=0mil|HoleType=Round|Shape=RoundedRectangle|*
%AMROUNDEDRECTD115*
21,1,0.01575,0.01972,0,0,270.0*
21,1,0.00791,0.02756,0,0,270.0*
1,1,0.00784,-0.00986,-0.00396*
1,1,0.00784,-0.00986,0.00396*
1,1,0.00784,0.00986,0.00396*
1,1,0.00784,0.00986,-0.00396*
%
%ADD115ROUNDEDRECTD115*%
G04:AMPARAMS|DCode=116|XSize=19.68mil|YSize=106.3mil|CornerRadius=3.94mil|HoleSize=0mil|Usage=FLASHONLY|Rotation=180.000|XOffset=0mil|YOffset=0mil|HoleType=Round|Shape=RoundedRectangle|*
%AMROUNDEDRECTD116*
21,1,0.01968,0.09843,0,0,180.0*
21,1,0.01181,0.10630,0,0,180.0*
1,1,0.00787,-0.00591,0.04921*
1,1,0.00787,0.00591,0.04921*
1,1,0.00787,0.00591,-0.04921*
1,1,0.00787,-0.00591,-0.04921*
%
%ADD116ROUNDEDRECTD116*%
G04:AMPARAMS|DCode=117|XSize=62.01mil|YSize=86.61mil|CornerRadius=4mil|HoleSize=0mil|Usage=FLASHONLY|Rotation=180.000|XOffset=0mil|YOffset=0mil|HoleType=Round|Shape=RoundedRectangle|*
%AMROUNDEDRECTD117*
21,1,0.06201,0.07861,0,0,180.0*
21,1,0.05401,0.08661,0,0,180.0*
1,1,0.00800,-0.02700,0.03931*
1,1,0.00800,0.02700,0.03931*
1,1,0.00800,0.02700,-0.03931*
1,1,0.00800,-0.02700,-0.03931*
%
%ADD117ROUNDEDRECTD117*%
G04:AMPARAMS|DCode=118|XSize=58.07mil|YSize=78.74mil|CornerRadius=3.86mil|HoleSize=0mil|Usage=FLASHONLY|Rotation=180.000|XOffset=0mil|YOffset=0mil|HoleType=Round|Shape=RoundedRectangle|*
%AMROUNDEDRECTD118*
21,1,0.05807,0.07101,0,0,180.0*
21,1,0.05034,0.07874,0,0,180.0*
1,1,0.00773,-0.02517,0.03551*
1,1,0.00773,0.02517,0.03551*
1,1,0.00773,0.02517,-0.03551*
1,1,0.00773,-0.02517,-0.03551*
%
%ADD118ROUNDEDRECTD118*%
G04:AMPARAMS|DCode=119|XSize=21.65mil|YSize=58.27mil|CornerRadius=3.92mil|HoleSize=0mil|Usage=FLASHONLY|Rotation=180.000|XOffset=0mil|YOffset=0mil|HoleType=Round|Shape=RoundedRectangle|*
%AMROUNDEDRECTD119*
21,1,0.02165,0.05043,0,0,180.0*
21,1,0.01382,0.05827,0,0,180.0*
1,1,0.00784,-0.00691,0.02522*
1,1,0.00784,0.00691,0.02522*
1,1,0.00784,0.00691,-0.02522*
1,1,0.00784,-0.00691,-0.02522*
%
%ADD119ROUNDEDRECTD119*%
%ADD120R,0.05118X0.05118*%
%ADD121R,0.03543X0.03543*%
%ADD122R,0.05118X0.05118*%
G04:AMPARAMS|DCode=123|XSize=131.89mil|YSize=138.98mil|CornerRadius=3.89mil|HoleSize=0mil|Usage=FLASHONLY|Rotation=270.000|XOffset=0mil|YOffset=0mil|HoleType=Round|Shape=RoundedRectangle|*
%AMROUNDEDRECTD123*
21,1,0.13189,0.13120,0,0,270.0*
21,1,0.12411,0.13898,0,0,270.0*
1,1,0.00778,-0.06560,-0.06206*
1,1,0.00778,-0.06560,0.06206*
1,1,0.00778,0.06560,0.06206*
1,1,0.00778,0.06560,-0.06206*
%
%ADD123ROUNDEDRECTD123*%
%ADD124R,0.07480X0.04331*%
G04:AMPARAMS|DCode=125|XSize=11.81mil|YSize=26.18mil|CornerRadius=3.94mil|HoleSize=0mil|Usage=FLASHONLY|Rotation=180.000|XOffset=0mil|YOffset=0mil|HoleType=Round|Shape=RoundedRectangle|*
%AMROUNDEDRECTD125*
21,1,0.01181,0.01831,0,0,180.0*
21,1,0.00394,0.02618,0,0,180.0*
1,1,0.00787,-0.00197,0.00915*
1,1,0.00787,0.00197,0.00915*
1,1,0.00787,0.00197,-0.00915*
1,1,0.00787,-0.00197,-0.00915*
%
%ADD125ROUNDEDRECTD125*%
G04:AMPARAMS|DCode=126|XSize=19.68mil|YSize=26.18mil|CornerRadius=3.94mil|HoleSize=0mil|Usage=FLASHONLY|Rotation=180.000|XOffset=0mil|YOffset=0mil|HoleType=Round|Shape=RoundedRectangle|*
%AMROUNDEDRECTD126*
21,1,0.01968,0.01831,0,0,180.0*
21,1,0.01181,0.02618,0,0,180.0*
1,1,0.00787,-0.00591,0.00915*
1,1,0.00787,0.00591,0.00915*
1,1,0.00787,0.00591,-0.00915*
1,1,0.00787,-0.00591,-0.00915*
%
%ADD126ROUNDEDRECTD126*%
G04:AMPARAMS|DCode=127|XSize=25.59mil|YSize=35.43mil|CornerRadius=3.92mil|HoleSize=0mil|Usage=FLASHONLY|Rotation=0.000|XOffset=0mil|YOffset=0mil|HoleType=Round|Shape=RoundedRectangle|*
%AMROUNDEDRECTD127*
21,1,0.02559,0.02760,0,0,0.0*
21,1,0.01776,0.03543,0,0,0.0*
1,1,0.00784,0.00888,-0.01380*
1,1,0.00784,-0.00888,-0.01380*
1,1,0.00784,-0.00888,0.01380*
1,1,0.00784,0.00888,0.01380*
%
%ADD127ROUNDEDRECTD127*%
%ADD128R,0.16142X0.08661*%
G04:AMPARAMS|DCode=129|XSize=74.8mil|YSize=59.06mil|CornerRadius=3.9mil|HoleSize=0mil|Usage=FLASHONLY|Rotation=0.000|XOffset=0mil|YOffset=0mil|HoleType=Round|Shape=RoundedRectangle|*
%AMROUNDEDRECTD129*
21,1,0.07480,0.05126,0,0,0.0*
21,1,0.06701,0.05906,0,0,0.0*
1,1,0.00780,0.03350,-0.02563*
1,1,0.00780,-0.03350,-0.02563*
1,1,0.00780,-0.03350,0.02563*
1,1,0.00780,0.03350,0.02563*
%
%ADD129ROUNDEDRECTD129*%
G04:AMPARAMS|DCode=130|XSize=212.6mil|YSize=66.93mil|CornerRadius=0mil|HoleSize=0mil|Usage=FLASHONLY|Rotation=45.000|XOffset=0mil|YOffset=0mil|HoleType=Round|Shape=Rectangle|*
%AMROTATEDRECTD130*
4,1,4,-0.05150,-0.09883,-0.09883,-0.05150,0.05150,0.09883,0.09883,0.05150,-0.05150,-0.09883,0.0*
%
%ADD130ROTATEDRECTD130*%

G04:AMPARAMS|DCode=131|XSize=72.84mil|YSize=47.24mil|CornerRadius=0mil|HoleSize=0mil|Usage=FLASHONLY|Rotation=315.000|XOffset=0mil|YOffset=0mil|HoleType=Round|Shape=Rectangle|*
%AMROTATEDRECTD131*
4,1,4,-0.04245,0.00905,-0.00905,0.04245,0.04245,-0.00905,0.00905,-0.04245,-0.04245,0.00905,0.0*
%
%ADD131ROTATEDRECTD131*%

%ADD132R,0.06693X0.04724*%
G04:AMPARAMS|DCode=133|XSize=76.77mil|YSize=55.12mil|CornerRadius=0mil|HoleSize=0mil|Usage=FLASHONLY|Rotation=225.000|XOffset=0mil|YOffset=0mil|HoleType=Round|Shape=Rectangle|*
%AMROTATEDRECTD133*
4,1,4,0.00766,0.04663,0.04663,0.00766,-0.00766,-0.04663,-0.04663,-0.00766,0.00766,0.04663,0.0*
%
%ADD133ROTATEDRECTD133*%

%ADD134R,0.05906X0.04724*%
%ADD135R,0.06694X0.05394*%
%ADD136R,0.06299X0.05512*%
%ADD137R,0.03543X0.03740*%
%ADD138R,0.02756X0.02362*%
%ADD139R,0.03740X0.03543*%
%ADD140C,0.04331*%
G04:AMPARAMS|DCode=141|XSize=25.59mil|YSize=35.43mil|CornerRadius=3.92mil|HoleSize=0mil|Usage=FLASHONLY|Rotation=90.000|XOffset=0mil|YOffset=0mil|HoleType=Round|Shape=RoundedRectangle|*
%AMROUNDEDRECTD141*
21,1,0.02559,0.02760,0,0,90.0*
21,1,0.01776,0.03543,0,0,90.0*
1,1,0.00784,0.01380,0.00888*
1,1,0.00784,0.01380,-0.00888*
1,1,0.00784,-0.01380,-0.00888*
1,1,0.00784,-0.01380,0.00888*
%
%ADD141ROUNDEDRECTD141*%
%ADD142R,0.03394X0.03394*%
%ADD143R,0.03394X0.03394*%
%ADD144R,0.02362X0.02756*%
%ADD145R,0.05394X0.06694*%
%ADD146R,0.04724X0.06693*%
%ADD147R,0.04724X0.05906*%
G04:AMPARAMS|DCode=148|XSize=19.68mil|YSize=106.3mil|CornerRadius=3.94mil|HoleSize=0mil|Usage=FLASHONLY|Rotation=90.000|XOffset=0mil|YOffset=0mil|HoleType=Round|Shape=RoundedRectangle|*
%AMROUNDEDRECTD148*
21,1,0.01968,0.09843,0,0,90.0*
21,1,0.01181,0.10630,0,0,90.0*
1,1,0.00787,0.04921,0.00591*
1,1,0.00787,0.04921,-0.00591*
1,1,0.00787,-0.04921,-0.00591*
1,1,0.00787,-0.04921,0.00591*
%
%ADD148ROUNDEDRECTD148*%
%ADD149P,0.04799X4X90.0*%
G04:AMPARAMS|DCode=150|XSize=23.62mil|YSize=27.56mil|CornerRadius=0mil|HoleSize=0mil|Usage=FLASHONLY|Rotation=315.000|XOffset=0mil|YOffset=0mil|HoleType=Round|Shape=Rectangle|*
%AMROTATEDRECTD150*
4,1,4,-0.01810,-0.00139,0.00139,0.01810,0.01810,0.00139,-0.00139,-0.01810,-0.01810,-0.00139,0.0*
%
%ADD150ROTATEDRECTD150*%

%ADD151R,0.03543X0.03543*%
%ADD152R,0.04331X0.04134*%
%ADD153R,0.04134X0.04331*%
%ADD154C,0.06693*%
%ADD155C,0.07480*%
%ADD156R,0.07480X0.07480*%
G04:AMPARAMS|DCode=157|XSize=70.87mil|YSize=70.87mil|CornerRadius=18.7mil|HoleSize=0mil|Usage=FLASHONLY|Rotation=90.000|XOffset=0mil|YOffset=0mil|HoleType=Round|Shape=RoundedRectangle|*
%AMROUNDEDRECTD157*
21,1,0.07087,0.03347,0,0,90.0*
21,1,0.03347,0.07087,0,0,90.0*
1,1,0.03740,0.01673,0.01673*
1,1,0.03740,0.01673,-0.01673*
1,1,0.03740,-0.01673,-0.01673*
1,1,0.03740,-0.01673,0.01673*
%
%ADD157ROUNDEDRECTD157*%
%ADD158C,0.07087*%
%ADD159C,0.31890*%
G04:AMPARAMS|DCode=160|XSize=86.61mil|YSize=59.06mil|CornerRadius=29.53mil|HoleSize=0mil|Usage=FLASHONLY|Rotation=90.000|XOffset=0mil|YOffset=0mil|HoleType=Round|Shape=RoundedRectangle|*
%AMROUNDEDRECTD160*
21,1,0.08661,0.00000,0,0,90.0*
21,1,0.02756,0.05906,0,0,90.0*
1,1,0.05906,0.00000,0.01378*
1,1,0.05906,0.00000,-0.01378*
1,1,0.05906,0.00000,-0.01378*
1,1,0.05906,0.00000,0.01378*
%
%ADD160ROUNDEDRECTD160*%
%ADD161C,0.06417*%
G04:AMPARAMS|DCode=162|XSize=64.17mil|YSize=64.17mil|CornerRadius=17.03mil|HoleSize=0mil|Usage=FLASHONLY|Rotation=180.000|XOffset=0mil|YOffset=0mil|HoleType=Round|Shape=RoundedRectangle|*
%AMROUNDEDRECTD162*
21,1,0.06417,0.03012,0,0,180.0*
21,1,0.03012,0.06417,0,0,180.0*
1,1,0.03406,-0.01506,0.01506*
1,1,0.03406,0.01506,0.01506*
1,1,0.03406,0.01506,-0.01506*
1,1,0.03406,-0.01506,-0.01506*
%
%ADD162ROUNDEDRECTD162*%
%ADD163C,0.08394*%
%ADD164C,0.05709*%
%ADD165R,0.05709X0.05709*%
%ADD166C,0.03494*%
%ADD167C,0.02362*%
G54D16*
X0559400Y0039400D02*
Y0059683D01*
X0440500Y0040050D02*
X0700200D01*
Y0101050D01*
X0286500Y0040050D02*
Y0101050D01*
X0040000Y0040050D02*
Y0101050D01*
X0040050Y0040050D02*
X0197600D01*
X0040050D02*
Y0101050D01*
X0700200D01*
X0040000Y0040050D02*
X0440500D01*
X0040000Y0060383D02*
X0700000D01*
X0040000Y0080717D02*
X0700200D01*
X0413200D02*
Y0101050D01*
X0497200Y0080717D02*
Y0101050D01*
G54D22*
X0126900Y0073549D02*
X0130899D01*
X0128899D01*
Y0067551D01*
X0133898D02*
X0135897D01*
X0136897Y0068550D01*
Y0070550D01*
X0135897Y0071549D01*
X0133898D01*
X0132898Y0070550D01*
Y0068550D01*
X0133898Y0067551D01*
X0138896Y0065551D02*
Y0071549D01*
X0141895D01*
X0142895Y0070550D01*
Y0068550D01*
X0141895Y0067551D01*
X0138896D01*
X0154891Y0072549D02*
X0153891Y0073549D01*
X0151892D01*
X0150892Y0072549D01*
Y0071549D01*
X0151892Y0070550D01*
X0153891D01*
X0154891Y0069550D01*
Y0068550D01*
X0153891Y0067551D01*
X0151892D01*
X0150892Y0068550D01*
X0157890Y0067551D02*
X0159889D01*
X0160889Y0068550D01*
Y0070550D01*
X0159889Y0071549D01*
X0157890D01*
X0156890Y0070550D01*
Y0068550D01*
X0157890Y0067551D01*
X0162888D02*
X0164888D01*
X0163888D01*
Y0073549D01*
X0162888D01*
X0171885D02*
Y0067551D01*
X0168886D01*
X0167887Y0068550D01*
Y0070550D01*
X0168886Y0071549D01*
X0171885D01*
X0176884Y0067551D02*
X0174884D01*
X0173885Y0068550D01*
Y0070550D01*
X0174884Y0071549D01*
X0176884D01*
X0177884Y0070550D01*
Y0069550D01*
X0173885D01*
X0179883Y0071549D02*
Y0067551D01*
Y0069550D01*
X0180883Y0070550D01*
X0181882Y0071549D01*
X0182882D01*
X0126900Y0073549D02*
X0130899D01*
X0128899D01*
Y0067551D01*
X0133898D02*
X0135897D01*
X0136897Y0068550D01*
Y0070550D01*
X0135897Y0071549D01*
X0133898D01*
X0132898Y0070550D01*
Y0068550D01*
X0133898Y0067551D01*
X0138896Y0065551D02*
Y0071549D01*
X0141895D01*
X0142895Y0070550D01*
Y0068550D01*
X0141895Y0067551D01*
X0138896D01*
X0154891Y0072549D02*
X0153891Y0073549D01*
X0151892D01*
X0150892Y0072549D01*
Y0071549D01*
X0151892Y0070550D01*
X0153891D01*
X0154891Y0069550D01*
Y0068550D01*
X0153891Y0067551D01*
X0151892D01*
X0150892Y0068550D01*
X0157890Y0067551D02*
X0159889D01*
X0160889Y0068550D01*
Y0070550D01*
X0159889Y0071549D01*
X0157890D01*
X0156890Y0070550D01*
Y0068550D01*
X0157890Y0067551D01*
X0162888D02*
X0164888D01*
X0163888D01*
Y0073549D01*
X0162888D01*
X0171885D02*
Y0067551D01*
X0168886D01*
X0167887Y0068550D01*
Y0070550D01*
X0168886Y0071549D01*
X0171885D01*
X0176884Y0067551D02*
X0174884D01*
X0173885Y0068550D01*
Y0070550D01*
X0174884Y0071549D01*
X0176884D01*
X0177884Y0070550D01*
Y0069550D01*
X0173885D01*
X0179883Y0071549D02*
Y0067551D01*
Y0069550D01*
X0180883Y0070550D01*
X0181882Y0071549D01*
X0182882D01*
X0348550Y0067500D02*
Y0073498D01*
X0352549Y0067500D01*
Y0073498D01*
X0354548Y0067500D02*
X0358547Y0071499D01*
X0360546Y0067500D02*
Y0071499D01*
X0362545Y0073498D01*
X0364545Y0071499D01*
Y0067500D01*
Y0070499D01*
X0360546D01*
X0294000Y0073498D02*
X0297999D01*
X0295999D01*
Y0067500D01*
X0299998Y0073498D02*
X0301997D01*
X0300998D01*
Y0067500D01*
X0299998D01*
X0301997D01*
X0304996Y0073498D02*
Y0067500D01*
X0307996D01*
X0308995Y0068500D01*
Y0072498D01*
X0307996Y0073498D01*
X0304996D01*
X0317992Y0067500D02*
Y0073498D01*
X0319992D02*
Y0067500D01*
X0316993Y0071499D02*
X0319992D01*
X0320991D01*
X0316993Y0069499D02*
X0320991D01*
X0322991Y0071499D02*
X0323990D01*
Y0070499D01*
X0322991D01*
Y0071499D01*
Y0068500D02*
X0323990D01*
Y0067500D01*
X0322991D01*
Y0068500D01*
X0580500Y0052965D02*
X0584499D01*
X0582499D01*
Y0046966D01*
X0590497Y0052965D02*
X0586498D01*
Y0046966D01*
X0590497D01*
X0586498Y0049966D02*
X0588497D01*
X0592496Y0052965D02*
X0596495Y0046966D01*
Y0052965D02*
X0592496Y0046966D01*
X0598494D02*
Y0050965D01*
X0600493Y0052965D01*
X0602493Y0050965D01*
Y0046966D01*
Y0049966D01*
X0598494D01*
X0608491Y0051965D02*
X0607491Y0052965D01*
X0605492D01*
X0604492Y0051965D01*
Y0050965D01*
X0605492Y0049966D01*
X0607491D01*
X0608491Y0048966D01*
Y0047966D01*
X0607491Y0046966D01*
X0605492D01*
X0604492Y0047966D01*
X0616488Y0052965D02*
X0618488D01*
X0617488D01*
Y0046966D01*
X0616488D01*
X0618488D01*
X0621487D02*
Y0052965D01*
X0625486Y0046966D01*
Y0052965D01*
X0631484Y0051965D02*
X0630484Y0052965D01*
X0628484D01*
X0627485Y0051965D01*
Y0050965D01*
X0628484Y0049966D01*
X0630484D01*
X0631484Y0048966D01*
Y0047966D01*
X0630484Y0046966D01*
X0628484D01*
X0627485Y0047966D01*
X0633483Y0052965D02*
X0637482D01*
X0635482D01*
Y0046966D01*
X0639481D02*
Y0052965D01*
X0642480D01*
X0643480Y0051965D01*
Y0049966D01*
X0642480Y0048966D01*
X0639481D01*
X0641480D02*
X0643480Y0046966D01*
X0645479Y0052965D02*
Y0047966D01*
X0646479Y0046966D01*
X0648478D01*
X0649478Y0047966D01*
Y0052965D01*
X0651477Y0046966D02*
Y0052965D01*
X0653476Y0050965D01*
X0655476Y0052965D01*
Y0046966D01*
X0661474Y0052965D02*
X0657475D01*
Y0046966D01*
X0661474D01*
X0657475Y0049966D02*
X0659474D01*
X0663473Y0046966D02*
Y0052965D01*
X0667472Y0046966D01*
Y0052965D01*
X0669471D02*
X0673470D01*
X0671471D01*
Y0046966D01*
X0679468Y0051965D02*
X0678468Y0052965D01*
X0676469D01*
X0675469Y0051965D01*
Y0050965D01*
X0676469Y0049966D01*
X0678468D01*
X0679468Y0048966D01*
Y0047966D01*
X0678468Y0046966D01*
X0676469D01*
X0675469Y0047966D01*
X0454050Y0052965D02*
X0458049D01*
Y0051965D01*
X0454050Y0047966D01*
Y0046966D01*
X0460048Y0050965D02*
X0461048D01*
Y0049966D01*
X0460048D01*
Y0050965D01*
Y0047966D02*
X0461048D01*
Y0046966D01*
X0460048D01*
Y0047966D01*
X0469045Y0052965D02*
X0465046D01*
Y0049966D01*
X0467046Y0050965D01*
X0468046D01*
X0469045Y0049966D01*
Y0047966D01*
X0468046Y0046966D01*
X0466046D01*
X0465046Y0047966D01*
X0471044Y0051965D02*
X0472044Y0052965D01*
X0474044D01*
X0475043Y0051965D01*
Y0047966D01*
X0474044Y0046966D01*
X0472044D01*
X0471044Y0047966D01*
Y0051965D01*
X0477043Y0050965D02*
X0478042D01*
Y0049966D01*
X0477043D01*
Y0050965D01*
Y0047966D02*
X0478042D01*
Y0046966D01*
X0477043D01*
Y0047966D01*
X0486040Y0046966D02*
X0482041D01*
X0486040Y0050965D01*
Y0051965D01*
X0485040Y0052965D01*
X0483041D01*
X0482041Y0051965D01*
X0492038Y0052965D02*
X0490038Y0051965D01*
X0488039Y0049966D01*
Y0047966D01*
X0489039Y0046966D01*
X0491038D01*
X0492038Y0047966D01*
Y0048966D01*
X0491038Y0049966D01*
X0488039D01*
X0500035Y0046966D02*
Y0052965D01*
X0503034D01*
X0504034Y0051965D01*
Y0049966D01*
X0503034Y0048966D01*
X0500035D01*
X0506033Y0046966D02*
Y0052965D01*
X0508033Y0050965D01*
X0510032Y0052965D01*
Y0046966D01*
X0046350D02*
Y0052965D01*
X0049349D01*
X0050349Y0051965D01*
Y0049966D01*
X0049349Y0048966D01*
X0046350D01*
X0052348Y0052965D02*
Y0046966D01*
X0056347D01*
X0061345Y0052965D02*
X0059346D01*
X0058346Y0051965D01*
Y0047966D01*
X0059346Y0046966D01*
X0061345D01*
X0062345Y0047966D01*
Y0051965D01*
X0061345Y0052965D01*
X0064344D02*
X0068343D01*
X0066343D01*
Y0046966D01*
X0076340D02*
Y0052965D01*
X0080339Y0046966D01*
Y0052965D01*
X0082338Y0046966D02*
Y0050965D01*
X0084338Y0052965D01*
X0086337Y0050965D01*
Y0046966D01*
Y0049966D01*
X0082338D01*
X0088336Y0046966D02*
Y0052965D01*
X0090336Y0050965D01*
X0092335Y0052965D01*
Y0046966D01*
X0098333Y0052965D02*
X0094335D01*
Y0046966D01*
X0098333D01*
X0094335Y0049966D02*
X0096334D01*
X0106331Y0048966D02*
X0110329D01*
X0106331Y0050965D02*
X0110329D01*
X0046350Y0073549D02*
Y0067551D01*
X0050349D01*
X0052348D02*
Y0071549D01*
X0054347Y0073549D01*
X0056347Y0071549D01*
Y0067551D01*
Y0070550D01*
X0052348D01*
X0058346Y0073549D02*
Y0072549D01*
X0060346Y0070550D01*
X0062345Y0072549D01*
Y0073549D01*
X0060346Y0070550D02*
Y0067551D01*
X0068343Y0073549D02*
X0064344D01*
Y0067551D01*
X0068343D01*
X0064344Y0070550D02*
X0066343D01*
X0070342Y0067551D02*
Y0073549D01*
X0073341D01*
X0074341Y0072549D01*
Y0070550D01*
X0073341Y0069550D01*
X0070342D01*
X0072342D02*
X0074341Y0067551D01*
X0082338D02*
Y0073549D01*
X0086337Y0067551D01*
Y0073549D01*
X0088336Y0067551D02*
Y0071549D01*
X0090336Y0073549D01*
X0092335Y0071549D01*
Y0067551D01*
Y0070550D01*
X0088336D01*
X0094335Y0067551D02*
Y0073549D01*
X0096334Y0071549D01*
X0098333Y0073549D01*
Y0067551D01*
X0104331Y0073549D02*
X0100332D01*
Y0067551D01*
X0104331D01*
X0100332Y0070550D02*
X0102332D01*
X0112329Y0069550D02*
X0116327D01*
X0112329Y0071549D02*
X0116327D01*
X0294000Y0093831D02*
Y0087833D01*
X0296999D01*
X0297999Y0088833D01*
Y0089833D01*
X0296999Y0090832D01*
X0294000D01*
X0296999D01*
X0297999Y0091832D01*
Y0092832D01*
X0296999Y0093831D01*
X0294000D01*
X0302997D02*
X0300998D01*
X0299998Y0092832D01*
Y0088833D01*
X0300998Y0087833D01*
X0302997D01*
X0303997Y0088833D01*
Y0092832D01*
X0302997Y0093831D01*
X0305996Y0087833D02*
Y0091832D01*
X0307996Y0093831D01*
X0309995Y0091832D01*
Y0087833D01*
Y0090832D01*
X0305996D01*
X0311994Y0087833D02*
Y0093831D01*
X0314993D01*
X0315993Y0092832D01*
Y0090832D01*
X0314993Y0089833D01*
X0311994D01*
X0313994D02*
X0315993Y0087833D01*
X0317992Y0093831D02*
Y0087833D01*
X0320991D01*
X0321991Y0088833D01*
Y0092832D01*
X0320991Y0093831D01*
X0317992D01*
X0330988Y0087833D02*
Y0093831D01*
X0332987D02*
Y0087833D01*
X0329988Y0091832D02*
X0332987D01*
X0333987D01*
X0329988Y0089833D02*
X0333987D01*
X0335986Y0091832D02*
X0336986D01*
Y0090832D01*
X0335986D01*
Y0091832D01*
Y0088833D02*
X0336986D01*
Y0087833D01*
X0335986D01*
Y0088833D01*
X0348550Y0087833D02*
Y0093831D01*
X0350549Y0091832D01*
X0352549Y0093831D01*
Y0087833D01*
X0354548Y0093831D02*
Y0087833D01*
X0357547D01*
X0358547Y0088833D01*
Y0092832D01*
X0357547Y0093831D01*
X0354548D01*
X0360546Y0092832D02*
X0361546Y0093831D01*
X0363545D01*
X0364545Y0092832D01*
Y0088833D01*
X0363545Y0087833D01*
X0361546D01*
X0360546Y0088833D01*
Y0092832D01*
X0366544Y0087833D02*
X0368544D01*
X0367544D01*
Y0093831D01*
X0366544Y0092832D01*
X0375541Y0093831D02*
X0371543D01*
Y0090832D01*
X0373542Y0091832D01*
X0374542D01*
X0375541Y0090832D01*
Y0088833D01*
X0374542Y0087833D01*
X0372542D01*
X0371543Y0088833D01*
X0462150Y0087833D02*
Y0091832D01*
X0464149Y0093831D01*
X0466149Y0091832D01*
Y0087833D01*
Y0090832D01*
X0462150D01*
X0046350Y0087833D02*
Y0091832D01*
X0048349Y0093831D01*
X0050349Y0091832D01*
Y0087833D01*
Y0090832D01*
X0046350D01*
X0052348Y0093831D02*
Y0087833D01*
X0056347D01*
X0058346Y0093831D02*
Y0087833D01*
X0062345D01*
X0070342D02*
Y0091832D01*
X0072342Y0093831D01*
X0074341Y0091832D01*
Y0087833D01*
Y0090832D01*
X0070342D01*
X0076340Y0087833D02*
Y0093831D01*
X0079339D01*
X0080339Y0092832D01*
Y0090832D01*
X0079339Y0089833D01*
X0076340D01*
X0078340D02*
X0080339Y0087833D01*
X0082338Y0093831D02*
X0086337D01*
X0084338D01*
Y0087833D01*
X0088336Y0093831D02*
Y0087833D01*
X0090336Y0089833D01*
X0092335Y0087833D01*
Y0093831D01*
X0097334D02*
X0095334D01*
X0094335Y0092832D01*
Y0088833D01*
X0095334Y0087833D01*
X0097334D01*
X0098333Y0088833D01*
Y0092832D01*
X0097334Y0093831D01*
X0100332Y0087833D02*
Y0093831D01*
X0103332D01*
X0104331Y0092832D01*
Y0090832D01*
X0103332Y0089833D01*
X0100332D01*
X0102332D02*
X0104331Y0087833D01*
X0106331Y0093831D02*
Y0087833D01*
Y0089833D01*
X0110329Y0093831D01*
X0107330Y0090832D01*
X0110329Y0087833D01*
X0118327Y0093831D02*
Y0089833D01*
X0120326Y0087833D01*
X0122325Y0089833D01*
Y0093831D01*
X0124325D02*
X0126324D01*
X0125324D01*
Y0087833D01*
X0124325D01*
X0126324D01*
X0133322Y0093831D02*
X0129323D01*
Y0087833D01*
X0133322D01*
X0129323Y0090832D02*
X0131323D01*
X0135321Y0093831D02*
Y0087833D01*
X0137321Y0089833D01*
X0139320Y0087833D01*
Y0093831D01*
X0145318D02*
X0141319D01*
Y0087833D01*
X0145318D01*
X0141319Y0090832D02*
X0143319D01*
X0147317Y0093831D02*
Y0087833D01*
X0150316D01*
X0151316Y0088833D01*
Y0092832D01*
X0150316Y0093831D01*
X0147317D01*
X0163312D02*
X0159313D01*
Y0090832D01*
X0161313D01*
X0159313D01*
Y0087833D01*
X0165312D02*
Y0093831D01*
X0168310D01*
X0169310Y0092832D01*
Y0090832D01*
X0168310Y0089833D01*
X0165312D01*
X0167311D02*
X0169310Y0087833D01*
X0174309Y0093831D02*
X0172309D01*
X0171310Y0092832D01*
Y0088833D01*
X0172309Y0087833D01*
X0174309D01*
X0175308Y0088833D01*
Y0092832D01*
X0174309Y0093831D01*
X0177308Y0087833D02*
Y0093831D01*
X0179307Y0091832D01*
X0181306Y0093831D01*
Y0087833D01*
X0189304Y0093831D02*
X0193303D01*
X0191303D01*
Y0087833D01*
X0198301Y0093831D02*
X0196301D01*
X0195302Y0092832D01*
Y0088833D01*
X0196301Y0087833D01*
X0198301D01*
X0199301Y0088833D01*
Y0092832D01*
X0198301Y0093831D01*
X0201300Y0087833D02*
Y0093831D01*
X0204299D01*
X0205299Y0092832D01*
Y0090832D01*
X0204299Y0089833D01*
X0201300D01*
X0217295Y0092832D02*
X0216295Y0093831D01*
X0214296D01*
X0213296Y0092832D01*
Y0091832D01*
X0214296Y0090832D01*
X0216295D01*
X0217295Y0089833D01*
Y0088833D01*
X0216295Y0087833D01*
X0214296D01*
X0213296Y0088833D01*
X0219294Y0093831D02*
X0221293D01*
X0220294D01*
Y0087833D01*
X0219294D01*
X0221293D01*
X0224292Y0093831D02*
Y0087833D01*
X0227291D01*
X0228291Y0088833D01*
Y0092832D01*
X0227291Y0093831D01*
X0224292D01*
X0234289D02*
X0230291D01*
Y0087833D01*
X0234289D01*
X0230291Y0090832D02*
X0232290D01*
X0298199Y0051965D02*
X0297199Y0052965D01*
X0295200D01*
X0294200Y0051965D01*
Y0047966D01*
X0295200Y0046966D01*
X0297199D01*
X0298199Y0047966D01*
Y0049966D01*
X0296199D01*
X0304197Y0052965D02*
X0300198D01*
Y0046966D01*
X0304197D01*
X0300198Y0049966D02*
X0302197D01*
X0306196Y0046966D02*
Y0052965D01*
X0310195Y0046966D01*
Y0052965D01*
X0316193D02*
X0312194D01*
Y0046966D01*
X0316193D01*
X0312194Y0049966D02*
X0314194D01*
X0318192Y0046966D02*
Y0052965D01*
X0321191D01*
X0322191Y0051965D01*
Y0049966D01*
X0321191Y0048966D01*
X0318192D01*
X0320192D02*
X0322191Y0046966D01*
X0324190D02*
Y0050965D01*
X0326190Y0052965D01*
X0328189Y0050965D01*
Y0046966D01*
Y0049966D01*
X0324190D01*
X0330188Y0052965D02*
X0334187D01*
X0332188D01*
Y0046966D01*
X0340185Y0052965D02*
X0336186D01*
Y0046966D01*
X0340185D01*
X0336186Y0049966D02*
X0338186D01*
X0342184Y0052965D02*
Y0046966D01*
X0345183D01*
X0346183Y0047966D01*
Y0051965D01*
X0345183Y0052965D01*
X0342184D01*
X0372175Y0050965D02*
X0373175D01*
Y0049966D01*
X0372175D01*
Y0050965D01*
Y0047966D02*
X0373175D01*
Y0046966D01*
X0372175D01*
Y0047966D01*
X0381150Y0046966D02*
X0383149D01*
X0382150D01*
Y0052965D01*
X0381150Y0051965D01*
X0390147Y0046966D02*
X0386148D01*
X0390147Y0050965D01*
Y0051965D01*
X0389147Y0052965D01*
X0387148D01*
X0386148Y0051965D01*
X0392146Y0046966D02*
X0396145Y0050965D01*
X0402143Y0046966D02*
X0398145D01*
X0402143Y0050965D01*
Y0051965D01*
X0401144Y0052965D01*
X0399144D01*
X0398145Y0051965D01*
X0404143Y0046966D02*
X0408141Y0050965D01*
X0414139Y0046966D02*
X0410141D01*
X0414139Y0050965D01*
Y0051965D01*
X0413140Y0052965D01*
X0411140D01*
X0410141Y0051965D01*
X0416139D02*
X0417138Y0052965D01*
X0419138D01*
X0420137Y0051965D01*
Y0047966D01*
X0419138Y0046966D01*
X0417138D01*
X0416139Y0047966D01*
Y0051965D01*
X0422137Y0046966D02*
X0424136D01*
X0423136D01*
Y0052965D01*
X0422137Y0051965D01*
X0427135D02*
X0428135Y0052965D01*
X0430134D01*
X0431134Y0051965D01*
Y0050965D01*
X0430134Y0049966D01*
X0431134Y0048966D01*
Y0047966D01*
X0430134Y0046966D01*
X0428135D01*
X0427135Y0047966D01*
Y0048966D01*
X0428135Y0049966D01*
X0427135Y0050965D01*
Y0051965D01*
X0428135Y0049966D02*
X0430134D01*
X0126900Y0046966D02*
Y0052965D01*
X0128899Y0050965D01*
X0130899Y0052965D01*
Y0046966D01*
X0132898Y0052965D02*
Y0046966D01*
X0135897D01*
X0136897Y0047966D01*
Y0051965D01*
X0135897Y0052965D01*
X0132898D01*
X0138896Y0051965D02*
X0139896Y0052965D01*
X0141895D01*
X0142895Y0051965D01*
Y0047966D01*
X0141895Y0046966D01*
X0139896D01*
X0138896Y0047966D01*
Y0051965D01*
X0144894Y0046966D02*
X0146894D01*
X0145894D01*
Y0052965D01*
X0144894Y0051965D01*
X0153891Y0052965D02*
X0149893D01*
Y0049966D01*
X0151892Y0050965D01*
X0152892D01*
X0153891Y0049966D01*
Y0047966D01*
X0152892Y0046966D01*
X0150892D01*
X0149893Y0047966D01*
X0155891Y0046966D02*
Y0050965D01*
X0157890Y0052965D01*
X0159889Y0050965D01*
Y0046966D01*
Y0049966D01*
X0155891D01*
X0161889Y0046966D02*
Y0047966D01*
X0162888D01*
Y0046966D01*
X0161889D01*
X0170886Y0051965D02*
X0169886Y0052965D01*
X0167887D01*
X0166887Y0051965D01*
Y0047966D01*
X0167887Y0046966D01*
X0169886D01*
X0170886Y0047966D01*
Y0049966D01*
X0168886D01*
X0172885Y0052965D02*
X0176884D01*
X0174884D01*
Y0046966D01*
X0182882Y0051965D02*
X0181882Y0052965D01*
X0179883D01*
X0178883Y0051965D01*
Y0050965D01*
X0179883Y0049966D01*
X0181882D01*
X0182882Y0048966D01*
Y0047966D01*
X0181882Y0046966D01*
X0179883D01*
X0178883Y0047966D01*
X0433000Y0087833D02*
Y0093831D01*
X0435999D01*
X0436999Y0092832D01*
Y0090832D01*
X0435999Y0089833D01*
X0433000D01*
X0434999D02*
X0436999Y0087833D01*
X0442997Y0093831D02*
X0438998D01*
Y0087833D01*
X0442997D01*
X0438998Y0090832D02*
X0440997D01*
X0444996Y0093831D02*
Y0089833D01*
X0446995Y0087833D01*
X0448995Y0089833D01*
Y0093831D01*
X0450994Y0091832D02*
X0451994D01*
Y0090832D01*
X0450994D01*
Y0091832D01*
Y0088833D02*
X0451994D01*
Y0087833D01*
X0450994D01*
Y0088833D01*
X0520799Y0092832D02*
X0519799Y0093831D01*
X0517800D01*
X0516800Y0092832D01*
Y0091832D01*
X0517800Y0090832D01*
X0519799D01*
X0520799Y0089833D01*
Y0088833D01*
X0519799Y0087833D01*
X0517800D01*
X0516800Y0088833D01*
X0522798Y0093831D02*
Y0089833D01*
X0524797Y0087833D01*
X0526797Y0089833D01*
Y0093831D01*
X0528796Y0087833D02*
Y0093831D01*
X0532795Y0087833D01*
Y0093831D01*
X0540792Y0087833D02*
Y0093831D01*
X0543791D01*
X0544791Y0092832D01*
Y0090832D01*
X0543791Y0089833D01*
X0540792D01*
X0542792D02*
X0544791Y0087833D01*
X0550789Y0093831D02*
X0546790D01*
Y0087833D01*
X0550789D01*
X0546790Y0090832D02*
X0548790D01*
X0552788Y0093831D02*
Y0089833D01*
X0554788Y0087833D01*
X0556787Y0089833D01*
Y0093831D01*
X0558786Y0091832D02*
X0559786D01*
Y0090832D01*
X0558786D01*
Y0091832D01*
Y0088833D02*
X0559786D01*
Y0087833D01*
X0558786D01*
Y0088833D01*
X0567400Y0087833D02*
Y0093831D01*
X0571399Y0087833D01*
Y0093831D01*
X0574398Y0087833D02*
X0576397D01*
X0577397Y0088833D01*
Y0090832D01*
X0576397Y0091832D01*
X0574398D01*
X0573398Y0090832D01*
Y0088833D01*
X0574398Y0087833D01*
X0580396Y0092832D02*
Y0091832D01*
X0579396D01*
X0581395D01*
X0580396D01*
Y0088833D01*
X0581395Y0087833D01*
X0590393Y0093831D02*
X0592392D01*
X0591392D01*
Y0087833D01*
X0590393D01*
X0592392D01*
X0595391D02*
Y0091832D01*
X0598390D01*
X0599390Y0090832D01*
Y0087833D01*
X0607387Y0093831D02*
Y0089833D01*
X0609386Y0087833D01*
X0611386Y0089833D01*
Y0093831D01*
X0616384Y0087833D02*
X0614385D01*
X0613385Y0088833D01*
Y0090832D01*
X0614385Y0091832D01*
X0616384D01*
X0617384Y0090832D01*
Y0089833D01*
X0613385D01*
X0619383Y0091832D02*
Y0087833D01*
Y0089833D01*
X0620383Y0090832D01*
X0621383Y0091832D01*
X0622382D01*
X0625381Y0087833D02*
X0628380D01*
X0629380Y0088833D01*
X0628380Y0089833D01*
X0626381D01*
X0625381Y0090832D01*
X0626381Y0091832D01*
X0629380D01*
X0631379Y0087833D02*
X0633379D01*
X0632379D01*
Y0091832D01*
X0631379D01*
X0637377Y0087833D02*
X0639377D01*
X0640376Y0088833D01*
Y0090832D01*
X0639377Y0091832D01*
X0637377D01*
X0636378Y0090832D01*
Y0088833D01*
X0637377Y0087833D01*
X0642376D02*
Y0091832D01*
X0645375D01*
X0646374Y0090832D01*
Y0087833D01*
X0652373Y0092832D02*
X0651373Y0093831D01*
X0649373D01*
X0648374Y0092832D01*
Y0088833D01*
X0649373Y0087833D01*
X0651373D01*
X0652373Y0088833D01*
X0655372Y0087833D02*
X0657371D01*
X0658371Y0088833D01*
Y0090832D01*
X0657371Y0091832D01*
X0655372D01*
X0654372Y0090832D01*
Y0088833D01*
X0655372Y0087833D01*
X0660370D02*
Y0091832D01*
X0663369D01*
X0664369Y0090832D01*
Y0087833D01*
X0667368Y0092832D02*
Y0091832D01*
X0666368D01*
X0668367D01*
X0667368D01*
Y0088833D01*
X0668367Y0087833D01*
X0671366Y0091832D02*
Y0087833D01*
Y0089833D01*
X0672366Y0090832D01*
X0673366Y0091832D01*
X0674365D01*
X0678364Y0087833D02*
X0680364D01*
X0681363Y0088833D01*
Y0090832D01*
X0680364Y0091832D01*
X0678364D01*
X0677364Y0090832D01*
Y0088833D01*
X0678364Y0087833D01*
X0683362D02*
X0685362D01*
X0684362D01*
Y0093831D01*
X0683362D01*
G54D35*
X0294002Y0598239D02*
D03*
X0275321D02*
D03*
X0259306Y0606537D02*
D03*
X0240625D02*
D03*
X0117568Y0606502D02*
D03*
X0136249D02*
D03*
X0183359Y0597770D02*
D03*
X0202041D02*
D03*
X0150905Y0597843D02*
D03*
X0169586D02*
D03*
X0214585Y0606603D02*
D03*
X0233266D02*
D03*
G54D65*
X0153815Y0197369D02*
D03*
Y0195400D02*
D03*
Y0193431D02*
D03*
X0151453D02*
D03*
Y0195400D02*
D03*
G54D66*
X0151551Y0197369D02*
D03*
G54D68*
X0292161Y0583869D02*
D03*
X0287161D02*
D03*
X0282161D02*
D03*
X0277161D02*
D03*
Y0606073D02*
D03*
X0282161D02*
D03*
X0287161D02*
D03*
X0292161D02*
D03*
X0242465Y0598702D02*
D03*
X0247465D02*
D03*
X0252466D02*
D03*
X0257466D02*
D03*
Y0620907D02*
D03*
X0252466D02*
D03*
X0247465D02*
D03*
X0242465D02*
D03*
X0119409Y0620872D02*
D03*
X0124409D02*
D03*
X0129409D02*
D03*
X0134409D02*
D03*
Y0598667D02*
D03*
X0129409D02*
D03*
X0124409D02*
D03*
X0119409D02*
D03*
X0200200Y0605605D02*
D03*
X0195200D02*
D03*
X0190200D02*
D03*
X0185200D02*
D03*
Y0583400D02*
D03*
X0190200D02*
D03*
X0195200D02*
D03*
X0200200D02*
D03*
X0167745Y0605678D02*
D03*
X0162745D02*
D03*
X0157745D02*
D03*
X0152745D02*
D03*
Y0583473D02*
D03*
X0157745D02*
D03*
X0162745D02*
D03*
X0167745D02*
D03*
X0216425Y0620973D02*
D03*
X0221425D02*
D03*
X0226425D02*
D03*
X0231425D02*
D03*
Y0598768D02*
D03*
X0226425D02*
D03*
X0221425D02*
D03*
X0216425D02*
D03*
G54D95*
X0284661Y0592018D02*
D03*
X0249966Y0612757D02*
D03*
X0126909Y0612723D02*
D03*
X0192700Y0591550D02*
D03*
X0160245Y0591622D02*
D03*
X0223925Y0612823D02*
D03*
G54D96*
X0276513Y0598239D02*
D03*
X0292811Y0598238D02*
D03*
X0241817Y0606537D02*
D03*
X0258115D02*
D03*
X0135058Y0606502D02*
D03*
X0118761Y0606502D02*
D03*
X0200849Y0597770D02*
D03*
X0184552Y0597770D02*
D03*
X0168394Y0597843D02*
D03*
X0152097Y0597843D02*
D03*
X0232074Y0606603D02*
D03*
X0215777Y0606603D02*
D03*
G54D97*
X0405200Y0659400D02*
D03*
X0081200Y0209400D02*
D03*
X0080200Y0659400D02*
D03*
G54D98*
X0274405Y0420760D02*
D03*
X0249995D02*
D03*
G54D99*
X0175386Y0252101D02*
D03*
X0170386D02*
D03*
X0165386D02*
D03*
X0160386D02*
D03*
X0155386D02*
D03*
X0150386D02*
D03*
X0145386D02*
D03*
X0140386D02*
D03*
X0175386Y0214699D02*
D03*
X0170386D02*
D03*
X0165386D02*
D03*
X0160386D02*
D03*
X0155386D02*
D03*
X0150386D02*
D03*
X0145386D02*
D03*
X0140386D02*
D03*
G54D100*
X0390775Y0493400D02*
D03*
X0337625D02*
D03*
X0390775Y0573400D02*
D03*
X0337625D02*
D03*
G54D101*
X0199169Y0490337D02*
D03*
G54D102*
X0206058Y0480888D02*
D03*
X0204090D02*
D03*
X0202121D02*
D03*
X0200153D02*
D03*
X0198184D02*
D03*
X0196216D02*
D03*
X0194247D02*
D03*
X0192279D02*
D03*
Y0499786D02*
D03*
X0194247D02*
D03*
X0196216D02*
D03*
X0198184D02*
D03*
X0200153D02*
D03*
X0202121D02*
D03*
X0204090D02*
D03*
X0206058D02*
D03*
G54D103*
X0189720Y0483447D02*
D03*
Y0485416D02*
D03*
Y0487384D02*
D03*
Y0489353D02*
D03*
Y0491321D02*
D03*
Y0493290D02*
D03*
Y0495258D02*
D03*
Y0497227D02*
D03*
X0208617D02*
D03*
Y0495258D02*
D03*
Y0493290D02*
D03*
Y0491321D02*
D03*
Y0489353D02*
D03*
Y0487384D02*
D03*
Y0485416D02*
D03*
Y0483447D02*
D03*
G54D104*
X0116990Y0292153D02*
D03*
G54D105*
X0107541Y0285263D02*
D03*
Y0287232D02*
D03*
Y0289200D02*
D03*
Y0291169D02*
D03*
Y0293137D02*
D03*
Y0295106D02*
D03*
Y0297074D02*
D03*
Y0299043D02*
D03*
X0126439D02*
D03*
Y0297074D02*
D03*
Y0295106D02*
D03*
Y0293137D02*
D03*
Y0291169D02*
D03*
Y0289200D02*
D03*
Y0287232D02*
D03*
Y0285263D02*
D03*
G54D106*
X0110100Y0301602D02*
D03*
X0112069D02*
D03*
X0114038D02*
D03*
X0116006D02*
D03*
X0117974D02*
D03*
X0119943D02*
D03*
X0121912D02*
D03*
X0123880D02*
D03*
Y0282704D02*
D03*
X0121912D02*
D03*
X0119943D02*
D03*
X0117974D02*
D03*
X0116006D02*
D03*
X0114038D02*
D03*
X0112069D02*
D03*
X0110100D02*
D03*
G54D107*
X0137285Y0359518D02*
D03*
G54D108*
X0119962Y0344754D02*
D03*
Y0346723D02*
D03*
Y0348691D02*
D03*
Y0350660D02*
D03*
Y0352628D02*
D03*
Y0354597D02*
D03*
Y0356565D02*
D03*
Y0358534D02*
D03*
Y0360502D02*
D03*
Y0362471D02*
D03*
Y0364439D02*
D03*
Y0366408D02*
D03*
Y0368376D02*
D03*
Y0370345D02*
D03*
Y0372313D02*
D03*
Y0374282D02*
D03*
X0154607D02*
D03*
Y0372313D02*
D03*
Y0370345D02*
D03*
Y0368376D02*
D03*
Y0366408D02*
D03*
Y0364439D02*
D03*
Y0362471D02*
D03*
Y0360502D02*
D03*
Y0358534D02*
D03*
Y0356565D02*
D03*
Y0354597D02*
D03*
Y0352628D02*
D03*
Y0350660D02*
D03*
Y0348691D02*
D03*
Y0346723D02*
D03*
Y0344754D02*
D03*
G54D109*
X0122521Y0376841D02*
D03*
X0124489D02*
D03*
X0126458D02*
D03*
X0128426D02*
D03*
X0130395D02*
D03*
X0132363D02*
D03*
X0134332D02*
D03*
X0136300D02*
D03*
X0138269D02*
D03*
X0140237D02*
D03*
X0142206D02*
D03*
X0144174D02*
D03*
X0146143D02*
D03*
X0148111D02*
D03*
X0150080D02*
D03*
X0152049D02*
D03*
Y0342195D02*
D03*
X0150080D02*
D03*
X0148111D02*
D03*
X0146143D02*
D03*
X0144174D02*
D03*
X0142206D02*
D03*
X0140237D02*
D03*
X0138269D02*
D03*
X0136300D02*
D03*
X0134332D02*
D03*
X0132363D02*
D03*
X0130395D02*
D03*
X0128426D02*
D03*
X0126458D02*
D03*
X0124489D02*
D03*
X0122521D02*
D03*
G54D110*
X0232180Y0447400D02*
D03*
G54D111*
X0242220D02*
D03*
G54D112*
X0292035Y0254228D02*
D03*
X0290067D02*
D03*
X0288098D02*
D03*
X0286130D02*
D03*
X0284161D02*
D03*
X0282193D02*
D03*
X0280224D02*
D03*
X0278256D02*
D03*
X0276287D02*
D03*
X0274319D02*
D03*
X0272350D02*
D03*
X0270382D02*
D03*
X0268413D02*
D03*
X0266445D02*
D03*
X0264476D02*
D03*
X0262508D02*
D03*
X0260539D02*
D03*
X0258571D02*
D03*
X0256602D02*
D03*
X0254634D02*
D03*
Y0306393D02*
D03*
X0256602D02*
D03*
X0258571D02*
D03*
X0260539D02*
D03*
X0262508D02*
D03*
X0264476D02*
D03*
X0266445D02*
D03*
X0268413D02*
D03*
X0270382D02*
D03*
X0272350D02*
D03*
X0274319D02*
D03*
X0276287D02*
D03*
X0278256D02*
D03*
X0280224D02*
D03*
X0282193D02*
D03*
X0284161D02*
D03*
X0286130D02*
D03*
X0288098D02*
D03*
X0290067D02*
D03*
X0292035D02*
D03*
G54D113*
X0247252Y0261610D02*
D03*
Y0263578D02*
D03*
Y0265546D02*
D03*
Y0267515D02*
D03*
Y0269483D02*
D03*
Y0271452D02*
D03*
Y0273421D02*
D03*
Y0275389D02*
D03*
Y0277358D02*
D03*
Y0279326D02*
D03*
Y0281294D02*
D03*
Y0283263D02*
D03*
Y0285231D02*
D03*
Y0287200D02*
D03*
Y0289169D02*
D03*
Y0291137D02*
D03*
Y0293106D02*
D03*
Y0295074D02*
D03*
Y0297043D02*
D03*
Y0299011D02*
D03*
X0299417D02*
D03*
Y0297043D02*
D03*
Y0295074D02*
D03*
Y0293106D02*
D03*
Y0291137D02*
D03*
Y0289169D02*
D03*
Y0287200D02*
D03*
Y0285231D02*
D03*
Y0283263D02*
D03*
Y0281294D02*
D03*
Y0279326D02*
D03*
Y0277358D02*
D03*
Y0275389D02*
D03*
Y0273421D02*
D03*
Y0271452D02*
D03*
Y0269483D02*
D03*
Y0267515D02*
D03*
Y0265546D02*
D03*
Y0263578D02*
D03*
Y0261610D02*
D03*
G54D114*
X0271200Y0449758D02*
D03*
G54D115*
X0263720Y0454483D02*
D03*
Y0451333D02*
D03*
Y0448183D02*
D03*
Y0445034D02*
D03*
X0278680D02*
D03*
Y0448183D02*
D03*
Y0451333D02*
D03*
Y0454483D02*
D03*
G54D116*
X0265996Y0225336D02*
D03*
X0271902D02*
D03*
X0277807D02*
D03*
X0081200Y0374011D02*
D03*
X0087106D02*
D03*
X0093011D02*
D03*
G54D117*
X0169022Y0174359D02*
D03*
X0149632D02*
D03*
G54D118*
X0163018Y0165304D02*
D03*
X0155636D02*
D03*
G54D119*
X0164445Y0175777D02*
D03*
X0161886Y0175777D02*
D03*
X0159327Y0175777D02*
D03*
X0156768Y0175777D02*
D03*
X0154209Y0175777D02*
D03*
G54D120*
X0135066Y0198679D02*
D03*
X0126798D02*
D03*
X0154066Y0505400D02*
D03*
X0162334D02*
D03*
X0331776Y0401694D02*
D03*
X0323508D02*
D03*
G54D121*
X0168523Y0341792D02*
D03*
Y0335886D02*
D03*
X0169044Y0354360D02*
D03*
Y0348455D02*
D03*
X0232510Y0265416D02*
D03*
Y0271321D02*
D03*
G54D122*
X0221585Y0318002D02*
D03*
Y0309735D02*
D03*
X0362161Y0415332D02*
D03*
Y0407065D02*
D03*
G54D123*
X0310736Y0618575D02*
D03*
Y0581764D02*
D03*
G54D124*
X0316630Y0280214D02*
D03*
Y0290056D02*
D03*
G54D125*
X0078263Y0484711D02*
D03*
X0080231D02*
D03*
X0084168D02*
D03*
X0086137D02*
D03*
Y0481424D02*
D03*
X0084168D02*
D03*
X0080231D02*
D03*
X0078263D02*
D03*
G54D126*
X0082200Y0484711D02*
D03*
Y0481424D02*
D03*
G54D127*
X0119041Y0548701D02*
D03*
X0115301D02*
D03*
X0111560D02*
D03*
Y0538662D02*
D03*
X0119041D02*
D03*
G54D128*
X0221200Y0549195D02*
D03*
Y0573605D02*
D03*
G54D129*
X0149956Y0324365D02*
D03*
Y0334601D02*
D03*
X0246773Y0230831D02*
D03*
Y0220595D02*
D03*
X0316492Y0307962D02*
D03*
Y0297725D02*
D03*
G54D130*
X0242757Y0491071D02*
D03*
X0257233Y0476595D02*
D03*
G54D131*
X0227667Y0493685D02*
D03*
X0235183Y0501202D02*
D03*
G54D132*
X0166745Y0576093D02*
D03*
Y0562707D02*
D03*
X0282004Y0577162D02*
D03*
Y0563776D02*
D03*
X0195200Y0576093D02*
D03*
Y0562707D02*
D03*
G54D133*
X0262960Y0504793D02*
D03*
X0271033Y0496720D02*
D03*
X0273663Y0511187D02*
D03*
X0281737Y0503113D02*
D03*
G54D134*
X0285265Y0406784D02*
D03*
Y0412689D02*
D03*
X0371035Y0435447D02*
D03*
Y0441353D02*
D03*
X0347200Y0424157D02*
D03*
Y0418251D02*
D03*
X0309379Y0419606D02*
D03*
Y0413700D02*
D03*
G54D135*
X0217200Y0468400D02*
D03*
Y0476400D02*
D03*
G54D136*
X0229027Y0472745D02*
D03*
Y0479438D02*
D03*
G54D137*
X0136614Y0190508D02*
D03*
X0131102D02*
D03*
X0144760Y0183613D02*
D03*
X0150272D02*
D03*
X0298824Y0446268D02*
D03*
X0293312D02*
D03*
X0248444Y0459400D02*
D03*
X0253956D02*
D03*
X0166071Y0185726D02*
D03*
X0171583D02*
D03*
X0346200Y0401694D02*
D03*
X0340688D02*
D03*
X0099512Y0580241D02*
D03*
X0094000D02*
D03*
X0093726Y0567867D02*
D03*
X0099238D02*
D03*
X0099232Y0562442D02*
D03*
X0093720D02*
D03*
X0314891Y0365400D02*
D03*
X0309379D02*
D03*
X0093696Y0586946D02*
D03*
X0099208D02*
D03*
X0093696Y0603535D02*
D03*
X0099208D02*
D03*
X0093720Y0622867D02*
D03*
X0099232D02*
D03*
X0099232Y0596867D02*
D03*
X0093720D02*
D03*
X0099236Y0616691D02*
D03*
X0093724D02*
D03*
X0235676Y0311233D02*
D03*
X0230164D02*
D03*
X0331236Y0371530D02*
D03*
X0325724D02*
D03*
X0309379Y0377400D02*
D03*
X0314891D02*
D03*
X0112450Y0530950D02*
D03*
X0117962D02*
D03*
X0145444Y0482400D02*
D03*
X0150956D02*
D03*
X0159956Y0497400D02*
D03*
X0154444D02*
D03*
X0346200Y0383530D02*
D03*
X0340688D02*
D03*
X0314891Y0371400D02*
D03*
X0309379D02*
D03*
X0325724Y0383530D02*
D03*
X0331236D02*
D03*
X0340688Y0389530D02*
D03*
X0346200D02*
D03*
X0235676Y0305233D02*
D03*
X0230164D02*
D03*
X0145444Y0476400D02*
D03*
X0150956D02*
D03*
X0331236Y0377530D02*
D03*
X0325724D02*
D03*
X0149366Y0493400D02*
D03*
X0143854D02*
D03*
X0143854Y0487917D02*
D03*
X0149366D02*
D03*
X0346480Y0377250D02*
D03*
X0340968D02*
D03*
X0207371Y0321233D02*
D03*
X0212882D02*
D03*
X0115285Y0329746D02*
D03*
X0120797D02*
D03*
G54D138*
X0150541Y0277905D02*
D03*
X0146604D02*
D03*
X0150552Y0281930D02*
D03*
X0146615D02*
D03*
X0098612Y0309500D02*
D03*
X0102549D02*
D03*
X0101108Y0273714D02*
D03*
X0105045D02*
D03*
X0101105Y0269383D02*
D03*
X0105043D02*
D03*
X0113263Y0269400D02*
D03*
X0109326D02*
D03*
X0299749Y0341514D02*
D03*
X0295812D02*
D03*
X0237118Y0237174D02*
D03*
X0241055D02*
D03*
X0237118Y0253630D02*
D03*
X0241055D02*
D03*
X0107206Y0381066D02*
D03*
X0103269D02*
D03*
X0134248Y0322965D02*
D03*
X0138185D02*
D03*
X0130700Y0272862D02*
D03*
X0126763D02*
D03*
X0150075Y0305903D02*
D03*
X0146139D02*
D03*
X0139283Y0309159D02*
D03*
X0135346D02*
D03*
X0098586Y0305633D02*
D03*
X0102523D02*
D03*
X0110749Y0334603D02*
D03*
X0106812D02*
D03*
X0121015Y0324796D02*
D03*
X0117078D02*
D03*
X0150510Y0285820D02*
D03*
X0146573D02*
D03*
X0122175Y0336494D02*
D03*
X0118237D02*
D03*
X0136300Y0206368D02*
D03*
X0140237D02*
D03*
X0323712Y0287067D02*
D03*
X0327649D02*
D03*
X0323712Y0283067D02*
D03*
X0327649D02*
D03*
X0288098Y0247232D02*
D03*
X0284161D02*
D03*
X0247561D02*
D03*
X0243624D02*
D03*
X0247461Y0241630D02*
D03*
X0243524D02*
D03*
X0140163Y0384835D02*
D03*
X0136226D02*
D03*
X0110749Y0340312D02*
D03*
X0106812D02*
D03*
X0104563Y0368712D02*
D03*
X0100626D02*
D03*
X0150504Y0289795D02*
D03*
X0146567D02*
D03*
X0174647Y0190896D02*
D03*
X0170710D02*
D03*
X0140237Y0259400D02*
D03*
X0136300D02*
D03*
X0140237Y0263400D02*
D03*
X0136300D02*
D03*
X0149750Y0206368D02*
D03*
X0145813D02*
D03*
X0104492Y0373098D02*
D03*
X0100555D02*
D03*
X0163367Y0354273D02*
D03*
X0159430D02*
D03*
X0159237Y0347712D02*
D03*
X0163174D02*
D03*
X0284531Y0242901D02*
D03*
X0288469D02*
D03*
X0160419Y0259400D02*
D03*
X0164356D02*
D03*
X0165676Y0262952D02*
D03*
X0169613D02*
D03*
X0107206Y0377066D02*
D03*
X0103269D02*
D03*
G54D139*
X0336217Y0419850D02*
D03*
Y0414339D02*
D03*
X0371035Y0422644D02*
D03*
Y0428156D02*
D03*
X0315560Y0246874D02*
D03*
Y0252386D02*
D03*
X0293200Y0441706D02*
D03*
Y0436194D02*
D03*
X0286917Y0436294D02*
D03*
Y0441806D02*
D03*
X0291650Y0400644D02*
D03*
Y0406156D02*
D03*
X0309684Y0252488D02*
D03*
Y0246976D02*
D03*
X0122200Y0476156D02*
D03*
Y0470644D02*
D03*
X0354137Y0412309D02*
D03*
Y0406797D02*
D03*
X0134200Y0476156D02*
D03*
Y0470644D02*
D03*
X0127301Y0538733D02*
D03*
Y0544245D02*
D03*
X0103300Y0543438D02*
D03*
Y0537926D02*
D03*
X0198216Y0471038D02*
D03*
Y0465526D02*
D03*
X0233200Y0559156D02*
D03*
Y0553644D02*
D03*
X0122200Y0459644D02*
D03*
Y0465156D02*
D03*
X0128200Y0465156D02*
D03*
Y0459644D02*
D03*
X0134200Y0459644D02*
D03*
Y0465156D02*
D03*
X0128200Y0470644D02*
D03*
Y0476156D02*
D03*
X0170200Y0497644D02*
D03*
Y0503156D02*
D03*
X0096608Y0540996D02*
D03*
Y0535484D02*
D03*
X0307200Y0304681D02*
D03*
Y0299169D02*
D03*
X0131301Y0329644D02*
D03*
Y0335156D02*
D03*
X0160200Y0340666D02*
D03*
Y0335154D02*
D03*
G54D140*
X0132507Y0252101D02*
D03*
X0131800Y0214699D02*
D03*
G54D141*
X0364524Y0431629D02*
D03*
Y0424148D02*
D03*
X0354484D02*
D03*
Y0427889D02*
D03*
Y0431629D02*
D03*
X0328172Y0422375D02*
D03*
Y0414895D02*
D03*
X0318132D02*
D03*
Y0418635D02*
D03*
Y0422375D02*
D03*
G54D142*
X0255410Y0453156D02*
D03*
X0249810D02*
D03*
G54D143*
X0285161Y0448533D02*
D03*
Y0454133D02*
D03*
X0111776Y0628744D02*
D03*
Y0623144D02*
D03*
G54D144*
X0154604Y0285966D02*
D03*
Y0289903D02*
D03*
X0134770Y0272964D02*
D03*
Y0276901D02*
D03*
X0113200Y0273421D02*
D03*
Y0277358D02*
D03*
X0121912Y0269431D02*
D03*
Y0273369D02*
D03*
X0126025Y0332244D02*
D03*
Y0336181D02*
D03*
X0228540Y0244438D02*
D03*
Y0248375D02*
D03*
X0112754Y0376213D02*
D03*
Y0380150D02*
D03*
X0315492Y0268662D02*
D03*
Y0272599D02*
D03*
X0232615Y0244431D02*
D03*
Y0248369D02*
D03*
X0239082Y0261432D02*
D03*
Y0265369D02*
D03*
X0121745Y0386189D02*
D03*
Y0390126D02*
D03*
X0112608Y0384244D02*
D03*
Y0388181D02*
D03*
X0139298Y0305368D02*
D03*
Y0301431D02*
D03*
X0118650Y0314635D02*
D03*
Y0310698D02*
D03*
X0149939Y0302155D02*
D03*
Y0298218D02*
D03*
X0122600Y0314635D02*
D03*
Y0310698D02*
D03*
X0154627Y0281679D02*
D03*
Y0277742D02*
D03*
X0237697Y0282359D02*
D03*
Y0286296D02*
D03*
X0254492Y0235599D02*
D03*
Y0231662D02*
D03*
X0145970Y0302187D02*
D03*
Y0298250D02*
D03*
X0135200Y0305313D02*
D03*
Y0301377D02*
D03*
X0138206Y0332239D02*
D03*
Y0336176D02*
D03*
X0142206Y0332239D02*
D03*
Y0336176D02*
D03*
X0310736Y0268662D02*
D03*
Y0272599D02*
D03*
X0324461Y0300084D02*
D03*
Y0304021D02*
D03*
X0165394Y0206368D02*
D03*
Y0202432D02*
D03*
X0170527Y0206476D02*
D03*
Y0202539D02*
D03*
X0137827Y0175481D02*
D03*
Y0179418D02*
D03*
X0133917Y0179418D02*
D03*
Y0175481D02*
D03*
X0258700Y0230762D02*
D03*
Y0234699D02*
D03*
X0116559Y0384212D02*
D03*
Y0388149D02*
D03*
G54D145*
X0270787Y0464400D02*
D03*
X0278787D02*
D03*
G54D146*
X0283943Y0474400D02*
D03*
X0270557D02*
D03*
G54D147*
X0328283Y0430305D02*
D03*
X0334189D02*
D03*
G54D148*
X0084200Y0279113D02*
D03*
Y0273207D02*
D03*
Y0267302D02*
D03*
G54D149*
X0108004Y0576733D02*
D03*
X0104044Y0572773D02*
D03*
X0109736Y0635847D02*
D03*
X0105776Y0631887D02*
D03*
X0103830Y0640847D02*
D03*
X0099871Y0636887D02*
D03*
G54D150*
X0093416Y0286616D02*
D03*
X0096200Y0289400D02*
D03*
G54D151*
X0305358Y0341758D02*
D03*
X0311264D02*
D03*
G54D152*
X0299350Y0451900D02*
D03*
X0293050D02*
D03*
G54D153*
X0205974Y0468006D02*
D03*
Y0474305D02*
D03*
G54D154*
X0311335Y0224336D02*
D03*
X0291650D02*
D03*
G54D155*
X0210200Y0666195D02*
D03*
X0172720D02*
D03*
X0307511D02*
D03*
X0106859Y0525081D02*
D03*
Y0485081D02*
D03*
X0394342Y0445250D02*
D03*
Y0405250D02*
D03*
G54D156*
X0247680Y0666195D02*
D03*
X0344991D02*
D03*
G54D157*
X0392093Y0310450D02*
D03*
G54D158*
Y0330135D02*
D03*
Y0349820D02*
D03*
Y0369505D02*
D03*
Y0389190D02*
D03*
G54D159*
X0395200Y0177400D02*
D03*
X0093200Y0689400D02*
D03*
Y0177400D02*
D03*
X0395200Y0689400D02*
D03*
G54D160*
X0174878Y0165304D02*
D03*
X0143776D02*
D03*
G54D161*
X0382093Y0289955D02*
D03*
X0392093D02*
D03*
G54D162*
X0402093D02*
D03*
G54D163*
X0173200Y0537400D02*
D03*
X0353200Y0628744D02*
D03*
X0318998Y0531936D02*
D03*
X0160000Y0633219D02*
D03*
X0205200Y0634189D02*
D03*
X0254634Y0634400D02*
D03*
X0151866Y0537400D02*
D03*
X0215200Y0529400D02*
D03*
X0238760D02*
D03*
X0259200D02*
D03*
X0196247D02*
D03*
G54D164*
X0393200Y0234400D02*
D03*
Y0244400D02*
D03*
G54D165*
Y0254400D02*
D03*
G54D166*
X0256865Y0606269D02*
D03*
X0251956Y0610192D02*
D03*
X0286917Y0587900D02*
D03*
X0199232Y0591176D02*
D03*
X0194231Y0595176D02*
D03*
X0185231Y0587176D02*
D03*
X0189232D02*
D03*
X0194231D02*
D03*
X0199232D02*
D03*
X0189232Y0591176D02*
D03*
X0185231D02*
D03*
X0189232Y0595176D02*
D03*
X0185231D02*
D03*
X0199232Y0599176D02*
D03*
X0194231D02*
D03*
X0189232D02*
D03*
X0185231D02*
D03*
X0128605Y0614837D02*
D03*
X0119605Y0606837D02*
D03*
X0123605D02*
D03*
X0128605D02*
D03*
X0133605D02*
D03*
X0128605Y0610837D02*
D03*
X0123605D02*
D03*
X0119605D02*
D03*
X0133605Y0614837D02*
D03*
X0123605D02*
D03*
X0119605D02*
D03*
X0133605Y0618837D02*
D03*
X0128605D02*
D03*
X0123605D02*
D03*
X0119605D02*
D03*
X0156540Y0599028D02*
D03*
X0161540D02*
D03*
X0166540D02*
D03*
X0152540Y0595028D02*
D03*
X0156540D02*
D03*
X0152540Y0591028D02*
D03*
X0156540D02*
D03*
X0161540Y0587028D02*
D03*
X0156540D02*
D03*
X0152540D02*
D03*
X0161540Y0595028D02*
D03*
X0242865Y0618269D02*
D03*
X0246865D02*
D03*
X0251865D02*
D03*
X0256865D02*
D03*
X0242865Y0614269D02*
D03*
X0246865D02*
D03*
X0256865D02*
D03*
X0242865Y0610269D02*
D03*
X0246865D02*
D03*
X0251865Y0606269D02*
D03*
X0246865D02*
D03*
X0242865D02*
D03*
X0277661Y0599971D02*
D03*
X0281661D02*
D03*
X0286661D02*
D03*
X0291661D02*
D03*
X0277661Y0595971D02*
D03*
X0281661D02*
D03*
X0291661D02*
D03*
X0277661Y0591971D02*
D03*
X0281661D02*
D03*
X0291661Y0587971D02*
D03*
X0281661D02*
D03*
X0277661D02*
D03*
X0286661Y0595971D02*
D03*
X0216785Y0618076D02*
D03*
X0220785D02*
D03*
X0225785D02*
D03*
X0230785D02*
D03*
X0216785Y0614076D02*
D03*
X0220785D02*
D03*
X0230785D02*
D03*
X0216785Y0610076D02*
D03*
X0220785D02*
D03*
X0225785D02*
D03*
X0230785Y0606076D02*
D03*
X0225785D02*
D03*
X0220785D02*
D03*
X0216785D02*
D03*
X0225785Y0614076D02*
D03*
X0230785Y0610076D02*
D03*
X0166540Y0591028D02*
D03*
X0161540D02*
D03*
X0199232Y0595176D02*
D03*
X0194231Y0591176D02*
D03*
X0166540Y0595028D02*
D03*
X0256865Y0610372D02*
D03*
X0251865Y0614372D02*
D03*
X0286813Y0591750D02*
D03*
X0291661Y0591800D02*
D03*
X0166540Y0587081D02*
D03*
X0133605Y0610837D02*
D03*
X0152540Y0599028D02*
D03*
G54D167*
X0199169Y0484628D02*
D03*
Y0496046D02*
D03*
X0204877Y0490337D02*
D03*
X0193460D02*
D03*
X0199169D02*
D03*
X0122797Y0292153D02*
D03*
X0116990Y0297960D02*
D03*
Y0292153D02*
D03*
Y0286346D02*
D03*
X0111183Y0292153D02*
D03*
X0144667Y0362254D02*
D03*
X0140021Y0366900D02*
D03*
Y0362254D02*
D03*
X0144667Y0356782D02*
D03*
X0140021Y0352136D02*
D03*
Y0356782D02*
D03*
X0129903D02*
D03*
X0134548Y0352136D02*
D03*
Y0356782D02*
D03*
Y0362254D02*
D03*
Y0366900D02*
D03*
X0129903Y0362254D02*
D03*
X0268287Y0449758D02*
D03*
X0274113D02*
D03*
X0271200Y0454679D02*
D03*
Y0444837D02*
D03*
M02*
